<svg xmlns="http://www.w3.org/2000/svg" xmlns:xlink="http://www.w3.org/1999/xlink" width="40" height="41"><defs><path id="a" d="M0 .73h39.27V40H0z"/></defs><g fill="none" fill-rule="evenodd"><path d="M10.968 25.897a.21.21 0 01.066.144v.654a.218.218 0 01-.066.157.21.21 0 01-.144.065h-.132v3.43c0 .065-.026.13-.077.183s-.118.08-.184.08h-.746a.26.26 0 01-.183-.079.259.259 0 01-.078-.183v-4.242c0-.078.026-.13.078-.196a.255.255 0 01.183-.08h1.14c.052 0 .105.026.144.066m5.38.852c.052.065.065.13.065.196v.5c0 .065-.026.13-.078.182a.26.26 0 01-.183.08h-.733a.235.235 0 01-.183-.08c-.065-.052-.1-.117-.1-.182v-.105c0-.066-.028-.118-.067-.184l-.183-.17a.24.24 0 00-.183-.08H13.55a.262.262 0 00-.196.08l-.17.17a.237.237 0 00-.08.184v1.74c0 .08.026.144.08.196l.17.17c.052.052.117.08.196.08h1.164a.235.235 0 00.183-.08l.183-.17a.384.384 0 00.067-.196V29a.23.23 0 01.09-.183c.052-.052.105-.092.183-.092h.733c.066 0 .132.04.183.092s.078.117.078.183v.5c0 .066-.012.132-.065.183l-.837.838a.325.325 0 01-.183.08h-2.4a.27.27 0 01-.196-.079L11.9 29.7a.269.269 0 01-.08-.196V26.91c0-.052.027-.116.08-.183l.812-.824a.265.265 0 01.196-.08h2.4c.052 0 .116.026.183.08l.837.837zm4.072 2.146a.163.163 0 01-.053.13l-.575.55c-.04.04-.08.066-.13.066h-.982a.2.2 0 01-.13-.066l-.13-.13a.168.168 0 01-.053-.13v-.327c0-.04.013-.08.053-.118l.157-.157a.165.165 0 01.13-.052h1.532c.052 0 .104.013.13.052.04.04.053.08.053.13v.052zm1.374.642h-.118v-2.58c0-.065-.013-.118-.052-.144l-.916-.916a.21.21 0 00-.144-.066H18.26c-.052 0-.092.026-.13.066l-.916.916c-.04.026-.052.08-.052.144v.276c0 .052.013.092.052.13a.17.17 0 00.13.052h.864a.219.219 0 00.144-.052c.04-.04.052-.08.052-.13a.18.18 0 01.053-.132l.183-.183a.158.158 0 01.132-.065h1.283c.04 0 .1.026.13.052l.197.196c.026.04.04.08.04.132v.327a.195.195 0 01-.053.144c-.026.04-.077.052-.13.052h-2.16c-.052 0-.1.012-.13.052l-.772.772a.17.17 0 00-.052.132v.942c0 .052.013.092.052.13l.772.772c.04.04.078.053.13.053h1.676c.04 0 .078-.013.13-.04l.328-.327a.23.23 0 01.13-.066.21.21 0 01.132.052c.04.04.052.092.052.144v.053c0 .052.027.1.066.13s.078.053.132.053h1.073c.066 0 .118-.013.157-.053.04-.052.066-.1.066-.157v-.64c0-.143-.08-.222-.223-.222z" fill="#00FF7D"/><g transform="translate(0 .159)"><mask id="b" fill="#fff"><use xlink:href="#a"/></mask><path d="M29.205 26.413a2.05 2.05 0 01-.642 1.505l-6.402 6.18c-.42.42-.916.64-1.478.64H9.805c-.576 0-1.06-.222-1.492-.64L6.82 32.604c-.04-.052-.092-.092-.13-.144a2.023 2.023 0 01-.5-.38L4.712 30.6c-.43-.432-.64-.916-.64-1.48v-3.574c0-.497.2-.956.64-1.374l1.676-1.688c.432-.42.916-.628 1.48-.628h19.2l.288.013h.354a1.49 1.49 0 011.492 1.492v2.016c0 .065 0 .118-.013.17l.027.34v.524zM33.472.73H5.8A5.81 5.81 0 000 6.528V34.2a5.81 5.81 0 005.799 5.798h27.673A5.81 5.81 0 0039.27 34.2V6.528A5.81 5.81 0 0033.472.729z" fill="#00FF7D" mask="url(#b)"/></g></g></svg>