<svg width="21" height="16" xmlns="http://www.w3.org/2000/svg" xmlns:xlink="http://www.w3.org/1999/xlink"><defs><path id="a" d="M0 0h21v16H0z"/></defs><g fill="none" fill-rule="evenodd"><mask id="b" fill="#fff"><use xlink:href="#a"/></mask><path d="M20.157.933C19.601.306 18.911 0 18.102 0H5.494c-.817 0-1.525.306-2.14.933L.918 3.421C.302 4.037 0 4.715 0 5.436v5.281c0 .833.302 1.552.918 2.179l2.131 2.178c.615.616 1.323.926 2.141.926h3.6c.808 0 1.525-.31 2.133-.926l9.16-9.014c.615-.624.917-1.345.917-2.176v-.773c0-.83-.278-1.561-.843-2.178" fill="#00FF7D" mask="url(#b)"/></g></svg>