<svg width="40" height="27" xmlns="http://www.w3.org/2000/svg" xmlns:xlink="http://www.w3.org/1999/xlink"><defs><path id="a" d="M0 .263h39.78v24.968H0z"/></defs><g fill="none" fill-rule="evenodd"><g transform="translate(0 .353)"><mask id="b" fill="#fff"><use xlink:href="#a"/></mask><path d="M37.822 24.384H28.2c.032-.03.068-.053.098-.084l2.699-2.609.58.583c.79.78 1.723 1.174 2.772 1.174h3.997c.19 0 .377-.02.563-.046a1.1 1.1 0 01-1.086.982zM.847 23.274V2.22c0-.613.498-1.11 1.11-1.11H22.23l-2.635 2.644c-.788.775-1.187 1.65-1.187 2.601v2.41l-2.006 2.014c-.787.775-1.187 1.65-1.187 2.6v5.762c0 1.072.387 1.98 1.183 2.774l2.37 2.381c.033.033.069.057.103.088H1.958c-.613 0-1.111-.498-1.111-1.11zM38.934 2.22V4.86h-4.248c-1.056 0-1.991.399-2.776 1.186l-.835.838H21.88a3.74 3.74 0 00-2.34.798V6.355c0-.637.286-1.24.853-1.8l2.702-2.713c.168-.167.344-.311.523-.429l.466-.304h13.74c.612 0 1.11.498 1.11 1.11zM20.248 24.014a3.188 3.188 0 01-.683-.519l-2.367-2.377c-.581-.582-.853-1.21-.853-1.977V13.38c0-.636.286-1.24.854-1.8l1.209-1.214v1.75c0 1.073.388 1.98 1.183 2.775l2.37 2.38c.79.778 1.722 1.174 2.773 1.174h3.518c.194.526.507 1.003.954 1.449l.992.997-2.692 2.603a3.062 3.062 0 01-.684.52l-.67.37h-5.238l-.666-.37zM38.934 8.506l-.01.009a4.263 4.263 0 00-.349-.426c-.72-.8-1.63-1.204-2.7-1.204H32.67l.039-.04c.583-.583 1.21-.854 1.977-.854h4.248v2.515zm-.59 13.81h-3.996c-.763 0-1.391-.268-1.975-.843l-.564-.566 6.664-6.446a4.39 4.39 0 00.46-.55v8.33c-.19.042-.385.076-.588.076zm-6.852-5.04l7.015-6.786c.014.116.02.235.02.354v.842c0 .757-.278 1.403-.846 1.968l-6.67 6.45-1.005-1.009c-.23-.23-.41-.467-.546-.718.758-.143 1.44-.513 2.032-1.102zm6.25-8.424c.136.146.255.3.356.461L30.7 16.47c-.453.45-.97.723-1.542.812a3.558 3.558 0 01-.005-.163v-5.76c0-.637.286-1.241.854-1.8l1.537-1.544h4.331c.737 0 1.363.28 1.868.838zm-9.715 8.462h-3.293c-.752 0-1.4-.276-1.976-.844l-2.367-2.377c-.582-.58-.853-1.21-.853-1.977V9.232l.364-.365c.582-.582 1.21-.853 1.977-.853h8.07l-.739.742c-.788.775-1.188 1.651-1.188 2.601v5.76c0 .067.002.132.005.197zM37.822.263H1.958A1.96 1.96 0 000 2.22v21.053a1.96 1.96 0 001.958 1.958h35.864a1.96 1.96 0 001.958-1.958V2.22A1.96 1.96 0 0037.822.263z" fill="#00FF7D" mask="url(#b)"/></g><path d="M4.465 22.093h-.001l-.017-.011a.472.472 0 01-.22.184c-.182.08-.351.06-.472-.047l-.012.016-.206.31a.856.856 0 00.857.08.854.854 0 00.386-.321l-.315-.21zm-.646-.763a.447.447 0 00-.27.475l.814-.351c-.14-.165-.322-.22-.544-.124zm-.54.942a.88.88 0 01-.081-.78.874.874 0 01.47-.513.904.904 0 011.2.508l.03.079-1.62.706zM5.465 20.524v1.72l.268.108-.153.354-.295-.122a.336.336 0 01-.145-.123.377.377 0 01-.057-.213v-1.724h.382z" fill="#00FF7D"/><path d="M6.157 21.805c0-.146.065-.277.167-.367l-.274-.306a.897.897 0 000 1.346l.274-.306a.487.487 0 01-.167-.367M6.645 22.293a.492.492 0 01-.155-.025l-.13.39a.899.899 0 001.166-.67l-.403-.084a.488.488 0 01-.478.39M6.646 20.908c-.1 0-.195.015-.285.045l.13.39a.487.487 0 01.632.366l.403-.082a.9.9 0 00-.88-.72M8.038 3.92a.646.646 0 00-.499-.223H4.48a.712.712 0 00-.52.223l-.592.593c-.15.148-.222.309-.222.481v1.26c0 .199.073.37.222.52l.517.519c.15.147.322.221.52.221h.874c.196 0 .37-.074.518-.221l2.223-2.15a.705.705 0 00.223-.519V4.44a.738.738 0 00-.205-.52" fill="#00FF7D"/></g></svg>