<svg width="24" height="41" xmlns="http://www.w3.org/2000/svg" xmlns:xlink="http://www.w3.org/1999/xlink"><defs><path id="a" d="M0 .066h23.48V39.2H0z"/><path id="c" d="M0 39.935h23.48V.8H0z"/></defs><g fill="none" fill-rule="evenodd"><g transform="translate(0 .735)"><mask id="b" fill="#fff"><use xlink:href="#a"/></mask><path d="M22.176 24.85c0 1.082-.876 1.957-1.957 1.957H3.261a1.956 1.956 0 01-1.957-1.956V3.327c0-1.081.876-1.957 1.957-1.957h16.958c1.081 0 1.957.876 1.957 1.957V24.85zM19.567 35.94c0 1.08-.876 1.957-1.956 1.957v-9.784h1.956v7.827zm-5.87 1.956h2.609v-9.783h-2.61v9.783zm-9.784-1.956v-7.827h8.48v9.784H5.87a1.957 1.957 0 01-1.957-1.957zM20.219.066H3.261a3.265 3.265 0 00-3.262 3.26v21.525a3.269 3.269 0 002.61 3.196v7.892a3.267 3.267 0 003.26 3.261h11.742a3.266 3.266 0 003.26-3.261v-7.892a3.267 3.267 0 002.61-3.196V3.327A3.264 3.264 0 0020.218.066z" fill="#00FF7D" mask="url(#b)"/></g><path d="M12.01 8.627l3.914-3.914h3.643v3.914H12.01zM3.913 4.713h4.948L4.948 8.627H3.913V4.713zm2.88 3.914l3.913-3.914h3.373l-3.913 3.914H6.793zM19.567 3.41H3.913c-.72 0-1.305.583-1.305 1.303v3.914c0 .72.585 1.305 1.305 1.305h15.654c.721 0 1.304-.584 1.304-1.305V4.713c0-.72-.583-1.303-1.304-1.303z" fill="#00FF7D"/><mask id="d" fill="#fff"><use xlink:href="#c"/></mask><path d="M3.913 13.845h2.61V12.54h-2.61v1.305zm2.61-2.61h-2.61c-.72 0-1.305.584-1.305 1.305v1.305c0 .72.585 1.305 1.305 1.305h2.61c.72 0 1.304-.584 1.304-1.305V12.54c0-.72-.585-1.305-1.305-1.305zM10.436 13.845h2.61V12.54h-2.61v1.305zm2.609-2.61h-2.609c-.72 0-1.305.584-1.305 1.305v1.305c0 .72.584 1.305 1.305 1.305h2.609c.72 0 1.305-.584 1.305-1.305V12.54c0-.72-.584-1.305-1.305-1.305zM16.958 13.845h2.61V12.54h-2.61v1.305zm2.61-2.61h-2.61c-.72 0-1.304.584-1.304 1.305v1.305c0 .72.584 1.305 1.304 1.305h2.61c.72 0 1.303-.584 1.303-1.305V12.54c0-.72-.583-1.305-1.303-1.305zM3.913 19.063h2.61v-1.305h-2.61v1.305zm2.61-2.61h-2.61c-.72 0-1.305.585-1.305 1.305v1.305c0 .72.585 1.304 1.305 1.304h2.61c.72 0 1.304-.584 1.304-1.304v-1.305c0-.72-.585-1.304-1.305-1.304zM10.436 19.063h2.61v-1.305h-2.61v1.305zm2.609-2.61h-2.609c-.72 0-1.305.585-1.305 1.305v1.305c0 .72.584 1.304 1.305 1.304h2.609c.72 0 1.305-.584 1.305-1.304v-1.305c0-.72-.584-1.304-1.305-1.304zM16.958 19.063h2.61v-1.305h-2.61v1.305zm2.61-2.61h-2.61c-.72 0-1.304.585-1.304 1.305v1.305c0 .72.584 1.304 1.304 1.304h2.61c.72 0 1.303-.584 1.303-1.304v-1.305c0-.72-.583-1.304-1.303-1.304zM3.913 24.281h2.61v-1.304h-2.61v1.304zm2.61-2.609h-2.61c-.72 0-1.305.583-1.305 1.305v1.304c0 .72.585 1.304 1.305 1.304h2.61c.72 0 1.304-.584 1.304-1.304v-1.304c0-.722-.585-1.305-1.305-1.305zM10.436 24.281h2.61v-1.304h-2.61v1.304zm2.609-2.609h-2.609c-.72 0-1.305.583-1.305 1.305v1.304c0 .72.584 1.304 1.305 1.304h2.609c.72 0 1.305-.584 1.305-1.304v-1.304c0-.722-.584-1.305-1.305-1.305zM16.958 24.281h2.61v-1.304h-2.61v1.304zm2.61-2.609h-2.61c-.72 0-1.304.583-1.304 1.305v1.304c0 .72.584 1.304 1.304 1.304h2.61c.72 0 1.303-.584 1.303-1.304v-1.304c0-.722-.583-1.305-1.303-1.305zM5.672 33.56a.49.49 0 00-.168.377v2.311c0 .15.056.28.168.392l.45.447c.11.113.232.168.362.168h.95c.151 0 .28-.055.393-.168l.393-.39a.546.546 0 00.166-.393v-.66a.54.54 0 00-.166-.39l-1.624-1.68a.53.53 0 00-.392-.167h-.14c-.148 0-.28.05-.392.153" fill="#00FF7D" mask="url(#d)"/></g></svg>