<svg width="243" height="243" xmlns="http://www.w3.org/2000/svg"><g fill="#000" fill-rule="nonzero"><path d="M234.442 135.471a4.738 4.738 0 00-1.97-6.417c-26.688-14.131-59.242-10.742-82.367 8.194l-7.695-7.668 12.567-12.522a4.734 4.734 0 000-6.712 4.775 4.775 0 00-6.736 0l-12.567 12.522-30.663-30.553c6.975-9.32 11.362-20.268 12.746-31.925 1.594-13.438-.943-26.88-7.338-38.87a4.771 4.771 0 00-6.44-1.964 4.737 4.737 0 00-1.972 6.417c10.258 19.235 8.653 42.074-3.813 59.549L77.987 65.387a11.665 11.665 0 00-10.781-3.138 11.623 11.623 0 00-8.458 7.365L.73 227.33c-1.585 4.307-.547 8.999 2.71 12.243 2.248 2.24 5.188 3.427 8.216 3.427 1.358 0 2.732-.239 4.07-.727l158.278-57.813a11.609 11.609 0 007.392-8.427 11.568 11.568 0 00-3.15-10.743L156.882 144c20.124-16 48.12-18.744 71.12-6.564a4.771 4.771 0 006.441-1.965zM75.858 210.2l-42.94-42.788 11.897-32.343 63.5 63.275L75.859 210.2zM52.584 218.7l-28.198-28.098 4.918-13.368L66 213.8l-13.416 4.9zm-40.136 14.66c-1.129.412-1.909-.136-2.274-.5-.365-.363-.915-1.14-.501-2.264l11.099-30.171 21.954 21.876-30.278 11.059zm159.646-59.372c-.095.43-.4 1.206-1.368 1.56l-29.279 10.694-27.089-26.993a4.775 4.775 0 00-6.735 0 4.734 4.734 0 000 6.71l23.966 23.883-13.416 4.9-69.744-69.496 4.918-13.368 23.967 23.881a4.755 4.755 0 003.368 1.39 4.757 4.757 0 003.367-1.39 4.733 4.733 0 000-6.711L56.96 102.056l10.733-29.175c.355-.964 1.132-1.268 1.565-1.363.131-.029.3-.054.492-.054.438 0 .996.13 1.502.635l100.26 99.902c.728.727.677 1.558.582 1.988zM143.831 38a4.831 4.831 0 004.831-4.831c0-4.046 3.292-7.338 7.338-7.338 9.374 0 17-7.626 17-17a4.831 4.831 0 00-9.662 0c0 4.046-3.292 7.338-7.338 7.338-9.374 0-17 7.626-17 17A4.831 4.831 0 00143.831 38zM184.678 83c9.374 0 17-7.626 17-17 0-4.215 3.429-7.644 7.644-7.644a4.678 4.678 0 000-9.356c-9.373 0-17 7.626-17 17 0 4.215-3.429 7.644-7.644 7.644a4.678 4.678 0 000 9.356zM213 91c0 8.271 6.729 15 15 15s15-6.729 15-15-6.729-15-15-15-15 6.729-15 15zm15-5.625A5.631 5.631 0 01233.625 91 5.631 5.631 0 01228 96.625 5.631 5.631 0 01222.375 91 5.631 5.631 0 01228 85.375z"/><path d="M150 81c8.271 0 15-6.729 15-15s-6.729-15-15-15-15 6.729-15 15 6.73 15 15 15zm0-20.625A5.631 5.631 0 01155.625 66 5.631 5.631 0 01150 71.625 5.631 5.631 0 01144.375 66 5.631 5.631 0 01150 60.375zM61 30c8.271 0 15-6.729 15-15S69.271 0 61 0 46 6.729 46 15s6.729 15 15 15zm0-20.625A5.631 5.631 0 0166.625 15 5.631 5.631 0 0161 20.625 5.631 5.631 0 0155.375 15 5.631 5.631 0 0161 9.375zM214.542 166.294a4.419 4.419 0 00-6.248 6.247l4.165 4.165a4.403 4.403 0 003.123 1.294 4.418 4.418 0 003.124-7.542l-4.164-4.164zM237.542 189.294a4.418 4.418 0 00-6.248 6.247l4.165 4.165a4.404 4.404 0 003.123 1.294 4.418 4.418 0 003.124-7.541l-4.164-4.165zM235.459 166.294l-4.165 4.165a4.418 4.418 0 006.247 6.247l4.165-4.165a4.418 4.418 0 00-6.247-6.247zM212.459 189.294l-4.165 4.165a4.418 4.418 0 006.247 6.247l4.165-4.165a4.418 4.418 0 00-6.247-6.247zM234.418 13c1.13 0 2.261-.431 3.123-1.294l4.165-4.165a4.418 4.418 0 00-6.247-6.247l-4.165 4.165A4.418 4.418 0 00234.418 13zM211.418 36c1.13 0 2.26-.431 3.123-1.294l4.165-4.165a4.418 4.418 0 00-6.247-6.247l-4.165 4.165A4.418 4.418 0 00211.418 36zM237.542 24.294a4.418 4.418 0 00-6.248 6.247l4.165 4.165A4.404 4.404 0 00238.582 36a4.418 4.418 0 003.124-7.541l-4.164-4.165zM212.459 11.706A4.403 4.403 0 00215.583 13a4.418 4.418 0 003.124-7.541l-4.166-4.165a4.418 4.418 0 00-6.247 6.247l4.165 4.165zM95 144a4.03 4.03 0 00-2.828 1.172A4.03 4.03 0 0091 148a4.03 4.03 0 001.172 2.828A4.03 4.03 0 0095 152a4.03 4.03 0 002.828-1.172A4.03 4.03 0 0099 148a4.03 4.03 0 00-1.172-2.828A4.03 4.03 0 0095 144zM164.856 92.397l-3.459 3.459a4.771 4.771 0 006.747 6.747l3.459-3.459a4.771 4.771 0 00-6.747-6.747z"/></g></svg>