<svg width="40" height="42" xmlns="http://www.w3.org/2000/svg" xmlns:xlink="http://www.w3.org/1999/xlink"><defs><path id="a" d="M0 .27h39.73V40H0z"/></defs><g fill="none" fill-rule="evenodd"><path d="M13.945 29.054a1.206 1.206 0 00-.933-.415H7.29c-.372 0-.693.135-.972.415l-1.106 1.11c-.28.275-.416.577-.416.9v2.355c0 .372.136.693.416.972l.967.972c.28.276.6.414.972.414H8.784c.368 0 .693-.138.969-.414l4.158-4.021c.28-.278.417-.601.417-.971v-.345c0-.37-.127-.696-.383-.972" fill="#00FF7D"/><g transform="translate(0 .661)"><mask id="b" fill="#fff"><use xlink:href="#a"/></mask><path d="M37.924 28.262a.904.904 0 01-.903.903h-6.32a3.616 3.616 0 01-3.612-3.612A3.615 3.615 0 0130.7 21.94h6.321c.499 0 .903.405.903.903v5.418zm-3.612 9.933h-30.7c-.996 0-1.806-.81-1.806-1.807V14.716c0-.995.81-1.805 1.806-1.805h30.7c.996 0 1.807.81 1.807 1.805v5.42H30.7a5.423 5.423 0 00-5.417 5.417A5.423 5.423 0 0030.7 30.97h5.419v5.418c0 .996-.811 1.807-1.807 1.807zM25.42 2.316a1.75 1.75 0 011.341-.18c.462.124.846.421 1.085.838l.002.003-13.96 8.128h-3.565L25.42 2.316zm5.114 5.352l1.967 3.437h-7.87l5.903-3.437zm-13.057 3.437l11.269-6.56.89 1.557-8.594 5.003h-3.565zm20.447 9.196v-5.585c0-1.893-1.469-3.432-3.324-3.582l-5.185-9.057A3.567 3.567 0 0027.228.392a3.543 3.543 0 00-2.717.364L6.735 11.106H3.612A3.616 3.616 0 000 14.715v21.672A3.616 3.616 0 003.612 40h30.7a3.615 3.615 0 003.612-3.612v-5.584a2.704 2.704 0 001.806-2.542v-5.418a2.706 2.706 0 00-1.806-2.543z" fill="#00FF7D" mask="url(#b)"/></g><path d="M30.7 24.408c-.995 0-1.805.81-1.805 1.805 0 .996.81 1.807 1.805 1.807.996 0 1.806-.81 1.806-1.807 0-.995-.81-1.805-1.806-1.805" fill="#00FF7D"/></g></svg>