<svg width="77" height="59" xmlns="http://www.w3.org/2000/svg" xmlns:xlink="http://www.w3.org/1999/xlink"><defs><path id="a" d="M0 0h77v59H0z"/></defs><g fill="none" fill-rule="evenodd"><mask id="b" fill="#fff"><use xlink:href="#a"/></mask><path d="M66.983 27.74c.553 0 1.112.277 1.669.828l6.47 6.419C76.373 36.227 77 37.609 77 39.126v8.488c0 1.657-.627 3.038-1.878 4.142l-5.425 5.587C68.304 58.45 66.91 59 65.523 59H54.672c-1.67 0-3.063-.62-4.173-1.864l-6.261-6.416c-.557-.55-.835-1.172-.835-1.862V28.36L54.672 1.656C55.089.55 55.924 0 57.175 0h10.851c.973 0 1.738.345 2.296 1.033.555.693.695 1.522.417 2.485l-6.469 20.91c-.28.826-.14 1.587.418 2.275.553.694 1.32 1.036 2.295 1.036m-43.403 0c.555 0 1.112.278 1.67.829l6.677 6.419c1.112 1.38 1.67 2.762 1.67 4.139v8.488c0 1.657-.558 3.038-1.67 4.142l-5.634 5.587C25.178 58.45 23.788 59 22.119 59H11.27c-1.67 0-3.061-.62-4.174-1.864L.835 50.72C.277 49.891 0 49.271 0 48.858V28.36L11.269 1.656C11.686.55 12.52 0 13.773 0h10.85c.972 0 1.738.345 2.296 1.033.554.693.694 1.522.417 2.485l-6.261 20.91c-.28.826-.175 1.587.314 2.275.486.694 1.216 1.036 2.19 1.036" fill="#00FF7D" mask="url(#b)"/></g></svg>