<svg xmlns="http://www.w3.org/2000/svg" xmlns:xlink="http://www.w3.org/1999/xlink" width="115" height="18"><defs><path id="a" d="M0 .828h5.642V17.62H0z"/><path id="c" d="M.142.828h17.196V17.62H.142z"/></defs><g fill="#fff" fill-rule="evenodd"><g transform="translate(0 .1)"><mask id="b"><use xlink:href="#a"/></mask><path d="M4.904.828c.202 0 .375.073.52.218s.218.32.218.52V3.85a.753.753 0 01-.218.554.71.71 0 01-.521.219h-.437V16.68a.9.9 0 01-.285.655c-.19.2-.4.285-.655.285H.94c-.247 0-.465-.095-.655-.285S0 16.927 0 16.68V1.77a.9.9 0 01.286-.656A.9.9 0 01.94.828h3.963z" mask="url(#b)"/></g><path d="M8.464 13.892V4.756c0-.224.09-.447.268-.67l2.855-2.888a.91.91 0 01.672-.269h8.464c.224 0 .447.09.67.27l2.922 2.955c.18.224.27.448.27.672v1.78a.9.9 0 01-.286.655.9.9 0 01-.656.286h-2.586c-.247 0-.465-.095-.655-.286s-.286-.408-.286-.655V6.27c0-.224-.1-.448-.27-.67l-.638-.606c-.157-.178-.37-.268-.638-.268h-4.098a.91.91 0 00-.671.268l-.606.606a.91.91 0 00-.268.671v6.113a.91.91 0 00.268.671l.606.605c.2.2.425.302.67.302h4.098c.268 0 .48-.1.638-.302l.638-.605c.18-.223.27-.448.27-.67v-.336c0-.247.095-.465.286-.655a.9.9 0 01.655-.286h2.586c.247 0 .465.096.656.286s.286.408.286.655v1.78a.91.91 0 01-.269.671l-2.922 2.956c-.224.18-.448.27-.67.27H12.26a.91.91 0 01-.672-.269l-2.855-2.888a.91.91 0 01-.268-.671"/><g transform="translate(26.895 .1)"><mask id="d"><use xlink:href="#c"/></mask><path d="M11.762 11.575v-.168a.672.672 0 00-.185-.47.59.59 0 00-.454-.201H5.716a.646.646 0 00-.47.2l-.537.538a.608.608 0 00-.2.436v1.143c0 .18.067.336.2.47l.47.47c.135.134.29.202.47.202h3.426a.64.64 0 00.469-.202l2.015-1.948a.64.64 0 00.202-.47zM16.6 13.86c.492 0 .74.247.74.74v2.283c0 .2-.07.376-.202.52s-.313.22-.537.22h-3.796a.65.65 0 01-.47-.2.65.65 0 01-.201-.471v-.168c0-.2-.062-.364-.185-.487a.62.62 0 00-.454-.185.646.646 0 00-.47.2L9.85 17.455a.807.807 0 01-.47.168H3.5a.54.54 0 01-.437-.201L.343 14.7a.54.54 0 01-.201-.437v-3.325c0-.18.067-.336.2-.47l2.72-2.687a.54.54 0 01.437-.202h7.624c.18 0 .33-.067.454-.2a.68.68 0 00.185-.471V5.73a.803.803 0 00-.17-.47l-.67-.67a.81.81 0 00-.471-.169h-4.5c-.2 0-.358.067-.47.202l-.64.637c-.112.113-.168.27-.168.47a.62.62 0 01-.218.471.7.7 0 01-.487.201H.948c-.18 0-.336-.067-.47-.2s-.202-.3-.202-.47v-.974c0-.224.068-.38.202-.47L3.702 1.03c.11-.135.268-.202.47-.202h8.095a.64.64 0 01.47.202l3.224 3.258c.135.09.202.246.202.47v9.103h.437z" mask="url(#d)"/></g><path d="M58.9 13.08c0-2.153-1.586-3.1-4.498-3.1h-5.846v6.226h5.846c2.912 0 4.498-.947 4.498-3.124zM48.565 2.522v6.013h5.28c2.65 0 4.2-1.018 4.2-3.007s-1.54-3.007-4.2-3.007h-5.28zm12.096 10.7c0 2.817-2.083 4.427-6.226 4.427h-7.622V1.08h7.15c3.692 0 5.823 1.562 5.823 4.26 0 1.893-1.017 3.15-2.533 3.763 2.13.474 3.4 1.87 3.4 4.12zm13.752-1.42l-3.977-8.9-3.977 8.9h7.954zm.64 1.42H65.82l-1.988 4.427H62l7.574-16.57h1.728l7.575 16.57H77.04l-1.988-4.427zM95.48 1.078v16.57h-1.445L83.384 4.203v13.445h-1.752V1.078h1.444l10.676 13.445V1.078zm10.532 8.782l-3.384 3.43v4.355h-1.752V1.078h1.752V11.09l9.73-10.013h2.012l-7.173 7.504 7.67 9.066h-2.083z"/></g></svg>