<svg width="62" height="47" xmlns="http://www.w3.org/2000/svg"><g fill="none" fill-rule="evenodd"><path d="M58.278 4.183c-2.618-4.97-30.761-1.698-35.22-2.581-3.82.137-9.235-.842-12.07 2.581-12.842 11.65-8.878 11.13-9.436 27.06-.52 4.606 5.95 9.002 8.58 12.05 3.922 4.178 11.142 2.083 16.154 2.56 5.152 1.453 27.929-24.979 31.784-27.489 3.66-3.694 3.57-10.386.208-14.18z" stroke="#FFF" stroke-width="2.1"/><path d="M27.226 24.5c-.336-.608-1.553-.979-1.635-.023.192.53-.514 3.747.575 3.66.52.074 1.155-.534 1.22-1.035-.065-.302.162-2.425-.16-2.602m-4.26-3.867c-.07-1.127.55-4.877-1.678-2.716-.317.37-.297 2.328 0 2.716.346.596 1.58.954 1.679 0m7.527 3.314c-.039.216.137 4.475-.161 4.489-.284.131-2.256 2.53-2.624 2.37-.333.012-1.725-.113-1.956.16-.611 1.916.78 2.572-2.21 2.372-1.306-.054.151-2.464-1.15-2.531-2.47.33-2.674-.904-4.258-2.326-.231-.486-.474-2.498.413-2.484.526.115 2.553-.394 2.508.575-.374 1.078 1.6 2.39 1.911.966-.056-.329.16-3.304-.172-3.475-.227-.3-1.716-.114-2.037-.161-.54-.105-2.625-2.208-2.738-2.739.045-.239-.144-4.151.16-4.212l2.164-2.14c.549-.593 2.544.408 2.623-.759.087-.472-.32-2.02.577-1.957.319.099 1.663-.174 1.887.162.52.526-.382 2.327.735 2.37h1.405c.352-.145 2.31 2.179 2.578 2.324.227.486.482 2.54-.415 2.509-4.075.1-1.452-.211-3.106-1.98-.392-.335-1.054-.127-1.036.415.05.333-.151 2.959.16 3.152.223.303 1.681.115 2.003.163.53.128 2.604 2.214 2.739 2.737" fill="#FFF"/></g></svg>