<svg width="62" height="48" xmlns="http://www.w3.org/2000/svg"><g fill="none" fill-rule="evenodd"><path d="M58.278 4.311c-2.618-4.97-30.762-1.698-35.22-2.582-3.82.138-9.236-.842-12.07 2.582-12.842 11.649-8.878 11.13-9.435 27.06-.522 4.606 5.95 9.002 8.579 12.05 3.923 4.178 11.142 2.082 16.154 2.56 5.152 1.451 27.929-24.98 31.783-27.49 3.661-3.694 3.57-10.385.209-14.18z" stroke="#FFF" stroke-width="2.1"/><path d="M29.898 17.454c-.39-2.32 2.038-2.055 3.561-2.013.39 2.32-2.038 2.055-3.561 2.013m-6.214-5.705v-.616c2.1-.138 5.143-.161 4.733 2.826-1.726.052-4.774.316-4.733-2.21m2.21 3.692h2.523v4.403c-1.268.06-4.496.457-3.978 2.217.24.33.704.403 1.035.168a4.814 4.814 0 013.598-.841c1.955.06 2.717 1.984 4.074 2.8 2.265-1.13-1.85-3.894-3.248-4.136v-1.116c3.2.341 5.488-.637 5.042-4.26.158-1.254-4.43-.76-5.042-.334.522-4.54-3.501-4.998-6.977-4.689-1.014-.024-.659 1.493-.718 2.096a3.696 3.696 0 003.691 3.692" fill="#FFF"/><path d="M18.152 30.08l-5.124 2.59v-1.554l1.3-.638c1.175-.978-.349-1.875-1.3-1.01V25.8l2.752-1.202c-.005.01 2.43 5.462 2.406 5.469l.182.178-.216-.166zm18.585-4.514c-1.108-2.662-4.397-.281-6.03.366-.875.392-.247 1.76.62 1.345.635-.06 3.635-2.327 4.056-1.11a.68.68 0 01-.346.89l-6.493 2.867c-3.248 1.374-6.06-3.154-9.422-1.42L17.55 24.94c3.92-2.505 6.692-.76 10.515.658.727.258.332 1.402-.405 1.144l-3.696-1.25c-.902-.326-1.39 1.112-.475 1.402l3.696 1.25c2.511.897 3.932-3.056 1.38-3.94-4.194-1.654-7.417-3.27-11.679-.59-1.013-1.396-3.785.752-4.895 1.025-.902-.23-.266 8.885-.444 9.235-.018.54.612.913 1.075.66.929-.867 7.55-2.79 7.039-4.654 3.246-1.188 6.146 3.315 9.482 1.399 1.56-1.196 9.22-2.454 7.595-5.713z" fill="#FFF"/></g></svg>