<svg width="64" height="45" xmlns="http://www.w3.org/2000/svg"><g fill="none" fill-rule="evenodd"><path d="M39.454 18.919c-.631-.545-1.52-1.855-2.467-1.756-1.138.113-3.686-.45-4.418.813-.728-1.268-3.285-.697-4.418-.813-1.235.132-2.855 1.76-2.992 2.99.022.453-.016 1.64 0 2.073-.297 1.07 5.118 5.71 5.629 6.508.835.788 2.729.783 3.561 0 .516-.832 5.91-5.412 5.63-6.508-.1-1.027.331-2.502-.525-3.307" fill="#FFF"/><path d="M60.942 4.097c-1.977-3.755-23.233-1.283-26.6-1.95-2.886.103-6.977-.636-9.119 1.95-9.541 8.497-6.783 8.784-7.125 20.438-.563 3.261 7.77 11.6 11.03 11.036 1.664-.06 6.055.044 7.651 0 3.893 1.096 21.095-18.868 24.006-20.763 2.766-2.79 2.694-7.846.157-10.711z" stroke="#FFF" stroke-width="2.1"/><path d="M3.26 11.974c1.977-3.755 23.233-1.283 26.6-1.95 2.887.104 6.977-.636 9.119 1.95 9.542 8.496 6.783 8.786 7.125 20.439.563 3.26-7.77 11.598-11.03 11.035-1.664-.06-6.055.042-7.65 0C23.53 44.544 6.328 24.58 3.416 22.685c-2.765-2.79-2.695-7.844-.156-10.71z" stroke="#FFF" stroke-width="2.1"/></g></svg>