<svg width="62" height="48" xmlns="http://www.w3.org/2000/svg"><g fill="none" fill-rule="evenodd"><path d="M58.252 4.243c-2.618-4.97-30.761-1.698-35.22-2.581-3.82.137-9.235-.842-12.07 2.581-12.842 11.65-8.878 11.13-9.436 27.06-.52 4.605 5.95 9.002 8.58 12.05 3.923 4.178 11.142 2.083 16.154 2.56 5.153 1.452 27.93-24.98 31.784-27.489 3.66-3.694 3.57-10.386.208-14.18z" stroke="#FFF" stroke-width="2.1"/><path d="M26.417 23.43c1.719-2.078 5.119-9.086 6.492-2.945-5.186-.75.663 5.396-3.594 7.491-1.028 1.327-4.62.482-4.472 2.665.984 3.72-4.371 3.95-6.884 2.706 1.685-1.621 2.92-3.755 4.833-5.063.975-.79.394-1.237-.232-1.543-3.12-.11-3.394-1.598-4.297-4.062-2.058-1.501-2.212-4.103-.446-5.914-.667-1.198-1.134-2.452-.08-3.41 1.054 4.413 3.938 7.69 8.68 10.075m-3.32-4.494c-.186-1.357.965-1.816 1.267-2.848.195-.903-.06-2.076.897-2.603.383 2.177.333 4.453 1.17 6.52.346.621-.296.862-.562 1.327-.869-.827-2.316-1.316-2.772-2.396m12.038 1.937c-1.673-4.15-4.053-6.799-7.394-2.094-.712-2.412-.754-4.743-.76-7.007-2.745-.56-4.234 1.377-4.234 3.923-.515.494-.882 1.122-1.131 1.947-1.22-1.245-2.166-3.749-2.554-6.493-3.675.43-3.632 2.877-3.419 5.789-1.24 2.205-.796 4.912 1.077 6.581.807 1.88 1.382 3.956 3.74 4.538-1.362 1.811-3.572 3.304-4.475 5.342 2.122 3.856 11.863 2.869 10.463-2.533 4.396-.85 7.338-4.154 5.966-8.72.928-.039 3.526.383 2.72-1.273" fill="#FFF"/></g></svg>