<svg width="62" height="47" xmlns="http://www.w3.org/2000/svg"><g stroke="#FFF" stroke-width="2.1" fill="none" fill-rule="evenodd"><path d="M58.278 4.174c-2.618-4.97-30.762-1.698-35.22-2.582-3.82.138-9.236-.842-12.07 2.582-12.842 11.649-8.878 11.13-9.435 27.06-.522 4.606 5.95 9.002 8.579 12.05 3.923 4.178 11.142 2.082 16.154 2.56 5.152 1.451 27.929-24.98 31.783-27.49 3.661-3.694 3.57-10.385.209-14.18z"/><path d="M31.153 17.935h-2.087c.634-5.615-2.784-4.849-6.919-4.83-2.626-.037-2.953 2.82-2.745 4.83-5.616-.634-4.85 2.784-4.83 6.92-.037 2.626 2.82 2.952 4.83 2.744-.634 5.617 2.782 4.85 6.919 4.833 2.627.036 2.952-2.823 2.745-4.833 2.012.204 4.866-.114 4.83-2.746-.083-2.232.797-6.983-2.743-6.918z"/></g></svg>