<svg width="30" height="27" xmlns="http://www.w3.org/2000/svg"><path d="M10.969 4.882h7.626c.065-1.183-.373-1.663-1.507-1.668a472.476 472.476 0 00-4.615 0c-1.13.005-1.578.498-1.504 1.668zm15.576 10.282c-3.364 1.194-6.627 2.34-9.88 3.513-1.262.455-2.494.466-3.754 0-1.6-.59-3.213-1.148-4.82-1.718l-5.06-1.79c-.016.25-.039.433-.039.615-.003 1.783-.01 3.565 0 5.347.01 1.849.803 2.627 2.665 2.628 3.779.003 7.557.001 11.335 0 2.424 0 4.848.013 7.272-.006 1.284-.01 2.215-.718 2.258-1.9.08-2.199.023-4.404.023-6.69zM3.118 7.518c-.02.14-.04.21-.04.279-.003.998-.01 1.996-.001 2.994.01 1.155.473 1.821 1.55 2.207 3.125 1.117 6.248 2.237 9.386 3.315.422.145.971.196 1.382.056 3.274-1.12 6.531-2.29 9.788-3.459.697-.25 1.23-.763 1.276-1.493.083-1.29.023-2.59.023-3.9H3.118zm24.348-2.594c1.197.006 1.626.435 1.628 1.64.006 4.919-.039 9.839.017 14.757.034 2.96-2.152 4.94-4.862 5.014l-.215.002a941.72 941.72 0 00-7.414-.042h-3.707c-1.236.003-2.471.007-3.707.014l-3.707.026C2.554 26.36.413 24.155.453 21.36c.07-4.942.016-9.886.021-14.829.002-1.187.436-1.603 1.658-1.607C3.152 4.92 4.173 4.92 5.2 4.92l1.548.001h1.564c.044-.38.064-.688.117-.988.35-1.975 1.868-3.266 3.881-3.285L13.785.64l1.473.001c.491.002.982.003 1.474.003 2.862 0 4.31 1.348 4.496 4.277h.749c1.83 0 3.66-.007 5.49.002z" fill="#292E31" fill-rule="evenodd"/></svg>