<svg width="64" height="54" xmlns="http://www.w3.org/2000/svg"><g fill="#000" fill-rule="evenodd"><path d="M49.635 16.3H14.628c-.03-.29-.134-.558-.065-.77 1.479-4.525 2.937-9.06 4.526-13.547.173-.487 1.27-1.122 1.686-.974 6.728 2.38 13.358.613 19.993-.386 3.98-.6 3.975-.682 5.188 3.215 1.08 3.473 2.149 6.951 3.207 10.431.185.609.29 1.24.472 2.03M19.05 49.986c3.865.035 7.113-3.113 7.192-6.968.082-3.944-3.11-7.212-7.092-7.26-3.877-.048-7.089 3.072-7.167 6.964a7.097 7.097 0 007.068 7.264m32.686-7.007c.06-3.875-3.053-7.118-6.93-7.22-3.96-.103-7.307 3.078-7.368 7.003-.06 3.833 3.117 7.14 6.95 7.232 3.97.094 7.286-3.07 7.348-7.015m2.943-.99c-.029 6.184-4.028 10.523-9.196 10.922-5.447.42-10.092-3.237-10.906-8.585-.367-2.413-2.331-3.52-4.554-2.389-.494.252-.743 1.258-.847 1.956-.603 4.009-2.66 6.92-6.464 8.367-3.787 1.441-7.366.833-10.374-1.912-3.113-2.842-4.164-6.427-2.876-10.484 1.228-3.867 3.944-6.264 7.962-6.907 4.174-.666 7.628.79 9.985 4.303.832 1.238 1.621 1.32 2.996 1.432 3.246.262 5.359-.707 7.605-3.258 2.799-3.176 6.908-3.508 10.833-1.686 3.84 1.784 5.724 4.96 5.836 8.24M0 29.08c13.397-8.835 50.587-8.872 63.874 0H0z"/></g></svg>