<svg width="62" height="53" xmlns="http://www.w3.org/2000/svg" xmlns:xlink="http://www.w3.org/1999/xlink"><defs><path id="a" d="M.14.789h60.194V51.85H.14z"/></defs><g fill="none" fill-rule="evenodd"><g transform="translate(.7 .276)"><mask id="b" fill="#fff"><use xlink:href="#a"/></mask><path d="M30.19 47.904c2.036 0 4.073.005 6.11-.002.689-.003.846-.189.727-.865-.293-1.656-.619-3.307-.896-4.966-.086-.517-.341-.684-.831-.684-3.389.01-6.777.01-10.165 0-.491 0-.746.169-.833.684-.274 1.64-.594 3.271-.886 4.909-.131.735.027.92.78.923 1.998.005 3.996.001 5.993.001m.017-16.18h20.466c.81 0 .969-.15.969-.95V6.717c0-.817-.189-1.008-1.004-1.008-13.605-.002-27.21-.002-40.816 0-.846 0-1.028.185-1.028 1.042-.002 8 0 16 0 23.999 0 .83.152.974 1.004.974h20.409m30.128 17.182v.94c-.495 1.347-1.422 2.006-2.892 2.004-18.155-.014-36.31-.008-54.464-.01-2.127 0-3.23-1.43-2.711-3.5 1.112-4.444 2.218-8.889 3.347-13.328.311-1.223.73-2.422.287-3.7-.054-.16-.024-.352-.024-.528-.001-8.02-.005-16.038.008-24.058.001-.562.055-1.144.206-1.683C4.838 2.369 6.918.796 9.727.795 23.392.786 37.057.78 50.721.816a6.389 6.389 0 012.605.571c2.26 1.052 3.23 2.97 3.231 5.411.004 7.96.003 15.922-.002 23.882 0 .45.012.921-.113 1.343-.196.653-.079 1.226.092 1.866.72 2.684 1.361 5.39 2.04 8.085.58 2.312 1.172 4.62 1.76 6.932" fill="#000" mask="url(#b)"/></g><path d="M32.283 17.985c1.174 1.172 2.268 2.264 3.36 3.358.686.686.685.967 0 1.655-1.114 1.12-1.166 1.121-2.28.007l-3.044-3.05c-.153.548-.221 1.022-.424 1.43-.136.272-.455.615-.703.624-.251.01-.647-.302-.752-.564a247.602 247.602 0 01-2.653-6.966c-.094-.259-.03-.72.15-.894.179-.173.636-.217.9-.12 2.314.844 4.613 1.736 6.918 2.607.385.146.722.395.602.805-.08.278-.388.559-.665.696-.393.193-.851.257-1.409.412" fill="#000"/></g></svg>