<svg width="27" height="39" xmlns="http://www.w3.org/2000/svg"><g fill="#292E31" fill-rule="evenodd"><path d="M1.643 25.327c.001.967.258 1.23 1.213 1.23 5.623.006 11.247.005 16.87.001 1.005 0 1.253-.253 1.253-1.275.004-7.322.004-14.645 0-21.967 0-1.04-.21-1.239-1.255-1.239H3.019c-1.204 0-1.376.168-1.377 1.365-.002 3.62 0 7.24 0 10.86 0 3.675-.004 7.35.001 11.025zM20.697.595c1.283.514 1.723 1.449 1.714 2.832-.05 7.291-.022 14.583-.023 21.875 0 1.942-.729 2.664-2.687 2.664-5.62.001-11.242.002-16.862 0-1.843 0-2.604-.753-2.604-2.582C.233 18.064.26 10.746.211 3.427.2 2.044.64 1.11 1.925.595h18.772zM6.042 37.634c-1.805-.756-2.289-1.499-2.288-3.521 0-1.7.003-3.4.006-5.1 0-.051.02-.103.045-.211h1.422v5.408c0 1.574.365 1.942 1.92 1.943h4.118v-7.35h3.679v7.223c1.778.367 2.39-.126 2.394-1.834.003-1.78 0-3.56 0-5.392h1.383c0 2.198.08 4.385-.03 6.562-.062 1.218-1.065 1.828-2.111 2.272H6.042zM23.943 12.043c0-.521.019-1.06.706-1.066.697-.005.704.545.704 1.06-.002 4.522-.003 9.044 0 13.566 0 .53-.032 1.043-.742 1.017-.657-.022-.667-.522-.667-1.01.002-2.275.002-4.55.001-6.825 0-2.247.002-4.495-.002-6.742z"/><path d="M17.185 10.271c.577.007.86-.145.842-.783a94.481 94.481 0 01-.005-3.78c.006-.48-.155-.678-.666-.677-4.028.016-8.056.016-12.084 0-.505-.001-.679.184-.672.671.017 1.233.039 2.467-.008 3.698-.027.71.264.885.92.874 1.918-.032 3.837-.011 5.755-.011 1.972 0 3.946-.014 5.918.008zM5.093 11.667c-1.317-.006-1.886-.586-1.893-1.92-.008-1.454-.012-2.908.002-4.362.011-1.16.68-1.822 1.854-1.823 4.172-.009 8.343-.009 12.514 0 1.172.002 1.84.667 1.85 1.828.014 1.481.013 2.963 0 4.444-.009 1.224-.6 1.824-1.814 1.831-2.113.013-4.226.004-6.339.004-2.058 0-4.116.007-6.174-.002zM5.08 16.114c-1.99 0-2.157-.168-1.848-2.153.04-.26.45-.635.714-.66.923-.08 1.858-.032 2.788-.03.108.001.238-.01.32.043.884.563.374 1.44.445 2.173.051.526-.407.634-.86.628-.465-.007-.93-.002-1.395-.001h-.165zM11.049 16.114c-2.108.028-1.88.101-1.876-2.097.001-.504.283-.746.778-.746.93-.001 1.863-.036 2.79.023.253.016.668.293.698.496.09.614.077 1.258-.008 1.875-.024.175-.415.392-.662.426-.483.068-.981.02-1.474.02-.082.003-.164.002-.246.003zM17.604 13.27c1.821 0 2.23.51 1.785 2.316-.05.202-.34.483-.528.491-1.065.047-2.132.021-3.199.02a.17.17 0 01-.08-.014c-.916-.513-.36-1.374-.466-2.071-.073-.49.27-.74.765-.741l1.395-.001h.328zM5.07 20.559c-1.974 0-2.157-.19-1.838-2.163.042-.259.457-.626.724-.65.923-.08 1.858-.032 2.788-.03.496 0 .763.243.78.746v.082c.002 2.26.206 2.011-2.208 2.015H5.07zM11.04 20.559c-1.981 0-1.997-.026-1.877-2.025.033-.532.251-.818.797-.819l2.791.001c.082 0 .179-.016.243.02.929.534.383 1.42.484 2.144.075.538-.322.688-.797.68-.437-.009-.875-.002-1.313-.002h-.328zM16.924 20.559c-2.06.032-1.85.097-1.791-2.149.006-.238.451-.64.719-.662.95-.082 1.913-.057 2.869-.014.221.01.603.235.62.391.071.674.073 1.362.008 2.036-.014.15-.392.35-.62.377-.487.058-.984.017-1.476.017-.11.004-.22.002-.329.004zM5.005 25.003c-1.857 0-2.16-.357-1.774-2.226.049-.238.397-.572.624-.587.982-.065 1.969-.03 2.954-.027.08 0 .177-.004.24.036.891.56.375 1.438.451 2.17.054.526-.399.64-.853.635-.438-.006-.876-.001-1.314-.001h-.328zM10.49 25.004c-1.303-.002-1.321-.02-1.322-1.343 0-1.503 0-1.503 1.506-1.503.684 0 1.368.005 2.052 0 .506-.003.758.243.767.745l.002.082c0 2.387.2 1.983-2.184 2.019h-.82zM16.964 25.003c-1.977 0-1.997-.03-1.873-2.028.033-.533.256-.816.8-.815h2.79c.083 0 .18-.015.243.023.924.536.381 1.42.481 2.146.074.539-.327.684-.8.675-.437-.008-.875-.001-1.312-.001h-.33z"/></g></svg>