<svg width="57" height="64" xmlns="http://www.w3.org/2000/svg"><g fill="#000" fill-rule="evenodd"><path d="M39.426 56.708c1.384.6 2.69 1.142 3.974 1.73.94.431 1.422 1.376 1.262 2.332a2.109 2.109 0 01-1.969 1.76 2.968 2.968 0 01-1.29-.227 828.315 828.315 0 01-8.724-3.744c-1.335-.58-1.823-1.746-1.266-3.062 1.258-2.972 2.535-5.938 3.82-8.9.442-1.015 1.345-1.551 2.302-1.424 1 .133 1.791.84 1.884 1.845.044.479-.086 1.01-.267 1.464-.568 1.427-1.197 2.83-1.71 4.367.982-.54 2.003-1.02 2.938-1.632 5.994-3.924 9.605-9.43 10.562-16.534.887-6.583-.826-12.526-4.989-17.714-3.023-3.766-6.899-6.292-11.54-7.637-.244-.07-.486-.148-.725-.23-1.21-.42-1.825-1.542-1.475-2.693.356-1.172 1.477-1.839 2.696-1.466 1.51.464 3.032.936 4.463 1.593 6.28 2.882 10.862 7.503 13.735 13.783 1.455 3.179 2.224 6.535 2.377 10.039.248 5.697-1.119 10.97-4.111 15.81-2.65 4.284-6.239 7.575-10.708 9.903-.387.202-.778.4-1.24.637M16.5 6.448c-1.36-.584-2.699-1.148-4.028-1.734-1.008-.443-1.533-1.274-1.45-2.225C11.15.997 12.588.096 14.026.65c1.042.402 2.057.876 3.084 1.317 1.959.841 3.919 1.673 5.872 2.525 1.515.661 1.912 1.633 1.265 3.162a1206.802 1206.802 0 01-3.791 8.84c-.437 1.013-1.224 1.512-2.164 1.424-1.603-.153-2.47-1.552-1.862-3.077.483-1.215 1.026-2.406 1.542-3.608.074-.173.145-.348.255-.61-.195.056-.326.074-.437.13-6.938 3.55-11.299 9.12-12.645 16.8-1.436 8.19 1.025 15.242 6.972 21.024 2.74 2.664 6.049 4.418 9.744 5.436 1.341.37 1.96 1.163 1.917 2.32-.05 1.367-1.223 2.317-2.56 1.995-3.15-.756-6.065-2.075-8.736-3.902-4.947-3.384-8.465-7.903-10.49-13.54C.312 36.215-.083 31.41.864 26.534c1.497-7.707 5.58-13.717 12.098-18.064 1.102-.736 2.303-1.322 3.538-2.023"/><path d="M27.266 22.197c-1.411.001-3.053 1.312-3.131 3.096-.086 1.977 1.13 3.447 3.131 3.73v-6.826zm1.538 17.315c1.708-.032 3.213-1.637 3.334-3.499.146-2.228-1.026-3.647-3.334-4.003v7.502zm-1.51.207c0-2.754 0-5.246-.002-7.737 0-.125-.015-.25-.018-.292-1.004-.409-1.985-.737-2.9-1.197-2.094-1.05-2.993-2.906-2.75-5.493.205-2.174 1.652-3.971 3.72-4.582.622-.183 1.265-.298 1.908-.448l.06-1.109h1.34c.03.04.076.067.08.101.123 1 .123 1 1.137 1.245 2.488.604 4.092 2.393 4.324 4.889l-2.533.393c-.304-1.65-1.018-2.932-2.849-3.298-.023.175-.06.331-.06.488-.004 2.07.008 4.14-.013 6.211-.003.413.139.562.527.697 1.069.37 2.196.679 3.149 1.26 1.666 1.016 2.346 2.695 2.339 4.587-.01 2.52-1.094 4.486-3.404 5.63-.612.302-1.314.474-1.994.566-.517.07-.614.278-.593.726.027.608.007 1.219.007 1.879H27.28c0-.657-.017-1.303.006-1.95.015-.38-.079-.578-.5-.625a8.251 8.251 0 01-1.422-.3c-2.51-.74-4.108-2.933-4.172-5.767l2.482-.47c.265 1.539.631 2.98 1.997 3.856.459.294 1 .462 1.623.74z"/></g></svg>