<svg width="54" height="62" xmlns="http://www.w3.org/2000/svg" xmlns:xlink="http://www.w3.org/1999/xlink"><defs><path id="a" d="M.133.274h12.033v16.94H.133z"/><path id="c" d="M.226.274h12.006v16.938H.226z"/><path id="e" d="M.508.274h7.638v17H.508z"/></defs><g fill="none" fill-rule="evenodd"><g transform="translate(40.1 .576)"><mask id="b" fill="#fff"><use xlink:href="#a"/></mask><path d="M3.667 6.292c.04-1.477.981-2.474 2.36-2.53 1.413-.058 2.592.815 2.677 2.227.112 1.863.11 3.743 0 5.607-.08 1.367-1.375 2.328-2.703 2.227-1.343-.102-2.271-1.057-2.327-2.454-.037-.89-.007-1.781-.007-2.672h-.005c0-.801-.017-1.604.005-2.405M5.9 17.213c3.347.07 5.89-2.081 6.184-5.353.133-1.46.063-2.938.064-4.409C12.15 3.264 11.06 1.7 7.167.274H5.021C2.328 1.189.43 2.85.219 5.839.083 7.747.13 9.675.21 11.588c.13 3.12 2.649 5.562 5.692 5.625" fill="#000" mask="url(#b)"/></g><path d="M12.993 55.433c-.114 1.362-1.037 2.218-2.33 2.279-1.406.065-2.556-.686-2.658-2.054a43.436 43.436 0 01-.018-5.866c.077-1.27 1.268-2.14 2.512-2.13 1.33.01 2.31.912 2.496 2.3.018.131.034.265.035.398.003.802.001 1.602.001 2.404h-.024c0 .89.06 1.785-.014 2.669M10.257 44.26c-3.15.07-5.658 2.562-5.706 5.715-.028 1.872-.015 3.744.019 5.616.033 1.809.81 3.295 2.268 4.33.777.551 1.728.86 2.6 1.278h2.147c.364-.145.733-.28 1.094-.437 2.232-.969 3.59-2.633 3.728-5.084.11-1.955.081-3.923.004-5.88-.132-3.255-2.795-5.61-6.154-5.538" fill="#000"/><g transform="translate(23.95 .576)"><mask id="d" fill="#fff"><use xlink:href="#c"/></mask><path d="M7.22.274H5.34C2.369 1.084.497 2.897.295 6.072.184 7.807.225 9.558.29 11.298c.122 3.242 2.493 5.777 5.446 5.91 1.397.062 2.176-.448 2.284-1.495.105-1.035-.529-1.658-1.924-1.892-1.582-.266-2.334-1.12-2.355-2.735-.02-1.564-.023-3.128.001-4.69.023-1.502.948-2.537 2.294-2.632 1.483-.105 2.518.745 2.78 2.283.236 1.385.864 1.965 1.97 1.82 1.068-.142 1.595-1.004 1.408-2.314-.415-2.93-2.247-4.527-4.976-5.28" fill="#000" mask="url(#d)"/></g><g transform="translate(12.05 .576)"><mask id="f" fill="#fff"><use xlink:href="#e"/></mask><path d="M3.075 7.688c.503-.389.953-.847 1.585-1.416v1.724c.001 2.411-.029 4.823.013 7.234.026 1.513 1.223 2.504 2.323 1.827.577-.354 1.062-1.333 1.08-2.044.1-4.061.017-8.127.07-12.19.014-1.068-.271-1.899-1.1-2.55H5.973C4.203 1.966 2.363 3.596.72 5.403.37 5.79.486 6.985.83 7.525c.507.793 1.46.767 2.245.163" fill="#000" mask="url(#f)"/></g><path d="M48.798 34.248c-.08 1.312-1.325 2.264-2.588 2.225-1.356-.04-2.38-1.072-2.437-2.503-.034-.846-.006-1.694-.006-2.54-.004-.847-.024-1.695.001-2.541.044-1.443 1.028-2.473 2.389-2.54 1.353-.065 2.573.882 2.65 2.287a49.241 49.241 0 01-.01 5.612m3.341-6.078c-.237-2.968-2.61-5.095-5.62-5.276-2.69-.163-5.338 1.703-5.96 4.404-.307 1.326-.26 2.734-.372 4.105l.106.009c0 .848-.017 1.695.002 2.543.077 3.275 2.509 5.77 5.725 5.89 3.268.12 5.927-2.116 6.16-5.394a41.995 41.995 0 00-.04-6.281M21.134 33.98c-.123 1.487-1.27 2.533-2.634 2.493-1.342-.04-2.388-1.04-2.447-2.51a65.322 65.322 0 010-5.209c.056-1.377 1.101-2.348 2.396-2.406 1.311-.059 2.433.791 2.615 2.164.127.961.025 1.952.025 2.93.02 0 .038 0 .058.002 0 .845.056 1.696-.013 2.537m3.359.38c.07-1.96.066-3.927-.01-5.887-.123-3.159-2.894-5.685-6.025-5.582-3.233.107-5.777 2.638-5.825 5.802-.014.892-.002 1.785-.002 2.677h.004c0 .937-.018 1.875.004 2.811.074 3.144 2.576 5.592 5.773 5.664 3.255.073 5.967-2.333 6.081-5.484M35.025 23.159c-.478-.219-1.406-.096-1.8.255-1.564 1.394-3.02 2.913-4.466 4.432-.728.764-.694 1.688.052 2.392.742.7 1.627.639 2.411-.05.418-.365.814-.755 1.459-1.357v1.744c.002 2.5-.006 5.001.014 7.501.01 1.123.59 1.788 1.738 1.748 1.061-.038 1.61-.681 1.611-1.742.006-4.465.035-8.93-.042-13.395-.009-.537-.503-1.313-.977-1.528M5.106 28.808v1.81c0 2.5-.01 5 .01 7.501.007 1.06.57 1.686 1.641 1.707.994.02 1.668-.514 1.677-1.523.034-4.598.055-9.198-.014-13.795-.02-1.415-1.551-2.146-2.6-1.224-1.673 1.468-3.225 3.086-4.736 4.726-.654.71-.58 1.752.23 2.228.553.326 1.497.235 2.172.027.527-.163.91-.79 1.62-1.457M27.449 44.426c-.428-.212-1.317-.058-1.691.278-1.592 1.433-3.095 2.969-4.572 4.522-.684.72-.614 1.567.087 2.274.705.71 1.504.731 2.275.097.478-.392.909-.84 1.617-1.502 0 1.921-.016 3.476.005 5.03.016 1.101.552 1.803 1.707 1.785 1.073-.017 1.631-.666 1.637-1.72.016-3.082.054-6.166-.042-9.245-.017-.539-.536-1.276-1.023-1.519" fill="#000"/></g></svg>