<svg width="29" height="28" xmlns="http://www.w3.org/2000/svg"><path d="M22.165 15.697h4.308c.184 0 .334.15.334.334v3.692c0 .185-.15.334-.334.334h-4.308a2.182 2.182 0 01-2.18-2.18c0-1.202.978-2.18 2.18-2.18zM2.758 10.493a.95.95 0 01.949-.95h20.92a.95.95 0 01.95.95v3.411h-3.412a3.977 3.977 0 00-3.972 3.973 3.977 3.977 0 003.972 3.974h3.412v3.41c0 .523-.427.95-.95.95H3.707a.95.95 0 01-.95-.95V10.493zM18.71 2.286a.91.91 0 011.093.126l-9.17 5.339h-1.31l9.386-5.465zm-4.513 5.465l6.534-3.803.327.572-5.55 3.23h-1.311zm4.875 0l2.877-1.675.958 1.675h-3.835zm8.298 6.36v-3.618c0-1.362-1.032-2.521-2.374-2.705L21.533 1.74a2.71 2.71 0 00-1.66-1.28 2.697 2.697 0 00-2.066.278L5.758 7.75H3.707a2.746 2.746 0 00-2.744 2.742V25.26a2.746 2.746 0 002.744 2.743h20.92a2.746 2.746 0 002.743-2.743v-3.617a2.129 2.129 0 001.23-1.92V16.03c0-.825-.487-1.573-1.23-1.92z" fill="#292E31" fill-rule="evenodd"/></svg>