<svg width="48" height="48" xmlns="http://www.w3.org/2000/svg"><g fill="#000" fill-rule="evenodd"><path d="M5.933 36.223H.925a.835.835 0 00-.834.835v10.015h6.677V37.058a.836.836 0 00-.835-.835M19.288 24.538h-5.009a.835.835 0 00-.833.835v21.7h6.676v-21.7a.835.835 0 00-.834-.835M32.643 29.546h-5.008a.836.836 0 00-.835.835v16.693h6.677V30.38a.835.835 0 00-.834-.835M45.997 22.869h-5.008a.836.836 0 00-.835.834v23.37h6.677v-23.37a.834.834 0 00-.834-.834M41.2 7.758a3.336 3.336 0 102.292-5.756 3.293 3.293 0 00-3.17 4.336l-7.89 4.932a3.303 3.303 0 00-4.272-.26l-8.343-5.96a3.337 3.337 0 10-5.75.551l-9.2 10.927A3.336 3.336 0 106.146 17.6l9.201-10.926c1.109.546 2.43.42 3.416-.326l8.342 5.96a3.347 3.347 0 106.204.382L41.2 7.758z"/></g></svg>