<svg width="32" height="22" xmlns="http://www.w3.org/2000/svg"><g fill="none" fill-rule="evenodd"><path d="M1.86 5.674c2.432.604 3.597 2.55 3.68 4.31a4.51 4.51 0 01-.71 2.696c-.7 1.1-1.707 1.775-2.96 2.072v3.766h5.528c0-.3-.005-.577.001-.854.011-.557.392-.96.909-.97.528-.008.926.401.937.97.007.285.002.57.002.857h20.442V1.92H9.32v.33c0 .184.004.37-.002.554-.017.528-.376.912-.872.938-.5.026-.924-.346-.965-.878-.024-.312-.004-.629-.004-.95H1.86v3.761zM0 .723C.246.189.67.036 1.243.037c9.706.011 19.414.008 29.12.008.89 0 1.201.312 1.201 1.204v17.97c0 .849-.323 1.173-1.17 1.173-9.717 0-19.434-.003-29.151.008-.573 0-.997-.152-1.243-.686V13.67c.223-.471.593-.662 1.117-.703 1.157-.091 2-.695 2.39-1.79.638-1.793-.485-3.525-2.39-3.709C.595 7.419.223 7.237 0 6.766V.723z" fill="#292E31"/><path d="M1.86 5.674c2.432.604 3.597 2.55 3.68 4.31a4.51 4.51 0 01-.71 2.696c-.7 1.1-1.707 1.775-2.96 2.072v3.766h5.528c0-.3-.005-.577.001-.854.011-.557.392-.96.909-.97.528-.008.926.401.937.97.007.285.002.57.002.857h20.442V1.92H9.32v.33c0 .184.004.37-.002.554-.017.528-.376.912-.872.938-.5.026-.924-.346-.965-.878-.024-.312-.004-.629-.004-.95H1.86v3.761z"/><path d="M0 .723C.246.189.67.036 1.243.037c9.706.011 19.414.008 29.12.008.89 0 1.201.312 1.201 1.204v17.97c0 .849-.323 1.173-1.17 1.173-9.717 0-19.434-.003-29.151.008-.573 0-.997-.152-1.243-.686V13.67c.223-.471.593-.662 1.117-.703 1.157-.091 2-.695 2.39-1.79.638-1.793-.485-3.525-2.39-3.709C.595 7.419.223 7.237 0 6.766V.723z"/><path d="M16.85 15.4c.053-.12.133-.23.207-.34 2.38-3.573 4.76-7.145 7.141-10.716.068-.102.135-.207.218-.298a.907.907 0 011.177-.148.913.913 0 01.341 1.138c-.05.112-.121.215-.19.317-2.39 3.589-4.785 7.176-7.173 10.766-.218.328-.473.564-.821.572-.721-.007-1.167-.69-.9-1.29zM17.668 7.442a.933.933 0 00.948-.898.933.933 0 00-.898-.948.932.932 0 00-.947.898.932.932 0 00.897.948zm.004-3.696c1.511-.02 2.795 1.256 2.793 2.775-.003 1.51-1.256 2.765-2.767 2.77-1.506.005-2.764-1.244-2.777-2.76-.013-1.503 1.233-2.764 2.751-2.785zM25.082 12.995a.931.931 0 00-.914.932.93.93 0 00.931.913.931.931 0 00.914-.93.932.932 0 00-.931-.915zm2.78.92c.003 1.52-1.28 2.795-2.791 2.775-1.518-.02-2.765-1.28-2.752-2.785.012-1.514 1.27-2.764 2.776-2.76 1.51.005 2.764 1.26 2.767 2.77zM7.4 6.525c.018-.531.413-.925.917-.929a.918.918 0 01.926.918c.013.616.012 1.232 0 1.849-.01.531-.41.925-.915.928-.505.003-.908-.39-.927-.918-.012-.318-.002-.636-.002-.955 0-.298-.008-.596.002-.893zM9.244 13.913c-.017.53-.412.925-.917.927a.917.917 0 01-.925-.918 46.078 46.078 0 010-1.849c.01-.53.411-.925.916-.927.504-.003.907.39.926.918.011.318.002.637.002.955 0 .298.008.596-.002.894z" fill="#292E31"/></g></svg>