<svg width="26" height="31" xmlns="http://www.w3.org/2000/svg"><g fill="#292E31" fill-rule="evenodd"><path d="M3.863 28.045a1.51 1.51 0 01-1.507-1.508v-1.508h16.095v1.508a1.51 1.51 0 01-1.507 1.508H3.864zm14.588-7.453v2.696H2.356V3.944a1.51 1.51 0 011.507-1.508h13.08a1.51 1.51 0 011.508 1.508v3.567c0 .489.383.871.87.871.489 0 .872-.382.872-.87V3.943a3.253 3.253 0 00-3.25-3.249H3.864a3.253 3.253 0 00-3.249 3.25v22.592a3.253 3.253 0 003.25 3.25h13.08a3.253 3.253 0 003.249-3.25v-5.945a.871.871 0 00-1.742 0z"/><path d="M16.366 9.324a.87.87 0 000-1.235.876.876 0 00-1.222 0l-2.379 2.378a.867.867 0 000 1.235l2.379 2.378c.156.157.379.247.61.247.232 0 .455-.09.612-.247a.872.872 0 00.259-.634.84.84 0 00-.258-.6l-.89-.896h8.601c.489 0 .87-.383.87-.872 0-.48-.39-.87-.87-.87h-8.596l.884-.884zM22.311 14.035a.87.87 0 00-1.482.617c0 .23.093.45.26.617l.884.884h-8.597c-.48 0-.87.39-.87.87 0 .49.382.872.87.872h8.6l-.888.896c-.256.257-.329.63-.197.924a.804.804 0 00.197.31c.157.158.38.248.612.248.232 0 .455-.09.612-.248l2.377-2.378a.864.864 0 000-1.235l-2.378-2.377z"/></g></svg>