<svg width="27" height="24" xmlns="http://www.w3.org/2000/svg"><g fill="#292E31" fill-rule="evenodd"><path d="M12.5 23.529h3.837V.865H12.5zM6.706 23.528h1.85V.866h-1.85zM24.998 1.292c-.001-.344.065-.491.39-.463a7.5 7.5 0 001.059.002c.254-.013.325.107.32.38-.01.753-.003 1.507-.003 2.261v19.509c0 .577 0 .577-.494.577-.306 0-.613-.019-.918.005-.289.024-.354-.111-.353-.42.008-3.648.005-7.297.005-10.946 0-3.635.005-7.27-.006-10.905zM.796.841c.455 0 .888-.008 1.32.01.059.002.143.119.164.2.03.111.01.24.01.36v21.603c0 .543 0 .543-.484.544H.796V.84zM22.648 23.53h1.221V.864h-1.22zM10.989 23.502c-.06.026-.08.042-.102.044-.813.079-.813.079-.813-.845V1.664c0-.913.081-.983.915-.768v22.606zM3.235 23.528h.824V.865h-.824zM5.542 23.554c-.229 0-.448.015-.664-.01-.062-.006-.147-.117-.164-.197-.03-.126-.01-.267-.01-.402V1.61c0-.87.011-.881.838-.724v22.668zM18.752 23.534h-.806c-.008-.176-.02-.332-.02-.488 0-7.178-.002-14.355.002-21.533 0-.723-.14-.678.608-.674.067 0 .135.022.216.036v22.66zM19.985.894c.05-.021.08-.045.113-.049.704-.084.706-.082.706.725v21.254c0 .812-.068.869-.819.673V.894z"/></g></svg>