<svg width="29" height="31" xmlns="http://www.w3.org/2000/svg" xmlns:xlink="http://www.w3.org/1999/xlink"><defs><path id="a" d="M.22.33h27.245v29.091H.22z"/></defs><g fill="none" fill-rule="evenodd"><g transform="translate(.94 .155)"><mask id="b" fill="#fff"><use xlink:href="#a"/></mask><path d="M26.08 13.952a1.154 1.154 0 11-2.31 0V5.41h2.31v8.543zm-6.004 1.155V2.87a1.154 1.154 0 012.309 0v11.082c-.001.403.095.798.278 1.155h-2.587zm-1.385 11.95l-.664-.665a.694.694 0 00-.98 0L15.6 27.837l-2.298-1.532a.693.693 0 00-.769 0l-2.385 1.591-2.387-1.59a.693.693 0 00-.768 0l-2.298 1.531-1.447-1.445a.691.691 0 00-.978 0l-.665.665V2.87A1.156 1.156 0 012.76 1.716H18.97a2.53 2.53 0 00-.278 1.154v24.187zm8.08-23.032h-3V2.87A2.542 2.542 0 0021.23.33H2.76A2.542 2.542 0 00.22 2.87v25.858c-.02.599.773.928 1.182.49l1.357-1.356 1.357 1.357c.235.233.6.27.874.086l2.387-1.59 2.387 1.59a.694.694 0 00.768 0l2.386-1.59 2.387 1.59c.274.183.64.147.873-.086l1.357-1.357 1.358 1.357c.411.437 1.201.108 1.182-.49V16.491h4.85a2.542 2.542 0 002.539-2.54V4.717a.692.692 0 00-.693-.692z" fill="#292E31" mask="url(#b)"/></g><path d="M3.93 18.725v3.694a.692.692 0 001.385 0v-3.694a.692.692 0 10-1.384 0zM5.778 18.725v3.694a.692.692 0 001.384 0v-3.694a.692.692 0 00-1.384 0zM8.549 18.725v3.694a.692.692 0 001.384 0v-3.694a.692.692 0 00-1.384 0zM10.395 18.725v3.694a.692.692 0 001.385 0v-3.694a.693.693 0 00-1.385 0zM12.242 18.725v3.694a.692.692 0 001.386 0v-3.694a.693.693 0 00-1.386 0zM15.013 18.725v3.694a.692.692 0 001.385 0v-3.694a.692.692 0 00-1.385 0zM16.86 18.725v3.694a.692.692 0 001.385 0v-3.694a.692.692 0 00-1.385 0zM12.614 10.249a.362.362 0 00-.223-.087h-.124a.303.303 0 00-.224.087.304.304 0 00-.086.223v1.649c0 .091.029.167.086.23a.293.293 0 00.224.093h.111a.309.309 0 00.224-.1l.235-.235a.304.304 0 00.087-.223v-1.19c0-.09-.03-.162-.087-.212l-.223-.235zm-2.07-3.323c0-.09-.031-.165-.094-.224a.312.312 0 00-.217-.086h-.15a.37.37 0 00-.222.086l-.223.236a.25.25 0 00-.1.211v1.03c0 .082.034.157.1.222l.223.223a.302.302 0 00.223.088h.15c.082 0 .154-.03.216-.088a.288.288 0 00.093-.223V6.926zm4.054 5.456c0 .074-.029.148-.087.223l-1.19 1.19a.364.364 0 01-.223.087h-.831a.303.303 0 00-.224.087.303.303 0 00-.086.222v.745c0 .09-.029.165-.087.223a.304.304 0 01-.223.087h-.793a.303.303 0 01-.224-.087.304.304 0 01-.087-.223v-.745a.309.309 0 00-.31-.31h-.905a.366.366 0 01-.223-.086L7.939 12.63a.362.362 0 01-.086-.223v-.805a.31.31 0 01.086-.218.292.292 0 01.223-.093h1.042a.308.308 0 01.31.31v.298c0 .083.033.156.1.223l.223.223c.065.067.14.1.222.1h.174a.3.3 0 00.217-.093.311.311 0 00.093-.23v-1.65a.309.309 0 00-.31-.31l-.88.001a.364.364 0 01-.223-.087L7.964 8.91a.367.367 0 01-.086-.223V6.64c0-.074.029-.148.086-.222L9.13 5.264a.308.308 0 01.222-.099h.881a.307.307 0 00.217-.087.29.29 0 00.093-.223v-.744c0-.09.03-.165.087-.223a.307.307 0 01.224-.087h.793c.09 0 .165.03.223.087a.303.303 0 01.087.223v.744c0 .091.029.166.086.223a.301.301 0 00.224.087h.756c.083 0 .157.033.223.1l1.166 1.153a.364.364 0 01.087.222v.82c0 .09-.03.164-.087.223a.305.305 0 01-.224.086h-1.04a.33.33 0 01-.23-.086.298.298 0 01-.093-.224v-.31c0-.09-.03-.161-.087-.211l-.223-.236a.37.37 0 00-.223-.086h-.025a.306.306 0 00-.224.086.306.306 0 00-.086.224V8.4a.3.3 0 00.086.223.302.302 0 00.224.088h.856c.082 0 .156.032.223.099l1.165 1.165a.288.288 0 01.087.21v2.196z" fill="#292E31"/></g></svg>