<svg width="63" height="55" xmlns="http://www.w3.org/2000/svg" xmlns:xlink="http://www.w3.org/1999/xlink"><defs><path id="a" d="M.129.53h60.866v52.902H.13z"/></defs><g transform="translate(.9 .526)" fill="none" fill-rule="evenodd"><mask id="b" fill="#fff"><use xlink:href="#a"/></mask><path d="M14.458 46.843a2.765 2.765 0 002.78 2.776c1.507-.016 2.745-1.268 2.733-2.765a2.763 2.763 0 00-2.753-2.739 2.757 2.757 0 00-2.76 2.728zm29.404.029a2.774 2.774 0 002.753 2.747c1.533.003 2.8-1.274 2.773-2.794a2.768 2.768 0 00-2.788-2.71 2.764 2.764 0 00-2.738 2.757zm7.704-14.4c1.25-.08 1.921-1.07 2.334-2.152.243-.63.32-1.324.5-2.112h-7.732c-.171 1.37-.347 2.792-.532 4.293 1.874 0 3.658.086 5.43-.028zm-25.006.005h6.977v-4.61h-7.398l.421 4.61zM52.222 21.39a155.582 155.582 0 01-4.18-.124c-.405-.018-.56.08-.6.511-.117 1.237-.29 2.469-.454 3.81h7.858c.236-1.272.49-2.644.779-4.193-1.192 0-2.298.015-3.403-.004zM36.15 28.018v4.47h7.452l.55-4.47H36.15zm-2.606-7.188l-8.089-.242.385 4.29c.045.502.457.387.74.392 1.781.033 3.564.04 5.347.054.51.005 1.023.001 1.617.001V20.83zm-9.51 11.665l-.448-4.78h-7.84l.873 4.78h7.416zm12.098-7.062c.846 0 1.674-.01 2.502.002 1.74.028 3.478.058 5.217.112.444.014.639-.082.682-.581.107-1.239.292-2.472.455-3.789l-8.856-.277v4.533zm11.692-6.708l8.223.264.864-4.493-8.508-.498-.579 4.727zM15.26 25.086h8.076l-.423-4.57-8.527-.27.874 4.84zm9.928-7.415c.016.149.28.38.436.388 2.61.097 5.22.166 7.89.243v-5.168l-8.81-.524c.164 1.777.304 3.421.484 5.061zm20.69-3.82l-9.722-.57v5.11l9.145.267.577-4.806zm-23.722-1.385c-3.068-.18-6.117-.36-9.282-.548.152.886.29 1.696.434 2.505.166.928.32 1.86.523 2.78.043.192.267.484.417.49 2.742.11 5.484.184 8.227.263.037 0 .077-.032.185-.08l-.504-5.41zm1.253 32.34c1.52 4.485-2.236 9.157-6.893 8.577-2.88-.358-5.09-2.372-5.704-5.192-.587-2.705.616-5.406 3.105-6.927.3-.181.399-.34.328-.71-.483-2.53-.933-5.067-1.396-7.6L8.528 9.325c-.3-1.64-.605-3.281-.916-4.96-1 0-1.943.006-2.885-.002-.988-.008-1.981.032-2.961-.063C.707 4.2.084 3.381.13 2.344.179 1.266.986.552 2.236.543 4.449.526 6.662.526 8.876.542c1.282.01 1.999.626 2.232 1.871.35 1.876.694 3.752 1.045 5.65.229.024.419.053.609.064 6.536.386 13.075.772 19.611 1.154 8.874.52 17.747 1.037 26.621 1.554 1.488.087 2.218 1.044 1.945 2.53-1.02 5.552-2.058 11.1-3.04 16.66-.53 3.011-2.967 6.399-7.457 6.33-10.742-.162-21.488-.052-32.232-.052h-.888c.2 1.097.385 2.084.559 3.073.183 1.04.02.908 1.124.908 8.832.004 17.664.001 26.496.005.515 0 1.03.015 1.544.05 3.652.241 6.28 3.282 6.095 7.045-.17 3.452-3.275 6.143-6.938 6.016-3.409-.12-6.228-3.199-6.09-6.727.032-.84.284-1.672.438-2.53H23.183l.225.663z" fill="#000" mask="url(#b)"/></g></svg>