<svg width="48" height="48" xmlns="http://www.w3.org/2000/svg"><g fill="#000" fill-rule="evenodd"><path d="M.9 35.185c.37-1.121.636-2.29 1.14-3.348a9.457 9.457 0 011.732-2.504c3.386-3.462 6.79-6.91 10.269-10.278 3.993-3.866 10.76-3.738 14.446.152l-2.877 2.77c-.883-.404-1.879-1.016-2.96-1.32-2.165-.606-4.153-.047-5.75 1.512a638.97 638.97 0 00-9.987 9.978c-2.41 2.462-2.366 6.406.004 8.762 2.532 2.515 6.352 2.594 8.914.124 2.184-2.106 4.31-4.273 6.463-6.412.02-.02.061-.02.102-.033.921.977 1.847 1.956 2.883 3.052-.668.652-1.447 1.4-2.214 2.159-1.042 1.032-2.132 2.023-3.1 3.12-1.942 2.196-4.315 3.59-7.188 4.143h-2.662c-.188-.064-.37-.147-.562-.188-4.073-.858-6.792-3.255-8.15-7.184-.207-.601-.338-1.228-.503-1.843v-2.662z"/><path d="M46.974 12.66c-.301 1.04-.462 2.152-.94 3.103-.573 1.14-1.287 2.269-2.169 3.18a476.524 476.524 0 01-9.973 9.994c-3.945 3.848-10.332 3.866-14.358.112-.072-.067-.127-.155-.16-.195l2.985-2.886c1.125.937 2.553 1.658 4.27 1.643 1.64-.013 3.105-.516 4.27-1.665 3.398-3.352 6.8-6.703 10.122-10.131 2.386-2.46 2.257-6.4-.15-8.753-2.492-2.439-6.353-2.477-8.84-.041-2.186 2.144-4.328 4.335-6.496 6.513l-2.963-3.054c1.728-1.724 3.52-3.486 5.28-5.278 1.295-1.318 2.594-2.633 4.356-3.313.939-.363 1.925-.605 2.889-.901h2.457c.123.05.243.126.372.15 4.621.798 7.508 3.494 8.747 7.993.116.42.201.85.3 1.276v2.253z"/></g></svg>