<svg width="61" height="40" xmlns="http://www.w3.org/2000/svg"><g stroke="#262626" stroke-width="2" fill="none" fill-rule="evenodd"><path d="M56.74 3.99c-1.424-1.39-3.504-2.176-5.68-2.146H16.19c-2.24-.012-4.386.766-5.92 2.145L3.54 9.698C1.97 10.872 1.049 12.546 1 14.317v12.118c-.01 1.881.911 3.68 2.54 4.965l5.89 5.067c1.544 1.365 3.685 2.134 5.92 2.128h10c2.212-.005 4.326-.774 5.85-2.128l25.33-20.715c1.628-1.295 2.548-3.102 2.54-4.99V8.988c.03-1.86-.807-3.655-2.33-4.999z"/><path d="M30.33 15.406h-2v-1.74c-.005-1.257-1.211-2.275-2.7-2.28h-4.1c-1.491 0-2.7 1.021-2.7 2.28v1.69h-2.1c-1.489.004-2.695 1.022-2.7 2.28v3.462c.01 1.254 1.215 2.267 2.7 2.271h2.05v1.782c0 1.26 1.209 2.28 2.7 2.28h4.1c1.489-.005 2.695-1.023 2.7-2.28V23.42h2c.718.004 1.408-.233 1.919-.659.51-.426.798-1.006.801-1.613v-3.462c0-1.25-1.19-2.266-2.67-2.28z"/></g></svg>