<?xml version="1.0" encoding="utf-8"?>
<!-- Generator: Adobe Illustrator 16.0.0, SVG Export Plug-In . SVG Version: 6.00 Build 0)  -->
<!DOCTYPE svg PUBLIC "-//W3C//DTD SVG 1.1//EN" "http://www.w3.org/Graphics/SVG/1.1/DTD/svg11.dtd">
<svg version="1.1" id="Layer_1" xmlns="http://www.w3.org/2000/svg" xmlns:xlink="http://www.w3.org/1999/xlink" x="0px" y="0px"
	 width="48px" height="48px" viewBox="0 0 48 48" enable-background="new 0 0 48 48" xml:space="preserve">
<g>
	<defs>
		<rect id="SVGID_1_" y="1.547" width="48" height="44.906"/>
	</defs>
	<clipPath id="SVGID_2_">
		<use xlink:href="#SVGID_1_"  overflow="visible"/>
	</clipPath>
	<path clip-path="url(#SVGID_2_)" fill="#262626" d="M20.268,40.782h-7.852c-1.977,0-3.733-0.695-5.225-2.068l-4.654-4.375
		c-1.479-1.385-2.23-3.03-2.23-4.89V18.858c0-1.664,0.752-3.2,2.236-4.567l5.308-4.985c1.482-1.386,3.241-2.088,5.229-2.088h27.503
		c2.007,0,3.71,0.71,5.063,2.11c1.358,1.364,2.047,3.002,2.047,4.868v1.55c0,1.861-0.751,3.506-2.233,4.887l-0.009,0.008
		L25.475,38.715C24.001,40.087,22.249,40.782,20.268,40.782 M13.08,8.695c-1.576,0-2.921,0.541-4.111,1.654l-5.313,4.989
		c-1.177,1.084-1.771,2.267-1.771,3.52v10.591c0,1.474,0.579,2.731,1.77,3.847l4.65,4.37c1.195,1.102,2.542,1.639,4.11,1.639h7.852
		c1.55,0,2.929-0.552,4.097-1.641l0.009-0.008L44.35,19.583c1.188-1.108,1.765-2.363,1.765-3.837v-1.55
		c0-1.503-0.532-2.768-1.627-3.865l-0.009-0.009c-1.057-1.095-2.331-1.627-3.896-1.627H13.08z"/>
	<path clip-path="url(#SVGID_2_)" d="M27.146,21.886c-0.45-0.585-0.725-1.235-1.014-1.924l-0.046-0.108
		c-0.425-1.007-1.318-1.427-2.516-1.182c-0.831,0.169-1.362,0.707-1.731,1.156c-0.143,0.173-0.279,0.35-0.425,0.539
		c-0.529-1.671-0.582-3.323-0.588-4.88l-0.001-0.201l-0.214-0.021c-1.659-0.17-2.63,0.476-2.958,1.975
		c-0.031,0.146-0.045,0.295-0.059,0.444c-0.009,0.091-0.017,0.182-0.03,0.273l-0.008,0.054c-0.005,0.043-0.014,0.114-0.013,0.121
		c-0.4,0.358-0.684,0.813-0.877,1.412c-0.915-0.905-1.598-2.477-1.94-4.483l-0.039-0.227l-0.24,0.04
		c-1.021,0.168-1.776,0.594-2.187,1.23c-0.405,0.629-0.455,1.438-0.144,2.339c0.075,0.219,0.056,0.362-0.08,0.589
		c-0.961,1.6-0.617,3.562,0.835,4.772c0.189,0.159,0.28,0.318,0.322,0.569c0.183,1.096,0.816,1.916,1.885,2.44
		c0.214,0.104,0.431,0.186,0.662,0.271c0.01,0.003,0.021,0.007,0.03,0.011l-0.615,0.635c-0.828,0.856-1.656,1.713-2.492,2.562
		c-0.195,0.199-0.375,0.419-0.361,0.678c0.01,0.185,0.113,0.353,0.324,0.528c0.433,0.36,0.924,0.643,1.419,0.817
		c0.599,0.211,1.213,0.285,1.811,0.285c0.563,0,1.113-0.066,1.619-0.145c1.006-0.154,1.816-0.461,2.48-0.937
		c0.333-0.237,0.48-0.521,0.465-0.893c-0.018-0.388-0.014-0.775-0.01-1.169l0.002-0.326c0.093-0.019,0.178-0.038,0.26-0.069
		c0.251-0.093,0.506-0.18,0.762-0.266c0.609-0.206,1.238-0.419,1.807-0.73c1.411-0.771,2.099-1.977,1.991-3.486
		c-0.033-0.461-0.089-0.908-0.147-1.382c-0.016-0.129-0.032-0.259-0.048-0.39l0.252,0.001c0.414,0.001,0.835,0.004,1.253-0.004
		c0.311-0.006,0.563-0.134,0.675-0.343C27.314,22.282,27.289,22.071,27.146,21.886 M17.816,20.481
		c-0.009-0.674,0.225-1.181,0.714-1.547c0.17-0.128,0.239-0.353,0.269-0.519c0.027-0.167,0.046-0.336,0.063-0.505
		c0.026-0.249,0.051-0.485,0.108-0.711c0.064-0.247,0.207-0.541,0.522-0.671l0.114,0.805c0.127,0.91,0.253,1.813,0.401,2.712
		c0.065,0.4,0.201,0.818,0.392,1.21c0.125,0.258,0.106,0.388-0.077,0.557c-0.122,0.113-0.225,0.24-0.334,0.375
		c-0.008,0.011-0.017,0.021-0.025,0.031l-0.394-0.274c-0.562-0.389-1.091-0.756-1.611-1.144
		C17.887,20.747,17.817,20.592,17.816,20.481 M20.39,23.74l0.759-0.984c0.558-0.727,1.101-1.432,1.655-2.127
		c0.235-0.294,0.461-0.507,0.691-0.648c0.313-0.193,0.615-0.254,0.872-0.175c0.277,0.085,0.502,0.324,0.648,0.692
		c0.119,0.301,0.228,0.605,0.342,0.927l0.064,0.181H25.38c-0.309-0.001-0.636-0.001-0.963,0.001
		c-0.228,0.001-0.511,0.027-0.678,0.215c-0.168,0.188-0.146,0.454-0.102,0.689l0.059,0.31c0.118,0.62,0.24,1.263,0.28,1.892
		c0.06,0.942-0.392,1.725-1.342,2.325c-0.707,0.447-1.542,0.747-2.579,0.92c-0.803,0.135-0.886,0.229-0.886,1.013
		c0,0.135-0.002,0.271-0.003,0.405c-0.004,0.322-0.009,0.655,0.011,0.984c0.01,0.177-0.044,0.262-0.227,0.367
		c-0.658,0.376-1.424,0.575-2.484,0.646c-0.764,0.05-1.573,0.05-2.328-0.287c-0.104-0.046-0.204-0.099-0.306-0.153l0.503-0.521
		c0.561-0.58,1.11-1.147,1.654-1.719c0.143-0.149,0.278-0.303,0.416-0.456c0.191-0.217,0.391-0.44,0.6-0.643
		c0.062-0.059,0.159-0.106,0.264-0.157c0.104-0.05,0.21-0.102,0.31-0.177c0.45-0.339,0.402-0.538,0.386-0.604
		c-0.059-0.243-0.34-0.462-0.565-0.516c-0.211-0.049-0.425-0.073-0.631-0.096c-0.237-0.026-0.46-0.051-0.667-0.111
		c-1.031-0.299-1.653-1.077-1.708-2.134c-0.011-0.225-0.147-0.479-0.325-0.604c-0.745-0.526-1.202-1.229-1.285-1.978
		c-0.085-0.763,0.203-1.521,0.831-2.194l0.108-0.117l-0.078-0.138c-0.39-0.68-0.601-1.258-0.361-1.867
		c0.061-0.151,0.207-0.299,0.377-0.468c0.825,3.153,2.916,5.455,6.545,7.216L20.39,23.74z"/>
</g>
</svg>
