<svg xmlns="http://www.w3.org/2000/svg" viewBox="0 0 54.45 42"><g data-name="Layer 2"><path d="M0 4C.73 2.09 1.89.57 4.06.13A7.69 7.69 0 015.65 0H31.7c3.7 0 5.72 2 5.74 5.71v1.1h11.49c3.4 0 5.52 2.11 5.52 5.49v17.65c0 3.69-1.84 5.61-5.55 5.79a3.16 3.16 0 00-.4.09v3.26a2.62 2.62 0 01-1.62 2.73 2.68 2.68 0 01-3.11-1c-1.3-1.46-2.61-2.9-3.87-4.39a1.9 1.9 0 00-1.63-.74c-5.1 0-10.21-.1-15.31.05-3.82.12-6.29-2.61-5.95-6A6.61 6.61 0 0017 29a2.27 2.27 0 00-2.63.79c-1.15 1.48-2.46 2.84-3.72 4.24a2.69 2.69 0 01-3.1.97A2.62 2.62 0 016 32.27v-3.14C5.85 29 5.8 29 5.75 29 2.81 29 1 27.58 0 24.89zm9.38 26.38c1.36-1.53 2.53-2.81 3.65-4.13a1.9 1.9 0 011.63-.74h17.21c1.55 0 2.16-.58 2.16-2.08v-18C34 4 33.42 3.41 32 3.41H5.54C4 3.41 3.41 4 3.41 5.55V23.4c0 1.52.6 2.11 2.12 2.12h3.85zm35.72 1.95h4c1.3 0 2-.64 2-2V12.15c0-1.36-.64-2-2-2H37.44v13.24A5.11 5.11 0 0132 28.93H20.46c-.15 3.05.17 3.4 3 3.4h15.63a3 3 0 012.79 1.25c.92 1.21 2 2.29 3.23 3.65z" fill="#1b2e3b" data-name="Camada 1"/></g></svg>