<svg xmlns="http://www.w3.org/2000/svg" viewBox="0 0 54.55 34.16"><defs><style>.cls-1{fill:#1b2e3b}</style></defs><g id="Layer_2" data-name="Layer 2"><g id="Camada_1" data-name="Camada 1"><g id="cBeUV5"><path class="cls-1" d="M51.1 29.7H3.47v-.51V2.61A2.37 2.37 0 016.07 0h42.42a2.37 2.37 0 012.61 2.6v27.1zM27.33 3H7.75c-1 0-1.41.37-1.41 1.41v20.9c0 1.1.36 1.46 1.45 1.46h39c1.09 0 1.45-.36 1.45-1.46V4.4c0-1.05-.37-1.42-1.4-1.42zM20.33 30.29c.33 1.14.7 1.4 1.88 1.4h10.16c1.17 0 1.53-.26 1.88-1.41h20.27a3.53 3.53 0 01-1.89 3.42 4 4 0 01-2 .46H3.89A3.75 3.75 0 010 30.54v-.25z"/><path class="cls-1" d="M23.53 11.21l9.88 3.24L30.47 16l3.69 3.65-2.08 2.08L28.4 18l-1.63 3.12z"/></g></g></g></svg>