<svg width="48" height="36" xmlns="http://www.w3.org/2000/svg"><g fill="none" fill-rule="evenodd"><path d="M44.41 2.975C43.216 1.65 41.73 1 39.987 1H12.832c-1.76 0-3.286.65-4.611 1.975L2.975 8.241C1.65 9.546 1 10.981 1 12.507v11.176c0 1.764.65 3.285 1.975 4.611l4.59 4.61c1.326 1.306 2.853 1.96 4.612 1.96H19.928c1.743 0 3.286-.654 4.595-1.96l19.728-19.077c1.325-1.32 1.976-2.847 1.976-4.606V7.586c0-1.759-.598-3.306-1.816-4.61z" stroke="#262626" stroke-width="2"/><path d="M18.362 8.001h2.126c1.041 0 1.886.845 1.886 1.887v.666H20.25a1.887 1.887 0 01-1.887-1.887v-.666zm6.039 3.297h1.832v.647c0 .71-.575 1.284-1.283 1.284h-1.833v-.648c0-.709.575-1.283 1.284-1.283zm-4.152 0h2.125v3.767a4.59 4.59 0 00-2.996.86.373.373 0 00.434.604 3.85 3.85 0 012.902-.678 3.887 3.887 0 012.759 1.949.37.37 0 00.505.145c.18-.1.244-.326.144-.506a4.626 4.626 0 00-3.005-2.265v-1.201h1.833c1.12 0 2.027-.908 2.027-2.028V10.91a.355.355 0 00-.355-.355h-2.204c-.494 0-.947.176-1.3.468V9.888a2.63 2.63 0 00-2.63-2.63h-2.514a.354.354 0 00-.355.355v1.054a2.63 2.63 0 002.63 2.63z" fill="#262626"/><path d="M18.362 8.001h2.126c1.041 0 1.886.845 1.886 1.887v.666H20.25a1.887 1.887 0 01-1.887-1.887v-.666zm6.039 3.297h1.832v.647c0 .71-.575 1.284-1.283 1.284h-1.833v-.648c0-.709.575-1.283 1.284-1.283zm-4.152 0h2.125v3.767a4.59 4.59 0 00-2.996.86.373.373 0 00.434.604 3.85 3.85 0 012.902-.678 3.887 3.887 0 012.759 1.949.37.37 0 00.505.145c.18-.1.244-.326.144-.506a4.626 4.626 0 00-3.005-2.265v-1.201h1.833c1.12 0 2.027-.908 2.027-2.028V10.91a.355.355 0 00-.355-.355h-2.204c-.494 0-.947.176-1.3.468V9.888a2.63 2.63 0 00-2.63-2.63h-2.514a.354.354 0 00-.355.355v1.054a2.63 2.63 0 002.63 2.63z" stroke="#262626" stroke-width=".5"/><path d="M14.49 22.822a.19.19 0 01-.059.039l-.019.009-4.205 2.124v-1.627l1.103-.542a.363.363 0 00.206-.35.374.374 0 00-.538-.315l-.77.38v-3.246l2.217-.973a.192.192 0 01.152-.004.2.2 0 01.11.105l1.748 3.96v.001l.096.217a.2.2 0 01-.042.222m13.88-3.502a1.457 1.457 0 00-1.92-.744l-.007.003-2.428 1.12a.372.372 0 00.311.675l2.426-1.119a.713.713 0 01.574 1.306l-4.97 2.194a2.886 2.886 0 01-2.453-.055l-1.819-.904a3.617 3.617 0 00-3.082-.07l-.036.016-1.36-3.08 1.888-.833a3.763 3.763 0 012.825-.09l3.658 1.343a.663.663 0 01.396.833.661.661 0 01-.835.41l-2.828-.957a.372.372 0 00-.239.705l2.829.957a1.407 1.407 0 001.848-1.198 1.402 1.402 0 00-.921-1.45l-3.652-1.34a4.49 4.49 0 00-3.382.108l-1.899.838a.938.938 0 00-1.167-.347l-2.44 1.07a.37.37 0 00-.223.34v6.548c0 .067.016.134.052.19a.377.377 0 00.488.141l4.736-2.394a.935.935 0 00.488-.516.933.933 0 00.03-.595l.052-.022a2.872 2.872 0 012.438.055l1.826.907c.969.481 2.092.508 3.082.07l4.97-2.194a1.459 1.459 0 00.744-1.92" fill="#262626"/><path d="M14.49 22.822a.19.19 0 01-.059.039l-.019.009-4.205 2.124v-1.627l1.103-.542a.363.363 0 00.206-.35.374.374 0 00-.538-.315l-.77.38v-3.246l2.217-.973a.192.192 0 01.152-.004.2.2 0 01.11.105l1.748 3.96v.001l.096.217a.2.2 0 01-.042.222zm13.879-3.502a1.457 1.457 0 00-1.92-.744l-.007.003-2.428 1.12a.372.372 0 00.311.675l2.426-1.119a.713.713 0 01.574 1.306l-4.97 2.194a2.886 2.886 0 01-2.453-.055l-1.819-.904a3.617 3.617 0 00-3.082-.07l-.036.016-1.36-3.08 1.888-.833a3.763 3.763 0 012.825-.09l3.658 1.343a.663.663 0 01.396.833.661.661 0 01-.835.41l-2.828-.957a.372.372 0 00-.239.705l2.829.957a1.407 1.407 0 001.848-1.198 1.402 1.402 0 00-.921-1.45l-3.652-1.34a4.49 4.49 0 00-3.382.108l-1.899.838a.938.938 0 00-1.167-.347l-2.44 1.07a.37.37 0 00-.223.34v6.548c0 .067.016.134.052.19a.377.377 0 00.488.141l4.736-2.394a.935.935 0 00.488-.516.933.933 0 00.03-.595l.052-.022a2.872 2.872 0 012.438.055l1.826.907c.969.481 2.092.508 3.082.07l4.97-2.194a1.459 1.459 0 00.744-1.92z" stroke="#262626" stroke-width=".5"/></g></svg>