<svg width="48" height="40" xmlns="http://www.w3.org/2000/svg"><path d="M45.158 6.427l-3.81-3.79A5.194 5.194 0 0037.538 1h-9.256a4.872 4.872 0 00-3.508 1.637l-.886.877L23 2.637A4.872 4.872 0 0019.513 1h-9.276a5.194 5.194 0 00-3.81 1.637l-3.81 3.79A5.273 5.273 0 001 10.237v6.401a5.253 5.253 0 001.617 3.85l15.766 16.261a5.213 5.213 0 003.81 1.627h3.39a5.213 5.213 0 003.81-1.627l15.765-16.262a5.252 5.252 0 001.637-3.849v-6.401a5.272 5.272 0 00-1.637-3.81z" stroke="#000" stroke-width="2" fill="none" fill-rule="evenodd"/></svg>