<svg width="55" height="39" xmlns="http://www.w3.org/2000/svg" xmlns:xlink="http://www.w3.org/1999/xlink"><defs><path id="a" d="M0 .005h48.447v31.487H0z"/><path id="c" d="M.12.244h22.655v22.653H.12z"/></defs><g fill="none" fill-rule="evenodd"><g transform="translate(0 .483)"><mask id="b" fill="#fff"><use xlink:href="#a"/></mask><path d="M24.22 18.758L3.801 3.94a6.093 6.093 0 014.385-1.863H40.26a6.09 6.09 0 014.384 1.862L24.22 18.758zM47.011 3.569c-.01-.015-.016-.032-.027-.046-.015-.02-.033-.036-.048-.055C45.45 1.377 43.016.005 40.26.005H8.186a8.174 8.174 0 00-6.67 3.457c-.018.02-.038.038-.054.06-.012.017-.02.035-.03.052A8.138 8.138 0 000 8.19v15.116c0 4.514 3.672 8.186 8.186 8.186h22.506a1.036 1.036 0 100-2.073H8.186a6.12 6.12 0 01-6.114-6.113V8.19c0-.906.204-1.764.56-2.538l20.98 15.225a1.034 1.034 0 001.217 0L45.815 5.65a6.06 6.06 0 01.56 2.54v5.354a1.036 1.036 0 102.072 0V8.19a8.134 8.134 0 00-1.436-4.62z" fill="#00FF7D" mask="url(#b)"/></g><g transform="translate(31.667 15.098)"><mask id="d" fill="#fff"><use xlink:href="#c"/></mask><path d="M11.448 2.317c-5.104 0-9.255 4.15-9.255 9.254 0 5.103 4.151 9.254 9.255 9.254 5.103 0 9.254-4.151 9.254-9.254s-4.151-9.254-9.254-9.254m0 20.58C5.202 22.897.12 17.817.12 11.571S5.202.244 11.448.244c6.245 0 11.327 5.081 11.327 11.327 0 6.246-5.082 11.326-11.327 11.326" fill="#00FF7D" mask="url(#d)"/></g><path d="M43.114 25.184c-.819 0-1.485.666-1.485 1.485a1.486 1.486 0 002.97 0c0-.82-.665-1.485-1.485-1.485m0 5.042a3.561 3.561 0 01-3.557-3.557 3.561 3.561 0 013.557-3.558 3.561 3.561 0 013.558 3.558 3.561 3.561 0 01-3.558 3.557" fill="#00FF7D"/><path d="M43.127 33.842c-.36 0-.725-.027-1.09-.08-3.035-.444-5.5-2.864-5.996-5.886-.383-2.337.347-4.627 2.005-6.282 1.658-1.656 3.948-2.381 6.285-1.997 2.938.486 5.342 2.873 5.847 5.806a7.321 7.321 0 01-.004 2.54c-.22 1.218-1.288 2.09-2.66 2.17-1.335.072-2.445-.643-2.791-1.79a2.894 2.894 0 01-.124-.841v-3.284a1.037 1.037 0 012.073 0v3.284c0 .086.012.167.035.241.103.345.625.323.689.32.318-.018.685-.171.737-.466a5.216 5.216 0 00.002-1.822c-.357-2.078-2.06-3.769-4.143-4.113-1.667-.275-3.302.24-4.482 1.418-1.179 1.178-1.698 2.81-1.424 4.48.351 2.141 2.099 3.856 4.25 4.171a5.078 5.078 0 003.423-.68 1.036 1.036 0 111.077 1.77 7.081 7.081 0 01-3.71 1.041" fill="#00FF7D"/></g></svg>