<svg width="39" height="30" xmlns="http://www.w3.org/2000/svg" xmlns:xlink="http://www.w3.org/1999/xlink"><defs><path id="a" d="M.33.325h36.286V27.42H.33z"/><path id="c" d="M.119.236H4.22v3.526H.119z"/></defs><g fill="none" fill-rule="evenodd"><g transform="translate(1.129 .051)"><mask id="b" fill="#fff"><use xlink:href="#a"/></mask><path d="M20.921 25.567l-5.903-9.38L33.413 3.72 20.921 25.567zm-6.193-4.747v-2.087l.74 1.175-.74.912zM31.344 3.19L13.811 15.072l-11.25-3.936L31.344 3.19zm5.258-1.911a.79.79 0 00-.022-.383c-.007-.025-.012-.05-.022-.074a.834.834 0 00-.078-.146l-.013-.016c-.006-.008-.009-.018-.015-.026-.01-.015-.026-.023-.037-.036a.793.793 0 00-.1-.095c-.018-.014-.034-.03-.054-.043a.776.776 0 00-.167-.084c-.02-.008-.04-.012-.061-.018a.812.812 0 00-.156-.028c-.016 0-.031-.004-.047-.004a.799.799 0 00-.203.024c-.006.002-.013.001-.02.003l-34.3 9.47a1.327 1.327 0 00-.977 1.24c-.02.585.339 1.108.892 1.302l11.906 4.165v6.548a.801.801 0 001.421.504l1.82-2.242 3.436 5.459c.245.39.666.622 1.127.622.476 0 .92-.257 1.157-.67L36.515 1.52c.008-.013.01-.028.016-.042a.792.792 0 00.051-.131c.007-.024.016-.046.02-.07z" fill="#000" mask="url(#b)"/></g><path d="M.8 21.955a.799.799 0 01-.488-1.434l4.752-3.66a.8.8 0 11.977 1.269l-4.753 3.659a.797.797 0 01-.487.166M8.366 21.409a.8.8 0 01-.488-1.435l2.281-1.756a.8.8 0 11.976 1.268l-2.281 1.757a.797.797 0 01-.488.166" fill="#000"/><g transform="translate(3.762 25.635)"><mask id="d" fill="#fff"><use xlink:href="#c"/></mask><path d="M.92 3.763a.8.8 0 01-.49-1.435L2.934.402a.8.8 0 01.976 1.268L1.407 3.596a.798.798 0 01-.488.167" fill="#000" mask="url(#d)"/></g><path d="M9.496 25.65a.8.8 0 01-.49-1.434l.95-.73a.8.8 0 11.976 1.268l-.949.73a.797.797 0 01-.487.167M5.458 23.66a.799.799 0 01-.488-1.434l.949-.73a.8.8 0 11.976 1.267l-.949.731a.797.797 0 01-.488.166M11.76 29.346a.8.8 0 01-.488-1.434l2.997-2.307a.8.8 0 11.976 1.268l-2.997 2.307a.797.797 0 01-.488.166" fill="#000"/></g></svg>