<svg width="10" height="8" xmlns="http://www.w3.org/2000/svg" xmlns:xlink="http://www.w3.org/1999/xlink"><defs><path id="a" d="M0 0h9.573v7.168H0z"/></defs><g fill="none" fill-rule="evenodd"><mask id="b" fill="#fff"><use xlink:href="#a"/></mask><path d="M9.188.418A1.21 1.21 0 008.252 0H2.504c-.372 0-.695.137-.976.418L.418 1.533c-.28.276-.418.58-.418.902v2.366c0 .373.137.695.418.976l.971.976c.281.276.604.415.976.415h1.641c.37 0 .696-.139.973-.415l4.176-4.039c.28-.279.418-.601.418-.974v-.346c0-.372-.127-.7-.385-.976" fill="#00FF7D" mask="url(#b)"/></g></svg>