<svg xmlns="http://www.w3.org/2000/svg" viewBox="0 0 602.96 114.83"><defs><style>.cls-1{fill:#fff}</style></defs><g id="Layer_2" data-name="Layer 2"><g id="Camada_1" data-name="Camada 1"><g id="IsTlzr"><path class="cls-1" d="M412 0c4.46 1.49 9.15 2.12 13.59 3.76a79.17 79.17 0 0121.35 11.8c1.57 1.21 2.83 2.59 1.38 4.47s-3.11.89-4.66-.29C419.11 1.16 388.52-.5 362.51 16 345 27 334.59 43.22 331 63.68c-.07.45-.12.89-.23 1.33-.4 1.59-1.34 2.63-3.06 2.34s-2.32-1.56-2.11-3.21A63.88 63.88 0 01330.14 47c10-23.51 27.37-38.57 52-45.4 2-.56 4.27-.32 6.08-1.64zM406.24 76.81c0 7.81.07 15.63 0 23.44s-4.71 13.26-12.22 14.33c-4.37.63-8.14-1-11.27-4a4.21 4.21 0 015.55-6.33c2.06 1.68 4.16 2.59 6.64 1.23s3-3.8 2.95-6.46c-.07-4.3 0-4.3-4.19-4.32-9.23 0-15.09-5.94-15.11-15.21V62.78c0-9.27 5.89-15.19 15.09-15.22h7.28c3.76 0 5.27 1.49 5.29 5.22.02 8.04-.01 16.03-.01 24.03zm-8.39-5.65V60.92c0-5 0-5-5.1-4.73-3.34.18-5.57 2.14-5.62 5.31q-.15 9.69 0 19.4a5.2 5.2 0 004.87 5.21c1.24.15 2.52 0 3.77.09 1.65.17 2.18-.43 2.13-2.1-.13-4.31-.05-8.63-.05-12.94z"/><path class="cls-1" d="M359.6 74.12c0-5.21-.09-10.42 0-15.63.05-1.93-.54-2.54-2.41-2.33-2.38.27-4.3-.53-5.09-3a4.15 4.15 0 014.43-5.49c2.81.15 3.25-.91 3.06-3.33-.47-5.92 1.2-11 6.36-14.49a14 14 0 016.55-2.25 4.32 4.32 0 015 3.76c.29 2.51-1.25 4.36-4 4.78-3.95.61-5.42 2.28-5.49 6.27V43c0 4.52 0 4.52 4.37 4.63 3.22.07 5.09 1.62 5.12 4.27s-1.81 4.25-5 4.31c-4.48.07-4.48.07-4.48 4.54v28.83a5.6 5.6 0 01-1.3 4.24 4 4 0 01-4.47 1 4.15 4.15 0 01-2.74-4.22zM419.07 71.21v9.17c0 2.41.77 4.48 3.06 5.57s4.28.54 6.22-1c2.21-1.82 4.65-1.57 6.17.39a4.49 4.49 0 01-.92 6.26c-4.2 3.51-9 4.55-14.11 2.55s-8.34-5.91-8.59-11.39c-.35-7.71-.36-15.46 0-23.17.27-5.48 3.58-9.39 8.68-11.32s9.92-.93 14.09 2.65a4.58 4.58 0 01.82 6.3c-1.48 1.87-4.06 2.1-6.23.3-1.94-1.6-3.95-2.15-6.2-1s-3 3.21-3 5.6z"/><path class="cls-1" d="M399.22 12c30.67-.06 56.52 21 62.28 50 .05.27.05.54.11.8.41 2 .62 4-1.92 4.51s-2.95-1.71-3.37-3.59c-5.41-24-20.07-39.11-44-45a52.94 52.94 0 00-23.53-.16c-2 .39-3.58.23-4.06-1.85s1-3 2.91-3.35A77.86 77.86 0 01399.22 12zM515.46 86.56v3.49c0 1.16.43 2.34 1.77 2.68a2.91 2.91 0 003.22-.7 4.41 4.41 0 00.61-3.85c-.17-.93-1.15-.6-1.82-.66s-1.18 0-1.19-.75a.85.85 0 011.15-.77c1.31.33 3.26-1.09 3.85 1.13.85 3.19-.43 6.33-2.69 7.15-3.69 1.36-6.74-.65-6.86-4.59-.07-2.42-.1-4.84.06-7.25a4.09 4.09 0 014.16-4.1c2.15-.16 4.14.35 5.08 2.64.29.73.73 1.62-.35 2s-1.19-.43-1.43-1.14c-.56-1.69-1.88-2.06-3.43-1.78s-2.15 1.45-2.14 3c.01 1.17 0 2.33.01 3.5zM494 85.13v-5.82c0-.68-.16-1.57.94-1.55.91 0 .85.78.86 1.39v14c0 .53-.27 1.48-.67 1.17-1.53-1.15-2.67.29-4 .33a3.59 3.59 0 01-2.25-.77c-2.49-1.84-2.57-7.31-.12-9.17 1.63-1.24 3.3-.97 5.24.42zm0 4.45c.05-1.89 0-3.79-2.35-3.89S489 87.33 489 89.21s.17 3.65 2.51 3.65c2.06-.01 2.63-1.52 2.49-3.28zM581.93 84.8v-5.67c0-.63 0-1.35.87-1.38s.93.69.93 1.32v14c0 1.17-.57 1.93-1.56.93-.84-.83-1 0-1.46.22a3.53 3.53 0 01-4.89-1.49 6.91 6.91 0 01-.05-6.95c1.09-2.03 3.01-2.27 6.16-.98zm-5 4.34c-.06 1.82.08 3.67 2.43 3.72 2.09 0 2.61-1.45 2.56-3.32s0-3.87-2.58-3.85c-2.14.01-2.45 1.69-2.34 3.45zM482.74 105.74c.07-.94.11-2.56.34-4.14.31-2.13 1.93-3 3.8-3.21s3.8.13 4.93 2c.5.82 1.16 2 .09 2.6s-1.33-.66-1.65-1.43c-.6-1.46-1.86-1.54-3.14-1.4a2.38 2.38 0 00-2.32 2.5c-.05 2.51-.05 5 0 7.52a2.46 2.46 0 002.4 2.71c1.41.14 2.72 0 3.17-1.72.2-.75.42-1.82 1.54-1.23.89.47.52 1.41.21 2.15-.85 2.05-2.65 2.62-4.6 2.58s-3.69-.73-4.36-2.9c-.56-1.77-.25-3.58-.41-6.03zM518.54 104.66v-5.64c0-.68.2-1.32 1-1.24.63 0 .81.59.81 1.18v14.26c0 .43-.14 1.24-.5 1.06-2.21-1.08-4.69 1.78-6.81-.6-1.86-2.1-1.63-4.53-1.12-6.87.6-2.6 2.88-3.29 6.62-2.15zm0 5.12c0-2.08 0-4-2.39-4.07s-2.68 1.6-2.71 3.47.27 3.64 2.45 3.74 2.8-1.53 2.67-3.14zM463.56 104.78v-5.6c0-.63 0-1.36.86-1.4s.94.64.94 1.31v14c0 .43.09 1-.39 1.18a1.6 1.6 0 01-1 0c-2.07-.54-4.53 1.72-6.34-1-1.34-2-1.33-6.45.3-8.09 1.29-1.38 2.61-1.51 5.63-.4zm0 5c0-2.13-.1-4-2.44-4.08s-2.66 1.64-2.68 3.5.28 3.64 2.48 3.71 2.8-1.55 2.67-3.12zM461.37 78.27h3.23c.65 0 1.34.06 1.26 1-.07.75-.7.7-1.22.7-1.43 0-2.87.1-4.3 0-2.27-.16-1.9 1.43-1.8 2.69s-.91 3.16 1.69 3a8.56 8.56 0 011.34 0c.43 0 1 0 1 .66a.74.74 0 01-.84.81c-3.86-.65-3.24 2-3.21 4.26v1.88c0 .62-.09 1.08-.84 1.11s-.93-.38-.93-1v-14c0-1 .63-1.17 1.44-1.17 1.03.07 2.11.06 3.18.06zM501.41 109.13a4.44 4.44 0 016.74-4.51 3.59 3.59 0 011.85 3.88c-.36 1.69-1.9 1.3-3.11 1.36a8.53 8.53 0 00-1.34 0c-.78.16-2-.59-2.23.71-.16 1.14.69 1.92 1.83 2.34a3.78 3.78 0 002.86-.17c.52-.21 1.22-.85 1.57.09s-.52 1.2-1.16 1.48c-3.69 1.62-6.99-.73-7.01-5.18zm4.1-.56c.84-.44 2.42.71 2.58-1 .16-1.51-1.07-2.25-2.45-2.22a2.23 2.23 0 00-2.36 2.15c-.02 1.69 1.46.68 2.23 1.07zM532.92 90.39v2.42c0 1.21-.06 2.46-1.67 1-.84-.73-1.16.23-1.69.42a3.51 3.51 0 01-3.79-.36A2.73 2.73 0 01525 91a2.9 2.9 0 012.81-2.09 3.39 3.39 0 001.05-.22c.75-.33 2.28.55 2.15-1.08s-1.25-2.29-2.85-2.1c-.35 0-.69.19-1 .26s-1.09.53-1.32-.27.47-1.06 1-1.29c3.11-1.28 5.87.43 6.09 3.79.06.8 0 1.61 0 2.41zm-3.49-.58c-.88.35-2.48-.13-2.6 1.72a1.41 1.41 0 001.58 1.67 2.64 2.64 0 002.68-2.42c.12-1.08-.77-.94-1.66-.97zM472 103.94a4 4 0 013.84 2.39c1 2.19.27 3.42-2.14 3.53h-2.42c-.64.05-1.58-.34-1.72.72a2 2 0 001.07 2 3.69 3.69 0 003.83 0c.51-.26 1.06-.46 1.35.22s-.28 1-.72 1.23a5.28 5.28 0 01-5.83-.38c-2.33-1.72-2-4.29-1.49-6.64.48-2.01 2.11-3.01 4.23-3.07zm0 4.73c.65-.72 2.35.68 2.35-1.18a2.2 2.2 0 00-2.38-2.11 2.13 2.13 0 00-2.42 2c-.04 2 1.64.69 2.51 1.29zM586 89.19c0-3.3 1.69-5.32 4.4-5.31s4.39 2.08 4.4 5.32-1.83 5.56-4.56 5.47S586 92.5 586 89.19zm1.86.16c-.05 1.88.33 3.61 2.65 3.5s2.35-2 2.36-3.8-.37-3.4-2.52-3.37c-2.35.04-2.57 1.83-2.5 3.67zM506.83 89.19c0 3.35-1.83 5.56-4.55 5.48S498 92.51 498 89.2s1.68-5.32 4.38-5.32 4.44 2.12 4.45 5.31zm-1.95.17c.08-1.84-.12-3.64-2.47-3.68-2.13 0-2.54 1.56-2.53 3.37s0 3.67 2.37 3.8 2.75-1.61 2.63-3.49zM533.78 109.22c0-3.33 1.62-5.28 4.36-5.26s4.37 2 4.38 5.28-1.88 5.6-4.54 5.5-4.21-2.18-4.2-5.52zm1.77.28c-.07 1.54.27 3.32 2.46 3.41s2.64-1.65 2.63-3.51-.15-3.62-2.44-3.69-2.66 1.64-2.65 3.79zM550.54 90.46v2.41c0 1.14-.31 2.16-1.66 1.12-1-.76-1.43.26-2.12.42-1.82.44-3.46.39-4.18-1.68s.32-3.3 2.58-3.8a9.53 9.53 0 001.31-.28c.73-.29 2.28.63 2-1.21-.21-1.51-1.27-2-2.7-2-.87 0-2.28 1.28-2.48-.1s1.62-1.34 2.71-1.43c2.52-.2 4.09 1.08 4.46 3.61a19.21 19.21 0 010 2.94zm-2 .65c.08-1.28-.58-1.44-1.38-1.3-1.19.2-2.74 0-2.88 1.75A1.48 1.48 0 00546 93.2a2.56 2.56 0 002.56-2.09zM553 89a1.63 1.63 0 010-.54c.37-1.43-.83-4.15.88-4.07s2.94-.9 4.49-.45a3.82 3.82 0 013.11 3.3c.21 2 .11 4 .13 5.93 0 .66-.1 1.3-1 1.23s-.76-.85-.78-1.43v-4.58c0-1.52-.87-2.8-2.66-2.71s-2.23 1.27-2.22 2.8 0 3.06 0 4.59c0 .66-.11 1.32-1 1.31S553 93.67 553 93v-4zM484.92 90.41v3c0 .61-.21 1-.93 1s-.82-.55-.83-1.11v-4.85c0-1.62-.82-2.82-2.61-2.76s-2.27 1.2-2.27 2.75v4.58c0 .66-.08 1.33-.92 1.37s-1-.63-1-1.28v-7.82c0-.55.28-1.38.81-1.11 2.08 1.06 4.43-1.44 6.44.67 1.53 1.65 1.3 3.6 1.31 5.56zM473.89 87.76c0 4.75-1.4 6.89-4.39 6.92s-4.5-2.11-4.38-6.68c0-1.3-1-3.72 1-3.72 1.63 0 .63 2.37.8 3.67.26 2-.68 4.9 2.65 4.82 3.09-.08 2.1-2.88 2.4-4.79.21-1.32-1-3.72 1-3.71 1.75.05.48 2.45.92 3.49zM548.64 104a8.23 8.23 0 011.45.3c.46.17 1.08.43.79 1.14-.21.53-.71.43-1.15.33a8.2 8.2 0 00-1.56-.37c-.94 0-1.87.2-2 1.31s.64 1.36 1.41 1.66c.17.07.35.07.52.13 1.57.49 3.16 1 3.28 3a2.59 2.59 0 01-1.38 2.7 5.32 5.32 0 01-4.92-.11c-.57-.29-1.16-.76-.76-1.48s.9-.06 1.37.09a8.72 8.72 0 002.05.53c.83.07 1.66-.13 1.89-1.11s-.4-1.5-1.18-1.86a11.11 11.11 0 00-1.27-.42c-1.64-.52-3.12-1.28-2.73-3.34s1.89-2.63 4.19-2.5zM527.42 106v-5.36c0-.6-.12-1.33.82-1.38s1 .62 1 1.26c0 1.9-.51 4.18 2.75 3.63.13 0 .45.33.47.53a.71.71 0 01-.82.81c-3.36-.4-2.34 2.09-2.35 3.71s-.73 3.69 2.13 3.62c.61 0 1.07.25 1 .92s-.65.71-1.19.77a3.2 3.2 0 01-3.82-3.14 4.87 4.87 0 010-.54zM564.11 86v-5.38c0-.59-.16-1.34.79-1.41s1 .58 1 1.24c0 2-.42 4.16 2.79 3.66.12 0 .43.35.43.55 0 .57-.43.74-.9.72-1.39-.06-2.73.09-2.27 1.94s-1.72 5 2.25 5.46c.62.07 1 .38.88 1s-.6.54-1.05.61a3.25 3.25 0 01-3.91-3.06v-.53zM535.49 89.31v-1.89c0-2.29 0-2.14 2.16-2.58.89-.18 1.69-1 2.72-1 .45 0 .92.1 1.07.62a.71.71 0 01-.6 1c-3.89.23-3.45 3.05-3.61 5.67-.07 1.08.9 3.07-.85 3.08s-.63-2-.86-3.06a8.34 8.34 0 01-.03-1.84zM494.5 109.3a12 12 0 010-2.68c.21-.88-1.2-3.78 2-1.77.55.35 1.75-1.08 2.92-.91.44.07.93.07 1 .62s-.13 1-.63 1c-3.75.13-3.4 2.83-3.58 5.38-.07 1.15.92 3.31-.88 3.29s-.54-2.17-.85-3.33a6.57 6.57 0 01.02-1.6zM597 89.13v-2.95c0-1.48 0-1.34 1.81-1.28.79 0 1.59-.7 2.43-.94.66-.18 1.56-.31 1.71.69s-.67.88-1.29 1c-2.84.36-2.76 2.48-2.95 4.61-.12 1.39.87 4-.71 3.94-2.06 0-.54-2.59-1-4a3.82 3.82 0 010-1.07zM572.81 89.28v3.74c0 .62 0 1.34-.85 1.38s-.9-.7-.9-1.31v-7.75c0-.65.06-1.29 1-1.22.72 0 .77.61.77 1.16-.01 1.33-.02 2.72-.02 4zM524.8 109.41v3.73c0 .65-.06 1.31-.95 1.26-.71 0-.8-.6-.8-1.15v-8c0-.55.1-1.11.81-1.13.92 0 .92.65.93 1.28.02 1.34.01 2.67.01 4.01zM507.58 99.62c-.47 1.1-1.62 1.22-2.46 1.72-.35.21-1.08.23-1-.36.18-1.25 1.51-1.24 2.35-1.77.41-.21.83-.15 1.11.41z"/></g><path class="cls-1" d="M18.45 25.82a2.82 2.82 0 012.79 2.78v8.59a2.84 2.84 0 01-.83 2.09 2.67 2.67 0 01-2 .82h-1.6v45.38a3.4 3.4 0 01-1.07 2.46A3.39 3.39 0 0113.27 89H3.54a3.39 3.39 0 01-2.47-1.08A3.4 3.4 0 010 85.48V29.35a3.42 3.42 0 011.07-2.46 3.38 3.38 0 012.47-1.07zM31.85 74.61V40.22a4 4 0 011-2.52l10.76-10.87a3.38 3.38 0 012.52-1H78a4 4 0 012.53 1L91.51 38a4 4 0 011 2.53v6.7A3.68 3.68 0 0189 50.72h-9.75a3.7 3.7 0 01-3.54-3.54v-1.27a4.1 4.1 0 00-1-2.53l-2.4-2.27a3 3 0 00-2.4-1H54.48a3.44 3.44 0 00-2.53 1l-2.28 2.27a3.46 3.46 0 00-1 2.53v23a3.46 3.46 0 001 2.53L52 73.72a3.5 3.5 0 002.53 1.14H69.9a2.88 2.88 0 002.4-1.14l2.4-2.27a4.1 4.1 0 001-2.53v-1.27a3.7 3.7 0 013.54-3.54H89a3.68 3.68 0 013.54 3.54v6.7a3.41 3.41 0 01-1 2.53L80.52 88A4.05 4.05 0 0178 89H46.13a3.39 3.39 0 01-2.52-1L32.86 77.13a3.42 3.42 0 01-1.01-2.52zM163.69 74.86a2.46 2.46 0 012.78 2.78v8.59a2.76 2.76 0 01-.76 2 2.62 2.62 0 01-2 .83H149.4a2.58 2.58 0 01-2.52-2.53v-.63a2.52 2.52 0 00-.7-1.84 2.32 2.32 0 00-1.71-.69 2.42 2.42 0 00-1.77.76l-4.42 4.29a3 3 0 01-1.77.64h-22.12a2.05 2.05 0 01-1.64-.76L102.51 78a2 2 0 01-.76-1.64v-12.5a2.42 2.42 0 01.76-1.77L112.75 52a2 2 0 011.64-.76h28.69a2.21 2.21 0 001.71-.76 2.54 2.54 0 00.7-1.77v-4.44a3.05 3.05 0 00-.64-1.77l-2.52-2.5a3.06 3.06 0 00-1.77-.63h-16.94a2.16 2.16 0 00-1.77.76l-2.4 2.4a2.36 2.36 0 00-.64 1.77A2.34 2.34 0 01118 46a2.67 2.67 0 01-1.83.76h-11.39a2.58 2.58 0 01-2.52-2.53V40.6a2 2 0 01.75-1.77l12.14-12.26a2.18 2.18 0 011.77-.75h30.46a2.42 2.42 0 011.77.75l12.14 12.26a2 2 0 01.71 1.77v34.26zm-18.2-8.6v-.63a2.57 2.57 0 00-.7-1.77 2.24 2.24 0 00-1.71-.76h-20.35a2.46 2.46 0 00-1.77.76l-2 2a2.34 2.34 0 00-.76 1.65v4.29a2.43 2.43 0 00.76 1.77l1.77 1.77a2.42 2.42 0 001.77.76h12.89a2.39 2.39 0 001.77-.76l7.57-7.34a2.43 2.43 0 00.76-1.74z"/><path d="M252.79 29.71a10.63 10.63 0 00-8.23-3.71h-50.5a11.72 11.72 0 00-8.58 3.68l-9.75 9.79a11 11 0 00-3.67 7.93v20.82a11.65 11.65 0 003.67 8.57l8.54 8.58a11.79 11.79 0 008.57 3.63h14.42a11.77 11.77 0 008.55-3.64l36.69-35.47a11.71 11.71 0 003.67-8.57v-3a12.13 12.13 0 00-3.38-8.61z" fill="#00d757"/></g></g></svg>