<svg width="48" height="36" xmlns="http://www.w3.org/2000/svg"><g fill="none" fill-rule="evenodd"><path d="M44.411 2.975C43.215 1.65 41.73 1 39.986 1H12.832c-1.76 0-3.286.65-4.611 1.975L2.975 8.241C1.65 9.546 1 10.981 1 12.507v11.176c0 1.764.65 3.285 1.975 4.611l4.59 4.61c1.325 1.306 2.852 1.96 4.611 1.96H19.928c1.743 0 3.286-.654 4.595-1.96l19.728-19.077c1.326-1.32 1.976-2.847 1.976-4.606V7.586c0-1.759-.598-3.306-1.816-4.61z" stroke="#262626" stroke-width="2"/><path d="M20.403 18.523l-.317-.335a.516.516 0 00-.317-.123h-.176a.43.43 0 00-.317.123.434.434 0 00-.124.318v2.342c0 .13.042.238.124.326a.414.414 0 00.317.132h.158a.439.439 0 00.317-.14l.335-.335a.43.43 0 00.123-.317v-1.691a.377.377 0 00-.123-.3m-3.259-2.959v-2.096a.414.414 0 00-.132-.317.442.442 0 00-.308-.122h-.212a.523.523 0 00-.316.122l-.317.334a.354.354 0 00-.141.3v1.462c0 .118.047.223.141.317l.317.317a.429.429 0 00.316.124h.212c.117 0 .22-.042.308-.124a.408.408 0 00.132-.317m5.76 2.536v3.118a.516.516 0 01-.123.317l-1.691 1.69a.518.518 0 01-.317.124h-1.18a.43.43 0 00-.317.123.43.43 0 00-.124.317v1.057a.43.43 0 01-.123.317.43.43 0 01-.316.123h-1.128a.43.43 0 01-.317-.123.433.433 0 01-.124-.317v-1.057a.411.411 0 00-.132-.317.44.44 0 00-.308-.123H15.42a.52.52 0 01-.318-.123l-1.655-1.656a.515.515 0 01-.123-.317V20.11a.44.44 0 01.123-.31.413.413 0 01.317-.13h1.48a.438.438 0 01.44.44v.422c0 .118.047.222.141.317l.317.317c.093.094.2.141.316.141h.247c.117 0 .22-.044.308-.132a.44.44 0 00.132-.326v-2.342a.414.414 0 00-.132-.318.44.44 0 00-.308-.123h-1.25a.52.52 0 01-.318-.123l-1.655-1.656a.516.516 0 01-.123-.317v-2.906c0-.106.041-.21.123-.317l1.655-1.638a.44.44 0 01.318-.14h1.25c.117 0 .22-.041.308-.124a.41.41 0 00.132-.317V9.47c0-.128.042-.235.124-.317a.433.433 0 01.317-.123h1.128c.128 0 .234.042.316.123a.43.43 0 01.123.317v1.057a.43.43 0 00.124.317.428.428 0 00.317.124h1.074c.117 0 .223.047.317.14l1.656 1.638c.082.106.123.21.123.317v1.163a.434.434 0 01-.123.317.433.433 0 01-.318.123h-1.479a.465.465 0 01-.326-.123.42.42 0 01-.131-.317v-.44a.375.375 0 00-.124-.3l-.317-.335a.522.522 0 00-.317-.122h-.035a.433.433 0 00-.317.122.434.434 0 00-.124.317v2.096c0 .13.042.235.124.317a.428.428 0 00.317.124h1.215c.117 0 .223.046.317.14l1.656 1.656a.41.41 0 01.123.3" fill="#262626"/></g></svg>