<svg width="20" height="22" xmlns="http://www.w3.org/2000/svg" xmlns:xlink="http://www.w3.org/1999/xlink"><defs><path id="a" d="M0 .02h19.337v20.647H0z"/></defs><g fill="none" fill-rule="evenodd"><g transform="translate(0 .647)"><mask id="b" fill="#fff"><use xlink:href="#a"/></mask><path d="M18.353 9.688a.82.82 0 11-1.638 0V3.624h1.638v6.064zm-4.26.819V1.822a.819.819 0 111.638 0v7.866c0 .285.068.566.198.819h-1.836zm-.984 8.481l-.47-.472a.492.492 0 00-.696 0l-1.026 1.026-1.632-1.087a.492.492 0 00-.545 0l-1.693 1.13-1.694-1.13a.492.492 0 00-.546 0l-1.63 1.087-1.027-1.026a.49.49 0 00-.695 0l-.472.472V1.822a.82.82 0 01.82-.82h11.504c-.13.254-.198.535-.198.82v17.166zm5.736-16.346h-2.13v-.82A1.804 1.804 0 0014.912.02H1.802C.808.02.003.827 0 1.822v18.353c-.014.425.55.659.84.348l.963-.963.963.963a.492.492 0 00.62.061l1.694-1.13 1.694 1.13c.165.11.38.11.545 0l1.694-1.13 1.694 1.13c.194.13.454.104.62-.061l.963-.963.963.963c.292.31.853.077.84-.348V11.49h3.441a1.805 1.805 0 001.803-1.802V3.133a.492.492 0 00-.492-.491z" fill="#262626" mask="url(#b)"/></g><path d="M6.391 4.927H8.03c.271 0 .491.22.491.492a.492.492 0 10.984 0A1.477 1.477 0 008.03 3.944h-.492v-.82a.491.491 0 00-.983 0v.82h-.164a1.802 1.802 0 100 3.605h1.31a.82.82 0 110 1.639H6.064a.492.492 0 01-.491-.492.492.492 0 00-.983 0c0 .815.66 1.474 1.474 1.475h.492v.82a.491.491 0 00.983 0v-.82h.164a1.802 1.802 0 100-3.605h-1.31a.82.82 0 110-1.639M2.458 13.12a.491.491 0 00-.491.492v2.622a.491.491 0 00.983 0v-2.622a.491.491 0 00-.492-.491M3.77 13.12a.491.491 0 00-.492.492v2.622a.491.491 0 00.982 0v-2.622a.491.491 0 00-.49-.491M5.736 13.12a.491.491 0 00-.492.492v2.622a.491.491 0 00.983 0v-2.622a.491.491 0 00-.491-.491M7.046 13.12a.491.491 0 00-.49.492v2.622a.491.491 0 00.982 0v-2.622a.491.491 0 00-.492-.491M8.357 13.12a.491.491 0 00-.491.492v2.622a.491.491 0 00.983 0v-2.622a.492.492 0 00-.492-.491M10.324 13.12a.491.491 0 00-.492.492v2.622a.491.491 0 00.983 0v-2.622a.491.491 0 00-.491-.491M11.635 13.12a.491.491 0 00-.492.492v2.622a.491.491 0 00.983 0v-2.622a.491.491 0 00-.491-.491" fill="#FFF"/></g></svg>