<svg width="20" height="24" xmlns="http://www.w3.org/2000/svg" xmlns:xlink="http://www.w3.org/1999/xlink"><defs><path id="a" d="M0 24h20V0H0z"/></defs><g fill="none" fill-rule="evenodd"><path d="M16 16.5v3c0-.27-.22-.5-.5-.5H15v-2.5c0-.27.22-.5.5-.5s.5.23.5.5" fill="#262626"/><path d="M15.5 19c.28 0 .5.23.5.5 0 .28-.22.5-.5.5H15v-1h.5z" fill="#262626"/><mask id="b" fill="#fff"><use xlink:href="#a"/></mask><path fill="#262626" mask="url(#b)" d="M1 20h14v-1H1z"/><path d="M19.5 8h-7.79l1.14-1.14c.2-.2.2-.51 0-.71a.501.501 0 00-.7 0l-2 2c-.2.2-.2.51 0 .71l2 2a.5.5 0 00.35.14.495.495 0 00.35-.85L11.71 9h7.79c.28 0 .5-.22.5-.5 0-.27-.22-.5-.5-.5" fill="#FFF" mask="url(#b)"/><path d="M1 19v1H.5c-.28 0-.5-.22-.5-.5 0-.27.22-.5.5-.5H1z" fill="#262626" mask="url(#b)"/><path d="M13.5 1h-11C1.67 1 1 1.68 1 2.5V19H.5c-.28 0-.5.23-.5.5v-17C0 1.13 1.12 0 2.5 0h11C14.88 0 16 1.13 16 2.5v3c0 .28-.22.5-.5.5s-.5-.22-.5-.5v-3c0-.82-.67-1.5-1.5-1.5" fill="#262626" mask="url(#b)"/><path d="M19.85 13.15l-2-2a.502.502 0 00-.7 0c-.2.2-.2.51 0 .71L18.29 13H10.5c-.28 0-.5.23-.5.5 0 .28.22.5.5.5h7.79l-1.14 1.15c-.15.15-.19.36-.11.54.02.06.06.12.11.17a.5.5 0 00.35.14.5.5 0 00.35-.14l2-2c.2-.2.2-.51 0-.71" fill="#FFF" mask="url(#b)"/><path d="M13.5 24h-11C1.12 24 0 22.88 0 21.5v-2c0 .28.22.5.5.5H1v1.5c0 .83.67 1.5 1.5 1.5h11c.83 0 1.5-.67 1.5-1.5V20h.5c.28 0 .5-.22.5-.5v2c0 1.38-1.12 2.5-2.5 2.5" fill="#262626" mask="url(#b)"/></g></svg>