<svg width="20" height="21" xmlns="http://www.w3.org/2000/svg" xmlns:xlink="http://www.w3.org/1999/xlink"><defs><path id="a" d="M0 .464h5.997V6.46H0z"/></defs><g fill="none" fill-rule="evenodd"><path fill="#262626" d="M6.665 2.26l6.658.008-.001.666-6.658-.008zM13.142 13.587a.5.5 0 01.001-.998l2.164.001c.276.001.5.226.5.501a.501.501 0 01-.501.499l-2.164-.003zm2.662 1.169a.5.5 0 01-.5.498h-.5l-1.664-.003a.5.5 0 01.001-.998l2.164.003a.5.5 0 01.499.5zm-1.002 2.162l-.999-.001-1.165-.002a.5.5 0 01.002-.998h.499l1.664.003a.5.5 0 01-.001.998zm-1 1.663h-.167l-1.665-.002h-.332a.5.5 0 01-.5-.5.5.5 0 01.5-.5l1 .002 1.165.002a.5.5 0 01-.002.998zm2.67-5.489c0-.643-.522-1.166-1.164-1.167h-.666l.006-4.662h-.665l-.007 4.66h-.832a1.165 1.165 0 00-.815 1.996 1.151 1.151 0 00-.177 1.442 1.163 1.163 0 00-.678 1.053c0 .18.043.347.116.5l-2.614-.004a2.993 2.993 0 00-1.284-2.461 2.001 2.001 0 001.29-1.866.333.333 0 00-.333-.334l-2.663-.003.004-3.329-.665-.001-.005 3.329a1 1 0 00-1 .998l-.009 7.324h.666l.01-7.323c0-.184.149-.334.333-.333l2.953.004a1.334 1.334 0 01-1.29.997l-1-.002a.333.333 0 000 .666A2.333 2.333 0 018.31 16.91v.334c0 .183.148.332.333.333l1.947.002c-.073.152-.117.32-.117.5 0 .642.521 1.165 1.164 1.166l-.002 1.332h.666l.001-1.331 1.332.002h.166c.643.001 1.166-.521 1.167-1.164 0-.181-.044-.35-.119-.504a1.164 1.164 0 001.12-1.159 1.16 1.16 0 00-.176-.61 1.16 1.16 0 00.327-1.886 1.16 1.16 0 00.353-.832z"/><path d="M3.966 5.085a.335.335 0 00-.097.234c0 .33-.264.599-.59.598h-.846a.333.333 0 00-.068-.368 1.276 1.276 0 01-.322-.57c.317.135.659.205 1.008.205a.332.332 0 00.333-.332v-.35c0-.137.11-.249.244-.249s.243.112.243.25c0 .104.048.202.131.266l.158.12-.194.196zm.554-.76a.913.913 0 00-.891-.738.914.914 0 00-.91.903 1.942 1.942 0 01-.748-.303l-.115-.079a.332.332 0 00-.52.275v.273c-.001.402.12.785.343 1.106l-.249.251a.333.333 0 00.236.568l1.613.002a1.26 1.26 0 001.248-1.118l.374-.377a.332.332 0 00-.035-.499l-.346-.264zM9.657 5.925l-.002 1-.666-.002v.666l.665.001-.002 1.332h.666l.002-1.331h.666v-.665l-.665-.001.001-.666.665.001.002-.666h-1a.332.332 0 00-.332.331" fill="#FFF"/><path d="M7.655 9.252l.005-3.995c0-.184.15-.333.333-.333l3.995.006c.184 0 .333.15.333.333l-.006 3.995c0 .183-.15.333-.333.333l-3.995-.006a.333.333 0 01-.332-.333m5.326.007l.005-3.995a1 1 0 00-.997-1L7.994 4.26a1 1 0 00-1 .997l-.005 3.995a1 1 0 00.997 1l3.995.005a1 1 0 001-.997" fill="#FFF"/><g transform="translate(0 1.789)"><mask id="b" fill="#fff"><use xlink:href="#a"/></mask><path d="M.666 5.457L.67 1.462c0-.184.15-.333.334-.333l3.994.005c.184 0 .333.15.333.334l-.006 3.995c0 .183-.15.333-.333.333L.998 5.79a.334.334 0 01-.332-.333m5.326.007l.005-3.995a1 1 0 00-.997-1L1.005.464a1 1 0 00-1 .996L0 5.456a1 1 0 00.997 1l3.995.004a1 1 0 001-.996" fill="#FFF" mask="url(#b)"/></g><path d="M18.978 5.938l-3.995-.006a.333.333 0 01-.333-.333l.003-1.664h.7c.153.76.824 1.334 1.628 1.334.804 0 1.477-.57 1.632-1.33l.7.002-.002 1.664c0 .184-.15.333-.333.333m-.996-2.332a1 1 0 11-1.995-.002 1 1 0 011.995.002m-2.993-2.334l3.995.005c.183 0 .332.15.332.333l-.002 1.665-.7-.002a1.668 1.668 0 00-1.628-1.333 1.668 1.668 0 00-1.633 1.33h-.7l.003-1.666c0-.183.15-.332.333-.332m3.996-.661L14.99.606a.999.999 0 00-1 .998l-.006 3.994a1 1 0 00.998 1l3.995.006a1 1 0 001-.998l.005-3.995a1 1 0 00-.997-1" fill="#FFF"/><path fill="#262626" d="M9.646 14.248l.666.001-.002.666-.665-.001z"/></g></svg>