<svg width="20" height="21" xmlns="http://www.w3.org/2000/svg" xmlns:xlink="http://www.w3.org/1999/xlink"><defs><path id="a" d="M0 .158h6.667v11.985H0z"/></defs><g fill="none" fill-rule="evenodd"><g transform="translate(0 7.998)"><mask id="b" fill="#fff"><use xlink:href="#a"/></mask><path d="M2.865 12.142c-.9-.01-1.621-.274-2.128-.792C-1.08 9.493.545 4.89 4.686.158l.507.444C1.418 4.917-.29 9.334 1.22 10.879c.871.891 2.755.766 5.166-.345l.282.613c-1.467.675-2.755 1.008-3.802.995" fill="#FFF" mask="url(#b)"/></g><path d="M9.919 19.885c-3.307-.037-6.48-1.729-8.311-4.625l.57-.36a9.299 9.299 0 0010.502 3.923 9.205 9.205 0 005.496-4.489 9.209 9.209 0 00.713-7.058 9.212 9.212 0 00-4.487-5.496 9.21 9.21 0 00-7.059-.713c-4.896 1.472-7.68 6.652-6.21 11.546l-.644.195C-1.09 7.557 1.898 2 7.149.422c5.252-1.578 10.806 1.41 12.385 6.66a9.878 9.878 0 01-.765 7.572 9.88 9.88 0 01-5.895 4.813 9.84 9.84 0 01-2.955.418" fill="#262626"/><path d="M7.057 5.678L4.04 4.296a.338.338 0 01-.095-.547l.682-.666a.336.336 0 01.335-.08L8.32 4.05l-.2.643-3.165-.989-.187.183 2.57 1.178-.28.612z" fill="#FFF"/><path d="M4.694 6.624L6 7.427c.047.029.086.07.113.117l.775 1.323.235-.231-.277-1.165a.339.339 0 01.094-.32l3.066-2.967c.294-.302.488-.686.559-1.101a2.083 2.083 0 00-1.13.571L6.412 6.612a.337.337 0 01-.321.085l-1.16-.304-.236.23zm2.117 3.123a.336.336 0 01-.286-.166l-.95-1.624-1.602-.986a.336.336 0 01-.058-.527l.681-.667a.338.338 0 01.321-.084l1.16.304 2.888-2.824a2.755 2.755 0 011.971-.79h.001a.336.336 0 01.333.34 2.78 2.78 0 01-.789 1.939l-2.934 2.84.276 1.164a.336.336 0 01-.092.32l-.68.665a.341.341 0 01-.24.096z" fill="#FFF"/><path d="M9.465 9.777a.334.334 0 01-.307-.207L7.885 6.522l.622-.26L9.6 8.883l.207-.179-.913-3.216.647-.185.973 3.424a.338.338 0 01-.104.348l-.721.621a.335.335 0 01-.224.082" fill="#FFF"/><path d="M13.475 16.223l1.208.013 1.163-1.136.013-1.209a.34.34 0 01.059-.185l1.015-1.486-.718-.009a.338.338 0 01-.3-.19l-.896-1.845-2.823-.032-.023 2.021 1.01.012a.336.336 0 01.333.34l-.041 3.706zm1.34.688l-1.684-.02a.335.335 0 01-.333-.34l.041-3.705-1.01-.01a.338.338 0 01-.333-.342l.03-2.694a.337.337 0 01.341-.333l3.368.038a.338.338 0 01.3.19l.896 1.845 1.14.013a.337.337 0 01.274.526l-1.313 1.922-.014 1.245a.341.341 0 01-.101.237l-1.363 1.332a.334.334 0 01-.24.096zM19.277 9.55l-1.347-.014a.335.335 0 01-.29-.174L16.414 7.16l-1.646-.018-.582.854a.338.338 0 01-.283.146l-1.347-.014a.338.338 0 01-.333-.342l.027-2.357a.336.336 0 01.34-.333l1.881.021 1.264-1.235a.337.337 0 01.238-.095l1.685.019-.007.673-1.545-.017-1.263 1.234a.336.336 0 01-.24.096l-1.684-.018-.018 1.683.83.01.583-.854a.336.336 0 01.282-.147l2.021.023c.12.002.231.067.29.173l1.226 2.202 1.152.014-.008.673zM5.422 13.437l1.347.015a.337.337 0 01.333.34l-.035 3.032.68-.498.01-.842a.338.338 0 01.129-.262l1.571-1.228.014-1.185-1.684-.02a.337.337 0 01-.237-.1l-.902-.923-1.208-.014-.018 1.685zM6.72 17.83a.338.338 0 01-.333-.34l.038-3.368-1.348-.016a.336.336 0 01-.333-.34l.027-2.358a.337.337 0 01.34-.334l1.684.02c.09.001.175.037.237.101l.902.922 1.881.022a.337.337 0 01.334.34l-.02 1.685a.337.337 0 01-.129.261l-1.572 1.229-.01.848a.339.339 0 01-.137.268l-1.359.996a.34.34 0 01-.202.064zM1.755 10.026l-1.347-.015.007-.674 1.01.012.012-1.01c0-.09.037-.175.101-.238l.834-.815-.762-1.304-.147-.001.008-.674.337.004a.335.335 0 01.287.167l.991 1.695a.339.339 0 01-.055.411l-.922.902-.014 1.207a.337.337 0 01-.34.333M8.491 2.372a.339.339 0 01-.15-.035l-2.022-1.01.301-.603 1.847.923.848-.566a.374.374 0 01.105-.046l1.093-.273v-.41h.673v.672c0 .155-.105.29-.255.327l-1.291.323-.962.642a.334.334 0 01-.187.056" fill="#262626"/></g></svg>