<svg width="24" height="24" xmlns="http://www.w3.org/2000/svg"><g fill="#9B9B9B" fill-rule="nonzero"><path d="M14.512 15.48h-5.8a1.456 1.456 0 01-1.456-1.448V10.16a1.456 1.456 0 011.456-1.448h5.8A1.456 1.456 0 0116 10.16v3.872a1.456 1.456 0 01-1.456 1.448h-.032zm-5.8-5.8a.48.48 0 00-.488.48v3.872a.48.48 0 00.488.48h5.8a.48.48 0 00.488-.48V10.16a.48.48 0 00-.488-.48h-5.8z"/><path d="M.744 14.512a.48.48 0 01-.472-.376A11.345 11.345 0 010 11.608C.009 5.201 5.2.008 11.608 0A11.488 11.488 0 0120.8 4.544a.498.498 0 11-.8.592A10.64 10.64 0 00.968 11.608c-.004.78.08 1.558.248 2.32a.48.48 0 01-.368.576l-.104.008zM11.608 23.2A11.488 11.488 0 012.4 18.68a.498.498 0 11.8-.592 10.64 10.64 0 0019.08-6.48 10.168 10.168 0 00-.256-2.304.481.481 0 11.936-.224c.18.83.26 1.679.24 2.528-.018 6.395-5.197 11.574-11.592 11.592z"/><path d="M2.464 23.2a.48.48 0 01-.48-.48l-.048-4.84a.504.504 0 01.136-.28c.082-.1.2-.166.328-.184h4.856a.488.488 0 110 .968H2.904l.048 4.352a.488.488 0 01-.48.488l-.008-.024zM20.8 5.808H16a.488.488 0 110-.968h4.32V.48a.488.488 0 01.968 0v4.84a.48.48 0 01-.48.488H20.8zM14.032 9.192h-.968V7.256a1.456 1.456 0 00-2.904 0v1.936h-.968V7.256a2.4 2.4 0 114.8 0l.04 1.936z"/></g></svg>