<svg width="48" height="36" xmlns="http://www.w3.org/2000/svg"><g stroke="#262626" stroke-width="2" fill="none" fill-rule="evenodd"><path d="M44.41 2.975C43.216 1.65 41.73 1 39.986 1H12.831c-1.759 0-3.285.65-4.61 1.975L2.974 8.241C1.649 9.546 1 10.981 1 12.507v11.176c0 1.764.65 3.285 1.975 4.611l4.59 4.61c1.326 1.306 2.853 1.96 4.611 1.96H19.928c1.743 0 3.286-.654 4.595-1.96l19.728-19.077c1.325-1.32 1.976-2.847 1.976-4.606V7.586c0-1.759-.598-3.306-1.816-4.61z"/><path d="M23.841 13.507h-1.597V11.91c0-1.155-.945-2.1-2.1-2.1H16.95a2.107 2.107 0 00-2.102 2.1v1.597h-1.596c-1.155 0-2.1.946-2.1 2.101v3.193c0 1.156.945 2.1 2.1 2.1h1.596V22.5c0 1.156.946 2.102 2.102 2.102h3.193a2.108 2.108 0 002.101-2.102v-1.597h1.597c1.155 0 2.1-.945 2.1-2.1v-3.194a2.107 2.107 0 00-2.1-2.101z"/></g></svg>