<svg width="20" height="20" xmlns="http://www.w3.org/2000/svg"><g fill="#19D866" fill-rule="nonzero"><path d="M15.208 19.208c.51 0 1.017-.067 1.509-.2a2.283 2.283 0 001.35-1.041l.983-1.625a1.142 1.142 0 00-.342-1.525l-3.891-2.592a1.133 1.133 0 00-1.484.275l-1.166 1.425a.492.492 0 01-.625.133l-.209-.116a13.05 13.05 0 01-3.4-2.667 13.208 13.208 0 01-2.666-3.392l-.117-.216a.492.492 0 01.133-.625l1.45-1.134a1.133 1.133 0 00.25-1.516L4.392.5A1.142 1.142 0 002.867.158l-1.625.984C.732 1.442.358 1.929.2 2.5-.392 4.625.05 8.333 5.475 13.733c4.317 4.317 7.525 5.475 9.733 5.475zM.833 2.667c.11-.417.375-.775.742-1L3.242.692a.492.492 0 01.616.141l1.409 2.142L6.45 4.75c.141.214.094.5-.108.658L4.883 6.542c-.443.336-.568.95-.291 1.433l.116.217A13.442 13.442 0 007.5 11.725a13.442 13.442 0 003.533 2.775l.217.117a1.108 1.108 0 001.433-.292l1.134-1.458a.492.492 0 01.658-.109l3.858 2.592a.5.5 0 01.15.667l-.975 1.666c-.22.367-.571.636-.983.75-1.967.542-5.408.1-10.617-5.108C.7 8.117.275 4.633.833 2.667zM10.883 3.2a5.45 5.45 0 015.442 5.442.325.325 0 10.642 0 6.092 6.092 0 00-6.084-6.084.325.325 0 00-.316.325.317.317 0 00.316.317z"/><path d="M10.883 5.125a3.533 3.533 0 013.525 3.517.317.317 0 00.317.325c.18 0 .325-.146.325-.325a4.167 4.167 0 00-4.167-4.167.325.325 0 000 .642v.008z"/><path d="M10.883 7.042a1.6 1.6 0 011.617 1.6.325.325 0 10.642 0A2.25 2.25 0 0010.9 6.4a.325.325 0 00-.317.325c0 .169.132.308.3.317z"/></g></svg>