<svg xmlns="http://www.w3.org/2000/svg" viewBox="0 0 83.58 99.92"><defs><style>.cls-1{fill:#262626}</style></defs><g id="Layer_2" data-name="Layer 2"><g id="Camada_1" data-name="Camada 1"><path class="cls-1" d="M64.25 65.35a3 3 0 00-3 3v9.25H6V11.16A5.18 5.18 0 0111.16 6h44.92a5.18 5.18 0 015.18 5.18v12.23a3 3 0 106 0V11.16A11.17 11.17 0 0056.08 0H11.16A11.18 11.18 0 000 11.16v77.6a11.18 11.18 0 0011.16 11.16h44.92a11.17 11.17 0 0011.16-11.16V68.34a3 3 0 00-2.99-2.99zm-8.17 28.59H11.16A5.19 5.19 0 016 88.76v-5.18h55.26v5.18a5.19 5.19 0 01-5.18 5.18z"/><path class="cls-1" d="M54.1 29.64a3 3 0 00-4.2-4.24l-8.17 8.16a3 3 0 000 4.24L49.9 46a3 3 0 005.1-2.21 2.87 2.87 0 00-.89-2.06l-3.05-3.08h29.53a3 3 0 003-3 3 3 0 00-3-3H51.06zM82.69 54l-8.17-8.16a3 3 0 10-4.2 4.24l3 3H43.83a3 3 0 00-3 3 3 3 0 003 3h29.54l-3.05 3.08a2.9 2.9 0 00-.68 3.18 2.71 2.71 0 00.68 1.06 3 3 0 004.2 0l8.17-8.17a3 3 0 000-4.23z"/></g></g></svg>