<svg xmlns="http://www.w3.org/2000/svg" xmlns:xlink="http://www.w3.org/1999/xlink" width="137" height="40"><defs><path id="a" d="M0 .08h136.68v39.05H0z"/><path id="c" d="M0 39.92h136.68V.87H0z"/><path id="e" d="M65.024 15.492c1.123 0 1.963-.817 1.963-2.115 0-1.307-.84-2.116-1.963-2.116s-1.962.81-1.962 2.116c0 1.298.84 2.115 1.962 2.115m0 .603c-1.497 0-2.672-1.123-2.672-2.718s1.176-2.72 2.672-2.72c1.505 0 2.674 1.123 2.674 2.72s-1.17 2.718-2.674 2.718"/><path id="f" d="M72.956 10.712v5.33h-.696l-2.795-4.238v4.238h-.694v-5.33h.694l2.795 4.23v-4.23z"/></defs><g fill="none" fill-rule="evenodd"><g transform="translate(0 .791)"><mask id="b" fill="#fff"><use xlink:href="#a"/></mask><path d="M131.884 39.13H4.796A4.81 4.81 0 010 34.334V4.875A4.81 4.81 0 014.796.079h127.088a4.81 4.81 0 014.797 4.796v29.46a4.81 4.81 0 01-4.797 4.797" fill="#000" mask="url(#b)"/></g><path d="M32.623 21.34l-5.355 3.06-2.904-4.045 2.904-4.045 5.355 3.062a1.135 1.135 0 010 1.967zm-15.205 8.69l5.87-8.178 2.454 3.42-8.325 4.76zm-3.347 1.666a1.117 1.117 0 01-.456-.143 1.14 1.14 0 01-.564-.981V10.137a1.14 1.14 0 01.564-.98 1.13 1.13 0 01.454-.145l8.144 11.344-8.143 11.342zM25.743 15.44l-2.453 3.42-5.87-8.178 8.325 4.76zm7.747 2.416L15.613 7.638a2.88 2.88 0 00-1.429-.38 2.89 2.89 0 00-2.88 2.879v20.437c0 1.023.55 1.978 1.435 2.5a2.88 2.88 0 001.445.39 2.89 2.89 0 001.429-.38L33.5 22.856a2.886 2.886 0 001.45-2.5 2.89 2.89 0 00-1.45-2.5z" fill="#00FF7D"/><path d="M47.463 15.47c1.4 0 2.116-.78 2.116-2.078s-.726-2.107-2.116-2.107H46.5v4.185h.963zm2.826-2.078c0 1.65-1.077 2.65-2.826 2.65h-1.657V10.72h1.657c1.75 0 2.826 1.023 2.826 2.672z" fill="#fff"/><mask id="d" fill="#fff"><use xlink:href="#c"/></mask><g fill="#fff"><path mask="url(#d)" d="M51.362 16.042h.695V10.72h-.695zm3.72.053c-1.07 0-1.826-.597-1.84-1.474h.74c.046.443.358.885 1.1.885.67 0 1.07-.38 1.07-.885 0-1.437-2.88-.52-2.88-2.497 0-.88.7-1.475 1.764-1.475 1.016 0 1.68.558 1.764 1.368h-.763c-.046-.36-.383-.764-1.03-.772-.573-.016-1.023.283-1.023.855 0 1.375 2.87.52 2.87 2.5 0 .756-.618 1.504-1.77 1.504m4.665-2.858c.794 0 1.13-.374 1.13-.97 0-.618-.337-.985-1.13-.985h-1.024v1.955h1.024zm0 .573h-1.024v2.223h-.694V10.72h1.718c1.252 0 1.84.687 1.84 1.557 0 .8-.52 1.543-1.84 1.543z"/><use xlink:href="#e" mask="url(#d)"/><use xlink:href="#f" mask="url(#d)"/><path d="M74.297 16.042h.695V10.72h-.695v5.323zm1.1-7.08v.604l-1.627.87v-.52l1.627-.956zm4.607 1.758h.734l-2 5.323h-.802l-2-5.323h.742l1.67 4.6zm4.52.564h-2.17v1.78h1.94v.572h-1.94v1.833h2.17v.573H81.65v-5.33h2.863zm1.904-.564v4.757h1.863v.565h-2.558V10.72z" mask="url(#d)"/><use xlink:href="#f" x="22.599" mask="url(#d)"/><use xlink:href="#e" x="34.284" mask="url(#d)"/><path d="M54.413 22.77h-2.07c-.4-.757-1.155-1.156-2.105-1.156-1.605 0-2.723 1.143-2.723 2.928 0 1.823 1.13 2.955 2.8 2.955 1.388 0 2.273-.797 2.543-2.068h-3.082v-1.374h4.854v1.565c-.36 1.824-2 3.494-4.38 3.494-2.606 0-4.585-1.888-4.585-4.572s1.98-4.584 4.573-4.584c2.003 0 3.596 1.015 4.174 2.812m4.968 4.817c.95 0 1.863-.693 1.863-2.106 0-1.425-.887-2.106-1.837-2.106s-1.8.68-1.8 2.106c0 1.413.823 2.106 1.785 2.106m0 1.567c-2.054 0-3.608-1.438-3.608-3.673 0-2.247 1.605-3.673 3.66-3.673s3.66 1.426 3.66 3.673c0 2.235-1.644 3.673-3.712 3.673m8.445-1.567c.95 0 1.863-.693 1.863-2.106 0-1.425-.886-2.106-1.837-2.106s-1.812.68-1.812 2.106c0 1.413.823 2.106 1.786 2.106m0 1.567c-2.054 0-3.6-1.438-3.6-3.673 0-2.247 1.605-3.673 3.66-3.673s3.66 1.426 3.66 3.673c0 2.235-1.644 3.673-3.7 3.673m8.538-5.767c-.963 0-1.876.72-1.876 2.068s.912 2.118 1.876 2.118c1 0 1.888-.744 1.888-2.093s-.9-2.093-1.888-2.093m-.463-1.58c1.117 0 1.926.512 2.35 1.13v-1.015h1.8V29.1c0 1.925-1.18 3.454-3.52 3.454-2.004 0-3.403-1-3.583-2.632h1.785c.18.642.848 1.066 1.747 1.066 1 0 1.76-.565 1.76-1.888v-1.105c-.424.617-1.234 1.17-2.35 1.17-1.8 0-3.25-1.477-3.25-3.698s1.44-3.647 3.25-3.647m6.185 7.218h1.798v-9.503h-1.798zm5.2-4.225h3.378c-.026-.938-.77-1.53-1.695-1.53-.862 0-1.542.553-1.683 1.53m1.734 4.34c-2.067 0-3.57-1.437-3.57-3.672 0-2.247 1.463-3.673 3.57-3.673 2.055 0 3.506 1.4 3.506 3.518 0 .23-.012.463-.05.694H87.26c.1 1.053.8 1.643 1.708 1.643.77 0 1.196-.384 1.427-.86h1.938c-.385 1.3-1.566 2.35-3.326 2.35m11.606-5.008c1.015 0 1.464-.5 1.464-1.297 0-.823-.45-1.3-1.464-1.3h-1.425v2.607h1.425zm.077 1.45h-1.503v3.442H97.4v-8.964h3.3c2.157 0 3.237 1.22 3.237 2.775 0 1.36-.925 2.748-3.237 2.748zm4.76 3.443h1.798v-9.503h-1.798zm7.077-5.65c-.963 0-1.875.72-1.875 2.068s.912 2.118 1.875 2.118c1 0 1.888-.744 1.888-2.093s-.9-2.093-1.888-2.093m-.462-1.58c1.143 0 1.925.54 2.35 1.13v-1.015h1.8v7.115h-1.8v-1.04c-.424.617-1.233 1.156-2.363 1.156-1.797 0-3.237-1.477-3.237-3.698s1.44-3.647 3.25-3.647m11.065.115h1.913l-4.404 10.48h-1.914l1.542-3.544-2.85-6.936h2.016l1.837 4.97z" mask="url(#d)"/></g></g></svg>