<svg xmlns="http://www.w3.org/2000/svg" viewBox="0 0 42.99 43"><defs><style>.cls-1{fill:#1b2e3b}</style></defs><g id="Layer_2" data-name="Layer 2"><g id="Camada_1" data-name="Camada 1"><g id="_8T0dnU" data-name="8T0dnU"><path class="cls-1" d="M6.13 18.41v-3.07H4.28A4.53 4.53 0 010 10.94V4.35A4.52 4.52 0 014.33 0h6.81a4.44 4.44 0 014.15 4q.15 3.66 0 7.32a4.45 4.45 0 01-4 4c-.67.06-1.36 0-2.12 0v3.09H6.13zM7.71 3.09h-3a1.45 1.45 0 00-1.62 1.6v6a1.51 1.51 0 001.62 1.61h5.91a1.53 1.53 0 001.67-1.67V4.77a1.52 1.52 0 00-1.67-1.67zM36.91 18.37h-3.13v-3h-1.35a4.61 4.61 0 01-4.7-3.74 4.83 4.83 0 01-.09-1V4.72A4.55 4.55 0 0132.22 0h6.41A4.51 4.51 0 0143 4.36v6.77a4.54 4.54 0 01-4 4.19h-2v3.06zM35.32 3.1h-3a1.53 1.53 0 00-1.62 1.66v5.86a1.53 1.53 0 001.67 1.67h5.86a1.52 1.52 0 001.68-1.61v-6a1.45 1.45 0 00-1.59-1.58c-1-.01-2 0-3 0zM0 35.33V32.2a4.57 4.57 0 014.59-4.55h6.09a4.54 4.54 0 014.64 4.59c.08 2.16.05 4.33 0 6.5A4.47 4.47 0 0111 43H4.32A4.55 4.55 0 010 38.7v-3.37zm3.06 0v2.91a1.49 1.49 0 001.65 1.67h5.86a1.54 1.54 0 001.69-1.7v-5.82a1.55 1.55 0 00-1.69-1.7H4.78a1.53 1.53 0 00-1.7 1.68c-.01 1 0 1.99 0 2.97zM15.39 27.61v-3h3v-3h3.09v3h6.12v3zM27.62 21.49h-3v-3h-9.2v-3h12.2zM21.5 9.23h-3.05V6.16h3v-3h3.07v9.14H21.5zM21.47 39.91h-3v-9.17h3zM36.87 24.6h3.05v2.86c0 .06-.21.18-.32.19h-2.71v3h-3.1v-3h3.1v-3.06zM9.21 18.41h3.06v3.09h-3v-3.1zM9.21 21.5v3.05H6.13V21.5h3.08z"/><path class="cls-1" d="M33.78 24.61v-3.08h3.11v3.08h-3.1zM33.82 36.92v-3.1h3v3.07h-3.07zM36.9 18.38h3v3.14h-3v-3.16zM33.78 27.69h-3.05v-3h3.05v3.01z"/><path class="cls-1" d="M33.8 36.91v3h-3.16v-3c.5 0 1-.05 1.52-.05s1.1 0 1.65.05zM36.86 36.89h3v3h-3v-3zM6.13 21.5h-3v-3.09h3v3.11z"/><path class="cls-1" d="M30.64 36.92l-2.26-.06h-.71v-3h3v3.1zM9.19 6.18v3h-3v-3zM36.82 9.21h-3v-3h3zM9.18 36.84h-3v-3h3z"/></g></g></g></svg>