<svg xmlns="http://www.w3.org/2000/svg" width="58" height="40" stroke="#000" fill="none" stroke-width="2"><path d="M35.47 16.65l-1.124-1.086a1.475 1.475 0 00-1.093-.473h-2.63c-.387.01-.752.182-1.008.473l-.256.248-.256-.248a1.38 1.38 0 00-1.008-.473h-2.652a1.478 1.478 0 00-1.093.473l-1.093 1.086a1.55 1.55 0 00-.465 1.093v1.87c-.002.413.166.81.465 1.093l4.52 4.653a1.55 1.55 0 001.093.465h.977a1.55 1.55 0 001.093-.465l4.53-4.653a1.55 1.55 0 00.465-1.093v-1.87a1.55 1.55 0 00-.465-1.093z"/><path d="M54.5 3.505a4.995 4.995 0 00-3.878-1.73H26.887a5.5 5.5 0 00-4.04 1.73l-4.59 4.607a5.18 5.18 0 00-1.745 3.746v9.77a5.5 5.5 0 001.73 4.04l4.033 4.025a5.56 5.56 0 004.04 1.722h6.786a5.52 5.52 0 004.017-1.722l17.27-16.69a5.482 5.482 0 001.73-4.033V7.538a5.71 5.71 0 00-1.606-4.033z"/><path d="M3.365 10.492a5.01 5.01 0 013.839-1.737h23.808a5.49 5.49 0 014.033 1.73l4.59 4.607a5.179 5.179 0 011.73 3.746v9.78a5.5 5.5 0 01-1.73 4.04l-4.017 4.017a5.547 5.547 0 01-4.033 1.722H24.8a5.53 5.53 0 01-4.025-1.722l-17.27-16.68a5.49 5.49 0 01-1.729-4.033v-1.435a5.74 5.74 0 011.59-4.033z"/></svg>