<svg width="16" height="30" xmlns="http://www.w3.org/2000/svg" xmlns:xlink="http://www.w3.org/1999/xlink"><defs><path id="a" d="M0 .694h15.844V30H0z"/></defs><g fill="none" fill-rule="evenodd"><mask id="b" fill="#fff"><use xlink:href="#a"/></mask><path d="M15.249.7L11.448.693c-4.27 0-7.03 2.832-7.03 7.212v3.326H.598a.597.597 0 00-.597.597v4.819c0 .33.268.597.597.597h3.822v12.157c0 .33.267.598.598.598h4.984c.33 0 .598-.268.598-.598V17.245h4.468c.33 0 .597-.268.597-.597l.003-4.819a.605.605 0 00-.176-.423.593.593 0 00-.422-.174h-4.47v-2.82c0-1.354.323-2.042 2.087-2.042l2.561-.001c.33 0 .597-.269.597-.597V1.298a.598.598 0 00-.595-.599" fill="#00FF7D" mask="url(#b)"/></g></svg>