<svg xmlns="http://www.w3.org/2000/svg" xmlns:xlink="http://www.w3.org/1999/xlink" width="650" height="487" xmlns:v="https://vecta.io/nano"><defs><path id="A" d="M0 0h650v487H0z"/></defs><g fill-rule="evenodd"><mask id="B" fill="#fff"><use xlink:href="#A"/></mask><path d="M623.908 28.408C606.7 9.345 585.362 0 560.308 0H170.043c-25.277 0-47.218 9.345-66.268 28.408L28.4 104.135C9.34 122.9 0 143.52 0 165.473V326.2c0 25.366 9.34 47.246 28.4 66.31l65.97 66.307C113.41 477.58 135.352 487 160.63 487h111.4c25.053 0 47.217-9.42 66.045-28.184L621.6 184.46c19.05-18.987 28.4-40.94 28.4-66.233V94.716c0-25.29-8.6-47.543-26.092-66.308" fill="#00FF7D" mask="url(#B)"/></g></svg>