<svg xmlns="http://www.w3.org/2000/svg" xmlns:xlink="http://www.w3.org/1999/xlink" width="40" height="41" xmlns:v="https://vecta.io/nano"><defs><path id="A" d="M0 .73h39.27V40H0z"/></defs><g fill="none" fill-rule="evenodd"><path d="M10.968 25.897a.21.21 0 0 1 .066.144v.654c0 .066-.027.117-.066.157a.21.21 0 0 1-.144.065h-.132v3.43c0 .065-.026.13-.077.183s-.118.08-.184.08h-.746a.26.26 0 0 1-.183-.079c-.052-.052-.078-.118-.078-.183v-4.242c0-.078.026-.13.078-.196.052-.053.117-.08.183-.08h1.14c.052 0 .105.026.144.066m5.38.852c.052.065.065.13.065.196v.5c0 .065-.026.13-.078.182a.26.26 0 0 1-.183.08h-.733c-.078 0-.13-.026-.183-.08-.065-.052-.1-.117-.1-.182v-.105c0-.066-.028-.118-.067-.184l-.183-.17a.24.24 0 0 0-.183-.08H13.55c-.08 0-.144.027-.196.08l-.17.17c-.053.052-.08.105-.08.184v1.74c0 .08.026.144.08.196l.17.17c.052.052.117.08.196.08h1.164c.078 0 .132-.027.183-.08l.183-.17c.04-.066.067-.13.067-.196V29a.23.23 0 0 1 .09-.183c.052-.052.105-.092.183-.092h.733c.066 0 .132.04.183.092s.078.117.078.183v.5c0 .066-.012.132-.065.183l-.837.838c-.067.052-.132.08-.183.08h-2.4a.27.27 0 0 1-.196-.079L11.9 29.7c-.052-.052-.08-.118-.08-.196V26.91c0-.052.027-.116.08-.183l.812-.824c.052-.053.118-.08.196-.08h2.4c.052 0 .116.026.183.08l.837.837zm4.072 2.146c0 .052-.013.092-.053.13l-.575.55c-.04.04-.08.066-.13.066h-.982c-.04 0-.092-.026-.13-.066l-.13-.13c-.04-.04-.053-.08-.053-.13v-.327c0-.04.013-.08.053-.118l.157-.157c.04-.04.078-.052.13-.052h1.532c.052 0 .104.013.13.052.04.04.053.08.053.13v.052zm1.374.642h-.118v-2.58c0-.065-.013-.118-.052-.144l-.916-.916a.21.21 0 0 0-.144-.066H18.26c-.052 0-.092.026-.13.066l-.916.916c-.04.026-.052.08-.052.144v.276c0 .052.013.092.052.13a.17.17 0 0 0 .13.052h.864c.052 0 .092-.013.144-.052.04-.04.052-.08.052-.13a.18.18 0 0 1 .053-.132l.183-.183c.026-.04.078-.065.132-.065h1.283c.04 0 .1.026.13.052l.197.196c.026.04.04.08.04.132v.327c0 .052-.013.105-.053.144-.026.04-.077.052-.13.052h-2.16c-.052 0-.1.012-.13.052l-.772.772a.17.17 0 0 0-.052.132v.942c0 .052.013.092.052.13l.772.772c.04.04.078.053.13.053h1.676c.04 0 .078-.013.13-.04l.328-.327c.04-.04.1-.066.13-.066a.21.21 0 0 1 .132.052c.04.04.052.092.052.144v.053c0 .052.027.1.066.13s.078.053.132.053h1.073c.066 0 .118-.013.157-.053.04-.052.066-.1.066-.157v-.64c0-.143-.08-.222-.223-.222h0z" fill="#00FF7D"/><g transform="translate(0 .159)"><mask id="B" fill="#fff"><use xlink:href="#A"/></mask><path d="M29.205 26.413a2.05 2.05 0 0 1-.642 1.505l-6.402 6.18c-.42.42-.916.64-1.478.64H9.805c-.576 0-1.06-.222-1.492-.64L6.82 32.604c-.04-.052-.092-.092-.13-.144-.183-.104-.354-.222-.5-.38L4.712 30.6c-.43-.432-.64-.916-.64-1.48v-3.574c0-.497.2-.956.64-1.374l1.676-1.688c.432-.42.916-.628 1.48-.628h19.2l.288.013h.354a1.49 1.49 0 0 1 1.492 1.492v2.016c0 .065 0 .118-.013.17l.027.34v.524zM33.472.73H5.8A5.81 5.81 0 0 0 0 6.528V34.2a5.81 5.81 0 0 0 5.799 5.798h27.673a5.81 5.81 0 0 0 5.798-5.798V6.528A5.81 5.81 0 0 0 33.472.729h0z" fill="#00FF7D" mask="url(#B)"/></g></g></svg>