<?xml version="1.0" encoding="UTF-8"?>
<svg width="77px" height="59px" viewBox="0 0 77 59" version="1.1" xmlns="http://www.w3.org/2000/svg" xmlns:xlink="http://www.w3.org/1999/xlink">
    <title>ica-quote</title>
    <defs>
        <polygon id="path-1" points="0 0 77 0 77 59 0 59"></polygon>
    </defs>
    <g id="Welcome" stroke="none" stroke-width="1" fill="none" fill-rule="evenodd">
        <g id="Desktop-HD" transform="translate(-326.000000, -791.000000)">
            <g id="ica-quote" transform="translate(326.000000, 791.000000)">
                <mask id="mask-2" fill="white">
                    <use xlink:href="#path-1"></use>
                </mask>
                <g id="Clip-2"></g>
                <path d="M66.9834387,27.7390753 C67.5363868,27.7390753 68.0946262,28.017306 68.6515427,28.5678616 L75.121564,34.9868537 C76.3729728,36.2277363 77,37.6090467 77,39.1255353 L77,47.6135401 C77,49.2711125 76.3729728,50.6517667 75.121564,51.7555027 L69.6965881,57.3430837 C68.3036352,58.4501007 66.9113438,59 65.5230209,59 L54.6717462,59 C53.0016578,59 51.6093664,58.3792306 50.4988404,57.1357231 L44.2378281,50.720012 C43.6809116,50.1694565 43.4031147,49.5480308 43.4031147,48.8583599 L43.4031147,28.3598447 L54.6717462,1.65626008 C55.0891029,0.549899345 55.9244777,0 57.1752251,0 L68.0264998,0 C68.9987888,0 69.7640531,0.345163551 70.321631,1.03286583 C70.8765634,1.72647396 71.0167846,2.5552602 70.7389878,3.51791216 L64.2702893,24.4285238 C63.9905082,25.254029 64.1307295,26.0152262 64.6883074,26.7029285 C65.2412555,27.3971928 66.008504,27.7390753 66.9834387,27.7390753 M23.5796626,27.7390753 C24.1345949,27.7390753 24.6921729,28.017306 25.2497509,28.5678616 L31.926797,34.9868537 C33.0386459,36.3675079 33.5962239,37.7494745 33.5962239,39.1255353 L33.5962239,47.6135401 C33.5962239,49.2711125 33.0386459,50.6517667 31.926797,51.7555027 L26.292812,57.3430837 C25.177656,58.4501007 23.7880102,59 22.1192448,59 L11.2686315,59 C9.59854316,59 8.20757456,58.3792306 7.09506425,57.1357231 L0.834713441,50.720012 C0.277135445,49.8912258 0,49.2711125 0,48.8583599 L0,28.3598447 L11.2686315,1.65626008 C11.6859882,0.549899345 12.5207016,0 13.7734332,0 L24.6233851,0 C25.5950127,0 26.3609384,0.345163551 26.9185164,1.03286583 C27.4727872,1.72647396 27.6130085,2.5552602 27.3358731,3.51791216 L21.0748608,24.4285238 C20.7950797,25.254029 20.8995842,26.0152262 21.3890359,26.7029285 C21.874519,27.3971928 22.6047279,27.7390753 23.5796626,27.7390753" id="Fill-1" fill="#00FF7D" mask="url(#mask-2)"></path>
            </g>
        </g>
    </g>
</svg>