<?xml version="1.0" encoding="UTF-8"?>
<svg width="40px" height="27px" viewBox="0 0 40 27" version="1.1" xmlns="http://www.w3.org/2000/svg" xmlns:xlink="http://www.w3.org/1999/xlink">
    <title>ica-card</title>
    <defs>
        <polygon id="path-1" points="0 0.263015385 39.7796923 0.263015385 39.7796923 25.2307692 0 25.2307692"></polygon>
    </defs>
    <g id="Welcome" stroke="none" stroke-width="1" fill="none" fill-rule="evenodd">
        <g id="Desktop-HD" transform="translate(-196.000000, -750.000000)">
            <g id="ica-card" transform="translate(196.000000, 750.000000)">
                <g id="Group-3" transform="translate(0.000000, 0.352677)">
                    <mask id="mask-2" fill="white">
                        <use xlink:href="#path-1"></use>
                    </mask>
                    <g id="Clip-2"></g>
                    <path d="M37.8221538,24.3842462 L28.1993846,24.3842462 C28.2313846,24.3547077 28.2670769,24.3307077 28.2972308,24.2999385 L30.9956923,21.6913231 L31.576,22.2740923 C32.3667692,23.0531692 33.2990769,23.4476308 34.3483077,23.4476308 L38.3446154,23.4476308 C38.5347692,23.4476308 38.7218462,23.4285538 38.9076923,23.4020923 C38.8406154,23.9516308 38.3895385,24.3842462 37.8221538,24.3842462 L37.8221538,24.3842462 Z M0.846769231,23.2734769 L0.846769231,2.21993846 C0.846769231,1.60701538 1.34461538,1.10916923 1.95753846,1.10916923 L22.2295385,1.10916923 L19.5950769,3.75409231 C18.8073846,4.52886154 18.408,5.40455385 18.408,6.35532308 L18.408,8.76455385 L16.4018462,10.7787077 C15.6147692,11.5540923 15.2153846,12.4291692 15.2153846,13.3799385 L15.2153846,19.1405538 C15.2153846,20.2131692 15.6024615,21.1208615 16.3981538,21.9153231 L18.768,24.2962462 C18.8006154,24.3294769 18.8369231,24.3534769 18.8707692,24.3842462 L1.95753846,24.3842462 C1.34461538,24.3842462 0.846769231,23.8857846 0.846769231,23.2734769 L0.846769231,23.2734769 Z M38.9335385,2.21993846 L38.9335385,4.86116923 L34.6861538,4.86116923 C33.6295385,4.86116923 32.6947692,5.25993846 31.9101538,6.04701538 L31.0750769,6.88455385 L21.8787692,6.88455385 C21.0116923,6.88455385 20.2270769,7.15163077 19.5384615,7.68332308 L19.5384615,6.35532308 C19.5384615,5.7184 19.8246154,5.11470769 20.392,4.55532308 L23.0941538,1.84209231 C23.2615385,1.67470769 23.4375385,1.53070769 23.6172308,1.41316923 L24.0830769,1.10916923 L37.8221538,1.10916923 C38.4350769,1.10916923 38.9335385,1.60701538 38.9335385,2.21993846 L38.9335385,2.21993846 Z M20.248,24.0137846 C20.0123077,23.8839385 19.7815385,23.7073231 19.5649231,23.4950154 L17.1981538,21.1177846 C16.6166154,20.5362462 16.3452308,19.9079385 16.3452308,19.1405538 L16.3452308,13.3799385 C16.3452308,12.7436308 16.6313846,12.1393231 17.1987692,11.5793231 L18.408,10.3657846 L18.408,12.1159385 C18.408,13.1885538 18.7956923,14.0956308 19.5907692,14.8907077 L21.9612308,17.2716308 C22.7507692,18.0494769 23.6830769,18.4445538 24.7341538,18.4445538 L28.2516923,18.4445538 C28.4455385,18.9707077 28.7593846,19.4476308 29.2055385,19.8937846 L30.1975385,20.8907077 L27.5058462,23.4937846 C27.2935385,23.7054769 27.0633846,23.8814769 26.8221538,24.0137846 L26.152,24.3842462 L20.9144615,24.3842462 L20.248,24.0137846 Z M38.9335385,8.50609231 L38.9243077,8.51470769 C38.8178462,8.3664 38.7009231,8.22301538 38.5753846,8.08886154 C37.8541538,7.28947692 36.9452308,6.88455385 35.8750769,6.88455385 L32.6701538,6.88455385 L32.7089231,6.84455385 C33.2916923,6.2624 33.9193846,5.99101538 34.6861538,5.99101538 L38.9335385,5.99101538 L38.9335385,8.50609231 Z M38.3446154,22.3165538 L34.3483077,22.3165538 C33.5852308,22.3165538 32.9569231,22.0476308 32.3729231,21.4734769 L31.8086154,20.9067077 L38.4726154,14.4611692 C38.6473846,14.2864 38.7969231,14.1017846 38.9335385,13.9116308 L38.9335385,22.2408615 C38.7427692,22.2827077 38.5483077,22.3165538 38.3446154,22.3165538 L38.3446154,22.3165538 Z M31.4916923,17.2753231 L38.5070769,10.4900923 C38.5206154,10.6057846 38.5273846,10.7245538 38.5273846,10.8439385 L38.5273846,11.6864 C38.5273846,12.4433231 38.2486154,13.0894769 37.6806154,13.6537846 L31.0110769,20.1048615 L30.0061538,19.0950154 C29.776,18.8654769 29.5956923,18.6279385 29.4603077,18.3768615 C30.2184615,18.2340923 30.9003077,17.8642462 31.4916923,17.2753231 L31.4916923,17.2753231 Z M37.7427692,8.85193846 C37.8781538,8.99778462 37.9969231,9.15224615 38.0984615,9.31347692 L30.7003077,16.4685538 C30.2467692,16.9190154 29.7298462,17.1916308 29.1575385,17.2808615 C29.1550769,17.2273231 29.1532308,17.1725538 29.1532308,17.1177846 L29.1532308,11.3571692 C29.1532308,10.7208615 29.4393846,10.1165538 30.0067692,9.55778462 L31.544,8.01378462 L35.8750769,8.01378462 C36.6116923,8.01378462 37.2381538,8.2944 37.7427692,8.85193846 L37.7427692,8.85193846 Z M28.0270769,17.3140923 L24.7341538,17.3140923 C23.9815385,17.3140923 23.3341538,17.0377846 22.7581538,16.4704 L20.3913846,14.0931692 C19.8092308,13.5122462 19.5384615,12.8839385 19.5384615,12.1159385 L19.5384615,9.23163077 L19.9015385,8.86670769 C20.4836923,8.28516923 21.112,8.01378462 21.8787692,8.01378462 L29.9489231,8.01378462 L29.2104615,8.75593846 C28.4221538,9.53132308 28.0221538,10.4070154 28.0221538,11.3571692 L28.0221538,17.1177846 C28.0221538,17.1836308 28.024,17.2488615 28.0270769,17.3140923 L28.0270769,17.3140923 Z M37.8221538,0.263015385 L1.95753846,0.263015385 C0.878153846,0.263015385 0,1.14055385 0,2.21993846 L0,23.2734769 C0,24.3528615 0.878153846,25.2310154 1.95753846,25.2310154 L37.8221538,25.2310154 C38.9015385,25.2310154 39.7796923,24.3528615 39.7796923,23.2734769 L39.7796923,2.21993846 C39.7796923,1.14055385 38.9015385,0.263015385 37.8221538,0.263015385 L37.8221538,0.263015385 Z" id="Fill-1" fill="#00FF7D" mask="url(#mask-2)"></path>
                </g>
                <path d="M4.46461538,22.0932923 L4.464,22.0932923 L4.44738462,22.0816 C4.39876923,22.1609846 4.32307692,22.2249846 4.22707692,22.2662154 C4.04492308,22.3456 3.87569231,22.3252923 3.75507692,22.2188308 L3.74338462,22.2354462 L3.74338462,22.2354462 L3.53661538,22.5443692 C3.58769231,22.5806769 3.64307692,22.6108308 3.70092308,22.6348308 C3.92923077,22.7296 4.16307692,22.7252923 4.39323077,22.6249846 C4.55938462,22.5529846 4.69046154,22.4428308 4.77969231,22.3037538 L4.46461538,22.0932923 Z M3.81907692,21.3302154 C3.62707692,21.4126769 3.528,21.5936 3.54830769,21.8046769 L4.36307692,21.4539077 C4.22276923,21.2889846 4.04061538,21.2342154 3.81907692,21.3302154 L3.81907692,21.3302154 Z M3.27815385,22.2723692 C3.25846154,22.2403692 3.23261538,22.1899077 3.216,22.1529846 C3.12246154,21.9345231 3.11815385,21.7086769 3.19692308,21.4914462 C3.28430769,21.2545231 3.45107692,21.0723692 3.66707692,20.9794462 C3.93784615,20.8631385 4.23692308,20.8859077 4.49661538,21.0397538 C4.66153846,21.1345231 4.77846154,21.2809846 4.86769231,21.4871385 C4.87876923,21.5136 4.88861538,21.5419077 4.89846154,21.5659077 L3.27815385,22.2723692 Z" id="Fill-4" fill="#00FF7D"></path>
                <path d="M5.46486154,20.5235692 L5.46486154,22.2435692 L5.73255385,22.3518769 L5.57993846,22.7063385 L5.28516923,22.5838769 C5.21932308,22.5549538 5.17378462,22.5106462 5.13993846,22.4608 C5.10670769,22.4103385 5.08270769,22.3414154 5.08270769,22.2484923 L5.08270769,20.5235692 L5.46486154,20.5235692 Z" id="Fill-6" fill="#00FF7D"></path>
                <path d="M6.15747692,21.8054154 C6.15747692,21.6589538 6.22209231,21.5278769 6.32424615,21.4380308 L6.0504,21.1321846 C5.86393846,21.2971077 5.74701538,21.5371077 5.74701538,21.8048 C5.74701538,22.0731077 5.86332308,22.3131077 6.04978462,22.4786462 L6.32363077,22.1721846 C6.22147692,22.0823385 6.15747692,21.9512615 6.15747692,21.8054154" id="Fill-8" fill="#00FF7D"></path>
                <path d="M6.64486154,22.2934154 C6.59070769,22.2934154 6.53901538,22.2841846 6.4904,22.2681846 L6.35932308,22.6577231 C6.44916923,22.6878769 6.54455385,22.7044932 6.64486154,22.7044932 C7.07870769,22.7051077 7.44116923,22.3968 7.52547692,21.9869538 L7.12301538,21.9044923 C7.07686154,22.1266462 6.88055385,22.2940308 6.64486154,22.2934154" id="Fill-10" fill="#00FF7D"></path>
                <path d="M6.64609231,20.9075692 C6.5464,20.9075692 6.45101538,20.9229538 6.36116923,20.9531077 L6.49101538,21.3432615 C6.53963077,21.3272615 6.59193846,21.3180308 6.64609231,21.3180308 C6.88178462,21.3186462 7.07870769,21.4860308 7.12301538,21.7088 L7.52609231,21.6269538 C7.44301538,21.2171077 7.08055385,20.9075692 6.64609231,20.9075692" id="Fill-12" fill="#00FF7D"></path>
                <path d="M8.03790769,3.91963077 C7.90313846,3.77070769 7.73575385,3.69747692 7.53944615,3.69747692 L5.00036923,3.69747692 L4.47913846,3.69747692 C4.28098462,3.69747692 4.10867692,3.77070769 3.95913846,3.91963077 L3.36836923,4.51347692 C3.21883077,4.66055385 3.1456,4.82178462 3.1456,4.99409231 L3.1456,6.25378462 C3.1456,6.45255385 3.21883077,6.62424615 3.36836923,6.77378462 L3.88529231,7.29255385 C4.03483077,7.44024615 4.20652308,7.51409231 4.40529231,7.51409231 L5.00036923,7.51409231 L5.27852308,7.51409231 C5.47483077,7.51409231 5.64898462,7.44024615 5.79667692,7.29255385 L8.02006154,5.1424 C8.1696,4.99409231 8.24283077,4.82178462 8.24283077,4.62424615 L8.24283077,4.43963077 C8.24283077,4.24086154 8.17513846,4.06670769 8.03790769,3.91963077" id="Fill-14" fill="#00FF7D"></path>
            </g>
        </g>
    </g>
</svg>