<?xml version="1.0" encoding="UTF-8"?>
<svg width="24px" height="41px" viewBox="0 0 24 41" version="1.1" xmlns="http://www.w3.org/2000/svg" xmlns:xlink="http://www.w3.org/1999/xlink">
    <title>ica-pos</title>
    <defs>
        <polygon id="path-1" points="0 0.06592 23.48024 0.06592 23.48024 39.2 0 39.2"></polygon>
        <polygon id="path-3" points="0 39.93456 23.4808 39.93456 23.4808 0.80016 0 0.80016"></polygon>
    </defs>
    <g id="Welcome" stroke="none" stroke-width="1" fill="none" fill-rule="evenodd">
        <g id="Desktop-HD" transform="translate(-146.000000, -743.000000)">
            <g id="ica-pos" transform="translate(146.000000, 743.000000)">
                <g id="Group-3" transform="translate(0.000000, 0.734560)">
                    <mask id="mask-2" fill="white">
                        <use xlink:href="#path-1"></use>
                    </mask>
                    <g id="Clip-2"></g>
                    <path d="M22.17624,24.85072 C22.17624,25.93152 21.30024,26.80672 20.21944,26.80672 L3.26104,26.80672 C2.18024,26.80672 1.30424,25.93152 1.30424,24.85072 L1.30424,3.32672 C1.30424,2.24592 2.18024,1.36992 3.26104,1.36992 L20.21944,1.36992 C21.30024,1.36992 22.17624,2.24592 22.17624,3.32672 L22.17624,24.85072 Z M19.56744,35.93872 C19.56744,37.01952 18.69144,37.89552 17.61064,37.89552 L17.61064,28.11152 L19.56744,28.11152 L19.56744,35.93872 Z M13.69624,37.89472 L16.30584,37.89472 L16.30584,28.11152 L13.69624,28.11152 L13.69624,37.89472 Z M3.91304,35.93872 L3.91304,28.11152 L12.39304,28.11152 L12.39304,37.89552 L5.86984,37.89552 C4.78984,37.89552 3.91304,37.01952 3.91304,35.93872 L3.91304,35.93872 Z M20.21944,0.06592 L3.26104,0.06592 C1.46104,0.06752 0.00184,1.52672 -0.00056,3.32672 L-0.00056,24.85072 C0.00184,26.40032 1.09224,27.73392 2.60824,28.04672 L2.60824,35.93872 C2.61144,37.73872 4.06984,39.19792 5.86984,39.20032 L17.61064,39.20032 C19.41064,39.19792 20.86904,37.73872 20.87144,35.93872 L20.87144,28.04672 C22.38904,27.73392 23.47864,26.40032 23.48024,24.85072 L23.48024,3.32672 C23.47864,1.52672 22.01944,0.06752 20.21944,0.06592 L20.21944,0.06592 Z" id="Fill-1" fill="#00FF7D" mask="url(#mask-2)"></path>
                </g>
                <path d="M12.00984,8.62672 L15.92424,4.71312 L19.56744,4.71312 L19.56744,8.62672 L12.00984,8.62672 Z M3.91304,4.71312 L8.86104,4.71312 L4.94824,8.62672 L3.91304,8.62672 L3.91304,4.71312 Z M6.79304,8.62672 L10.70584,4.71312 L14.07944,4.71312 L10.16584,8.62672 L6.79304,8.62672 Z M19.56744,3.40992 L3.91304,3.40992 C3.19304,3.40992 2.60824,3.99312 2.60824,4.71312 L2.60824,8.62672 C2.60824,9.34752 3.19304,9.93152 3.91304,9.93152 L19.56744,9.93152 C20.28824,9.93152 20.87144,9.34752 20.87144,8.62672 L20.87144,4.71312 C20.87144,3.99312 20.28824,3.40992 19.56744,3.40992 L19.56744,3.40992 Z" id="Fill-4" fill="#00FF7D"></path>
                <mask id="mask-4" fill="white">
                    <use xlink:href="#path-3"></use>
                </mask>
                <g id="Clip-7"></g>
                <path d="M3.9128,13.84496 L6.5224,13.84496 L6.5224,12.54016 L3.9128,12.54016 L3.9128,13.84496 Z M6.5224,11.23536 L3.9128,11.23536 C3.1928,11.23536 2.608,11.81936 2.608,12.54016 L2.608,13.84496 C2.608,14.56576 3.1928,15.14976 3.9128,15.14976 L6.5224,15.14976 C7.2424,15.14976 7.8272,14.56576 7.8272,13.84496 L7.8272,12.54016 C7.8272,11.81936 7.2424,11.23536 6.5224,11.23536 L6.5224,11.23536 Z" id="Fill-6" fill="#00FF7D" mask="url(#mask-4)"></path>
                <path d="M10.436,13.84496 L13.0456,13.84496 L13.0456,12.54016 L10.436,12.54016 L10.436,13.84496 Z M13.0448,11.23536 L10.436,11.23536 C9.7152,11.23536 9.1312,11.81936 9.1312,12.54016 L9.1312,13.84496 C9.1312,14.56576 9.7152,15.14976 10.436,15.14976 L13.0448,15.14976 C13.7656,15.14976 14.3496,14.56576 14.3496,13.84496 L14.3496,12.54016 C14.3496,11.81936 13.7656,11.23536 13.0448,11.23536 L13.0448,11.23536 Z" id="Fill-8" fill="#00FF7D" mask="url(#mask-4)"></path>
                <path d="M16.9584,13.84496 L19.568,13.84496 L19.568,12.54016 L16.9584,12.54016 L16.9584,13.84496 Z M19.568,11.23536 L16.9584,11.23536 C16.2376,11.23536 15.6536,11.81936 15.6536,12.54016 L15.6536,13.84496 C15.6536,14.56576 16.2376,15.14976 16.9584,15.14976 L19.568,15.14976 C20.288,15.14976 20.8712,14.56576 20.8712,13.84496 L20.8712,12.54016 C20.8712,11.81936 20.288,11.23536 19.568,11.23536 L19.568,11.23536 Z" id="Fill-9" fill="#00FF7D" mask="url(#mask-4)"></path>
                <path d="M3.9128,19.06256 L6.5224,19.06256 L6.5224,17.75776 L3.9128,17.75776 L3.9128,19.06256 Z M6.5224,16.45376 L3.9128,16.45376 C3.1928,16.45376 2.608,17.03776 2.608,17.75776 L2.608,19.06256 C2.608,19.78336 3.1928,20.36736 3.9128,20.36736 L6.5224,20.36736 C7.2424,20.36736 7.8272,19.78336 7.8272,19.06256 L7.8272,17.75776 C7.8272,17.03776 7.2424,16.45376 6.5224,16.45376 L6.5224,16.45376 Z" id="Fill-10" fill="#00FF7D" mask="url(#mask-4)"></path>
                <path d="M10.436,19.06256 L13.0456,19.06256 L13.0456,17.75776 L10.436,17.75776 L10.436,19.06256 Z M13.0448,16.45376 L10.436,16.45376 C9.7152,16.45376 9.1312,17.03776 9.1312,17.75776 L9.1312,19.06256 C9.1312,19.78336 9.7152,20.36736 10.436,20.36736 L13.0448,20.36736 C13.7656,20.36736 14.3496,19.78336 14.3496,19.06256 L14.3496,17.75776 C14.3496,17.03776 13.7656,16.45376 13.0448,16.45376 L13.0448,16.45376 Z" id="Fill-11" fill="#00FF7D" mask="url(#mask-4)"></path>
                <path d="M16.9584,19.06256 L19.568,19.06256 L19.568,17.75776 L16.9584,17.75776 L16.9584,19.06256 Z M19.568,16.45376 L16.9584,16.45376 C16.2376,16.45376 15.6536,17.03776 15.6536,17.75776 L15.6536,19.06256 C15.6536,19.78336 16.2376,20.36736 16.9584,20.36736 L19.568,20.36736 C20.288,20.36736 20.8712,19.78336 20.8712,19.06256 L20.8712,17.75776 C20.8712,17.03776 20.288,16.45376 19.568,16.45376 L19.568,16.45376 Z" id="Fill-12" fill="#00FF7D" mask="url(#mask-4)"></path>
                <path d="M3.9128,24.28096 L6.5224,24.28096 L6.5224,22.97696 L3.9128,22.97696 L3.9128,24.28096 Z M6.5224,21.67216 L3.9128,21.67216 C3.1928,21.67216 2.608,22.25536 2.608,22.97696 L2.608,24.28096 C2.608,25.00096 3.1928,25.58496 3.9128,25.58496 L6.5224,25.58496 C7.2424,25.58496 7.8272,25.00096 7.8272,24.28096 L7.8272,22.97696 C7.8272,22.25536 7.2424,21.67216 6.5224,21.67216 L6.5224,21.67216 Z" id="Fill-13" fill="#00FF7D" mask="url(#mask-4)"></path>
                <path d="M10.436,24.28096 L13.0456,24.28096 L13.0456,22.97696 L10.436,22.97696 L10.436,24.28096 Z M13.0448,21.67216 L10.436,21.67216 C9.7152,21.67216 9.1312,22.25536 9.1312,22.97696 L9.1312,24.28096 C9.1312,25.00096 9.7152,25.58496 10.436,25.58496 L13.0448,25.58496 C13.7656,25.58496 14.3496,25.00096 14.3496,24.28096 L14.3496,22.97696 C14.3496,22.25536 13.7656,21.67216 13.0448,21.67216 L13.0448,21.67216 Z" id="Fill-14" fill="#00FF7D" mask="url(#mask-4)"></path>
                <path d="M16.9584,24.28096 L19.568,24.28096 L19.568,22.97696 L16.9584,22.97696 L16.9584,24.28096 Z M19.568,21.67216 L16.9584,21.67216 C16.2376,21.67216 15.6536,22.25536 15.6536,22.97696 L15.6536,24.28096 C15.6536,25.00096 16.2376,25.58496 16.9584,25.58496 L19.568,25.58496 C20.288,25.58496 20.8712,25.00096 20.8712,24.28096 L20.8712,22.97696 C20.8712,22.25536 20.288,21.67216 19.568,21.67216 L19.568,21.67216 Z" id="Fill-15" fill="#00FF7D" mask="url(#mask-4)"></path>
                <path d="M5.67232,33.56032 C5.55952,33.66272 5.50432,33.78912 5.50432,33.93712 L5.50432,35.85392 L5.50432,36.24752 C5.50432,36.39792 5.55952,36.52752 5.67232,36.64032 L6.12112,37.08672 C6.23152,37.19952 6.35392,37.25472 6.48352,37.25472 L7.43472,37.25472 C7.58512,37.25472 7.71392,37.19952 7.82672,37.08672 L8.21952,36.69632 C8.32992,36.58272 8.38592,36.45312 8.38592,36.30352 L8.38592,35.85392 L8.38592,35.64352 C8.38592,35.49552 8.32992,35.36432 8.21952,35.25312 L6.59552,33.57472 C6.48352,33.46112 6.35392,33.40672 6.20352,33.40672 L6.06432,33.40672 C5.91552,33.40672 5.78352,33.45712 5.67232,33.56032" id="Fill-16" fill="#00FF7D" mask="url(#mask-4)"></path>
            </g>
        </g>
    </g>
</svg>