<?xml version="1.0" encoding="UTF-8"?>
<svg width="40px" height="42px" viewBox="0 0 40 42" version="1.1" xmlns="http://www.w3.org/2000/svg" xmlns:xlink="http://www.w3.org/1999/xlink">
    <title>ica-wallet</title>
    <defs>
        <polygon id="path-1" points="0 0.269294625 39.7298605 0.269294625 39.7298605 40 0 40"></polygon>
    </defs>
    <g id="Welcome" stroke="none" stroke-width="1" fill="none" fill-rule="evenodd">
        <g id="Desktop-HD" transform="translate(-80.000000, -742.000000)">
            <g id="ica-wallet" transform="translate(80.000000, 742.000000)">
                <path d="M13.9453953,29.0543256 C13.6933023,28.7743256 13.379814,28.6385116 13.0123721,28.6385116 L8.26353488,28.6385116 L7.28865116,28.6385116 C6.91748837,28.6385116 6.59562791,28.7743256 6.31655814,29.0543256 L5.21051163,30.164093 C4.93144186,30.4394419 4.79469767,30.7408372 4.79469767,31.0636279 L4.79469767,33.4189767 C4.79469767,33.7910698 4.93144186,34.112 5.21051163,34.3910698 L6.17795349,35.3631628 C6.45795349,35.6385116 6.77888372,35.7771163 7.15004651,35.7771163 L8.26353488,35.7771163 L8.78446512,35.7771163 C9.15190698,35.7771163 9.47655814,35.6385116 9.75283721,35.3631628 L13.9109767,31.3417674 C14.1909767,31.0636279 14.3277209,30.7408372 14.3277209,30.3706047 L14.3277209,30.0264186 C14.3277209,29.6552558 14.2012093,29.3296744 13.9453953,29.0543256" id="Fill-1" fill="#00FF7D"></path>
                <g id="Group-5" transform="translate(0.000000, 0.661023)">
                    <mask id="mask-2" fill="white">
                        <use xlink:href="#path-1"></use>
                    </mask>
                    <g id="Clip-4"></g>
                    <path d="M37.9242791,28.2615814 C37.9242791,28.7592558 37.5196279,29.1648372 37.0210233,29.1648372 L30.700093,29.1648372 C28.7084651,29.1648372 27.0889302,27.5443721 27.0889302,25.5527442 C27.0889302,23.560186 28.7084651,21.9406512 30.700093,21.9406512 L37.0210233,21.9406512 C37.5196279,21.9406512 37.9242791,22.3462326 37.9242791,22.843907 L37.9242791,28.2615814 Z M34.312186,38.1946047 L3.61172093,38.1946047 C2.61637209,38.1946047 1.80613953,37.3843721 1.80613953,36.388093 L1.80613953,14.7164651 C1.80613953,13.7211163 2.61637209,12.9108837 3.61172093,12.9108837 L34.312186,12.9108837 C35.3075349,12.9108837 36.1186977,13.7211163 36.1186977,14.7164651 L36.1186977,20.1350698 L30.700093,20.1350698 C27.7131163,20.1350698 25.2833488,22.5648372 25.2833488,25.5527442 C25.2833488,28.5406512 27.7131163,30.9704186 30.700093,30.9704186 L36.1186977,30.9704186 L36.1186977,36.388093 C36.1186977,37.3843721 35.3075349,38.1946047 34.312186,38.1946047 L34.312186,38.1946047 Z M25.420093,2.31646512 C25.8284651,2.07832558 26.3056744,2.01413953 26.7614884,2.136 C27.2228837,2.25972093 27.6070698,2.55739535 27.8461395,2.97413953 L27.848,2.97693023 L13.888,11.1053023 L10.3233488,11.1053023 L25.420093,2.31646512 Z M30.5335814,7.66809302 L32.5010233,11.1053023 L24.6312558,11.1053023 L30.5335814,7.66809302 Z M17.4768372,11.1053023 L28.7456744,4.54530233 L29.6368372,6.1015814 L21.0424186,11.1053023 L17.4768372,11.1053023 Z M37.9242791,20.3006512 L37.9242791,14.7164651 C37.9242791,12.8234419 36.4554419,11.283907 34.5996279,11.1341395 L29.4145116,2.07739535 C28.9335814,1.23832558 28.1568372,0.640186047 27.2284651,0.391813953 C26.3047442,0.144372093 25.3382326,0.274604651 24.5112558,0.756465116 L6.73451163,11.1053023 L3.61172093,11.1053023 C1.62009302,11.1053023 -0.000372093023,12.7257674 -0.000372093023,14.7164651 L-0.000372093023,36.388093 C-0.000372093023,38.3806512 1.62009302,40.000186 3.61172093,40.000186 L34.312186,40.000186 C36.3047442,40.000186 37.9242791,38.3806512 37.9242791,36.388093 L37.9242791,30.803907 C38.9726512,30.4299535 39.7298605,29.4373953 39.7298605,28.2615814 L39.7298605,22.843907 C39.7298605,21.668093 38.9726512,20.6755349 37.9242791,20.3006512 L37.9242791,20.3006512 Z" id="Fill-3" fill="#00FF7D" mask="url(#mask-2)"></path>
                </g>
                <path d="M30.7004651,24.4076279 C29.7051163,24.4076279 28.8948837,25.2178605 28.8948837,26.2132093 C28.8948837,27.2094884 29.7051163,28.0197209 30.7004651,28.0197209 C31.695814,28.0197209 32.5060465,27.2094884 32.5060465,26.2132093 C32.5060465,25.2178605 31.695814,24.4076279 30.7004651,24.4076279" id="Fill-6" fill="#00FF7D"></path>
            </g>
        </g>
    </g>
</svg>