<?xml version="1.0" encoding="UTF-8"?>
<svg width="243px" height="243px" viewBox="0 0 243 243" version="1.1" xmlns="http://www.w3.org/2000/svg" xmlns:xlink="http://www.w3.org/1999/xlink">
    <title>ica-congratz</title>
    <g id="Welcome" stroke="none" stroke-width="1" fill="none" fill-rule="evenodd">
        <g id="Desktop-HD" transform="translate(-270.000000, -277.000000)" fill="#000000" fill-rule="nonzero">
            <g id="ica-congratz" transform="translate(270.000000, 277.000000)">
                <path d="M234.442352,135.471442 C235.676359,133.156953 234.793837,130.283894 232.471084,129.053803 C205.784424,114.922942 173.230156,118.311862 150.104543,137.247765 L142.4095,129.580103 L154.976753,117.057568 C156.836575,115.204364 156.836575,112.199373 154.976753,110.345694 C153.116455,108.49249 150.101686,108.49249 148.240911,110.345694 L135.673658,122.868229 L105.011122,92.3147996 C111.985574,82.9946771 116.37342,72.0472467 117.756975,60.3903309 C119.351041,46.9523459 116.813967,33.5105642 110.418656,21.5195497 C109.184649,19.2050613 106.300377,18.3261537 103.978099,19.5557701 C101.655346,20.7858611 100.7733,23.658921 102.007307,25.9734093 C112.265143,45.2078186 110.659647,68.047078 98.1938386,85.5217738 L77.9872653,65.3871011 C75.1520488,62.5619731 71.1218787,61.3897799 67.2060127,62.24923 C63.2901468,63.1096293 60.1286875,65.8626224 58.7484661,69.6141153 L0.729639316,227.329628 C-0.854900471,231.637319 0.18288498,236.328939 3.43912139,239.573114 C5.68757715,241.81357 8.62757238,243 11.6561532,243 C13.0135137,243 14.3884961,242.76129 15.7263297,242.272955 L174.00409,184.460101 C177.768979,183.085266 180.531803,179.934581 181.395751,176.033124 C182.258747,172.131191 181.081891,168.115362 178.246675,165.290234 L156.881344,144.000453 C177.005047,128.000727 205.000488,125.256276 228.001796,137.435696 C230.324073,138.665787 233.207392,137.78593 234.442352,135.471442 L234.442352,135.471442 Z M75.8578762,210.199946 L32.9171814,167.412046 L44.8152797,135.069479 L108.315938,198.344184 L75.8578762,210.199946 Z M52.5841444,218.700957 L24.3858134,190.602963 L29.3037448,177.23474 L66.0001051,213.800525 L52.5841444,218.700957 Z M12.4477087,233.360965 C11.3189563,233.773368 10.5393075,233.224763 10.1740108,232.861715 C9.80919041,232.498193 9.25910221,231.720844 9.6729781,230.596582 L20.7719006,200.425658 L42.725897,222.301536 L12.4477087,233.360965 Z M172.093783,173.989141 C171.99853,174.419578 171.694195,175.194555 170.726421,175.548111 L141.446965,186.242594 L114.358335,159.24988 C112.498513,157.396201 109.482792,157.396675 107.62297,159.249405 C105.763148,161.102609 105.762671,164.1076 107.622493,165.960804 L131.589193,189.842699 L118.173233,194.743131 L48.4287162,125.246785 L53.3466476,111.878562 L77.313824,135.759982 C78.2434968,136.686821 79.46274,137.150004 80.6815068,137.150004 C81.9002737,137.150004 83.1195168,136.686347 84.0491897,135.759982 C85.9090117,133.906777 85.9090117,130.901787 84.0487134,129.048582 L56.9600842,102.056342 L67.6927575,72.8810699 C68.0475763,71.9167393 68.82532,71.6134877 69.2577703,71.5180987 C69.38922,71.4891498 69.5582947,71.4644721 69.7502302,71.4644721 C70.1879195,71.4644721 70.7456279,71.5935557 71.2523758,72.098975 L171.511309,172.001159 C172.239997,172.727729 172.189037,173.558704 172.093783,173.989141 L172.093783,173.989141 Z" id="XMLID_1068_"></path>
                <path d="M143.831124,38 C146.499353,38 148.662248,35.8370751 148.662248,33.1688075 C148.662248,29.1226839 151.954175,25.8311925 156.000242,25.8311925 C165.373588,25.8311925 173,18.2051552 173,8.83119245 C173,6.16292486 170.836623,4 168.168876,4 C165.50113,4 163.337752,6.16292486 163.337752,8.83119245 C163.337752,12.8773161 160.045825,16.1688075 156.000242,16.1688075 C146.626412,16.1688075 139,23.7948448 139,33.1688075 C139,35.8370751 141.163377,38 143.831124,38 Z" id="XMLID_1441_"></path>
                <path d="M184.677848,83 C194.051787,83 201.678082,75.3736001 201.678082,66 C201.678082,61.7852013 205.106944,58.355824 209.322152,58.355824 C211.90526,58.355824 214,56.2615228 214,53.677912 C214,51.0943012 211.90526,49 209.322152,49 C199.948681,49 192.322386,56.6263999 192.322386,66 C192.322386,70.2147987 188.893056,73.644176 184.677848,73.644176 C182.09474,73.644176 180,75.7384772 180,78.322088 C180,80.9056988 182.09474,83 184.677848,83 Z" id="XMLID_1462_"></path>
                <path d="M213,91 C213,99.2710938 219.728906,106 228,106 C236.271094,106 243,99.2710938 243,91 C243,82.7289062 236.271094,76 228,76 C219.728906,76 213,82.7289062 213,91 L213,91 Z M228,85.375 C231.101719,85.375 233.625,87.8982812 233.625,91 C233.625,94.1017188 231.101719,96.625 228,96.625 C224.898281,96.625 222.375,94.1017188 222.375,91 C222.375,87.8982812 224.898281,85.375 228,85.375 Z" id="XMLID_1489_"></path>
                <path d="M150,81 C158.271094,81 165,74.2710938 165,66 C165,57.7289062 158.271094,51 150,51 C141.728906,51 135,57.7289063 135,66 C135,74.2710938 141.729375,81 150,81 Z M150,60.375 C153.101719,60.375 155.625,62.8982813 155.625,66 C155.625,69.1017188 153.101719,71.625 150,71.625 C146.898281,71.625 144.375,69.1017188 144.375,66 C144.375,62.8982813 146.898281,60.375 150,60.375 Z" id="XMLID_1502_"></path>
                <path d="M61,30 C69.2710938,30 76,23.2710937 76,15 C76,6.72890625 69.2710938,0 61,0 C52.7289062,0 46,6.72890625 46,15 C46,23.2710937 52.7289063,30 61,30 Z M61,9.375 C64.1017188,9.375 66.625,11.8982813 66.625,15 C66.625,18.1017188 64.1017188,20.625 61,20.625 C57.8982813,20.625 55.375,18.1017187 55.375,15 C55.375,11.8982813 57.8982812,9.375 61,9.375 Z" id="XMLID_1619_"></path>
                <path d="M214.541679,166.293898 C212.817033,164.568774 210.020669,164.568774 208.293815,166.293456 C206.568728,168.01858 206.568728,170.815887 208.293815,172.541011 L212.458763,176.706047 C213.321527,177.56883 214.452001,178 215.582474,178 C216.712947,178 217.84342,177.568388 218.706185,176.706047 C220.431272,174.980923 220.431272,172.183616 218.706185,170.458492 L214.541679,166.293898 Z" id="XMLID_1620_"></path>
                <path d="M237.541679,189.29376 C235.81615,187.568747 233.019786,187.568747 231.293815,189.29376 C229.568728,191.018774 229.568728,193.815903 231.293815,195.541358 L235.458763,199.706129 C236.321527,200.568857 237.452001,201 238.582474,201 C239.712947,201 240.84342,200.568857 241.706185,199.706129 C243.431272,197.981115 243.431272,195.183987 241.706185,193.458531 L237.541679,189.29376 Z" id="XMLID_1659_"></path>
                <path d="M235.458763,166.293953 L231.293815,170.458813 C229.568728,172.183863 229.568728,174.981051 231.293815,176.706102 C232.15658,177.568848 233.287053,178 234.417526,178 C235.547999,178 236.678914,177.568406 237.541237,176.706102 L241.706185,172.541242 C243.431272,170.816192 243.431272,168.019004 241.706185,166.293953 C239.981098,164.568461 237.18385,164.568903 235.458763,166.293953 L235.458763,166.293953 Z" id="XMLID_1690_"></path>
                <path d="M212.458763,189.29376 L208.293815,193.458531 C206.568728,195.183545 206.568728,197.980674 208.293815,199.706129 C209.15658,200.568857 210.287053,201 211.417526,201 C212.548441,201 213.678473,200.568857 214.541237,199.706129 L218.706185,195.541358 C220.431272,193.816345 220.431272,191.019216 218.706185,189.29376 C216.980656,187.568747 214.184292,187.568747 212.458763,189.29376 L212.458763,189.29376 Z" id="XMLID_1712_"></path>
                <path d="M234.417818,13 C235.548253,13 236.679129,12.5688423 237.541422,11.7060852 L241.706229,7.54117287 C243.431257,5.81610045 243.431257,3.01887674 241.706229,1.29380432 C239.980758,-0.431268106 237.183606,-0.431268106 235.458578,1.29380432 L231.293771,5.45871669 C229.568743,7.18378911 229.568743,9.98101282 231.293771,11.7060852 C232.156948,12.5688423 233.286941,13 234.417818,13 L234.417818,13 Z" id="XMLID_1715_"></path>
                <path d="M211.417818,36 C212.548694,36 213.678687,35.568857 214.541422,34.7061292 L218.706229,30.5413584 C220.431257,28.8163446 220.431257,26.0192159 218.706229,24.2937604 C216.980758,22.5687465 214.18449,22.5687465 212.458578,24.2937604 L208.293771,28.4585312 C206.568743,30.183545 206.568743,32.9806737 208.293771,34.7061292 C209.156948,35.568857 210.287383,36 211.417818,36 Z" id="XMLID_1747_"></path>
                <path d="M237.541679,24.2937604 C235.81615,22.5687465 233.019786,22.5687465 231.293815,24.2937604 C229.568728,26.0187742 229.568728,28.8159028 231.293815,30.5413584 L235.458763,34.7061292 C236.321527,35.568857 237.452001,36 238.582474,36 C239.712947,36 240.84342,35.568857 241.706185,34.7061292 C243.431272,32.9811154 243.431272,30.1839867 241.706185,28.4585312 L237.541679,24.2937604 Z" id="XMLID_1750_"></path>
                <path d="M212.459019,11.7060852 C213.321754,12.5688423 214.452189,13 215.582624,13 C216.713059,13 217.843494,12.5688423 218.706229,11.7060852 C220.431257,9.98101282 220.431257,7.18378911 218.706229,5.45871669 L214.541422,1.29380432 C212.816836,-0.431268106 210.020567,-0.431268106 208.293771,1.29380432 C206.568743,3.01887674 206.568743,5.81610045 208.293771,7.54117287 L212.459019,11.7060852 Z" id="XMLID_1751_"></path>
                <path d="M95,144 C93.948,144 92.916,144.428 92.172,145.172 C91.428,145.916 91,146.948 91,148 C91,149.052 91.428,150.084 92.172,150.828 C92.916,151.572 93.948,152 95,152 C96.052,152 97.084,151.572 97.828,150.828 C98.572,150.084 99,149.052 99,148 C99,146.948 98.572,145.916 97.828,145.172 C97.084,144.428 96.052,144 95,144 Z" id="XMLID_1755_"></path>
                <path d="M164.856007,92.3971634 L161.397227,95.8557838 C159.534258,97.7186683 159.534258,100.739356 161.397227,102.602717 C162.328951,103.534398 163.549781,104 164.77061,104 C165.99144,104 167.21227,103.534398 168.143993,102.602717 L171.602773,99.144097 C173.465742,97.2812124 173.465742,94.2605249 171.602773,92.3971634 C169.739325,90.5342789 166.719454,90.5342789 164.856007,92.3971634 L164.856007,92.3971634 Z" id="XMLID_1756_"></path>
            </g>
        </g>
    </g>
</svg>