<svg xmlns="http://www.w3.org/2000/svg" width="154" height="38" fill-rule="nonzero" xmlns:v="https://vecta.io/nano"><path d="M10.805 0c.423.004.826.183 1.118.497.313.307.5.734.484 1.178V6.84a1.73 1.73 0 0 1-.484 1.255c-.3.322-.715.502-1.148.497h-.93v27.282c-.001.56-.228 1.094-.626 1.477a1.96 1.96 0 0 1-1.446.65h-5.7a1.96 1.96 0 0 1-1.446-.65c-.398-.382-.625-.917-.626-1.477V2.127C.003 1.565.23 1.03.626.643A1.98 1.98 0 0 1 2.072 0h8.734zm8.583 29.326V8.674a2.43 2.43 0 0 1 .611-1.53l6.47-6.54c.405-.402.957-.62 1.528-.604h19.098a2.49 2.49 0 0 1 1.528.604l6.6 6.693a2.42 2.42 0 0 1 .604 1.53v4.03a2.21 2.21 0 0 1-2.124 2.126h-5.836c-1.15-.05-2.073-.974-2.124-2.126v-.765a2.42 2.42 0 0 0-.604-1.53L43.696 9.18a1.81 1.81 0 0 0-1.444-.604h-9.26c-.57-.02-1.125.198-1.528.604l-1.383 1.384a2.06 2.06 0 0 0-.611 1.53v13.813a2.07 2.07 0 0 0 .61 1.53l1.367 1.37a2.1 2.1 0 0 0 1.528.681h9.274a1.74 1.74 0 0 0 1.444-.68l1.444-1.37a2.42 2.42 0 0 0 .604-1.53v-.765a2.21 2.21 0 0 1 2.124-2.126h5.844c1.158.036 2.088.967 2.124 2.126v4.03a2.05 2.05 0 0 1-.604 1.53l-6.6 6.685a2.46 2.46 0 0 1-1.528.612H28.005a2.06 2.06 0 0 1-1.528-.612l-6.448-6.532a2.07 2.07 0 0 1-.642-1.53zm78.192.158a1.47 1.47 0 0 1 1.25.42c.327.33.484.794.42 1.255v5.164a1.67 1.67 0 0 1-.458 1.178c-.313.334-.756.515-1.213.497h-8.56a1.53 1.53 0 0 1-1.526-1.53v-.375a1.53 1.53 0 0 0-.42-1.109 1.39 1.39 0 0 0-1.022-.413 1.47 1.47 0 0 0-1.06.451L82.34 37.6c-.304.238-.675.372-1.06.382H68.03a1.21 1.21 0 0 1-.984-.459l-6.103-6.12a1.22 1.22 0 0 1-.45-.994v-7.543a1.45 1.45 0 0 1 .45-1.063l6.103-6.12c.252-.272.614-.416.984-.4h17.2a1.33 1.33 0 0 0 1.022-.46 1.53 1.53 0 0 0 .42-1.063v-2.685c-.014-.386-.147-.757-.38-1.063L84.765 8.5a1.82 1.82 0 0 0-1.06-.382H73.558a1.29 1.29 0 0 0-1.06.46l-1.442 1.438a1.45 1.45 0 0 0-.374 1.063 1.4 1.4 0 0 1-.496 1.063 1.57 1.57 0 0 1-1.099.459h-6.82c-.834-.02-1.506-.693-1.526-1.53V8.9c-.042-.4.13-.813.458-1.063L68.478.46a1.32 1.32 0 0 1 1.068-.459H87.81a1.44 1.44 0 0 1 1.06.46l7.27 7.367c.327.25.5.653.458 1.063v20.594h.984zm-10.9-5.164v-.382a1.53 1.53 0 0 0-.42-1.063c-.257-.296-.63-.464-1.022-.46H73.024c-.404-.002-.8.164-1.068.46L70.75 24.1a1.39 1.39 0 0 0-.458.987v2.586c-.001.403.165.788.458 1.063l1.06 1.063a1.44 1.44 0 0 0 1.06.459h7.73a1.45 1.45 0 0 0 1.06-.459l4.577-4.406a1.46 1.46 0 0 0 .435-1.063h0z" fill="#fff"/><path d="M151.53 2.22c-1.237-1.438-3.044-2.25-4.934-2.22h-30.267c-1.945-.01-3.806.794-5.14 2.22l-5.85 5.903c-1.358 1.226-2.153 2.962-2.196 4.798V25.45c-.01 1.956.784 3.83 2.196 5.174l5.117 5.174a7.07 7.07 0 0 0 5.14 2.203h8.64c1.936.006 3.8-.79 5.125-2.203l21.986-21.402a7.06 7.06 0 0 0 2.204-5.166V7.393c.026-1.925-.7-3.782-2.02-5.174z" fill="#00FF7D"/></svg>