<?xml version="1.0" encoding="UTF-8"?>
<svg width="64px" height="45px" viewBox="0 0 64 45" version="1.1" xmlns="http://www.w3.org/2000/svg" xmlns:xlink="http://www.w3.org/1999/xlink">
    <title>big-icon-seguro</title>
    <g id="Welcome" stroke="none" stroke-width="1" fill="none" fill-rule="evenodd">
        <g id="Desktop" transform="translate(-379.000000, -216.000000)">
            <g id="Group-25" transform="translate(380.000000, 105.000000)">
                <g id="big-icon-seguro" transform="translate(0.349956, 112.956362)">
                    <path d="M38.1042636,16.9623085 C37.4728636,16.4177085 36.5831636,15.1080085 35.6374636,15.2067085 C34.4992636,15.3194085 31.9512636,14.7566085 31.2190636,16.0201085 C30.4910636,14.7517085 27.9339636,15.3222085 26.8006636,15.2067085 C25.5658636,15.3390085 23.9460636,16.9658085 23.8088636,18.1964085 C23.8312636,18.6493085 23.7934636,19.8358085 23.8095636,20.2698085 C23.5120636,21.3394085 28.9272636,25.9804085 29.4375636,26.7777085 C30.2726636,27.5652085 32.1668636,27.5603085 32.9991636,26.7784085 C33.5150636,25.9461085 38.9085636,21.3653085 38.6285636,20.2698085 C38.5284636,19.2422085 38.9603636,17.7680085 38.1042636,16.9623085" id="Fill-5" fill="#FFFFFF"></path>
                    <path d="M59.5923736,2.14064849 C57.6148736,-1.61415151 36.3593736,0.85754849 32.9916736,0.19044849 C30.1062736,0.29334849 26.0154736,-0.44515151 23.8734736,2.14064849 C14.3317736,10.6379485 17.0904736,10.9242485 16.7481736,22.5785485 C16.1846736,25.8398485 24.5188736,34.1782485 27.7787736,33.6147485 C29.4419736,33.5552485 33.8330736,33.658205 35.4290736,33.6147485 C39.3217736,34.7102485 56.5235736,14.7469485 59.4348736,12.8513485 C62.2012736,10.0611485 62.1291736,5.00574849 59.5923736,2.14064849 Z" id="Stroke-7" stroke="#FFFFFF" stroke-width="2.1"></path>
                    <path d="M1.91069356,10.0180285 C3.88679356,6.26252849 25.1429936,8.73492849 28.5106936,8.06782849 C31.3967936,8.17142849 35.4868936,7.43152849 37.6288936,10.0180285 C47.1712936,18.5139285 44.4118936,18.8037285 44.7541936,30.4566285 C45.3169936,33.7172285 36.9841936,42.0549285 33.7235936,41.4914285 C32.0603936,41.4312285 27.6692936,41.5341285 26.0732936,41.4914285 C22.1798936,42.5876285 4.97879356,22.6243285 2.06749356,20.7287285 C-0.698206442,17.9378285 -0.627506442,12.8845285 1.91069356,10.0180285 Z" id="Stroke-9" stroke="#FFFFFF" stroke-width="2.1"></path>
                </g>
            </g>
        </g>
    </g>
</svg>