<?xml version="1.0" encoding="UTF-8"?>
<svg width="62px" height="47px" viewBox="0 0 62 47" version="1.1" xmlns="http://www.w3.org/2000/svg" xmlns:xlink="http://www.w3.org/1999/xlink">
    <title>big-icon-invalidez</title>
    <g id="Welcome" stroke="none" stroke-width="1" fill="none" fill-rule="evenodd">
        <g id="Desktop" transform="translate(-380.000000, -104.000000)">
            <g id="Group-25" transform="translate(380.000000, 105.000000)">
                <g id="big-icon-invalidez" transform="translate(1.390470, 0.349765)">
                    <path d="M56.8873295,2.83369477 C54.2700295,-2.13700523 26.1265295,1.13549477 21.6682295,0.252094768 C17.8483295,0.389294768 12.4324295,-0.590005232 9.59742951,2.83369477 C-3.24407049,14.4837948 0.71932951,13.9629948 0.16142951,29.8928948 C-0.35937049,34.4988948 6.11212951,38.8955948 8.74062951,41.9433948 C12.6634295,46.1216948 19.8832295,44.0265948 24.8952295,44.5039948 C30.0479295,45.9557948 52.8245295,19.5244948 56.6794295,17.0142948 C60.3404295,13.3203948 60.2487295,6.62839477 56.8873295,2.83369477 Z" id="Stroke-1" stroke="#FFFFFF" stroke-width="2.1"></path>
                    <path d="M25.8350495,23.1497948 C25.4990495,22.5421948 24.2824495,22.1711948 24.2005495,23.1273948 C24.3923495,23.6565948 23.6867495,26.8737948 24.7759495,26.7869948 C25.2960495,26.8611948 25.9309495,26.2535948 25.9960495,25.7523948 C25.9309495,25.4499948 26.1570495,23.3275948 25.8350495,23.1497948 M21.5762495,19.2836948 C21.5062495,18.1559948 22.1257495,14.4060948 19.8976495,16.5676948 C19.5805495,16.9372948 19.6001495,18.8951948 19.8976495,19.2836948 C20.2434495,19.8793948 21.4775495,20.2370948 21.5762495,19.2836948 M29.1033495,22.5974948 C29.0648495,22.8130948 29.2405495,27.0725948 28.9423495,27.0858948 C28.6581495,27.2174948 26.6869495,29.6163948 26.3187495,29.4567948 C25.9855495,29.4686948 24.5939495,29.3433948 24.3622495,29.6170948 C23.7511495,31.5322948 25.1420495,32.1881948 22.1530495,31.9879948 C20.8468495,31.9340948 22.3035495,29.5246948 21.0022495,29.4567948 C18.5319495,29.7878948 18.3282495,28.5530948 16.7441495,27.1313948 C16.5131495,26.6448948 16.2702495,24.6330948 17.1578495,24.6470948 C17.6835495,24.7618948 19.7100495,24.2536948 19.6659495,25.2217948 C19.2914495,26.2997948 21.2661495,27.6122948 21.5769495,26.1884948 C21.5209495,25.8594948 21.7372495,22.8837948 21.4040495,22.7129948 C21.1772495,22.4140948 19.6883495,22.5995948 19.3677495,22.5519948 C18.8280495,22.4476948 16.7420495,20.3441948 16.6293495,19.8135948 C16.6741495,19.5741948 16.4858495,15.6618948 16.7903495,15.6016948 L18.9533495,13.4617948 C19.5021495,12.8681948 21.4978495,13.8691948 21.5762495,12.7022948 C21.6637495,12.2304948 21.2570495,10.6813948 22.1530495,10.7450948 C22.4722495,10.8437948 23.8162495,10.5707948 24.0402495,10.9067948 C24.5610495,11.4331948 23.6587495,13.2342948 24.7759495,13.2776948 L26.1801495,13.2776948 C26.5329495,13.1320948 28.4901495,15.4560948 28.7582495,15.6016948 C28.9857495,16.0874948 29.2405495,18.1419948 28.3431495,18.1097948 C24.2684495,18.2098948 26.8913495,17.8990948 25.2372495,16.1308948 C24.8459495,15.7955948 24.1837495,16.0027948 24.2012495,16.5452948 C24.2523495,16.8777948 24.0500495,19.5041948 24.3622495,19.6973948 C24.5848495,19.9997948 26.0429495,19.8121948 26.3649495,19.8604948 C26.8941495,19.9885948 28.9682495,22.0745948 29.1033495,22.5974948" id="Fill-3" fill="#FFFFFF"></path>
                </g>
            </g>
        </g>
    </g>
</svg>