<?xml version="1.0" encoding="UTF-8"?>
<svg width="62px" height="47px" viewBox="0 0 62 47" version="1.1" xmlns="http://www.w3.org/2000/svg" xmlns:xlink="http://www.w3.org/1999/xlink">
    <title>big-icon-medicamento</title>
    <g id="Welcome" stroke="none" stroke-width="1" fill="none" fill-rule="evenodd">
        <g id="Desktop" transform="translate(-380.000000, -549.000000)" stroke="#FFFFFF" stroke-width="2.1">
            <g id="Group-25" transform="translate(380.000000, 105.000000)">
                <g id="Group" transform="translate(1.390944, 445.340255)">
                    <g id="big-icon-medicamento" transform="translate(-0.000000, 0.000000)">
                        <path d="M56.8868557,2.83369477 C54.2688557,-2.13700523 26.1253557,1.13549477 21.6670557,0.252094768 C17.8471557,0.389294768 12.4312557,-0.590005232 9.59625566,2.83369477 C-3.24454434,14.4823948 0.719555664,13.9643948 0.161655664,29.8928948 C-0.359844336,34.4995948 6.11165566,38.8955948 8.74085566,41.9433948 C12.6636557,46.1216948 19.8827557,44.0258948 24.8954557,44.5039948 C30.0467557,45.9550948 52.8240557,19.5237948 56.6782557,17.0142948 C60.3392557,13.3196948 60.2475557,6.62839477 56.8868557,2.83369477 Z" id="Stroke-17"></path>
                        <path d="M29.7618557,16.5951348 L27.6751557,16.5951348 C28.3093557,10.9797348 24.8912557,11.7462348 20.7563557,11.7644348 C18.1299557,11.7280348 17.8030557,14.5854348 18.0109557,16.5951348 C12.3948557,15.9609348 13.1613557,19.3790348 13.1802557,23.5139348 C13.1438557,26.1410348 16.0012557,26.4665348 18.0109557,26.2586348 C17.3767557,31.8761348 20.7927557,31.1096348 24.9297557,31.0914348 C27.5568557,31.1278348 27.8823557,28.2690348 27.6751557,26.2586348 C29.6869557,26.4623348 32.5415557,26.1445348 32.5058557,23.5132348 C32.4218557,21.2809348 33.3024557,16.5300348 29.7618557,16.5951348 Z" id="Stroke-19"></path>
                    </g>
                </g>
            </g>
        </g>
    </g>
</svg>