<?xml version="1.0" encoding="UTF-8"?>
<svg width="62px" height="48px" viewBox="0 0 62 48" version="1.1" xmlns="http://www.w3.org/2000/svg" xmlns:xlink="http://www.w3.org/1999/xlink">
    <title>big-icon-funeral</title>
    <g id="Welcome" stroke="none" stroke-width="1" fill="none" fill-rule="evenodd">
        <g id="Desktop" transform="translate(-380.000000, -326.000000)">
            <g id="Group-25" transform="translate(380.000000, 105.000000)">
                <g id="big-icon-funeral" transform="translate(1.364430, 222.409716)">
                    <path d="M56.8880295,2.833414 C54.2700295,-2.136586 26.1265295,1.135214 21.6682295,0.251813999 C17.8483295,0.389013999 12.4324295,-0.589586001 9.59742951,2.833414 C-3.24407049,14.483514 0.71932951,13.962714 0.16142951,29.893314 C-0.35937049,34.498614 6.11212951,38.895314 8.74062951,41.943814 C12.6641295,46.121414 19.8832295,44.026314 24.8959295,44.503714 C30.0486295,45.955514 52.8252295,19.524214 56.6794295,17.014714 C60.3404295,13.320114 60.2487295,6.628114 56.8880295,2.833414 Z" id="Stroke-21" stroke="#FFFFFF" stroke-width="2.1"></path>
                    <path d="M25.0523795,22.019854 C26.7715795,19.942254 30.1714795,12.933854 31.5448795,19.075654 C26.3585795,18.325254 32.2070795,24.471254 27.9503795,26.566354 C26.9227795,27.892854 23.3303795,27.048654 23.4787795,29.231254 C24.4622795,32.951054 19.1072795,33.181354 16.5942795,31.937454 C18.2791795,30.316254 19.5139795,28.182654 21.4270795,26.874354 C22.4021795,26.084754 21.8218795,25.637454 21.1953795,25.330854 C18.0761795,25.220954 17.8010795,23.733454 16.8980795,21.269454 C14.8400795,19.767954 14.6860795,17.166754 16.4521795,15.355154 C15.7857795,14.157454 15.3188795,12.903054 16.3716795,11.944754 C17.4265795,16.358254 20.3105795,19.634954 25.0523795,22.019854 M21.7329795,17.526554 C21.5467795,16.169254 22.6975795,15.710754 22.9999795,14.678254 C23.1945795,13.775254 22.9404795,12.602754 23.8966795,12.075654 C24.2795795,14.251954 24.2291795,16.528354 25.0670795,18.594754 C25.4121795,19.216354 24.7702795,19.457154 24.5042795,19.921954 C23.6355795,19.095254 22.1886795,18.606654 21.7329795,17.526554 M33.7701795,19.463454 C32.0978795,15.312454 29.7178795,12.664354 26.3767795,17.369054 C25.6641795,14.957554 25.6221795,12.626554 25.6165795,10.362054 C22.8711795,9.802754 21.3822795,11.739654 21.3829795,14.285554 C20.8670795,14.779754 20.5009795,15.406954 20.2510795,16.232254 C19.0323795,14.987654 18.0859795,12.483754 17.6974795,9.739054 C14.0224795,10.168854 14.0658795,12.616754 14.2786795,15.528054 C13.0389795,17.733054 13.4820795,20.439954 15.3552795,22.109454 C16.1623795,23.988954 16.7370795,26.065154 19.0953795,26.647554 C17.7338795,28.458454 15.5232795,29.951554 14.6209795,31.989254 C16.7426795,35.844854 26.4831795,34.857854 25.0838795,29.455954 C29.4798795,28.605454 32.4219795,25.302154 31.0499795,20.736054 C31.9774795,20.697554 34.5758795,21.119654 33.7701795,19.463454" id="Fill-23" fill="#FFFFFF"></path>
                </g>
            </g>
        </g>
    </g>
</svg>