<?xml version="1.0" encoding="UTF-8"?>
<svg width="62px" height="48px" viewBox="0 0 62 48" version="1.1" xmlns="http://www.w3.org/2000/svg" xmlns:xlink="http://www.w3.org/1999/xlink">
    <title>big-icon-afastamento</title>
    <g id="Welcome" stroke="none" stroke-width="1" fill="none" fill-rule="evenodd">
        <g id="Desktop" transform="translate(-380.000000, -437.000000)">
            <g id="Group-25" transform="translate(380.000000, 105.000000)">
                <g id="Group" transform="translate(1.390944, 333.477315)">
                    <g id="big-icon-afastamento" transform="translate(-0.000000, 0.000000)">
                        <path d="M56.8868557,2.83369477 C54.2688557,-2.13700523 26.1253557,1.13549477 21.6670557,0.252094768 C17.8471557,0.389294768 12.4312557,-0.590005232 9.59625566,2.83369477 C-3.24454434,14.4823948 0.719555664,13.9643948 0.161655664,29.8928948 C-0.359844336,34.4995948 6.11165566,38.8955948 8.74085566,41.9433948 C12.6636557,46.1216948 19.8827557,44.0258948 24.8954557,44.5039948 C30.0467557,45.9550948 52.8240557,19.5237948 56.6782557,17.0142948 C60.3392557,13.3196948 60.2475557,6.62839477 56.8868557,2.83369477 Z" id="Stroke-11" stroke="#FFFFFF" stroke-width="2.1"></path>
                        <path d="M28.5067557,15.9771748 C28.1161557,13.6573748 30.5451557,13.9212748 32.0683557,13.9632748 C32.4589557,16.2830748 30.0299557,16.0191748 28.5067557,15.9771748 M22.2935557,10.2714748 L22.2935557,9.65617477 C24.3928557,9.51757477 27.4364557,9.49447477 27.0262557,12.4813748 C25.3000557,12.5338748 22.2522557,12.7977748 22.2935557,10.2714748 M24.5034557,13.9632748 L27.0262557,13.9632748 L27.0262557,18.3662748 C25.7578557,18.4257748 22.5301557,18.8233748 23.0481557,20.5838748 C23.2875557,20.9135748 23.7516557,20.9870748 24.0827557,20.7518748 C25.1180557,20.0035748 26.4249557,19.7004748 27.6814557,19.9104748 C29.6358557,19.9699748 30.3981557,21.8942748 31.7547557,22.7111748 C34.0199557,21.5813748 29.9053557,18.8170748 28.5067557,18.5748748 L28.5067557,17.4590748 C31.7071557,17.7999748 33.9947557,16.8220748 33.5495557,13.1995748 C33.7070557,11.9451748 29.1192557,12.4386748 28.5067557,12.8649748 C29.0289557,8.32477477 25.0060557,7.86697477 21.5305557,8.17567477 C20.5162557,8.15187477 20.8711557,9.66877477 20.8123557,10.2714748 C20.8123557,12.3063748 22.4685557,13.9632748 24.5034557,13.9632748" id="Fill-13" fill="#FFFFFF"></path>
                        <path d="M16.7612457,28.6024448 L11.6372457,31.1917448 L11.6372457,29.6384448 L12.9371457,29.0007448 C14.1124457,28.0228448 12.5885457,27.1261448 11.6372457,27.9899448 L11.6372457,24.3233448 L14.3889457,23.1214448 C14.3840457,23.1319448 16.8186457,28.5835448 16.7948457,28.5905448 L16.9775457,28.7683448 L16.7612457,28.6024448 Z M35.3462457,24.0888448 C34.2381457,21.4267448 30.9488457,23.8074448 29.3164457,24.4549448 C28.4407457,24.8462448 29.0693457,26.2147448 29.9366457,25.7996448 C30.5715457,25.7401448 33.5710457,23.4728448 33.9924457,24.6887448 C34.1464457,25.0156448 33.9805457,25.4419448 33.6459457,25.5805448 L27.1527457,28.4470448 C23.9054457,29.8211448 21.0928457,25.2928448 17.7314457,27.0260448 L16.1578457,23.4630448 C20.0771457,20.9577448 22.8505457,22.7035448 26.6732457,24.1203448 C27.4005457,24.3786448 27.0050457,25.5224448 26.2679457,25.2648448 L22.5719457,24.0139448 C21.6696457,23.6891448 21.1824457,25.1269448 22.0973457,25.4167448 L25.7926457,26.6669448 C28.3042457,27.5636448 29.7252457,23.6107448 27.1737457,22.7266448 C22.9793457,21.0725448 19.7565457,19.4562448 15.4942457,22.1372448 C14.4813457,20.7407448 11.7093457,22.8883448 10.5991457,23.1620448 C9.69754566,22.9310448 10.3331457,32.0471448 10.1546457,32.3971448 C10.1371457,32.9368448 10.7671457,33.3099448 11.2305457,33.0572448 C12.1587457,32.1899448 18.7807457,30.2670448 18.2690457,28.4029448 C21.5149457,27.2150448 24.4150457,31.7174448 27.7512457,29.8015448 C29.3101457,28.6059448 36.9702457,27.3480448 35.3462457,24.0888448 L35.3462457,24.0888448 Z" id="Fill-15" fill="#FFFFFF"></path>
                    </g>
                </g>
            </g>
        </g>
    </g>
</svg>