<?xml version="1.0" encoding="UTF-8"?>
<svg width="30px" height="27px" viewBox="0 0 30 27" version="1.1" xmlns="http://www.w3.org/2000/svg" xmlns:xlink="http://www.w3.org/1999/xlink">
    <title>icon-rescisao</title>
    <g id="Welcome" stroke="none" stroke-width="1" fill="none" fill-rule="evenodd">
        <g id="Desktop" transform="translate(-480.000000, -373.000000)" fill="#292E31">
            <path d="M490.968679,377.881552 L498.595345,377.881552 C498.65983,376.699006 498.222012,376.219006 497.088436,376.213673 C495.549527,376.2064 494.011103,376.205915 492.472679,376.213673 C491.342497,376.219006 490.894982,376.711612 490.968679,377.881552 L490.968679,377.881552 Z M506.544921,388.163733 C503.180558,389.357915 499.918012,390.504097 496.665164,391.676945 C495.403103,392.131733 494.170618,392.14337 492.911467,391.677915 C491.310982,391.0864 489.697891,390.529309 488.090133,389.959127 C486.423709,389.368097 484.756315,388.779006 483.031709,388.168582 C483.015224,388.419248 482.992436,388.601552 482.991952,388.784339 C482.989042,390.566642 482.982739,392.348945 482.992436,394.131248 C483.002618,395.979976 483.794861,396.757673 485.657164,396.759127 C489.435588,396.761552 493.214012,396.760097 496.992436,396.759612 C499.416194,396.759612 501.839952,396.771733 504.263709,396.753309 C505.548073,396.743612 506.478982,396.035248 506.522133,394.853673 C506.602133,392.6544 506.544921,390.449309 506.544921,388.163733 L506.544921,388.163733 Z M483.118497,380.517673 C483.097164,380.658764 483.078255,380.727612 483.078255,380.796945 C483.075345,381.794764 483.067103,382.793067 483.0768,383.790885 C483.087467,384.945794 483.549527,385.612461 484.627345,385.997915 C487.751709,387.114521 490.875103,388.235006 494.012558,389.313309 C494.434861,389.458279 494.984194,389.509188 495.394861,389.369067 C498.669042,388.249552 501.926255,387.078642 505.182982,385.910158 C505.879709,385.660461 506.412073,385.146521 506.458618,384.416824 C506.541527,383.127127 506.481891,381.827733 506.481891,380.517673 L483.118497,380.517673 Z M507.466133,377.924218 C508.662739,377.930036 509.092315,378.359127 509.09377,379.563976 C509.099588,384.482764 509.054982,389.402521 509.111224,394.321309 C509.144766,397.280998 506.959186,399.260702 504.249367,399.335163 L504.034376,399.337067 L504.034376,399.337067 C501.5632,399.313212 499.091792,399.29952 496.620305,399.295121 L492.913038,399.295385 C491.677275,399.297724 490.441513,399.302278 489.20577,399.308938 L485.498618,399.335127 L485.498618,399.335127 C482.554133,399.360339 480.413042,397.154764 480.4528,394.359612 C480.522133,389.417552 480.469285,384.474036 480.474133,379.531491 C480.475588,378.344097 480.910012,377.927612 482.13183,377.923733 C483.152436,377.920582 484.173042,377.920097 485.2008,377.9204 L486.748694,377.921211 C487.267042,377.921521 487.788073,377.921794 488.312679,377.921794 C488.357285,377.540218 488.376679,377.233309 488.430497,376.932703 C488.779588,374.9584 490.297648,373.667248 492.311224,373.647855 L493.784679,373.640636 L493.784679,373.640636 L495.258133,373.642467 C495.749285,373.643653 496.240436,373.644945 496.731588,373.644945 C499.594133,373.644945 501.042376,374.992824 501.227588,377.921794 L501.976679,377.921794 C503.806497,377.921794 505.636315,377.915491 507.466133,377.924218 Z" id="icon-rescisao"></path>
        </g>
    </g>
</svg>