<?xml version="1.0" encoding="UTF-8"?>
<svg width="57px" height="64px" viewBox="0 0 57 64" version="1.1" xmlns="http://www.w3.org/2000/svg" xmlns:xlink="http://www.w3.org/1999/xlink">
    <title>icon-conversao</title>
    <g id="Welcome" stroke="none" stroke-width="1" fill="none" fill-rule="evenodd">
        <g id="Tablet-Portrait" transform="translate(-75.000000, -571.000000)" fill="#000000">
            <g id="icon-conversao" transform="translate(75.361297, 571.485286)">
                <path d="M39.0645233,56.222259 C40.4491733,56.822359 41.7547733,57.364659 43.0391233,57.952859 C43.9783733,58.383809 44.4603233,59.329009 44.3005233,60.284409 C44.1432733,61.233859 43.3587233,61.979309 42.3319233,62.044759 C41.9069233,62.071959 41.4368733,61.983559 41.0416233,61.817809 C38.1261233,60.589559 35.2199733,59.335809 32.3172233,58.073559 C30.9827233,57.493859 30.4948233,56.327659 31.0515733,55.011859 C32.3095733,52.039409 33.5871233,49.073759 34.8714733,46.112359 C35.3134733,45.096609 36.2170233,44.560259 37.1732733,44.687759 C38.1745733,44.820359 38.9650733,45.527559 39.0577233,46.533109 C39.1019233,47.011659 38.9718733,47.542059 38.7908233,47.996809 C38.2230233,49.423959 37.5940233,50.826459 37.0814733,52.364109 C38.0623733,51.823509 39.0832233,51.343259 40.0182233,50.732109 C46.0124233,46.807659 49.6232233,41.302209 50.5803233,34.197909 C51.4677233,27.614659 49.7549733,21.671459 45.5916733,16.483909 C42.5682233,12.717559 38.6930733,10.191359 34.0512233,8.84665897 C33.8072733,8.77610897 33.5658733,8.69875897 33.3270233,8.61630897 C32.1157733,8.19725897 31.5020733,7.07440897 31.8514233,5.92350897 C32.2075733,4.75220897 33.3287233,4.08495897 34.5476233,4.45810897 C36.0572233,4.92135897 37.5795733,5.39395897 39.0109733,6.05100897 C45.2899233,8.93250897 49.8722733,13.553959 52.7452733,19.833759 C54.2004733,23.012759 54.9697233,26.368559 55.1227233,29.872259 C55.3709233,35.569809 54.0041233,40.842359 51.0112733,45.682259 C48.3618233,49.966259 44.7731233,53.257459 40.3038233,55.585609 C39.9162233,55.787909 39.5260733,55.985109 39.0645233,56.222259" id="Fill-21"></path>
                <path d="M16.1394283,5.96311897 C14.7794283,5.37916897 13.4398283,4.81476897 12.1104283,4.22911897 C11.1031783,3.78541897 10.5778783,2.95496897 10.6603283,2.00381897 C10.7886783,0.512068974 12.2268783,-0.388931026 13.6642283,0.164418974 C14.7063283,0.565618974 15.7220783,1.03991897 16.7488783,1.48106897 C18.7072783,2.32171897 20.6673783,3.15386897 22.6206783,4.00556897 C24.1353783,4.66686897 24.5331783,5.63841897 23.8854783,7.16756897 C22.6368283,10.120469 21.3669283,13.064869 20.0944783,16.008419 C19.6575783,17.020769 18.8704783,17.519719 17.9303783,17.431319 C16.3272783,17.279169 15.4611283,15.880069 16.0688783,14.354319 C16.5516783,13.139669 17.0948283,11.948819 17.6107783,10.746919 C17.6847283,10.573519 17.7561283,10.398419 17.8657783,10.135769 C17.6711283,10.192719 17.5393783,10.210569 17.4288783,10.266669 C10.4903283,13.817119 6.12982833,19.386319 4.78342833,27.066919 C3.34777833,35.255819 5.80852833,42.309119 11.7559783,48.090819 C14.4963783,50.754719 17.8045783,52.508269 21.4995283,53.526569 C22.8408283,53.896319 23.4596283,54.689369 23.4171283,55.846219 C23.3661283,57.213869 22.1939783,58.163319 20.8569283,57.842019 C17.7059783,57.085519 14.7921783,55.766319 12.1206283,53.939669 C7.17362833,50.555819 3.65547833,46.036369 1.62992833,40.399169 C-0.047971668,35.730969 -0.443221668,30.925069 0.503678332,26.049469 C2.00052833,18.342519 6.08307833,12.333019 12.6017283,7.98526897 C13.7033283,7.25001897 14.9043783,6.66351897 16.1394283,5.96311897" id="Fill-23"></path>
                <path d="M26.9046783,21.711324 C25.4936783,21.713024 23.8514783,23.023724 23.7732783,24.807874 C23.6874283,26.784974 24.9029283,28.254624 26.9046783,28.538524 L26.9046783,21.711324 Z M28.4423283,39.026674 C30.1508283,38.994374 31.6561783,37.389574 31.7768783,35.528074 C31.9222283,33.299374 30.7509283,31.880724 28.4423283,31.524574 L28.4423283,39.026674 Z M26.9327283,39.234074 C26.9327283,36.480074 26.9327283,33.987874 26.9310283,31.496524 C26.9310283,31.371574 26.9157283,31.246624 26.9131783,31.204974 C25.9084783,30.796124 24.9275783,30.468024 24.0121283,30.008174 C21.9185783,28.957574 21.0201283,27.102024 21.2632283,24.514624 C21.4680783,22.341174 22.9147783,20.543424 24.9828283,19.933124 C25.6050283,19.749524 26.2476283,19.634774 26.8902283,19.485174 C26.9106283,19.110324 26.9293283,18.758424 26.9505783,18.375924 L28.2901783,18.375924 C28.3216283,18.415024 28.3666783,18.443074 28.3709283,18.477074 C28.4941783,19.475824 28.4933283,19.475824 29.5073783,19.721474 C31.9953283,20.325824 33.5992783,22.115074 33.8321783,24.610674 C33.0119283,24.738174 32.1865783,24.865674 31.2983283,25.003374 C30.9948783,23.353524 30.2808783,22.071724 28.4499783,21.705374 C28.4270283,21.880474 28.3896283,22.036874 28.3887783,22.193274 C28.3853783,24.263874 28.3972783,26.334474 28.3768783,28.405074 C28.3734783,28.817324 28.5154283,28.966924 28.9038783,29.101224 C29.9723283,29.470974 31.0994283,29.780374 32.0522783,30.361774 C33.7182783,31.377524 34.3991283,33.057124 34.391542,34.948374 C34.3812783,37.468624 33.2975283,39.434674 30.9872283,40.577924 C30.3760783,40.880524 29.6739783,41.052224 28.9939783,41.144874 C28.4763283,41.215424 28.3794283,41.422824 28.4006783,41.870774 C28.4278783,42.478524 28.4074783,43.089674 28.4074783,43.749274 L26.9191283,43.749274 C26.9191283,43.093074 26.9012783,42.446224 26.9250783,41.800224 C26.9395283,41.420274 26.8460283,41.221374 26.4244283,41.174624 C25.9450283,41.121924 25.4664783,41.011424 25.0023783,40.874574 C22.4931783,40.135074 20.8951783,37.942074 20.8305783,35.108174 C21.6355283,34.955174 22.4523783,34.800474 23.3125783,34.638124 C23.5777783,36.176624 23.9441283,37.618224 25.3092283,38.493724 C25.7682283,38.787824 26.3096783,38.955274 26.9327283,39.234074 L26.9327283,39.234074 Z" id="Fill-25"></path>
            </g>
        </g>
    </g>
</svg>