<?xml version="1.0" encoding="UTF-8"?>
<svg width="64px" height="54px" viewBox="0 0 64 54" version="1.1" xmlns="http://www.w3.org/2000/svg" xmlns:xlink="http://www.w3.org/1999/xlink">
    <title>icon-fraude</title>
    <g id="Welcome" stroke="none" stroke-width="1" fill="none" fill-rule="evenodd">
        <g id="Tablet-Portrait" transform="translate(-71.000000, -351.000000)" fill="#000000">
            <g id="icon-fraude" transform="translate(71.000255, 351.316079)">
                <path d="M49.63456,15.9830859 L14.62731,15.9830859 C14.59841,15.6932359 14.49386,15.4254859 14.56271,15.2138359 C16.04171,10.6884359 17.49946,6.1545359 19.08896,1.6673859 C19.26151,1.1803359 20.35886,0.545385896 20.77451,0.693285896 C27.50311,3.0732859 34.13311,1.3061359 40.76736,0.306535896 C44.74791,-0.292714104 44.74281,-0.375164104 45.95576,3.5220859 C47.03611,6.9951859 48.10456,10.4733859 49.16281,13.9532859 C49.34811,14.5618859 49.45351,15.1934359 49.63456,15.9830859" id="Fill-15"></path>
                <path d="M19.050285,49.6697759 C22.914385,49.7046259 26.163085,46.5570759 26.242135,42.7023259 C26.323735,38.7583259 23.131985,35.4900759 19.149735,35.4416259 C15.272885,35.3940259 12.060735,38.5135259 11.982535,42.4056759 C11.900935,46.3913259 15.056985,49.6340759 19.050285,49.6697759 M51.737035,42.6632259 C51.797385,38.7880759 48.683835,35.5444759 44.806985,35.4433259 C40.846835,35.3396259 37.499535,38.5211759 37.438335,42.4456259 C37.377985,46.2791259 40.556135,49.5864759 44.387935,49.6774259 C48.359135,49.7717759 51.674985,46.6072259 51.737035,42.6632259 M54.679735,41.6721259 C54.650835,47.8567259 50.651585,52.1959759 45.483585,52.5946259 C40.036785,53.0153759 35.391535,49.3578259 34.578085,44.0096259 C34.210885,41.5964759 32.246535,40.4897759 30.023785,41.6211259 C29.529935,41.8727259 29.280885,42.8791259 29.176335,43.5769759 C28.573685,47.5855759 26.517535,50.4968259 22.712935,51.9443759 C18.926185,53.3851259 15.346835,52.7773759 12.338685,50.0318759 C9.225985,47.1903259 8.174535,43.6050259 9.463135,39.5479759 C10.690535,35.6813259 13.406285,33.2834759 17.425085,32.6408759 C21.598585,31.9744759 25.052985,33.4313759 27.410035,36.9435759 C28.241335,38.1820259 29.030985,38.2644759 30.405435,38.3758259 C33.651585,38.6376259 35.764685,37.6686259 38.011235,35.1177759 C40.809435,31.9421759 44.918335,31.6098259 48.843635,33.4322259 C52.683085,35.2155259 54.567535,38.3928259 54.679735,41.6721259" id="Fill-17"></path>
                <path d="M0,28.7641959 C13.39685,19.9284459 50.5869,19.8918959 63.8741,28.7641959 L0,28.7641959 Z" id="Fill-19"></path>
            </g>
        </g>
    </g>
</svg>