<?xml version="1.0" encoding="UTF-8"?>
<svg width="63px" height="55px" viewBox="0 0 63 55" version="1.1" xmlns="http://www.w3.org/2000/svg" xmlns:xlink="http://www.w3.org/1999/xlink">
    <title>icon-lojavirtual</title>
    <defs>
        <polygon id="path-1" points="0.128527681 0.530419096 60.99515 0.530419096 60.99515 53.4319706 0.128527681 53.4319706"></polygon>
    </defs>
    <g id="Welcome" stroke="none" stroke-width="1" fill="none" fill-rule="evenodd">
        <g id="Tablet-Portrait" transform="translate(-660.000000, -575.000000)">
            <g id="Group-55" transform="translate(660.900000, 575.526300)">
                <mask id="mask-2" fill="white">
                    <use xlink:href="#path-1"></use>
                </mask>
                <g id="Clip-54"></g>
                <path d="M14.457735,46.84299 C14.444985,48.37469 15.707235,49.63439 17.238935,49.61909 C18.745135,49.60294 19.982735,48.35089 19.970835,46.85404 C19.960635,45.34444 18.725585,44.11619 17.217685,44.1153382 C15.704685,44.11364 14.470485,45.33424 14.457735,46.84299 L14.457735,46.84299 Z M43.8617636,46.87189 C43.867735,48.37724 45.108735,49.61484 46.614935,49.6190968 C48.148335,49.62249 49.415685,48.34494 49.387635,46.82514 C49.359585,45.31554 48.116885,44.10684 46.599635,44.1152954 C45.092585,44.12299 43.855835,45.36909 43.8617636,46.87189 L43.8617636,46.87189 Z M51.566185,32.47289 C52.816535,32.39214 53.487185,31.40189 53.900285,30.31984 C54.142535,29.68914 54.219885,28.99554 54.399235,28.20759 L46.667635,28.20759 C46.496785,29.57779 46.320835,30.99984 46.135535,32.50094 C48.009785,32.50094 49.793935,32.58679 51.566185,32.47289 L51.566185,32.47289 Z M26.560035,32.47714 L33.536835,32.47714 L33.536835,27.86759 L26.139285,27.86759 C26.276135,29.37039 26.415535,30.90294 26.560035,32.47714 L26.560035,32.47714 Z M52.221535,21.38889 C50.827535,21.36509 49.433535,21.32599 48.042085,21.26479 C47.637485,21.24694 47.482785,21.34554 47.441985,21.77649 C47.324685,23.01324 47.151285,24.24489 46.988085,25.58534 L54.846335,25.58534 C55.081785,24.31374 55.336785,22.94184 55.624935,21.39314 C54.433235,21.39314 53.327385,21.40844 52.221535,21.38889 L52.221535,21.38889 Z M36.149735,28.01804 L36.149735,32.48734 L43.601685,32.48734 C43.781035,31.03214 43.959535,29.57864 44.151635,28.01804 L36.149735,28.01804 Z M33.543635,20.82959 C30.853385,20.74884 28.185235,20.66979 25.455035,20.58819 C25.587635,22.06804 25.712585,23.47309 25.840085,24.87814 C25.885135,25.38049 26.297385,25.26489 26.580435,25.26999 C28.361185,25.30314 30.144485,25.31079 31.926935,25.32439 C32.437785,25.32864 32.950335,25.32524 33.543635,25.32524 L33.543635,20.82959 Z M24.034685,32.49499 C23.885935,30.91314 23.741435,29.36614 23.585885,27.71544 L15.746335,27.71544 C16.031085,29.27519 16.324335,30.88339 16.619285,32.49499 L24.034685,32.49499 Z M36.131885,25.43319 C36.977635,25.43319 37.806385,25.42214 38.634285,25.43489 C40.373385,25.46294 42.112485,25.49269 43.850735,25.54709 C44.295285,25.56069 44.489935,25.46549 44.533285,24.96569 C44.640385,23.72724 44.824835,22.49389 44.988035,21.17724 C42.032585,21.08459 39.110285,20.99364 36.131885,20.90014 L36.131885,25.43319 Z M47.824485,18.72499 C50.569985,18.81339 53.277235,18.90009 56.046535,18.98934 C56.334685,17.49249 56.616035,16.03049 56.910985,14.49624 C54.060935,14.32964 51.267835,14.16644 48.403335,13.99814 C48.206985,15.59954 48.022535,17.10744 47.824485,18.72499 L47.824485,18.72499 Z M15.259285,25.08639 L23.335135,25.08639 C23.198285,23.60909 23.058885,22.10204 22.911835,20.51679 C20.076235,20.42669 17.277185,20.33829 14.385485,20.24564 C14.680435,21.87764 14.960935,23.43059 15.259285,25.08639 L15.259285,25.08639 Z M25.187285,17.67099 C25.203435,17.81974 25.466935,18.05179 25.623335,18.05859 C28.232835,18.15634 30.843185,18.22519 33.513885,18.30169 L33.513885,13.13369 C30.623885,12.96199 27.710935,12.78859 24.703635,12.61009 C24.866835,14.38744 25.007085,16.03134 25.187285,17.67099 L25.187285,17.67099 Z M45.877135,13.85194 C42.603785,13.65984 39.403535,13.47114 36.154835,13.28074 L36.154835,18.39009 C39.162985,18.47849 42.174535,18.56604 45.299985,18.65784 C45.494635,17.03774 45.682485,15.47204 45.877135,13.85194 L45.877135,13.85194 Z M22.155335,12.46644 C19.086835,12.28539 16.037885,12.10519 12.873335,11.91819 C13.025485,12.80389 13.162335,13.61394 13.306835,14.42314 C13.472585,15.35134 13.627285,16.28209 13.830435,17.20264 C13.872935,17.39474 14.097335,17.68714 14.246935,17.69309 C16.989035,17.80274 19.731135,17.87669 22.474085,17.9557564 C22.511485,17.95659 22.550585,17.92429 22.659385,17.87584 C22.492785,16.08744 22.327885,14.31689 22.155335,12.46644 L22.155335,12.46644 Z M23.408235,44.80554 C24.927185,49.29099 21.171885,53.96344 16.514735,53.38289 C13.635785,53.02504 11.424935,51.01139 10.811235,48.19109 C10.223885,45.48639 11.426635,42.78509 13.916285,41.26444 C14.215485,41.08254 14.314935,40.92444 14.244385,40.55384 C13.760735,38.02339 13.311085,35.48699 12.847835,32.95314 C11.408785,25.07704 9.968885,17.20094 8.527285,9.32569 C8.227235,7.68519 7.922935,6.04469 7.611835,4.36594 C6.612235,4.36594 5.668735,4.37189 4.726935,4.36424 C3.739235,4.35574 2.745585,4.39569 1.765535,4.30134 C0.707285,4.19934 0.084235,3.38164 0.130985,2.34379 C0.178585,1.26599 0.986085,0.55199 2.235585,0.54264 C4.448985,0.52649 6.662385,0.52649 8.875785,0.54179 C10.158435,0.55114 10.874985,1.16824 11.107885,2.41349 C11.458085,4.28944 11.802335,6.16539 12.152535,8.06259 C12.382035,8.08724 12.571585,8.11614 12.761985,8.12719 C19.298485,8.51309 25.836685,8.89899 32.373185,9.28149 C41.247185,9.80084 50.120335,10.31849 58.994335,10.83529 C60.481835,10.92199 61.211985,11.87909 60.939135,13.36489 C59.918285,18.91709 58.881285,24.46589 57.899535,30.02489 C57.368285,33.03644 54.932185,36.42369 50.442485,36.35569 C39.700185,36.19334 28.954485,36.30299 18.209635,36.30299 L17.322235,36.30299 C17.521985,37.40034 17.707285,38.38719 17.880685,39.37574 C18.064285,40.41529 17.900235,40.28354 19.005235,40.28439 C27.836735,40.28779 36.669085,40.28524 45.500585,40.28864 C46.015685,40.28864 46.531635,40.30394 47.045035,40.33879 C50.697485,40.58019 53.324835,43.62149 53.139535,47.38444 C52.969535,50.83629 49.865335,53.52739 46.201835,53.39989 C42.793335,53.28089 39.973885,50.20134 40.111585,46.67299 C40.143885,45.83234 40.396335,45.00104 40.550185,44.14339 L23.182985,44.14339 C23.273085,44.40859 23.341085,44.60664 23.408235,44.80554 L23.408235,44.80554 Z" id="Fill-53" fill="#000000" mask="url(#mask-2)"></path>
            </g>
        </g>
    </g>
</svg>