<?xml version="1.0" encoding="UTF-8"?>
<svg width="27px" height="39px" viewBox="0 0 27 39" version="1.1" xmlns="http://www.w3.org/2000/svg" xmlns:xlink="http://www.w3.org/1999/xlink">
    <title>ica-maquininha</title>
    <g id="Welcome" stroke="none" stroke-width="1" fill="none" fill-rule="evenodd">
        <g id="Desktop" transform="translate(-482.000000, -158.000000)" fill="#292E31">
            <g id="ica-maquininha" transform="translate(482.210485, 158.594812)">
                <path d="M1.43252114,24.7321212 C1.43397569,25.6993939 1.69046053,25.9621818 2.64561205,25.9626667 C8.26888478,25.968 13.8921575,25.9675152 19.5154302,25.9636364 C20.5200363,25.9626667 20.7682787,25.7105455 20.7687636,24.688 C20.7726424,17.3658182 20.7721575,10.0436364 20.7687636,2.72145455 C20.7682787,1.6809697 20.559309,1.48266667 19.5134908,1.48218182 C13.945006,1.48121212 8.37652114,1.48121212 2.80803629,1.48149841 C1.60464235,1.48218182 1.43203629,1.65042424 1.43106659,2.84751515 C1.4291272,6.46787879 1.43058175,10.0877576 1.43058175,13.7076364 C1.43058175,17.382303 1.42718781,21.0574545 1.43252114,24.7321212 Z M20.4860969,-2.30926389e-14 C21.7699757,0.513939394 22.2097333,1.44872727 22.2006625,2.83248485 C22.1510666,10.1236364 22.1782181,17.4152727 22.1772484,24.7069091 C22.1767636,26.6492121 21.4485211,27.3711515 19.490703,27.3716364 C13.8698545,27.3724848 8.24900599,27.3730909 2.62864235,27.3711515 C0.785248413,27.3706667 0.0250059884,26.617697 0.02452114,24.7888485 C0.022581746,17.4700606 0.0492484127,10.1507879 0.000137226,2.83248485 C-0.00893340549,1.44872727 0.430339322,0.513939394 1.71470296,-2.30926389e-14 L20.4860969,-2.30926389e-14 Z" id="Fill-38"></path>
                <path d="M5.83159993,37.0396606 C4.02602417,36.283297 3.54263023,35.5405091 3.54311472,33.5177212 C3.54311472,31.8178424 3.54602417,30.1184485 3.54941811,28.4185697 C3.54941811,28.3666909 3.57026659,28.315297 3.59402417,28.2071758 L5.01608478,28.2071758 C5.01608478,30.0142061 5.01559993,31.8149333 5.01608478,33.6156606 C5.01705447,35.1894788 5.38166053,35.5574788 6.93656962,35.5579636 C8.28008478,35.5584485 9.62263023,35.5579636 11.0548727,35.5579636 L11.0548727,28.2086303 L14.7334181,28.2086303 L14.7334181,35.4314182 C16.5118424,35.7979636 17.124206,35.3048727 17.1271151,33.5967515 C17.1300242,31.8173576 17.1275999,30.0379636 17.1275999,28.2047515 L18.5108727,28.2047515 C18.5108727,30.4030545 18.589903,32.5902061 18.4798424,34.7676606 C18.4182666,35.9856 17.4151151,36.5950545 16.3692969,37.0396606 L5.83159993,37.0396606 Z" id="Fill-39"></path>
                <path d="M23.7325939,11.4481939 C23.7316242,10.9269818 23.7510181,10.3878303 24.4380484,10.3824205 C25.1352605,10.3771636 25.1420484,10.9269818 25.1420484,11.4418909 C25.140109,15.9640727 25.1396242,20.4862545 25.1425333,25.0084364 C25.1425333,25.5374061 25.1100484,26.0508606 24.4002302,26.0256485 C23.7432605,26.0028606 23.7335636,25.5034667 23.7335636,25.0147394 C23.7359878,22.7398303 23.7350181,20.4654061 23.7345333,18.190497 C23.7345333,15.9432242 23.7369575,13.6954667 23.7325939,11.4481939 Z" id="Fill-40"></path>
                <path d="M16.9745817,9.67650909 C17.5515514,9.68281212 17.8342181,9.53105455 17.8162787,8.89347879 C17.7823393,7.63384242 17.7949454,6.37323636 17.8114302,5.11311515 C17.8177333,4.6326303 17.6567636,4.43481212 17.1457333,4.43625084 C13.117612,4.45226667 9.08949084,4.45178182 5.06185447,4.43675152 C4.55664235,4.43481212 4.38258175,4.62050909 4.38936962,5.10729697 C4.40633932,6.33978182 4.4281575,7.57372121 4.3811272,8.80475152 C4.35446053,9.51602424 4.64585447,9.6905697 5.30233932,9.67941818 C7.21991508,9.64693333 9.13846053,9.66778182 11.0565211,9.66778182 C13.0288848,9.66778182 15.0022181,9.65372121 16.9745817,9.67650909 Z M4.88246053,11.071903 C3.5651272,11.0660848 2.99639993,10.4857212 2.9891272,9.15238788 C2.98185447,7.69832727 2.97749084,6.24426667 2.99155144,4.79020606 C3.00270296,3.63093333 3.67179387,2.9686303 4.84561205,2.96669091 C9.01724841,2.95844848 13.1883999,2.95844848 17.3595514,2.96669091 C18.5314302,2.96911515 19.1985817,3.63384242 19.2092484,4.79505455 C19.223309,6.27626667 19.2228242,7.75844848 19.2102181,9.23966061 C19.2005211,10.4634182 18.6099757,11.0631758 17.3959151,11.0704485 C15.2829454,11.0830545 13.1694908,11.0743273 11.057006,11.0743273 C8.99882417,11.0743273 6.94064235,11.0811152 4.88246053,11.071903 Z" id="Fill-41"></path>
                <path d="M4.86893326,15.5192242 C2.87911508,15.5192242 2.7123272,15.3509818 3.02117569,13.3660121 C3.06141811,13.1056485 3.47063023,12.7308606 3.73584235,12.707103 C4.65899387,12.6256485 5.5932969,12.6741333 6.52372114,12.6770424 C6.63184235,12.6775273 6.76178175,12.6663758 6.84420599,12.7192242 C7.72759993,13.2821333 7.21705447,14.1592242 7.2883272,14.8923152 C7.33972114,15.4183758 6.88153932,15.5260121 6.42869084,15.5197091 C5.96372114,15.5134061 5.49875144,15.5182545 5.0332969,15.5187394 C4.97899387,15.5192242 4.92372114,15.5192242 4.86893326,15.5192242 Z" id="Fill-42"></path>
                <path d="M10.8381454,15.5193212 C8.73050902,15.5469576 8.95887266,15.6201697 8.96275144,13.4218667 C8.96372114,12.9181091 9.24541811,12.6766545 9.74093326,12.6761697 C10.6708727,12.6747152 11.6032363,12.6398061 12.5297817,12.6994424 C12.7833575,12.7154424 13.1983878,12.9922909 13.2284484,13.1954424 C13.3181454,13.8092606 13.3050545,14.4531394 13.220206,15.0698667 C13.1964484,15.2453818 12.8051757,15.4621091 12.5588727,15.4965333 C12.0759636,15.5639273 11.5770545,15.5164121 11.0844484,15.5164121 C11.0020242,15.5193212 10.9200848,15.5183515 10.8381454,15.5193212 Z" id="Fill-43"></path>
                <path d="M17.3937333,12.6743758 C19.2148242,12.6743758 19.6225817,13.1858909 19.1784605,14.9909818 C19.129006,15.1936485 18.8390666,15.4743758 18.6509454,15.4826182 C17.5857333,15.5291636 16.5180969,15.5034667 15.4519151,15.5015273 C15.4247636,15.5015273 15.3937333,15.5005576 15.3714302,15.4879515 C14.4555514,14.9754667 15.010703,14.1143758 14.9059757,13.4171636 C14.8322787,12.9274667 15.1755514,12.6772848 15.6700969,12.6758303 C16.1350666,12.6748606 16.6005211,12.6753455 17.0654908,12.6748606 C17.1750666,12.6743758 17.2841575,12.6743758 17.3937333,12.6743758 Z" id="Fill-44"></path>
                <path d="M4.85943023,19.9640242 C2.88561205,19.9640242 2.70233932,19.7744485 3.02136962,17.8016 C3.06306659,17.5422061 3.4780969,17.1746909 3.74524841,17.1514182 C4.66888478,17.0709333 5.60318781,17.1194182 6.53361205,17.1208727 C7.0291272,17.1213576 7.29676356,17.3642667 7.31276356,17.8675394 C7.31373326,17.8946909 7.31421811,17.9223273 7.31421811,17.9494788 C7.31518781,20.2098424 7.51930902,19.9606303 5.10573326,19.9640242 L4.85943023,19.9640242 Z" id="Fill-45"></path>
                <path d="M10.8291272,19.9639273 C8.84803629,19.9639273 8.83203629,19.9377455 8.95276356,17.9392 C8.98524841,17.4073212 9.20391508,17.1207758 9.74936962,17.1202909 C10.6797939,17.1198061 11.6102181,17.1198061 12.5406424,17.1212606 C12.6220969,17.1212606 12.7190666,17.1052606 12.7830666,17.1421091 C13.7120363,17.6754424 13.1665817,18.5612606 13.2674302,19.2856242 C13.3420969,19.8233212 12.9454908,19.9736242 12.4708242,19.9644121 C12.0334908,19.9561697 11.5951878,19.9629576 11.1578545,19.9634424 C11.0482787,19.9639273 10.938703,19.9639273 10.8291272,19.9639273 Z" id="Fill-46"></path>
                <path d="M16.7135878,19.9640242 C14.6544363,19.9965091 14.863406,20.0609939 14.9220727,17.8151758 C14.9283757,17.5776 15.3739514,17.1756606 15.641103,17.1528727 C16.5918908,17.0714182 17.5547999,17.0961455 18.5104363,17.139297 C18.732012,17.1494788 19.113103,17.3739636 19.1300727,17.5305697 C19.2018302,18.2040242 19.2037696,18.8925091 19.1387999,19.5664485 C19.1242545,19.7162667 18.7460727,19.9155394 18.517709,19.9426909 C18.0318908,20.0008727 17.5349211,19.9606303 17.0423151,19.9606303 C16.9322545,19.9640242 16.8231636,19.9625697 16.7135878,19.9640242 Z" id="Fill-47"></path>
                <path d="M4.7945575,24.4086788 C2.93710296,24.4086788 2.63358781,24.0508606 3.0204969,22.1817697 C3.06946659,21.9441939 3.41710296,21.6101333 3.64498175,21.595103 C4.62631508,21.5301333 5.61346659,21.5660121 6.59867872,21.5679515 C6.67916356,21.5684364 6.77564841,21.5645576 6.83867872,21.6043152 C7.72983023,22.1648 7.21395144,23.0423758 7.28958781,23.7740121 C7.34340599,24.3005576 6.8905575,24.4149818 6.43625447,24.4091636 C5.99892114,24.4028606 5.56061811,24.4077091 5.12279993,24.4081939 C5.01322417,24.4086788 4.90413326,24.4086788 4.7945575,24.4086788 Z" id="Fill-48"></path>
                <path d="M10.2796969,24.4087758 C8.97642417,24.4068364 8.95848478,24.3884121 8.95796692,23.0657455 C8.95751508,21.5636848 8.95751508,21.5636848 10.4634545,21.5636848 C11.1475757,21.5636848 11.8316969,21.5685333 12.5153333,21.5636848 C13.0215151,21.5602909 13.2736363,21.8061091 13.2828484,22.3084121 C13.2833333,22.3360485 13.284303,22.3632 13.284303,22.3903515 C13.2838181,24.7772606 13.4835757,24.3733818 11.1005454,24.4087758 C10.8270908,24.4087758 10.5531514,24.4087758 10.2796969,24.4087758 Z" id="Fill-49"></path>
                <path d="M16.7533454,24.4086788 C14.7761333,24.4086788 14.7567393,24.379103 14.8808605,22.3805576 C14.9133454,21.8472242 15.1363757,21.5645576 15.6803757,21.5650424 C16.6107999,21.5650424 17.5412242,21.5645576 18.4711636,21.5660121 C18.553103,21.5660121 18.6500727,21.550497 18.7135878,21.5878303 C19.637709,22.1240727 19.0946787,23.0089212 19.1945575,23.7342545 C19.2687393,24.2729212 18.8677696,24.4183758 18.3950424,24.4096485 C17.957709,24.4014061 17.519406,24.4077091 17.0820727,24.4081939 C16.9724969,24.4086788 16.8629211,24.4086788 16.7533454,24.4086788 Z" id="Fill-50"></path>
            </g>
        </g>
    </g>
</svg>