<?xml version="1.0" encoding="UTF-8"?>
<svg width="29px" height="28px" viewBox="0 0 29 28" version="1.1" xmlns="http://www.w3.org/2000/svg" xmlns:xlink="http://www.w3.org/1999/xlink">
    <title>icon-wallet</title>
    <g id="Welcome" stroke="none" stroke-width="1" fill="none" fill-rule="evenodd">
        <g id="Desktop" transform="translate(-480.000000, -465.000000)" fill="#292E31">
            <path d="M502.165188,480.697115 L506.472582,480.697115 C506.657309,480.697115 506.806642,480.846933 506.806642,481.031176 L506.806642,484.723297 C506.806642,484.907539 506.657309,485.057358 506.472582,485.057358 L502.165188,485.057358 C500.963248,485.057358 499.985794,484.079418 499.985794,482.876994 C499.985794,481.675055 500.963248,480.697115 502.165188,480.697115 L502.165188,480.697115 Z M482.757673,475.492752 C482.757673,474.9696 483.18337,474.543903 483.706521,474.543903 L504.626764,474.543903 C505.1504,474.543903 505.576582,474.9696 505.576582,475.492752 L505.576582,478.904145 L502.165188,478.904145 C499.974642,478.904145 498.192824,480.686933 498.192824,482.876994 C498.192824,485.068509 499.974642,486.850812 502.165188,486.850812 L505.576582,486.850812 L505.576582,490.260752 C505.576582,490.784388 505.1504,491.211055 504.626764,491.211055 L483.706521,491.211055 C483.18337,491.211055 482.757673,490.784388 482.757673,490.260752 L482.757673,475.492752 Z M498.709673,467.286206 C498.922521,467.162085 499.170279,467.128145 499.408824,467.192145 C499.556703,467.231903 499.690036,467.306085 499.802521,467.412267 L490.633552,472.750933 L489.322521,472.750933 L498.709188,467.286206 L498.709673,467.286206 Z M494.196703,472.750933 L500.730521,468.947782 L501.057794,469.520388 L495.508703,472.750933 L494.196703,472.750933 Z M499.071855,472.750933 L501.948945,471.075782 L502.907491,472.750933 L499.071855,472.750933 Z M507.369552,479.110206 L507.369552,475.492752 C507.369552,474.131297 506.338279,472.971539 504.995733,472.787782 L501.532945,466.740267 C501.167855,466.103661 500.578764,465.648873 499.872339,465.459782 C499.169309,465.273115 498.436218,465.37057 497.806885,465.7376 L485.7584,472.750933 L483.706521,472.750933 C482.194279,472.750933 480.963248,473.980994 480.963248,475.492752 L480.963248,490.260752 C480.963248,491.773479 482.194279,493.003539 483.706521,493.003539 L504.626764,493.003539 C506.139006,493.003539 507.369552,491.773479 507.369552,490.260752 L507.369552,486.644267 C508.113309,486.296145 508.599612,485.548024 508.599612,484.723297 L508.599612,481.031176 C508.599612,480.206448 508.113309,479.458327 507.369552,479.110206 L507.369552,479.110206 Z" id="icon-wallet"></path>
        </g>
    </g>
</svg>