<?xml version="1.0" encoding="UTF-8"?>
<svg width="48px" height="48px" viewBox="0 0 48 48" version="1.1" xmlns="http://www.w3.org/2000/svg" xmlns:xlink="http://www.w3.org/1999/xlink">
    <title>icon-superlink</title>
    <g id="Welcome" stroke="none" stroke-width="1" fill="none" fill-rule="evenodd">
        <g id="Tablet-Portrait" transform="translate(-79.000000, -134.000000)" fill="#000000">
            <g id="icon-superlink" transform="translate(79.899585, 134.987620)">
                <path d="M-8.17124146e-14,34.1972 C0.36975,33.07605 0.63665,31.90645 1.13985,30.84905 C1.57165,29.9421 2.1709,29.0632 2.87215,28.34495 C6.25855,24.8829 9.66195,21.43615 13.141,18.0676 C17.1343,14.20095 23.90115,14.3293 27.5876,18.21975 C26.6186,19.15135 25.65045,20.08465 24.71035,20.98905 C23.8272,20.5853 22.83185,19.9733 21.7498,19.66985 C19.5857,19.06295 17.59755,19.62225 16.00125,21.18115 C12.63525,24.47065 9.3058,27.7967 6.01375,31.1593 C3.604,33.6209 3.64735,37.56575 6.01715,39.9211 C8.5493,42.43625 12.3692,42.5153 14.9311,40.0452 C17.1156,37.9389 19.24145,35.77225 21.3945,33.63365 C21.41405,33.61325 21.4557,33.61325 21.4965,33.6005 C22.4179,34.57715 23.34355,35.55635 24.3797,36.65285 C23.7116,37.30395 22.93215,38.05195 22.16545,38.811 C21.12335,39.8429 20.03365,40.834 19.06465,41.93135 C17.12325,44.12775 14.7509,45.5209 11.8779,46.07425 L9.2157,46.07425 C9.02785,46.0105 8.8451,45.9272 8.653,45.8864 C4.58065,45.02875 1.8615,42.63175 0.50405,38.7022 C0.29665,38.10125 0.16575,37.47395 -8.17124146e-14,36.8594 L-8.17124146e-14,34.1972 Z" id="Fill-11"></path>
                <path d="M46.07425,11.6722 C45.77335,12.7126 45.6127,13.8244 45.13415,14.77555 C44.56125,15.91455 43.84725,17.0442 42.9658,17.95625 C39.695,21.3401 36.36215,24.66445 32.99275,27.9497 C29.0479,31.79765 22.66015,31.8155 18.63455,28.06105 C18.5623,27.9939 18.50705,27.90635 18.4739,27.8664 C19.4548,26.91865 20.42125,25.98365 21.4591,24.98065 C22.5845,25.91735 24.0125,26.63815 25.73035,26.6237 C27.36915,26.6101 28.83455,26.1069 29.99905,24.95855 C33.39735,21.60615 36.7999,18.25545 40.1217,14.8274 C42.50765,12.36665 42.37845,8.42775 39.97125,6.0741 C37.47905,3.63545 33.61835,3.5972 31.1321,6.0333 C28.94505,8.177 26.8039,10.3683 24.63555,12.546 C23.6317,11.51155 22.69245,10.54425 21.67245,9.4928 C23.4005,7.76815 25.19315,6.0061 26.95265,4.2143 C28.2472,2.89595 29.54685,1.581 31.3089,0.901 C32.2473,0.53805 33.2333,0.29665 34.1972,3.37507799e-14 L36.65455,3.37507799e-14 C36.7778,0.051 36.89765,0.12665 37.026,0.1496 C41.64745,0.9486 44.53405,3.6448 45.77335,8.143 C45.88895,8.56375 45.9748,8.99385 46.07425,9.4197 L46.07425,11.6722 Z" id="Fill-13"></path>
            </g>
        </g>
    </g>
</svg>