<?xml version="1.0" encoding="UTF-8"?>
<svg width="48px" height="48px" viewBox="0 0 48 48" version="1.1" xmlns="http://www.w3.org/2000/svg" xmlns:xlink="http://www.w3.org/1999/xlink">
    <title>icon-data</title>
    <g id="Welcome" stroke="none" stroke-width="1" fill="none" fill-rule="evenodd">
        <g id="Tablet-Portrait" transform="translate(-668.000000, -352.000000)" fill="#000000">
            <g id="icon-data" transform="translate(668.091255, 352.323213)">
                <path d="M5.84205,35.8997225 L0.83385,35.8997225 C0.37315,35.9005725 -6.47926157e-13,36.2737225 -6.47926157e-13,36.7344225 L-6.47926157e-13,46.7499725 L6.67675,46.7499725 L6.67675,36.7344225 C6.6759,36.2737225 6.30275,35.9005725 5.84205,35.8997225" id="Fill-1"></path>
                <path d="M19.1964,24.2147725 L14.1882,24.2147725 C13.7275,24.2147725 13.3552,24.5887725 13.35435,25.0494725 L13.35435,46.7499725 L20.0311,46.7499725 L20.0311,25.0494725 C20.03025,24.5887725 19.65795,24.2147725 19.1964,24.2147725" id="Fill-3"></path>
                <path d="M32.551515,29.2226325 L27.543315,29.2226325 C27.082615,29.2234825 26.709465,29.5966325 26.708615,30.0573325 L26.708615,46.7504825 L33.385365,46.7504825 L33.385365,30.0573325 C33.384515,29.5966325 33.012215,29.2226325 32.551515,29.2226325" id="Fill-5"></path>
                <path d="M45.90578,22.5454575 L40.89758,22.5454575 C40.43688,22.5454575 40.06373,22.9194575 40.06288,23.3801575 L40.06288,46.7500575 L46.73963,46.7500575 L46.73963,23.3801575 C46.73963,22.9194575 46.36648,22.5454575 45.90578,22.5454575" id="Fill-7"></path>
                <path d="M41.10872,7.43509245 C42.19587,8.46699245 43.83892,8.64634245 45.12412,7.87369245 C46.40847,7.10019245 47.01962,5.56594245 46.61757,4.12094245 C46.21722,2.67679245 44.90057,1.67804245 43.40117,1.67889245 C42.33442,1.66444245 41.32802,2.16764245 40.69817,3.02869245 C40.06832,3.88974245 39.89407,5.00239245 40.23152,6.01474245 L32.34012,10.9464425 C31.17307,9.82529245 29.36427,9.71479245 28.06887,10.6871925 L19.72612,4.72699245 C20.40102,3.25394245 19.91907,1.50804245 18.58457,0.589192453 C17.25007,-0.330507547 15.44807,-0.157957547 14.31162,0.998042453 C13.17517,2.15489245 13.03407,3.95944245 13.97587,5.27779245 L4.77547,16.2045425 C3.25907,15.4828925 1.44177,16.0005425 0.53482,17.4140925 C-0.37383,18.8276425 -0.08908,20.6950925 1.19952,21.7737425 C2.48642,22.8523925 4.37512,22.8056425 5.60762,21.6640925 C6.84012,20.5225425 7.03137,18.6431925 6.05472,17.2763925 L15.25597,6.35049245 C16.36437,6.89704245 17.68527,6.77039245 18.67127,6.02494245 L27.01402,11.9851425 C26.37057,13.3451425 26.71312,14.9677925 27.85212,15.9503925 C28.99197,16.9329925 30.64692,17.0349925 31.89812,16.1994425 C33.15017,15.3638925 33.68907,13.7956425 33.21732,12.3667925 L41.10872,7.43509245 Z" id="Fill-9"></path>
            </g>
        </g>
    </g>
</svg>