<?xml version="1.0" encoding="UTF-8"?>
<svg width="32px" height="22px" viewBox="0 0 32 22" version="1.1" xmlns="http://www.w3.org/2000/svg" xmlns:xlink="http://www.w3.org/1999/xlink">
    <title>icon-beneficio</title>
    <g id="Welcome" stroke="none" stroke-width="1" fill="none" fill-rule="evenodd">
        <g id="Desktop" transform="translate(-479.000000, -272.000000)">
            <g id="icon-beneficio" transform="translate(478.999903, 272.036791)">
                <path d="M1.86084848,5.63734242 C4.29187879,6.24097879 5.45745455,8.18716061 5.54084848,9.94764545 C5.58642424,10.9183121 5.35466667,11.8215848 4.8310303,12.6429182 C4.12945455,13.7430394 3.12339394,14.4179485 1.86957576,14.7151606 L1.86957576,18.4814636 L7.39830303,18.4814636 C7.39830303,18.1808576 7.39345455,17.9040091 7.39927273,17.6271606 C7.41042424,17.0700697 7.79151515,16.6666758 8.30787879,16.6579485 C8.83636364,16.6492212 9.23442424,17.0584333 9.24557576,17.6281303 C9.25187879,17.9122515 9.2470303,18.1968576 9.2470303,18.4843727 L29.6892121,18.4843727 L29.6892121,1.88219091 L9.31927273,1.88219091 C9.31927273,2.00825152 9.31975758,2.1100697 9.31927273,2.21140303 C9.31878788,2.39661515 9.32315152,2.58182727 9.31684848,2.76655455 C9.29987879,3.29455455 8.94109091,3.67855455 8.44509091,3.70425152 C7.94472727,3.72994849 7.52145455,3.35855455 7.48024242,2.82667576 C7.456,2.51394849 7.47587879,2.19734242 7.47587879,1.87637273 L1.86084848,1.87637273 L1.86084848,5.63734242 Z M-1.65201186e-13,0.686069697 C0.24630303,0.152251516 0.670060606,-0.00096060567 1.24266667,4.52427377e-06 C10.9493333,0.0111606065 20.6569697,0.00776666706 30.3636364,0.00776666706 C31.2528485,0.00776666706 31.5641212,0.320009091 31.5641212,1.21261515 C31.5641212,7.20243333 31.5641212,13.1917667 31.5636364,19.1815848 C31.5636364,20.0310394 31.2412121,20.3549182 30.3946667,20.3549182 C20.6773333,20.355403 10.96,20.3520091 1.24266667,20.3636466 C0.670060606,20.3641303 0.24630303,20.2109182 -1.65201186e-13,19.6771 L-1.65201186e-13,13.6344333 C0.223515152,13.1631606 0.592969697,12.9721303 1.11709091,12.9309182 C2.27442424,12.8402515 3.11660606,12.2366152 3.50690909,11.1413424 C4.14545455,9.34837273 3.02254545,7.61649394 1.11660606,7.43225152 C0.594909091,7.38182727 0.223515152,7.20000909 -1.65201186e-13,6.72873636 L-1.65201186e-13,0.686069697 Z" id="Fill-51" fill="#292E31"></path>
                <path d="M1.86084848,5.63734242 C4.29187879,6.24097879 5.45745455,8.18716061 5.54084848,9.94764545 C5.58642424,10.9183121 5.35466667,11.8215848 4.8310303,12.6429182 C4.12945455,13.7430394 3.12339394,14.4179485 1.86957576,14.7151606 L1.86957576,18.4814636 L7.39830303,18.4814636 C7.39830303,18.1808576 7.39345455,17.9040091 7.39927273,17.6271606 C7.41042424,17.0700697 7.79151515,16.6666758 8.30787879,16.6579485 C8.83636364,16.6492212 9.23442424,17.0584333 9.24557576,17.6281303 C9.25187879,17.9122515 9.2470303,18.1968576 9.2470303,18.4843727 L29.6892121,18.4843727 L29.6892121,1.88219091 L9.31927273,1.88219091 C9.31927273,2.00825152 9.31975758,2.1100697 9.31927273,2.21140303 C9.31878788,2.39661515 9.32315152,2.58182727 9.31684848,2.76655455 C9.29987879,3.29455455 8.94109091,3.67855455 8.44509091,3.70425152 C7.94472727,3.72994849 7.52145455,3.35855455 7.48024242,2.82667576 C7.456,2.51394849 7.47587879,2.19734242 7.47587879,1.87637273 L1.86084848,1.87637273 L1.86084848,5.63734242 Z" id="Path"></path>
                <path d="M-1.65201186e-13,0.686069697 C0.24630303,0.152251516 0.670060606,-0.00096060567 1.24266667,4.52427374e-06 C10.9493333,0.0111606065 20.6569697,0.00776666706 30.3636364,0.00776666706 C31.2528485,0.00776666706 31.5641212,0.320009091 31.5641212,1.21261515 C31.5641212,7.20243333 31.5641212,13.1917667 31.5636364,19.1815848 C31.5636364,20.0310394 31.2412121,20.3549182 30.3946667,20.3549182 C20.6773333,20.355403 10.96,20.3520091 1.24266667,20.3636466 C0.670060606,20.3641303 0.24630303,20.2109182 -1.65201186e-13,19.6771 L-1.65201186e-13,13.6344333 C0.223515152,13.1631606 0.592969697,12.9721303 1.11709091,12.9309182 C2.27442424,12.8402515 3.11660606,12.2366152 3.50690909,11.1413424 C4.14545455,9.34837273 3.02254545,7.61649394 1.11660606,7.43225152 C0.594909091,7.38182727 0.223515152,7.20000909 -1.65201186e-13,6.72873636 L-1.65201186e-13,0.686069697 Z" id="Path"></path>
                <path d="M16.8501818,15.3640818 C16.9035152,15.2428697 16.9830303,15.1328091 17.0567273,15.0222636 C19.4368485,11.4499 21.8169697,7.87850606 24.1980606,4.30711212 C24.2659394,4.20480909 24.3333333,4.10008182 24.4157576,4.00941515 C24.7212121,3.67244545 25.2123636,3.61377879 25.5934545,3.86153636 C25.9711515,4.10783939 26.1185455,4.58832424 25.934303,4.99947576 C25.8838788,5.11099091 25.8130909,5.21377879 25.7447273,5.31608182 C23.3534545,8.9049303 20.9592727,12.4918394 18.5709091,16.0826273 C18.3532121,16.4103848 18.0981818,16.6465061 17.7500606,16.6542636 C17.0286061,16.6474758 16.5835152,15.9643242 16.8501818,15.3640818 Z" id="Fill-52" fill="#292E31"></path>
                <path d="M17.6678303,7.40471212 C18.1696485,7.41877273 18.6011636,7.01004545 18.6157091,6.50725758 C18.6292848,6.00543939 18.2205576,5.57343939 17.7182545,5.55937879 C17.2164364,5.54531818 16.7844364,5.95404545 16.7708606,6.45683333 C16.7568,6.95865152 17.1650424,7.39065152 17.6678303,7.40471212 Z M17.6721939,3.70968182 C19.1834667,3.68883333 20.4673455,4.96495455 20.4649281,6.4844697 C20.462497,7.99428788 19.2086788,9.24956061 17.6983758,9.25443714 C16.1919515,9.25925758 14.9342545,8.00980303 14.9211636,6.49513636 C14.9080727,4.99162121 16.1541333,3.7305303 17.6721939,3.70968182 Z" id="Fill-53" fill="#292E31"></path>
                <path d="M25.0818909,12.9585061 C24.579103,12.9633545 24.1635879,13.3871121 24.1684364,13.8899 C24.1732848,14.3926879 24.5965576,14.8086879 25.0993455,14.8033545 C25.6021333,14.7985061 26.0181333,14.3752333 26.0132848,13.8724455 C26.0079515,13.3691727 25.5846788,12.9536576 25.0818909,12.9585061 Z M27.8625068,13.8777788 C27.8654061,15.3972939 26.5820121,16.6734152 25.0707394,16.6535364 C23.5526788,16.6331727 22.3061333,15.3725667 22.3187394,13.8685667 C22.3308606,12.3543848 23.5885576,11.1044455 25.0949818,11.1087864 C26.6057697,11.1131727 27.8595879,12.3679606 27.8625068,13.8777788 Z" id="Fill-54" fill="#292E31"></path>
                <path d="M7.4006303,6.48786364 C7.41808485,5.95695455 7.81275152,5.56277273 8.31747879,5.55934681 C8.82220606,5.5564697 9.23093333,5.94871212 9.24305455,6.47719697 C9.25614545,7.09343939 9.25517576,7.70968182 9.24353939,8.32592424 C9.23287273,8.85731818 8.83238788,9.2515 8.32766061,9.25444107 C7.82293333,9.25731818 7.42002424,8.86507576 7.40111515,8.33659091 C7.38947879,8.0185303 7.39917576,7.69998485 7.39917576,7.38143939 C7.39917576,7.08325758 7.39093333,6.78556061 7.4006303,6.48786364 Z" id="Fill-55" fill="#292E31"></path>
                <path d="M9.24431515,13.8759848 C9.22686061,14.4068939 8.83219394,14.8010758 8.32698182,14.8035319 C7.82225455,14.8064091 7.41352727,14.4136818 7.40189091,13.885197 C7.3888,13.2694394 7.3897697,12.6522273 7.40140606,12.0364697 C7.41207273,11.5055606 7.81352727,11.1113788 8.3177697,11.1089226 C8.82249697,11.1060455 9.22540606,11.4987727 9.2438303,12.0272576 C9.25546667,12.3453182 9.2457697,12.6638636 9.24625455,12.9824091 C9.24625455,13.2805909 9.25449697,13.5782879 9.24431515,13.8759848 Z" fill="#292E31"></path>
            </g>
        </g>
    </g>
</svg>