<?xml version="1.0" encoding="UTF-8"?>
<svg width="62px" height="53px" viewBox="0 0 62 53" version="1.1" xmlns="http://www.w3.org/2000/svg" xmlns:xlink="http://www.w3.org/1999/xlink">
    <title>icon-negocio</title>
    <defs>
        <polygon id="path-1" points="0.139871941 0.788521007 60.333765 0.788521007 60.333765 51.85 0.139871941 51.85"></polygon>
    </defs>
    <g id="Welcome" stroke="none" stroke-width="1" fill="none" fill-rule="evenodd">
        <g id="Tablet-Portrait" transform="translate(-72.000000, -809.000000)">
            <g id="icon-negocio" transform="translate(72.700000, 809.276300)">
                <g id="Group-29">
                    <mask id="mask-2" fill="white">
                        <use xlink:href="#path-1"></use>
                    </mask>
                    <g id="Clip-28"></g>
                    <path d="M30.189365,47.9043 C32.225965,47.9043 34.263415,47.90855 36.299165,47.90175 C36.988515,47.8992 37.145765,47.71305 37.026765,47.0373 C36.733515,45.38065 36.407965,43.72995 36.130865,42.07075 C36.045015,41.55395 35.790015,41.3865 35.299565,41.3873468 C31.911465,41.3967 28.523365,41.3967 25.135265,41.3873468 C24.643965,41.3865 24.388965,41.55565 24.302265,42.07075 C24.027715,43.7104 23.708115,45.3424 23.415715,46.9795 C23.284815,47.71475 23.442915,47.9009 24.196865,47.9026 C26.194365,47.9077 28.191865,47.9043 30.189365,47.9043 M30.205515,31.7237 C37.027615,31.7237 43.848865,31.72455 50.671815,31.7237 C51.482715,31.7237 51.640815,31.57325 51.640815,30.77425 C51.64209,22.75535 51.64209,14.7356 51.640815,6.7167 C51.640815,5.89985 51.452115,5.7086 50.636965,5.7086 C37.031865,5.7069 23.426765,5.7069 9.820815,5.7086 C8.975065,5.7086 8.793165,5.8939 8.793165,6.7507 C8.791465,14.7509 8.7921835,22.75025 8.793165,30.7496 C8.793165,31.5809 8.945315,31.7237 9.797015,31.7237 C16.600415,31.72455 23.402965,31.7237 30.205515,31.7237 M60.333765,48.9056 L60.333765,49.84655 C59.839065,51.19295 58.911715,51.8517 57.442065,51.8500033 C39.286915,51.83555 21.132615,51.8415 2.978315,51.8398 C0.850765,51.8398 -0.251685,50.4101 0.266815,48.3395 C1.379465,43.8957 2.485315,39.45105 3.614115,35.01235 C3.925215,33.7892 4.343415,32.58985 3.901415,31.31145 C3.847015,31.15165 3.876765,30.9604 3.876765,30.78445 C3.875915,22.7647 3.871665,14.7458 3.885265,6.72605 C3.886115,6.1642 3.939665,5.58195 4.090965,5.04305 C4.838115,2.36895 6.918065,0.79645 9.727315,0.79475 C23.391915,0.78625 37.056515,0.78115 50.721115,0.816 C51.594915,0.8177 52.535865,1.02 53.325515,1.3872 C55.586515,2.43865 56.556365,4.35625 56.557215,6.7983 C56.561465,14.75855 56.559765,22.71965 56.554665,30.6799 C56.554665,31.12955 56.566565,31.6013 56.441615,32.0229 C56.246115,32.6757 56.363415,33.2486 56.534265,33.88865 C57.253365,36.57295 57.895115,39.2785 58.573415,41.97385 C59.153965,44.28585 59.746415,46.59445 60.333765,48.9056" id="Fill-27" fill="#000000" mask="url(#mask-2)"></path>
                </g>
                <path d="M31.58311,17.70856 C32.75696,18.88071 33.85091,19.97296 34.94316,21.06691 C35.62911,21.75286 35.62826,22.03336 34.94316,22.72186 C33.82881,23.84216 33.77696,23.84301 32.66346,22.72866 C31.67151,21.73586 30.68041,20.74221 29.61876,19.67801 C29.46576,20.22626 29.39776,20.70056 29.19461,21.10856 C29.05946,21.38056 28.73986,21.72396 28.49166,21.73246 C28.24091,21.74266 27.84481,21.43071 27.74026,21.16891 C26.81971,18.86116 25.93826,16.53726 25.08741,14.20231 C24.99306,13.94391 25.05766,13.48236 25.23701,13.30896 C25.41551,13.13556 25.87281,13.09136 26.13631,13.18826 C28.45086,14.03316 30.75011,14.92481 33.05531,15.79606 C33.44036,15.94141 33.77696,16.19046 33.65711,16.60101 C33.57721,16.87896 33.26866,17.15946 32.99241,17.29631 C32.59886,17.49011 32.14071,17.55386 31.58311,17.70856" id="Fill-30" fill="#000000"></path>
            </g>
        </g>
    </g>
</svg>