<?xml version="1.0" encoding="UTF-8"?>
<svg width="54px" height="62px" viewBox="0 0 54 62" version="1.1" xmlns="http://www.w3.org/2000/svg" xmlns:xlink="http://www.w3.org/1999/xlink">
    <title>icon-tecnologia</title>
    <defs>
        <polygon id="path-1" points="0.132524108 0.2737 12.1664361 0.2737 12.1664361 17.2149489 0.132524108 17.2149489"></polygon>
        <polygon id="path-3" points="0.225800922 0.2737 12.2322103 0.2737 12.2322103 17.2124154 0.225800922 17.2124154"></polygon>
        <polygon id="path-5" points="0.507528014 0.2737 8.14643709 0.2737 8.14643709 17.273983 0.507528014 17.273983"></polygon>
    </defs>
    <g id="Welcome" stroke="none" stroke-width="1" fill="none" fill-rule="evenodd">
        <g id="Tablet-Portrait" transform="translate(-665.000000, -127.000000)">
            <g id="icon-tecnologia" transform="translate(665.644497, 127.576300)">
                <g id="Group-34" transform="translate(39.455503, 0.000000)">
                    <mask id="mask-2" fill="white">
                        <use xlink:href="#path-1"></use>
                    </mask>
                    <g id="Clip-33"></g>
                    <path d="M3.66673,6.292465 C3.70753,4.815165 4.64848,3.818115 6.02718,3.762015 C7.43988,3.704215 8.61883,4.577165 8.70383,5.989015 C8.81603,7.852215 8.81348,9.731565 8.70468,11.595615 C8.62478,12.963265 7.32853,13.923765 6.00083,13.823465 C4.65783,13.721465 3.72963,12.766065 3.67353,11.368665 C3.63698,10.479565 3.66673,9.587915 3.66673,8.697115 L3.66248,8.697115 C3.66248,7.895565 3.64463,7.093165 3.66673,6.292465 M5.90053,17.213265 C9.24783,17.283815 11.79103,15.131615 12.08513,11.859965 C12.21773,10.400515 12.14803,8.921515 12.14888,7.451015 C12.15058,3.263915 11.06088,1.699915 7.16703,0.273615 L5.02078,0.273615 C2.32798,1.189065 0.43163,2.850815 0.21913,5.839415 C0.08313,7.746815 0.12903,9.674615 0.20893,11.587965 C0.33983,14.708315 2.85753,17.149515 5.90053,17.213265" id="Fill-32" fill="#000000" mask="url(#mask-2)"></path>
                </g>
                <path d="M12.3487477,54.85662 C12.2348477,56.21917 11.3117477,57.07427 10.0188977,57.13547 C8.61299774,57.20092 7.46209774,56.44952 7.36009774,55.08187 C7.21474774,53.13537 7.22324774,51.16592 7.34224774,49.21602 C7.41959774,47.94527 8.61044774,47.07572 9.85484774,47.0858312 C11.1842477,47.09612 12.1642977,47.99797 12.3504477,49.38517 C12.3682977,49.51692 12.3844477,49.65037 12.3852977,49.78382 C12.3886977,50.58537 12.3869977,51.38607 12.3869977,52.18762 L12.3623477,52.18762 C12.3623477,53.07757 12.4218477,53.97262 12.3487477,54.85662 M9.61259774,43.68507 C6.46334774,43.75392 3.95414774,46.24697 3.90654774,49.39962 C3.87849774,51.27132 3.89117215,53.14387 3.92524774,55.01557 C3.95839774,56.82437 4.73614774,58.31102 6.19304774,59.34547 C6.97079774,59.89712 7.92109774,60.20482 8.79319774,60.62387 L10.9402977,60.62387 C11.3040977,60.47852 11.6738477,60.34337 12.0342477,60.18697 C14.2663477,59.21797 15.6246477,57.55367 15.7623477,55.10312 C15.8728477,53.14812 15.8439477,51.17952 15.7665977,49.22197 C15.6348477,45.96732 12.9717977,43.61197 9.61259774,43.68507" id="Fill-35" fill="#000000"></path>
                <g id="Group-39" transform="translate(23.305503, 0.000000)">
                    <mask id="mask-4" fill="white">
                        <use xlink:href="#path-3"></use>
                    </mask>
                    <g id="Clip-38"></g>
                    <path d="M7.219475,0.27353 L5.340975,0.27353 C2.368525,1.08443 0.496825,2.89748 0.294525,6.07223 C0.184025,7.80708 0.224825,9.55808 0.291125,11.29803 C0.412675,14.53993 2.784175,17.07548 5.737075,17.20723 C7.134475,17.27013 7.913075,16.76013 8.021025,15.71293 C8.126425,14.67848 7.492325,14.05458 6.096625,13.82083 C4.514775,13.55478 3.763375,12.70138 3.742125,11.08638 C3.721725,9.52238 3.719175,7.95838 3.742975,6.39523 C3.765925,4.89413 4.690725,3.85883 6.037125,3.76363 C7.520375,3.65908 8.554825,4.50908 8.817475,6.04673 C9.052925,7.43223 9.681075,8.01193 10.786925,7.86658 C11.854525,7.72548 12.381525,6.86273 12.195375,5.55288 C11.779725,2.62293 9.947975,1.02578 7.219475,0.27353" id="Fill-37" fill="#000000" mask="url(#mask-4)"></path>
                </g>
                <g id="Group-42" transform="translate(11.405503, 0.000000)">
                    <mask id="mask-6" fill="white">
                        <use xlink:href="#path-5"></use>
                    </mask>
                    <g id="Clip-41"></g>
                    <path d="M3.074875,7.687825 C3.578075,7.299375 4.027725,6.841225 4.660125,6.271725 L4.660125,7.995525 C4.660975,10.406975 4.631225,12.819275 4.672875,15.229875 C4.699225,16.742875 5.896025,17.733975 6.995925,17.057375 C7.573075,16.702925 8.057575,15.723725 8.076275,15.013125 C8.176575,10.951825 8.093275,6.886275 8.145975,2.823275 C8.159575,1.754825 7.874825,0.924375 7.046075,0.273275 L5.973375,0.273275 C4.203675,1.966475 2.363425,3.595925 0.719525,5.403025 C0.369325,5.789775 0.485775,6.984875 0.830025,7.525475 C1.336625,8.317675 2.290325,8.292175 3.074875,7.687825" id="Fill-40" fill="#000000" mask="url(#mask-6)"></path>
                </g>
                <path d="M48.1532977,33.67173 C48.0733977,34.98413 46.8281477,35.93613 45.5650477,35.89703 C44.2092977,35.85623 43.1858977,34.82433 43.1289477,33.39378 C43.0949477,32.54803 43.1221477,31.69973 43.1221477,30.85313 C43.1187477,30.00653 43.0983477,29.15823 43.1238477,28.31248 C43.1671977,26.87003 44.1514977,25.83983 45.5123477,25.77353 C46.8655477,25.70723 48.0852977,26.65498 48.1617977,28.06003 C48.2629477,29.92578 48.2654977,31.80683 48.1532977,33.67173 M51.4937977,27.59338 C51.2566477,24.62603 48.8842977,22.49848 45.8744477,22.31743 C43.1833477,22.15508 40.5355977,24.02083 39.9133977,26.72128 C39.6065477,28.04813 39.6541477,29.45573 39.5410977,30.82678 C39.5759477,30.83018 39.6116477,30.83273 39.6473477,30.83528 C39.6473477,31.68358 39.6303477,32.53103 39.6498977,33.37848 C39.7263977,36.65353 42.1582477,39.14913 45.3746477,39.26813 C48.6428977,39.38883 51.3016977,37.15248 51.5354477,33.87488 C51.6833477,31.79153 51.6595477,29.67673 51.4937977,27.59338" id="Fill-43" fill="#000000"></path>
                <path d="M20.4892827,33.40449 C20.3660327,34.89029 19.2202327,35.93664 17.8559827,35.89669 C16.5138327,35.85759 15.4674827,34.85629 15.4088327,33.38749 C15.3399827,31.65349 15.3382827,29.91184 15.4079827,28.17784 C15.4640827,26.80084 16.5095827,25.82929 17.8049827,25.77149 C19.1156827,25.71284 20.2376827,26.56284 20.4195827,27.93559 C20.5462327,28.89694 20.4442327,29.88804 20.4442327,30.86639 C20.4637827,30.86639 20.4824827,30.86639 20.5020327,30.86724 C20.5020327,31.71299 20.5581327,32.56384 20.4892827,33.40449 M23.8484827,33.78529 C23.9190327,31.82519 23.9147827,29.85744 23.8382827,27.89734 C23.7158827,24.73874 20.9440327,22.21254 17.8134827,22.31539 C14.5809327,22.42249 12.0360327,24.95379 11.9884327,28.11749 C11.9748327,29.00999 11.9867327,29.90249 11.9867327,30.79499 L11.9909827,30.79499 C11.9909827,31.73169 11.9722827,32.66924 11.9943827,33.60594 C12.0683327,36.74924 14.5707327,39.19809 17.7675827,39.26949 C21.0222327,39.34259 23.7345827,36.93624 23.8484827,33.78529" id="Fill-45" fill="#000000"></path>
                <path d="M34.3806627,22.58229 C33.9021127,22.36384 32.9747627,22.48624 32.5803627,22.83814 C31.0163627,24.23129 29.5611627,25.75024 28.1144627,27.27004 C27.3868627,28.03419 27.4208627,28.95729 28.1663127,29.66194 C28.9083627,30.36234 29.7932127,30.30029 30.5777627,29.61264 C30.9959627,29.24714 31.3912127,28.85699 32.0363627,28.25434 C32.0363627,29.04569 32.0355127,29.52254 32.0363627,29.99854 C32.0389127,32.49924 32.0304127,34.99994 32.0508127,37.49979 C32.0601627,38.62264 32.6398627,39.28734 33.7882127,39.24739 C34.8498627,39.20999 35.3981127,38.56654 35.3998127,37.50574 C35.4057627,33.04069 35.4346627,28.57479 35.3573127,24.11059 C35.3488127,23.57339 34.8549627,22.79819 34.3806627,22.58229" id="Fill-47" fill="#000000"></path>
                <path d="M4.46134274,28.23139 L4.46134274,30.04104 C4.46219274,32.54174 4.45114274,35.04244 4.47069274,37.54314 C4.47834274,38.60224 5.04189274,39.22869 6.11289274,39.24994 C7.10654274,39.26949 7.78059274,38.73569 7.78909274,37.72674 C7.82309274,33.12824 7.84434274,28.52889 7.77549274,23.93124 C7.75509274,22.51684 6.22424274,21.78584 5.17619274,22.70724 C3.50254274,24.17604 1.95044274,25.79359 0.439992744,27.43324 C-0.214507256,28.14299 -0.139707256,29.18594 0.670342744,29.66194 C1.22284274,29.98749 2.16634274,29.89654 2.84124274,29.68829 C3.36824274,29.52594 3.75244274,28.89779 4.46134274,28.23139" id="Fill-49" fill="#000000"></path>
                <path d="M26.8045277,43.85014 C26.3761277,43.63764 25.4870277,43.79149 25.1130277,44.12809 C23.5218277,45.56119 22.0181777,47.09629 20.5417277,48.64924 C19.8574777,49.37004 19.9271777,50.21664 20.6284277,50.92384 C21.3330777,51.63359 22.1329277,51.65484 22.9038777,51.02074 C23.3815777,50.62889 23.8125277,50.18094 24.5205777,49.51879 C24.5205777,51.43979 24.5044277,52.99444 24.5256777,54.54824 C24.5418277,55.64984 25.0773277,56.35194 26.2324777,56.33324 C27.3051777,56.31624 27.8636277,55.66769 27.8695777,54.61369 C27.8857277,51.53159 27.9231277,48.44779 27.8270777,45.36824 C27.8100777,44.83019 27.2915777,44.09239 26.8045277,43.85014" id="Fill-51" fill="#000000"></path>
            </g>
        </g>
    </g>
</svg>