<?xml version="1.0" encoding="UTF-8"?>
<svg width="29px" height="31px" viewBox="0 0 29 31" version="1.1" xmlns="http://www.w3.org/2000/svg" xmlns:xlink="http://www.w3.org/1999/xlink">
    <title>icon-cashback</title>
    <defs>
        <polygon id="path-1" points="0.220239558 0.330666667 27.4647273 0.330666667 27.4647273 29.4214695 0.220239558 29.4214695"></polygon>
    </defs>
    <g id="Welcome" stroke="none" stroke-width="1" fill="none" fill-rule="evenodd">
        <g id="Desktop" transform="translate(-598.000000, -6.000000)">
            <g id="icon-cashback" transform="translate(598.000000, 6.000000)">
                <g id="Group-3" transform="translate(0.939394, 0.155152)">
                    <mask id="mask-2" fill="white">
                        <use xlink:href="#path-1"></use>
                    </mask>
                    <g id="Clip-2"></g>
                    <path d="M26.0795152,13.9522424 C26.0795152,14.590303 25.5631515,15.1066667 24.9250909,15.1066667 C24.2875152,15.1066667 23.7706667,14.590303 23.7706667,13.9522424 L23.7706667,5.40921212 L26.0795152,5.40921212 L26.0795152,13.9522424 Z M20.0761212,15.1066667 L20.0761212,2.86957576 C20.0761212,2.232 20.5929697,1.71612121 21.2305455,1.71612121 C21.8681212,1.71612121 22.3849697,2.232 22.3849697,2.86957576 L22.3849697,13.9522424 C22.384,14.3546667 22.48,14.7498182 22.6632727,15.1066667 L20.0761212,15.1066667 Z M18.6909091,27.0567273 L18.0271515,26.3915152 C17.7561212,26.1209697 17.3178182,26.1209697 17.0467879,26.3915152 L15.6014545,27.8373333 L13.3027879,26.3052121 C13.0700606,26.1500606 12.7675152,26.1500606 12.534303,26.3052121 L10.1488485,27.8964848 L7.76242424,26.3052121 C7.52921212,26.1500606 7.22666667,26.1500606 6.99393939,26.3052121 L4.69575758,27.8373333 L3.24945455,26.3915152 C2.97890909,26.1209697 2.54157576,26.1209697 2.2710303,26.3915152 L1.60581818,27.0567273 L1.60581818,2.86957576 C1.60678788,2.2329697 2.12363636,1.71709091 2.76024242,1.71612121 L18.9687273,1.71612121 C18.7859394,2.0729697 18.6909091,2.46860606 18.6909091,2.86957576 L18.6909091,27.0567273 Z M26.7718788,4.0249697 L23.7706667,4.0249697 L23.7706667,2.86957576 C23.7687273,1.46836364 22.6332121,0.331393939 21.2305455,0.330424242 L2.76024242,0.330424242 C1.35806061,0.331393939 0.222545455,1.46836364 0.220606061,2.86957576 L0.220606061,28.7284848 C0.200727273,29.3267879 0.994424242,29.6564848 1.40266667,29.2186667 L2.76024242,27.8615758 L4.11733333,29.2186667 C4.35151515,29.4518788 4.71660606,29.4882424 4.9910303,29.3054545 L7.37793939,27.7141818 L9.76484848,29.3054545 C9.99660606,29.4601212 10.3001212,29.4601212 10.5333333,29.3054545 L12.9187879,27.7141818 L15.305697,29.3054545 C15.5801212,29.4882424 15.9461818,29.4518788 16.1789091,29.2186667 L17.5364848,27.8615758 L18.8940606,29.2186667 C19.3052121,29.6564848 20.0950303,29.3267879 20.0761212,28.7284848 L20.0761212,16.4923636 L24.9250909,16.4923636 C26.3272727,16.4904242 27.4632727,15.3549091 27.4647273,13.9522424 L27.4647273,4.71733333 C27.4647273,4.33478788 27.1549091,4.0249697 26.7718788,4.0249697 L26.7718788,4.0249697 Z" id="Fill-1" fill="#292E31" mask="url(#mask-2)"></path>
                </g>
                <path d="M3.93066667,18.7248 L3.93066667,22.4193455 C3.93066667,22.8014061 4.2409697,23.1112242 4.6230303,23.1112242 C5.00557576,23.1112242 5.31539394,22.8014061 5.31539394,22.4193455 L5.31539394,18.7248 C5.31539394,18.3422545 5.00557576,18.0324364 4.6230303,18.0324364 C4.2409697,18.0324364 3.93066667,18.3422545 3.93066667,18.7248 Z" id="Fill-4" fill="#292E31"></path>
                <path d="M5.77774545,18.7248 L5.77774545,22.4193455 C5.77774545,22.8014061 6.08804848,23.1112242 6.47010909,23.1112242 C6.8521697,23.1112242 7.16247273,22.8014061 7.16247273,22.4193455 L7.16247273,18.7248 C7.16247273,18.3422545 6.8521697,18.0324364 6.47010909,18.0324364 C6.08804848,18.0324364 5.77774545,18.3422545 5.77774545,18.7248 Z" id="Fill-6" fill="#292E31"></path>
                <path d="M8.54860606,18.7248 L8.54860606,22.4193455 C8.54860606,22.8014061 8.85842424,23.1112242 9.2409697,23.1112242 C9.6230303,23.1112242 9.93333333,22.8014061 9.93333333,22.4193455 L9.93333333,18.7248 C9.93333333,18.3422545 9.6230303,18.0324364 9.2409697,18.0324364 C8.85842424,18.0324364 8.54860606,18.3422545 8.54860606,18.7248 Z" id="Fill-8" fill="#292E31"></path>
                <path d="M10.3952,18.7248 L10.3952,22.4193455 C10.3952,22.8014061 10.705503,23.1112242 11.0875636,23.1112242 C11.4701091,23.1112242 11.7804121,22.8014061 11.7804121,22.4193455 L11.7804121,18.7248 C11.7804121,18.3422545 11.4701091,18.0324364 11.0875636,18.0324364 C10.705503,18.0324364 10.3952,18.3422545 10.3952,18.7248 Z" id="Fill-10" fill="#292E31"></path>
                <path d="M12.2422303,18.7248 L12.2422303,22.4193455 C12.2422303,22.8014061 12.5525333,23.1112242 12.9345939,23.1112242 C13.3171394,23.1112242 13.6279273,22.8014061 13.6279273,22.4193455 L13.6279273,18.7248 C13.6279273,18.3422545 13.3171394,18.0324364 12.9345939,18.0324364 C12.5525333,18.0324364 12.2422303,18.3422545 12.2422303,18.7248 Z" id="Fill-12" fill="#292E31"></path>
                <path d="M15.0130909,18.7248 L15.0130909,22.4193455 C15.0130909,22.8014061 15.3233939,23.1112242 15.7054545,23.1112242 C16.0875152,23.1112242 16.3978182,22.8014061 16.3978182,22.4193455 L16.3978182,18.7248 C16.3978182,18.3422545 16.0875152,18.0324364 15.7054545,18.0324364 C15.3233939,18.0324364 15.0130909,18.3422545 15.0130909,18.7248 Z" id="Fill-14" fill="#292E31"></path>
                <path d="M16.8601212,18.7248 L16.8601212,22.4193455 C16.8601212,22.8014061 17.1699394,23.1112242 17.5524848,23.1112242 C17.9345455,23.1112242 18.2448485,22.8014061 18.2448485,22.4193455 L18.2448485,18.7248 C18.2448485,18.3422545 17.9345455,18.0324364 17.5524848,18.0324364 C17.1699394,18.0324364 16.8601212,18.3422545 16.8601212,18.7248 Z" id="Fill-16" fill="#292E31"></path>
                <path d="M12.6135758,10.2488727 C12.5398788,10.1911758 12.4647273,10.1620848 12.3910303,10.1620848 L12.2669091,10.1620848 C12.1757576,10.1620848 12.1010909,10.1911758 12.0433939,10.2488727 C11.985697,10.3075394 11.9570909,10.3817212 11.9570909,10.471903 L11.9570909,12.1208727 C11.9570909,12.2120242 11.985697,12.2881455 12.0433939,12.3506909 C12.1010909,12.4122667 12.1757576,12.4437818 12.2669091,12.4437818 L12.3784242,12.4437818 C12.4608485,12.4437818 12.5355152,12.4108121 12.6019394,12.3443879 L12.8370909,12.1092364 C12.8947879,12.0505697 12.9238788,11.9768727 12.9238788,11.8862061 L12.9238788,10.6954182 C12.9238788,10.6052364 12.8947879,10.5344485 12.8370909,10.4840242 L12.6135758,10.2488727 Z M10.5432727,6.92572121 C10.5432727,6.83505455 10.5127273,6.76135758 10.4501818,6.70220606 C10.3881212,6.64547879 10.3158788,6.61590303 10.2334545,6.61590303 L10.0836364,6.61590303 C10.0104242,6.61590303 9.93575758,6.64547879 9.86109091,6.70220606 L9.63806061,6.93784242 C9.57212121,6.98778182 9.53866667,7.0585697 9.53866667,7.14923636 L9.53866667,8.1785697 C9.53866667,8.26147879 9.57212121,8.33566061 9.63806061,8.40111515 L9.86109091,8.62414545 C9.91927273,8.68232727 9.99345455,8.71190303 10.0836364,8.71190303 L10.2334545,8.71190303 C10.3158788,8.71190303 10.3881212,8.68232727 10.4501818,8.62414545 C10.5127273,8.56693333 10.5432727,8.49226667 10.5432727,8.40111515 L10.5432727,6.92572121 Z M14.5980606,12.3817212 C14.5980606,12.455903 14.5689697,12.5300848 14.5112727,12.6047515 L13.3204848,13.7950545 C13.246303,13.8527515 13.1716364,13.8818424 13.0979394,13.8818424 L12.2669091,13.8818424 C12.1757576,13.8818424 12.1010909,13.9109333 12.0433939,13.9686303 C11.985697,14.0268121 11.9570909,14.1009939 11.9570909,14.1911758 L11.9570909,14.935903 C11.9570909,15.0260848 11.9284848,15.1007515 11.870303,15.1589333 C11.8121212,15.2166303 11.7374545,15.2457212 11.6472727,15.2457212 L10.8535758,15.2457212 C10.7624242,15.2457212 10.6877576,15.2166303 10.6300606,15.1589333 C10.5723636,15.1007515 10.5432727,15.0260848 10.5432727,14.935903 L10.5432727,14.1911758 C10.5432727,14.1009939 10.5127273,14.0268121 10.4501818,13.9686303 C10.3881212,13.9109333 10.3158788,13.8818424 10.2334545,13.8818424 L9.32824242,13.8818424 C9.25406061,13.8818424 9.17939394,13.8527515 9.10472727,13.7950545 L7.93915152,12.6294788 C7.88145455,12.555297 7.85284848,12.4811152 7.85284848,12.4064485 L7.85284848,11.6006303 C7.85284848,11.5182061 7.88145455,11.4454788 7.93915152,11.3834182 C7.99781818,11.3213576 8.0710303,11.2903273 8.16218182,11.2903273 L9.20412121,11.2903273 C9.29527273,11.2903273 9.36993939,11.3213576 9.42715152,11.3834182 C9.48533333,11.4454788 9.51393939,11.5182061 9.51393939,11.6006303 L9.51393939,11.8983273 C9.51393939,11.9807515 9.54739394,12.0544485 9.61381818,12.1208727 L9.83684848,12.3443879 C9.90230303,12.4108121 9.9769697,12.4437818 10.0593939,12.4437818 L10.2334545,12.4437818 C10.3158788,12.4437818 10.3881212,12.4122667 10.4501818,12.3506909 C10.5127273,12.2881455 10.5432727,12.2120242 10.5432727,12.1208727 L10.5432727,10.471903 C10.5432727,10.3817212 10.5127273,10.3075394 10.4501818,10.2488727 C10.3881212,10.1911758 10.3158788,10.1620848 10.2334545,10.1620848 L9.35248485,10.1620848 C9.27878788,10.1620848 9.20412121,10.1329939 9.12993939,10.075297 L7.96387879,8.90972121 C7.90666667,8.83505455 7.87757576,8.76087273 7.87757576,8.68669091 L7.87757576,6.64014545 C7.87757576,6.56596364 7.90666667,6.49226667 7.96387879,6.4176 L9.12993939,5.26414545 C9.19587879,5.19820606 9.27054545,5.16523636 9.35248485,5.16523636 L10.2334545,5.16523636 C10.3158788,5.16523636 10.3881212,5.1366303 10.4501818,5.07844848 C10.5127273,5.02075152 10.5432727,4.94608485 10.5432727,4.85541818 L10.5432727,4.11117576 C10.5432727,4.02050909 10.5723636,3.94584242 10.6300606,3.88766061 C10.6877576,3.83093333 10.7624242,3.80087273 10.8535758,3.80087273 L11.6472727,3.80087273 C11.7374545,3.80087273 11.8121212,3.83093333 11.870303,3.88766061 C11.9284848,3.94584242 11.9570909,4.02050909 11.9570909,4.11117576 L11.9570909,4.85541818 C11.9570909,4.94608485 11.985697,5.02075152 12.0433939,5.07844848 C12.1010909,5.1366303 12.1757576,5.16523636 12.2669091,5.16523636 L13.0232727,5.16523636 C13.105697,5.16523636 13.1803636,5.19820606 13.246303,5.26414545 L14.4118788,6.4176 C14.4695758,6.49226667 14.4986667,6.56596364 14.4986667,6.64014545 L14.4986667,7.45905455 C14.4986667,7.54972121 14.4695758,7.62390303 14.4118788,7.68305455 C14.3541818,7.73978182 14.28,7.76887273 14.1883636,7.76887273 L13.1473939,7.76887273 C13.0557576,7.76887273 12.9796364,7.73978182 12.9170909,7.68305455 C12.856,7.62390303 12.8254545,7.54972121 12.8254545,7.45905455 L12.8254545,7.14923636 C12.8254545,7.0585697 12.7958788,6.98778182 12.737697,6.93784242 L12.5151515,6.70220606 C12.4404848,6.64547879 12.366303,6.61590303 12.2916364,6.61590303 L12.2669091,6.61590303 C12.1757576,6.61590303 12.1010909,6.64547879 12.0433939,6.70220606 C11.985697,6.76135758 11.9570909,6.83505455 11.9570909,6.92572121 L11.9570909,8.40111515 C11.9570909,8.49226667 11.985697,8.56693333 12.0433939,8.62414545 C12.1010909,8.68232727 12.1757576,8.71190303 12.2669091,8.71190303 L13.1226667,8.71190303 C13.2050909,8.71190303 13.2792727,8.74438788 13.345697,8.81081212 L14.5112727,9.97590303 C14.5689697,10.0340848 14.5980606,10.1043879 14.5980606,10.1863273 L14.5980606,12.3817212 Z" id="Fill-18" fill="#292E31"></path>
            </g>
        </g>
    </g>
</svg>