<?xml version="1.0" encoding="UTF-8"?>
<svg width="27px" height="24px" viewBox="0 0 27 24" version="1.1" xmlns="http://www.w3.org/2000/svg" xmlns:xlink="http://www.w3.org/1999/xlink">
    <title>icon-codigodebarras</title>
    <g id="Welcome" stroke="none" stroke-width="1" fill="none" fill-rule="evenodd">
        <g id="Desktop" transform="translate(-481.000000, -70.000000)" fill="#292E31">
            <g id="icon-codigodebarras" transform="translate(481.795879, 70.794279)">
                <polygon id="Fill-26" points="11.7044848 22.7344487 15.5410909 22.7344487 15.5410909 0.0706911111 11.7044848 0.0706911111"></polygon>
                <polygon id="Fill-28" points="5.91006061 22.7339638 7.76072727 22.7339638 7.76072727 0.0721456565 5.91006061 0.0721456565"></polygon>
                <path d="M24.2020364,0.497600202 C24.2010667,0.153357778 24.2674909,0.00644868685 24.5913697,0.034569899 C24.9428848,0.0651153535 25.2977939,0.0563880808 25.6507636,0.0369941414 C25.9048242,0.0234183838 25.976097,0.143660808 25.9717333,0.416145657 C25.9610667,1.17008505 25.9683394,1.92402444 25.9683394,2.67796384 L25.9683394,22.1863275 C25.9683394,22.7632972 25.9683394,22.7632972 25.4742788,22.7632972 C25.1678545,22.7632972 24.8609455,22.7448729 24.5559758,22.7691154 C24.2674909,22.7923881 24.2020364,22.6576002 24.2030061,22.3487517 C24.2112485,18.7002669 24.2083394,15.0512972 24.2083394,11.4028123 C24.2088242,7.76790323 24.212703,4.13250929 24.2020364,0.497600202 Z" id="Fill-29"></path>
                <path d="M1.8562929e-13,0.0467880808 C0.455272727,0.0467880808 0.887757576,0.039030505 1.31975758,0.056000202 C1.37890909,0.0584244444 1.46327273,0.175272929 1.48460606,0.256242626 C1.51369697,0.367757778 1.49430303,0.496242626 1.49430303,0.617454747 C1.49478788,7.8179396 1.49478788,15.0189093 1.49478788,22.2193941 C1.49478788,22.7629093 1.49430303,22.7629093 1.00993939,22.7633941 C0.682666667,22.7633941 0.355878788,22.7633941 1.8562929e-13,22.7633941 L1.8562929e-13,0.0467880808 Z" id="Fill-30"></path>
                <polygon id="Fill-31" points="21.8523636 22.7349335 23.0732121 22.7349335 23.0732121 0.0706911111 21.8523636 0.0706911111"></polygon>
                <path d="M10.1927273,22.7072972 C10.1340606,22.733479 10.1127273,22.749479 10.0909091,22.7514184 C9.27781818,22.8304487 9.27830303,22.8304487 9.27830303,21.9068123 C9.27878788,14.8944487 9.27830303,7.88208505 9.27830303,0.869236566 C9.27830303,-0.0437331313 9.35927273,-0.113066465 10.1927273,0.101236566 L10.1927273,22.7072972 Z" id="Fill-32"></path>
                <polygon id="Fill-33" points="2.43951515 22.7339638 3.26278788 22.7339638 3.26278788 0.0711759596 2.43951515 0.0711759596"></polygon>
                <path d="M4.7462303,22.7600002 C4.51738182,22.7600002 4.2982303,22.7750305 4.08247273,22.7503032 C4.02041212,22.7435154 3.93556364,22.6329699 3.91762424,22.5529699 C3.88901818,22.4264244 3.90792727,22.2858184 3.90792727,22.1510305 L3.90792727,0.815757778 C3.90792727,-0.055030101 3.91907879,-0.0656967677 4.7462303,0.0918789899 L4.7462303,22.7600002 Z" id="Fill-34"></path>
                <path d="M17.9564606,22.7400729 L17.1496727,22.7400729 C17.1424,22.5635881 17.1307636,22.4074669 17.1307636,22.2518305 C17.1297939,15.0741335 17.1283394,7.89643657 17.1322182,0.718739596 C17.132703,-0.00416949497 16.9925818,0.0404365656 17.7397333,0.044800202 C17.8076121,0.0452850505 17.8754909,0.0666183838 17.9564606,0.0806789899 L17.9564606,22.7400729 Z" id="Fill-35"></path>
                <path d="M19.1893818,0.100169899 C19.2383515,0.0783517172 19.2693818,0.0545941414 19.3023515,0.0507153535 C20.0063515,-0.0336482828 20.0078061,-0.0312240404 20.0078061,0.775563838 C20.0078061,7.8601699 20.0082909,14.944776 20.0082909,22.0298669 C20.0082909,22.8415032 19.9404121,22.8987154 19.1893818,22.7028366 L19.1893818,0.100169899 Z" id="Fill-36"></path>
            </g>
        </g>
    </g>
</svg>