<?xml version="1.0" encoding="UTF-8"?>
<svg width="26px" height="31px" viewBox="0 0 26 31" version="1.1" xmlns="http://www.w3.org/2000/svg" xmlns:xlink="http://www.w3.org/1999/xlink">
    <title>icon-ted</title>
    <g id="Welcome" stroke="none" stroke-width="1" fill="none" fill-rule="evenodd">
        <g id="Desktop" transform="translate(-600.000000, -99.000000)" fill="#292E31">
            <g id="icon-ted" transform="translate(600.614400, 99.695321)">
                <path d="M3.2489697,27.3493333 C2.41842424,27.3493333 1.74157576,26.6729697 1.74157576,25.8414545 L1.74157576,24.3340606 L17.8366061,24.3340606 L17.8366061,25.8414545 C17.8366061,26.6729697 17.1607273,27.3493333 16.3292121,27.3493333 L3.2489697,27.3493333 Z M17.8366061,19.8962424 L17.8366061,22.5929697 L1.74157576,22.5929697 L1.74157576,3.2489697 C1.74157576,2.41745455 2.41842424,1.74109091 3.2489697,1.74109091 L16.3292121,1.74109091 C17.1607273,1.74109091 17.8366061,2.41745455 17.8366061,3.2489697 L17.8366061,6.816 C17.8366061,7.30424242 18.2191515,7.68678788 18.7073939,7.68678788 C19.1956364,7.68678788 19.5781818,7.30424242 19.5781818,6.816 L19.5781818,3.2489697 C19.5781818,1.45745455 18.1207273,-5.32907052e-15 16.3292121,-5.32907052e-15 L3.2489697,-5.32907052e-15 C1.45793939,-5.32907052e-15 -2.68229883e-13,1.45745455 -2.68229883e-13,3.2489697 L-2.68229883e-13,23.4632727 L-2.68229883e-13,25.8414545 C-2.68229883e-13,27.6329697 1.45793939,29.0909091 3.2489697,29.0909091 L16.3292121,29.0909091 C18.1207273,29.0909091 19.5781818,27.6329697 19.5781818,25.8414545 L19.5781818,23.4632727 L19.5781818,19.8962424 C19.5781818,19.4157576 19.1878788,19.0254545 18.7073939,19.0254545 C18.2273939,19.0254545 17.8366061,19.4157576 17.8366061,19.8962424 Z" id="Fill-20"></path>
                <path d="M15.7520485,8.62846061 C15.9193212,8.46021818 16.0114424,8.24058182 16.0104727,8.00930909 C16.0104727,7.77852121 15.9183515,7.56033939 15.7515636,7.39403636 C15.4204121,7.06288485 14.8599273,7.06288485 14.5292606,7.39403636 L12.1510788,9.77173333 C11.9838061,9.93852121 11.8912,10.1571879 11.8912,10.3884606 C11.8912,10.6192485 11.9833212,10.8384 12.1505939,11.0066424 L14.5292606,13.3848242 C14.6858667,13.5419152 14.9084121,13.632097 15.1401697,13.632097 C15.3714424,13.632097 15.5944727,13.5419152 15.7520485,13.3843394 C15.9227152,13.2136727 16.0138667,12.988703 16.0104727,12.7506424 C16.0075636,12.5188848 15.913503,12.3036121 15.7525333,12.1504 L14.8633212,11.2544 L23.4635636,11.2544 C23.9522909,11.2544 24.3343515,10.8718545 24.3343515,10.3831273 C24.3343515,9.90312727 23.9440485,9.51282424 23.4635636,9.51282424 L14.8672,9.51282424 L15.7520485,8.62846061 Z" id="Fill-22"></path>
                <path d="M21.6967273,13.3392 C21.3660606,13.0080485 20.8055758,13.0080485 20.4739394,13.3392 C20.3071515,13.5064727 20.2150303,13.7251394 20.2150303,13.9559273 C20.2150303,14.1872 20.3071515,14.4063515 20.4739394,14.5736242 L21.358303,15.4579879 L12.7619394,15.4579879 C12.2819394,15.4579879 11.8911515,15.8482909 11.8911515,16.3282909 C11.8911515,16.8170182 12.2732121,17.1995636 12.7619394,17.1995636 L21.3621818,17.1995636 L20.4734545,18.0955636 C20.2179394,18.3530182 20.1447273,18.7253818 20.2766061,19.0201697 C20.3134545,19.1312 20.382303,19.2383515 20.4739394,19.3299879 C20.6310303,19.4875636 20.8535758,19.5777455 21.0853333,19.5777455 C21.3175758,19.5777455 21.5401212,19.4875636 21.6972121,19.3299879 L24.0749091,16.9518061 C24.4210909,16.6061091 24.4210909,16.0635636 24.0753939,15.716897 L21.6967273,13.3392 Z" id="Fill-24"></path>
            </g>
        </g>
    </g>
</svg>