<?xml version="1.0" encoding="UTF-8"?>
<svg width="61px" height="40px" viewBox="0 0 61 40" version="1.1" xmlns="http://www.w3.org/2000/svg" xmlns:xlink="http://www.w3.org/1999/xlink">
    <!-- Generator: Sketch 58 (84663) - https://sketch.com -->
    <title>aid</title>
    <desc>Created with Sketch.</desc>
    <g id="Welcome" stroke="none" stroke-width="1" fill="none" fill-rule="evenodd">
        <g id="Desktop-HD" transform="translate(-800.000000, -497.000000)" stroke="#262626" stroke-width="2">
            <g id="aid" transform="translate(801.000000, 498.000000)">
                <path d="M55.74,2.98933333 C54.316079,1.5995268 52.2360033,0.814045948 50.06,0.844444444 L15.19,0.844444444 C12.9491491,0.832436359 10.8037856,1.60972797 9.27,2.98933333 L2.54,8.69777778 C0.969240208,9.87204913 0.0488383516,11.5458438 -6.75694837e-05,13.3168889 L-6.75694837e-05,25.4346667 C-0.00915025755,27.3162583 0.911409003,29.1158188 2.54,30.4 L8.43,35.4666667 C9.97422287,36.8315773 12.1145741,37.6009468 14.35,37.5947048 L24.35,37.5947048 C26.5623144,37.5897196 28.6759636,36.8208571 30.2,35.4666667 L55.53,14.7524444 C57.1581586,13.4574591 58.0778115,11.6504981 58.07,9.76177778 L58.07,7.98844444 C58.099563,6.12855531 57.2628151,4.33327818 55.74,2.98933333 Z" id="Path"></path>
                <path d="M29.33,14.4062222 L27.33,14.4062222 L27.33,12.6666667 C27.324516,11.4093806 26.1188914,10.3912976 24.63,10.3866667 L20.53,10.3866667 C19.0388312,10.3866667 17.83,11.4074574 17.83,12.6666667 L17.83,14.3555556 L15.73,14.3555556 C14.2411086,14.3601865 13.035484,15.3782695 13.03,16.6355556 L13.03,20.0977778 C13.0409496,21.3517648 14.2449849,22.36474 15.73,22.3693333 L17.78,22.3693333 L17.78,24.1511111 C17.78,25.4103203 18.9888312,26.4311111 20.48,26.4311111 L24.58,26.4311111 C26.0688914,26.4264802 27.274516,25.4083971 27.28,24.1511111 L27.28,22.42 L29.28,22.42 C29.9978136,22.4244942 30.6881987,22.1874251 31.1985904,21.7611813 C31.708982,21.3349376 31.9973611,20.7546107 32,20.1484444 L32,16.6862222 C32,15.4368403 30.8094399,14.4201042 29.33,14.4062222 Z" id="Path"></path>
            </g>
        </g>
    </g>
</svg>