<svg xmlns="http://www.w3.org/2000/svg" xmlns:xlink="http://www.w3.org/1999/xlink" width="120" height="40" xmlns:v="https://vecta.io/nano"><defs><path id="A" d="M0 .077h119.7v38.22H0z"/><path id="B" d="M0 39.072h119.7V.85H0z"/></defs><g fill="none" fill-rule="evenodd"><g transform="translate(0 .774)"><mask id="C" fill="#fff"><use xlink:href="#A"/></mask><path d="M114.997 38.298H4.695A4.71 4.71 0 0 1 0 33.603V4.77A4.71 4.71 0 0 1 4.695.077h110.302a4.71 4.71 0 0 1 4.694 4.694v28.832a4.71 4.71 0 0 1-4.694 4.694" fill="#000" mask="url(#C)"/></g><path d="M42.43 15.14c1.36 0 2.07-.763 2.07-2.034s-.7-2.062-2.07-2.062h-.94v4.096h.94zm2.766-2.034c0 1.615-1.054 2.594-2.766 2.594h-1.62v-5.21h1.62c1.712 0 2.766 1.002 2.766 2.615h0z" fill="#fff"/><mask id="D" fill="#fff"><use xlink:href="#B"/></mask><g fill="#fff"><path d="M46.256 15.7h.747v-4.095h-.747V15.7zm-.122-5.225c0-.26.22-.464.508-.464.27 0 .492.203.492.464s-.22.464-.492.464c-.288 0-.508-.202-.508-.464h0zm3.55 5.293c-.957 0-1.63-.523-1.674-1.27h.702c.037.396.4.694.965.694.537 0 .837-.27.837-.605 0-.9-2.423-.38-2.423-1.906 0-.628.6-1.144 1.504-1.144.904 0 1.5.486 1.546 1.286h-.68c-.03-.4-.345-.7-.9-.7-.5 0-.8.24-.8.57 0 .972 2.377.442 2.407 1.906 0 .672-.6 1.18-1.495 1.18m4.686-3.64c-.74 0-1.4.57-1.4 1.517 0 .964.65 1.524 1.4 1.524.755 0 1.4-.568 1.4-1.532s-.636-1.5-1.4-1.5m.142-.6c1.1 0 1.943.82 1.943 2.1 0 1.27-.844 2.13-1.943 2.13-.748 0-1.278-.403-1.533-.82v2.697h-.68v-6.038h.68v.754c.247-.432.785-.82 1.533-.82m4.78 3.63c.7 0 1.404-.485 1.404-1.524 0-1.03-.68-1.517-1.383-1.517-.717 0-1.367.486-1.367 1.517 0 1.04.635 1.524 1.346 1.524m0 .598c-1.16 0-2.04-.822-2.04-2.123 0-1.294.912-2.108 2.07-2.108 1.166 0 2.07.814 2.07 2.108 0 1.3-.934 2.123-2.1 2.123m6.147-2.385c0-.837-.455-1.263-1.143-1.263-.695 0-1.174.433-1.174 1.316V15.7h-.68v-4.096h.68v.583c.27-.426.763-.658 1.316-.658.95 0 1.674.583 1.674 1.757V15.7h-.673v-2.317zm1.94 2.317h.68v-4.095h-.68V15.7zm1.068-5.845v.6l-1.6.852V10.8l1.6-.934zm1.166 1.75l1.278 3.468 1.27-3.468h.725L71.272 15.7h-.793l-1.606-4.095zm4.548 1.748h2.586c.008-.8-.6-1.24-1.292-1.24-.666 0-1.22.442-1.294 1.24m1.323 2.414c-1.166 0-2.026-.822-2.026-2.123 0-1.294.83-2.108 2.026-2.108 1.188 0 1.966.837 1.966 1.958a3.9 3.9 0 0 1-.022.41h-3.274c.053.83.636 1.285 1.33 1.285.613 0 1.002-.313 1.15-.755h.734c-.2.747-.868 1.33-1.884 1.33m3.017-.064h.68v-5.53h-.68zm7.133-2.317c0-.837-.456-1.263-1.144-1.263-.695 0-1.174.433-1.174 1.316V15.7h-.68v-4.096h.68v.583c.27-.426.763-.658 1.317-.658.948 0 1.673.583 1.673 1.757V15.7h-.672v-2.317z" mask="url(#D)"/><path d="M89.4 12.128c-.748 0-1.383.546-1.383 1.5s.635 1.532 1.383 1.532 1.4-.56 1.4-1.524c0-.95-.643-1.517-1.4-1.517m-.134-.6c.762 0 1.284.4 1.524.814v-.747h.687V15.7h-.687v-.762c-.247.44-.777.83-1.533.83-1.1 0-1.935-.86-1.935-2.13 0-1.278.844-2.1 1.944-2.1M44.732 21.67l-1.27 3.67H46l-1.27-3.67zm1.748 5.078h-3.494l-.578 1.67H40.56l3.155-8.786h2.05l3.155 8.786h-1.86l-.578-1.67zm7.462-3.848c-.942 0-1.835.73-1.835 2.05S53 27 53.942 27c.955 0 1.848-.753 1.848-2.073s-.893-2.024-1.848-2.024m.465-1.546c1.786 0 3.18 1.395 3.18 3.57s-1.394 3.62-3.18 3.62c-1.093 0-1.87-.54-2.3-1.106v4.3h-1.76V21.457h1.76v1.006c.414-.6 1.22-1.118 2.3-1.118m8.306 1.555c-.943 0-1.835.73-1.835 2.05S61.77 27 62.713 27c.954 0 1.848-.753 1.848-2.073s-.894-2.024-1.848-2.024m.465-1.546c1.786 0 3.18 1.395 3.18 3.57s-1.394 3.62-3.18 3.62c-1.094 0-1.872-.54-2.3-1.106v4.3h-1.76V21.457h1.76v1.006c.414-.6 1.22-1.118 2.3-1.118m10.98 7.163c-1.823 0-3.23-.955-3.254-2.614h1.885c.05.704.515 1.17 1.332 1.17.83 0 1.32-.44 1.32-1.07 0-1.898-4.526-.754-4.513-3.934 0-1.585 1.283-2.54 3.093-2.54 1.797 0 3.028.918 3.14 2.502h-1.934c-.038-.58-.503-1.03-1.258-1.044-.7-.025-1.206.314-1.206 1.03 0 1.76 4.5.78 4.5 3.87 0 1.383-1.106 2.627-3.105 2.627m5.152-5.603h-.83v-1.445h.83v-1.723h1.772v1.723h1.558v1.445h-1.56v3.37c0 .466.2.666.74.666h.817v1.483H81.53c-1.333 0-2.225-.565-2.225-2.162v-3.356zM87.25 27c.93 0 1.823-.678 1.823-2.06 0-1.395-.867-2.06-1.798-2.06s-1.773.666-1.773 2.06c0 1.383.805 2.06 1.748 2.06m0 1.534c-2 0-3.532-1.408-3.532-3.595 0-2.2 1.57-3.595 3.582-3.595s3.582 1.396 3.582 3.595c0 2.187-1.6 3.595-3.632 3.595m6.936-.114h-1.76v-6.963h1.76v1.08a2.41 2.41 0 0 1 2.136-1.181v1.848h-.465c-1.044 0-1.67.403-1.67 1.747v3.47zm4.91-4.135h3.306c-.026-.918-.755-1.496-1.66-1.496-.843 0-1.5.54-1.648 1.496m1.697 4.248c-2.024 0-3.494-1.407-3.494-3.594 0-2.2 1.432-3.595 3.494-3.595 2 0 3.43 1.37 3.43 3.443a3.9 3.9 0 0 1-.05.68H99.08c.1 1.03.793 1.6 1.672 1.6.754 0 1.17-.376 1.396-.842h1.897c-.376 1.282-1.532 2.3-3.254 2.3" mask="url(#D)"/></g><path d="M21.973 29.013c-3.046-.018-5.565-6.234-5.565-9.4 0-5.17 3.88-6.304 5.374-6.304.674 0 1.394.265 2.028.5.444.163.903.332 1.158.332.152 0 .512-.144.83-.27.678-.27 1.522-.605 2.504-.605h.006c.734 0 2.957.16 4.294 2.17l.313.47-.45.34c-.643.485-1.82 1.372-1.82 3.128 0 2.08 1.33 2.88 1.97 3.264.283.17.574.345.574.728 0 .25-1.996 5.618-4.892 5.618-.7 0-1.2-.214-1.653-.402s-.832-.354-1.47-.354c-.323 0-.732.153-1.164.315-.6.22-1.26.47-2.02.47h-.02zM28.6 8.552c.076 2.72-1.87 4.608-3.814 4.5-.32-2.17 1.943-4.5 3.814-4.5" mask="url(#D)" fill="#00FF7D"/></g></svg>