<svg xmlns="http://www.w3.org/2000/svg" viewBox="0 0 54.45 42"><defs><style>.cls-1{fill:#1b2e3b;}</style></defs><g id="Layer_2" data-name="Layer 2"><g id="Camada_1" data-name="Camada 1"><g id="pxyEMg"><path class="cls-1" d="M0,4C.73,2.09,1.89.57,4.06.13A7.69,7.69,0,0,1,5.65,0H31.7c3.7,0,5.72,2,5.74,5.71v1.1H48.93c3.4,0,5.52,2.11,5.52,5.49,0,5.89,0,11.77,0,17.65,0,3.69-1.84,5.61-5.55,5.79a3.16,3.16,0,0,0-.4.09v3.26a2.62,2.62,0,0,1-1.62,2.73,2.68,2.68,0,0,1-3.11-1c-1.3-1.46-2.61-2.9-3.87-4.39a1.9,1.9,0,0,0-1.63-.74c-5.1,0-10.21-.1-15.31.05-3.82.12-6.29-2.61-5.95-6A6.61,6.61,0,0,0,17,29a2.27,2.27,0,0,0-2.63.79c-1.15,1.48-2.46,2.84-3.72,4.24A2.69,2.69,0,0,1,7.55,35,2.62,2.62,0,0,1,6,32.27c0-1.06,0-2.12,0-3.14C5.85,29,5.8,29,5.75,29,2.81,29,1,27.58,0,24.89ZM9.38,30.38c1.36-1.53,2.53-2.81,3.65-4.13a1.9,1.9,0,0,1,1.63-.74c5.73,0,11.47,0,17.21,0,1.55,0,2.16-.58,2.16-2.08q0-9,0-18C34,4,33.42,3.41,32,3.41q-13.23,0-26.46,0C4,3.41,3.41,4,3.41,5.55q0,8.93,0,17.85c0,1.52.6,2.11,2.12,2.12H9.38ZM45.1,32.33c1.43,0,2.7,0,4,0s2-.64,2-2q0-9.09,0-18.18c0-1.36-.64-2-2-2-2.83,0-5.67,0-8.5,0H37.44v1.24q0,6,0,12A5.11,5.11,0,0,1,32,28.93H20.46c-.15,3.05.17,3.4,3,3.4,5.21,0,10.42,0,15.63,0a3,3,0,0,1,2.79,1.25c.92,1.21,2,2.29,3.23,3.65Z"/></g></g></g></svg>