<?xml version="1.0" encoding="UTF-8"?>
<svg width="48px" height="36px" viewBox="0 0 48 36" version="1.1" xmlns="http://www.w3.org/2000/svg" xmlns:xlink="http://www.w3.org/1999/xlink">
    <title>desemprego</title>
    <g id="Welcome" stroke="none" stroke-width="1" fill="none" fill-rule="evenodd">
        <g id="Desktop-HD" transform="translate(-665.000000, -240.000000)">
            <g id="desemprego" transform="translate(666.000000, 241.000000)">
                <path d="M43.4109017,1.97527119 C42.2149017,0.649847458 40.7296475,0.000389830508 38.9855458,0.000389830508 L16.4580203,0.000389830508 L11.8315119,0.000389830508 C10.0725966,0.000389830508 8.54602034,0.649847458 7.22059661,1.97527119 L1.97503729,7.24110169 C0.649613559,8.54625424 0.000155932203,9.98005085 0.000155932203,11.5066271 L0.000155932203,22.6830678 C0.000155932203,24.446661 0.649613559,25.9677797 1.97503729,27.2939831 L6.56568136,31.9048983 C7.89110508,33.2100508 9.41768136,33.8641864 11.1765966,33.8641864 L16.4580203,33.8641864 L18.9287661,33.8641864 C20.6713085,33.8641864 22.2142576,33.2100508 23.5233085,31.9048983 L43.2510712,12.8265932 C44.5764949,11.5066271 45.2267322,9.98005085 45.2267322,8.22113559 L45.2267322,6.58618644 C45.2267322,4.82727119 44.6287322,3.28042373 43.4109017,1.97527119 Z" id="Stroke-1" stroke="#262626" stroke-width="2"></path>
                <path d="M17.3622712,7.00112203 L19.4876271,7.00112203 C20.5292542,7.00112203 21.3744068,7.84627458 21.3744068,8.88790169 L21.3744068,9.5537322 L19.2490508,9.5537322 C18.2074237,9.5537322 17.3622712,8.70935932 17.3622712,7.66695254 L17.3622712,7.00112203 Z M23.4007458,10.2975288 L25.2329492,10.2975288 L25.2329492,10.9454271 C25.2329492,11.654139 24.658339,12.2287492 23.9496271,12.2287492 L22.1174237,12.2287492 L22.1174237,11.5808508 C22.1174237,10.872139 22.6920339,10.2975288 23.4007458,10.2975288 L23.4007458,10.2975288 Z M19.2490508,10.2975288 L21.3744068,10.2975288 L21.3744068,11.5980034 L21.3744068,12.6006475 L21.3744068,14.0648508 C21.2761695,14.0586136 21.1779322,14.0554949 21.0781356,14.0554949 C20.102,14.0554949 19.1671864,14.3564441 18.3781695,14.9255966 C18.211322,15.0456644 18.1738983,15.2780034 18.2931864,15.4448508 C18.4140339,15.6109186 18.6455932,15.649122 18.8124407,15.5290542 C19.4751525,15.051122 20.2587119,14.7985119 21.0781356,14.7985119 C21.2769492,14.7985119 21.4718644,14.8141051 21.6652203,14.8437322 C21.6808136,14.8468508 21.6971864,14.8491898 21.7135593,14.8507492 C22.8697966,15.0433254 23.8927119,15.7535966 24.4727797,16.7999017 C24.5406102,16.9223085 24.6669153,16.9909186 24.7978983,16.9909186 C24.8587119,16.9909186 24.9203051,16.9761051 24.978,16.9449186 C25.157322,16.845122 25.2220339,16.6190203 25.1222373,16.4389186 C24.4797966,15.2787831 23.3789153,14.4655966 22.1174237,14.1740034 L22.1174237,12.9725458 L23.9496271,12.9725458 C25.0692203,12.9725458 25.9767458,12.0650203 25.9767458,10.9454271 L25.9767458,9.90925763 C25.9767458,9.71278305 25.8176949,9.5537322 25.622,9.5537322 L23.4178983,9.5537322 C22.9243729,9.5537322 22.4713898,9.72993559 22.1174237,10.0223085 L22.1174237,9.92563051 L22.1174237,8.88790169 C22.1174237,7.43539322 20.9401356,6.25810508 19.4876271,6.25810508 L16.974,6.25810508 C16.7775254,6.25810508 16.6192542,6.41637627 16.6192542,6.61285085 L16.6192542,7.66695254 C16.6192542,9.12024068 17.7965424,10.2975288 19.2490508,10.2975288 L19.2490508,10.2975288 Z" id="Fill-3" fill="#262626"></path>
                <path d="M17.3622712,7.00112203 L19.4876271,7.00112203 C20.5292542,7.00112203 21.3744068,7.84627458 21.3744068,8.88790169 L21.3744068,9.5537322 L19.2490508,9.5537322 C18.2074237,9.5537322 17.3622712,8.70935932 17.3622712,7.66695254 L17.3622712,7.00112203 Z M23.4007458,10.2975288 L25.2329492,10.2975288 L25.2329492,10.9454271 C25.2329492,11.654139 24.658339,12.2287492 23.9496271,12.2287492 L22.1174237,12.2287492 L22.1174237,11.5808508 C22.1174237,10.872139 22.6920339,10.2975288 23.4007458,10.2975288 Z M19.2490508,10.2975288 L21.3744068,10.2975288 L21.3744068,11.5980034 L21.3744068,12.6006475 L21.3744068,14.0648508 C21.2761695,14.0586136 21.1779322,14.0554949 21.0781356,14.0554949 C20.102,14.0554949 19.1671864,14.3564441 18.3781695,14.9255966 C18.211322,15.0456644 18.1738983,15.2780034 18.2931864,15.4448508 C18.4140339,15.6109186 18.6455932,15.649122 18.8124407,15.5290542 C19.4751525,15.051122 20.2587119,14.7985119 21.0781356,14.7985119 C21.2769492,14.7985119 21.4718644,14.8141051 21.6652203,14.8437322 C21.6808136,14.8468508 21.6971864,14.8491898 21.7135593,14.8507492 C22.8697966,15.0433254 23.8927119,15.7535966 24.4727797,16.7999017 C24.5406102,16.9223085 24.6669153,16.9909186 24.7978983,16.9909186 C24.8587119,16.9909186 24.9203051,16.9761051 24.978,16.9449186 C25.157322,16.845122 25.2220339,16.6190203 25.1222373,16.4389186 C24.4797966,15.2787831 23.3789153,14.4655966 22.1174237,14.1740034 L22.1174237,12.9725458 L23.9496271,12.9725458 C25.0692203,12.9725458 25.9767458,12.0650203 25.9767458,10.9454271 L25.9767458,9.90925763 C25.9767458,9.71278305 25.8176949,9.5537322 25.622,9.5537322 L23.4178983,9.5537322 C22.9243729,9.5537322 22.4713898,9.72993559 22.1174237,10.0223085 L22.1174237,9.92563051 L22.1174237,8.88790169 C22.1174237,7.43539322 20.9401356,6.25810508 19.4876271,6.25810508 L16.974,6.25810508 C16.7775254,6.25810508 16.6192542,6.41637627 16.6192542,6.61285085 L16.6192542,7.66695254 C16.6192542,9.12024068 17.7965424,10.2975288 19.2490508,10.2975288 Z" id="Stroke-5" stroke="#262626" stroke-width="0.5"></path>
                <path d="M13.4891492,21.822322 C13.4727763,21.8386949 13.4525051,21.8511695 13.4314542,21.8605254 C13.4252169,21.8636441 13.4182,21.8667627 13.4119627,21.8698814 L9.20725085,23.993678 L9.20725085,22.3673051 L10.3104712,21.8254407 C10.4430136,21.7599492 10.5279966,21.6211695 10.515522,21.4745932 C10.4905729,21.1892373 10.2052169,21.0488983 9.97833559,21.1596102 L9.20725085,21.5393051 L9.20725085,18.2935763 L11.4253864,17.321339 C11.4737254,17.2995085 11.527522,17.2979492 11.5766407,17.3174407 C11.6257593,17.3369322 11.665522,17.3743559 11.6865729,17.4219153 L13.4353525,21.3818136 L13.4353525,21.3833729 L13.5312508,21.6001186 C13.5639966,21.6734068 13.5499627,21.7591695 13.4891492,21.822322 M27.3686746,18.3200847 C27.0443356,17.5848644 26.1828102,17.2519492 25.4483695,17.5762881 C25.4460305,17.5770678 25.4444712,17.5778475 25.4421322,17.5786271 L23.0142678,18.6982203 C22.8279288,18.7847627 22.7460644,19.0054068 22.8318271,19.1917458 C22.9183695,19.3780847 23.1390136,19.4591695 23.3253525,19.3734068 L25.750878,18.2553729 C26.109522,18.0978814 26.530539,18.2616102 26.6888102,18.6210339 C26.847861,18.979678 26.6841322,19.4022542 26.3247085,19.5613051 L21.3551492,21.7552712 C20.5676915,22.1022203 19.6742,22.0827288 18.9023356,21.6999153 L17.0833864,20.7962881 C16.1142678,20.313678 14.9907763,20.2887288 14.0006068,20.7261186 L13.9647424,20.7417119 L12.6050136,17.6628305 L14.4925729,16.8293729 C15.391522,16.4325254 16.3957254,16.4005593 17.3180644,16.7381525 L20.9762339,18.0822881 C21.3091492,18.2046949 21.4876915,18.5781525 21.3723017,18.9149661 C21.2553525,19.2572373 20.8803356,19.4412373 20.5372847,19.3258475 L17.7086746,18.3684237 C17.5137593,18.3029322 17.3032508,18.4074068 17.2377593,18.6015424 C17.1722678,18.7964576 17.2759627,19.0077458 17.4700983,19.0732373 L20.2987085,20.0298814 C20.4476237,20.0805593 20.5980983,20.1039492 20.7470136,20.1039492 C21.4323356,20.1039492 22.0662,19.5971695 22.1465051,18.832322 C22.2127763,18.197678 21.8245051,17.6020169 21.2257254,17.3821525 L17.5737932,16.0411356 C16.4697932,15.6349322 15.2683356,15.6739153 14.1924034,16.1495085 L12.2931492,16.9876441 C12.1863356,16.8239153 12.0319627,16.6968305 11.8456237,16.624322 C11.6109458,16.5338814 11.3552169,16.5401186 11.1259966,16.6406949 L8.68643729,17.7103898 C8.55077627,17.7696441 8.46345424,17.9029661 8.46345424,18.050322 L8.46345424,24.5994746 C8.46345424,24.6657458 8.47904746,24.7327966 8.51491186,24.7897119 C8.59053898,24.909 8.7121661,24.9698136 8.83457288,24.9698136 C8.8922678,24.9698136 8.94996271,24.957339 9.00297966,24.9300508 L13.7394203,22.5364915 C13.9647424,22.4343559 14.1378271,22.2511356 14.2274881,22.0203559 C14.3023356,21.8277797 14.3116915,21.6203898 14.2563356,21.4254746 L14.3085729,21.4028644 C15.0890136,21.0582542 15.9817254,21.0785254 16.7465729,21.4582203 L18.572539,22.3649661 C19.5416576,22.8460169 20.6651492,22.8725254 21.6553186,22.4351356 L26.624878,20.2411695 C27.3593186,19.9168305 27.6930136,19.0545254 27.3686746,18.3200847" id="Fill-7" fill="#262626"></path>
                <path d="M13.4891492,21.822322 C13.4727763,21.8386949 13.4525051,21.8511695 13.4314542,21.8605254 C13.4252169,21.8636441 13.4182,21.8667627 13.4119627,21.8698814 L9.20725085,23.993678 L9.20725085,22.3673051 L10.3104712,21.8254407 C10.4430136,21.7599492 10.5279966,21.6211695 10.515522,21.4745932 C10.4905729,21.1892373 10.2052169,21.0488983 9.97833559,21.1596102 L9.20725085,21.5393051 L9.20725085,18.2935763 L11.4253864,17.321339 C11.4737254,17.2995085 11.527522,17.2979492 11.5766407,17.3174407 C11.6257593,17.3369322 11.665522,17.3743559 11.6865729,17.4219153 L13.4353525,21.3818136 L13.4353525,21.3833729 L13.5312508,21.6001186 C13.5639966,21.6734068 13.5499627,21.7591695 13.4891492,21.822322 Z M27.3686746,18.3200847 C27.0443356,17.5848644 26.1828102,17.2519492 25.4483695,17.5762881 C25.4460305,17.5770678 25.4444712,17.5778475 25.4421322,17.5786271 L23.0142678,18.6982203 C22.8279288,18.7847627 22.7460644,19.0054068 22.8318271,19.1917458 C22.9183695,19.3780847 23.1390136,19.4591695 23.3253525,19.3734068 L25.750878,18.2553729 C26.109522,18.0978814 26.530539,18.2616102 26.6888102,18.6210339 C26.847861,18.979678 26.6841322,19.4022542 26.3247085,19.5613051 L21.3551492,21.7552712 C20.5676915,22.1022203 19.6742,22.0827288 18.9023356,21.6999153 L17.0833864,20.7962881 C16.1142678,20.313678 14.9907763,20.2887288 14.0006068,20.7261186 L13.9647424,20.7417119 L12.6050136,17.6628305 L14.4925729,16.8293729 C15.391522,16.4325254 16.3957254,16.4005593 17.3180644,16.7381525 L20.9762339,18.0822881 C21.3091492,18.2046949 21.4876915,18.5781525 21.3723017,18.9149661 C21.2553525,19.2572373 20.8803356,19.4412373 20.5372847,19.3258475 L17.7086746,18.3684237 C17.5137593,18.3029322 17.3032508,18.4074068 17.2377593,18.6015424 C17.1722678,18.7964576 17.2759627,19.0077458 17.4700983,19.0732373 L20.2987085,20.0298814 C20.4476237,20.0805593 20.5980983,20.1039492 20.7470136,20.1039492 C21.4323356,20.1039492 22.0662,19.5971695 22.1465051,18.832322 C22.2127763,18.197678 21.8245051,17.6020169 21.2257254,17.3821525 L17.5737932,16.0411356 C16.4697932,15.6349322 15.2683356,15.6739153 14.1924034,16.1495085 L12.2931492,16.9876441 C12.1863356,16.8239153 12.0319627,16.6968305 11.8456237,16.624322 C11.6109458,16.5338814 11.3552169,16.5401186 11.1259966,16.6406949 L8.68643729,17.7103898 C8.55077627,17.7696441 8.46345424,17.9029661 8.46345424,18.050322 L8.46345424,24.5994746 C8.46345424,24.6657458 8.47904746,24.7327966 8.51491186,24.7897119 C8.59053898,24.909 8.7121661,24.9698136 8.83457288,24.9698136 C8.8922678,24.9698136 8.94996271,24.957339 9.00297966,24.9300508 L13.7394203,22.5364915 C13.9647424,22.4343559 14.1378271,22.2511356 14.2274881,22.0203559 C14.3023356,21.8277797 14.3116915,21.6203898 14.2563356,21.4254746 L14.3085729,21.4028644 C15.0890136,21.0582542 15.9817254,21.0785254 16.7465729,21.4582203 L18.572539,22.3649661 C19.5416576,22.8460169 20.6651492,22.8725254 21.6553186,22.4351356 L26.624878,20.2411695 C27.3593186,19.9168305 27.6930136,19.0545254 27.3686746,18.3200847 Z" id="Stroke-9" stroke="#262626" stroke-width="0.5"></path>
            </g>
        </g>
    </g>
</svg>