<?xml version="1.0" encoding="UTF-8"?>
<svg width="48px" height="40px" viewBox="0 0 48 40" version="1.1" xmlns="http://www.w3.org/2000/svg" xmlns:xlink="http://www.w3.org/1999/xlink">
    <!-- Generator: Sketch 58 (84663) - https://sketch.com -->
    <title>heart</title>
    <desc>Created with Sketch.</desc>
    <g id="Welcome" stroke="none" stroke-width="1" fill="none" fill-rule="evenodd">
        <g id="Desktop-HD" transform="translate(-568.000000, -333.000000)" stroke="#000000" stroke-width="2">
            <g id="heart" transform="translate(569.000000, 334.000000)">
                <path d="M44.1579487,5.42717949 L40.3482051,1.63692308 C39.3606497,0.585989095 37.9805708,-0.00698598115 36.5384615,-6.10369278e-05 L27.2820513,-6.10369278e-05 C25.9369285,0.0377894709 24.6673422,0.630263073 23.774359,1.63692308 L22.8876923,2.51384615 L22.0010256,1.63692308 C21.1126425,0.635114532 19.8510981,0.0431048745 18.5128205,-6.10369278e-05 L9.23692308,-6.10369278e-05 C7.79481381,-0.00698598115 6.41473491,0.585989095 5.42717949,1.63692308 L1.6174359,5.42717949 C0.58143678,6.42347134 -0.00280403601,7.79960482 -0.000312793588,9.23692308 L-0.000312793588,15.6384615 C-0.0158278571,17.0897491 0.569640952,18.4828827 1.6174359,19.4871795 L17.3825641,35.7492308 C18.3731781,36.7946093 19.7521407,37.383578 21.1923077,37.3764749 L24.5830769,37.3764749 C26.0232439,37.383578 27.4022065,36.7946093 28.3928205,35.7492308 L44.1579487,19.4871795 C45.2129211,18.4862422 45.8056297,17.0926714 45.7950157,15.6384615 L45.7950157,9.23692308 C45.7925883,7.79671303 45.2011247,6.42015184 44.1579487,5.42717949 Z" id="Path"></path>
            </g>
        </g>
    </g>
</svg>