<?xml version="1.0" encoding="UTF-8"?>
<svg width="39px" height="30px" viewBox="0 0 39 30" version="1.1" xmlns="http://www.w3.org/2000/svg" xmlns:xlink="http://www.w3.org/1999/xlink">
    <title>ica-send</title>
    <defs>
        <polygon id="path-1" points="0.329573451 0.325069307 36.6158218 0.325069307 36.6158218 27.4204238 0.329573451 27.4204238"></polygon>
        <polygon id="path-3" points="0.118794467 0.236038884 4.22095608 0.236038884 4.22095608 3.76237624 0.118794467 3.76237624"></polygon>
    </defs>
    <g id="Welcome" stroke="none" stroke-width="1" fill="none" fill-rule="evenodd">
        <g id="Desktop-HD" transform="translate(-774.000000, -418.000000)">
            <g id="ica-send" transform="translate(774.000000, 418.000000)">
                <g id="Group-3" transform="translate(1.128713, 0.051319)">
                    <mask id="mask-2" fill="white">
                        <use xlink:href="#path-1"></use>
                    </mask>
                    <g id="Clip-2"></g>
                    <path d="M20.9210693,25.566701 L15.0175248,16.1878495 L33.4132871,3.71971089 L20.9210693,25.566701 Z M14.728198,20.8204634 L14.728198,18.7327208 L15.4678812,19.9080871 L14.728198,20.8204634 Z M31.3439802,3.1888396 L13.8113069,15.072305 L2.5610495,11.1364832 L31.3439802,3.1888396 Z M36.6022772,1.27755248 C36.6135644,1.21961188 36.6173267,1.16054257 36.6154455,1.10109703 C36.6146931,1.07250297 36.6113069,1.0457901 36.6075446,1.01794851 C36.601901,0.976562376 36.592495,0.935552475 36.5804554,0.89529505 C36.5729307,0.870087129 36.5680396,0.845631683 36.5582574,0.821176238 C36.5375644,0.771136634 36.511604,0.721849505 36.48,0.674819802 C36.4758614,0.669176238 36.4709703,0.664661386 36.4672079,0.659394059 C36.4608119,0.650740594 36.4581782,0.640958416 36.4517822,0.632681188 C36.4412475,0.618384158 36.426198,0.610106931 36.4149109,0.597314851 C36.3840594,0.562324752 36.3509505,0.530720792 36.3152079,0.502126733 C36.2971485,0.487829703 36.2805941,0.471651485 36.2614059,0.459235644 C36.2087327,0.423869307 36.1526733,0.39640396 36.0939802,0.374958416 C36.0740396,0.367433663 36.0537228,0.362918812 36.0330297,0.35689901 C35.9818614,0.34260198 35.9299406,0.333572277 35.8765149,0.329433663 C35.8610891,0.32830495 35.8460396,0.32529505 35.8302376,0.324824296 C35.7621386,0.323790099 35.6944158,0.332819802 35.6270693,0.349374257 C35.6206733,0.350879208 35.6135248,0.350126733 35.6067525,0.351631683 L1.30629703,9.82266139 C0.741940594,9.97917624 0.349524752,10.4773149 0.330336634,11.0623644 C0.310772277,11.6474139 0.668950495,12.1703842 1.22164356,12.3637703 L13.1276832,16.529097 L13.1276832,23.0771366 C13.1276832,23.4153743 13.3410099,23.7178693 13.6600594,23.8314931 C13.7477228,23.8619683 13.8380198,23.8773941 13.9275644,23.8773941 C14.1642178,23.8773941 14.394099,23.7716713 14.5491089,23.581295 L16.3685941,21.3389188 L19.8047723,26.7977505 C20.0504554,27.1875327 20.4714653,27.4204238 20.931604,27.4204238 C21.408297,27.4204238 21.851505,27.1634535 22.0885347,26.7495921 L36.5146139,1.52022574 C36.5225149,1.50668119 36.524396,1.49163168 36.5311683,1.47771089 C36.5522376,1.43519604 36.5687921,1.39192871 36.5819604,1.3467802 C36.5891089,1.32345347 36.5977624,1.30125545 36.6022772,1.27755248 L36.6022772,1.27755248 Z" id="Fill-1" fill="#000000" mask="url(#mask-2)"></path>
                </g>
                <path d="M0.800784158,21.9548198 C0.560744554,21.9548198 0.323714851,21.8475921 0.166071287,21.6429188 C-0.103314851,21.2926416 -0.037849505,20.7899881 0.312051485,20.520602 L5.06430891,16.8616911 C5.41458614,16.5919287 5.9172396,16.6573941 6.1862495,17.0076713 C6.45601188,17.3575723 6.39054653,17.8602257 6.04064554,18.1296119 L1.28838812,21.788899 C1.1431604,21.9006416 0.971219802,21.9548198 0.800784158,21.9548198" id="Fill-4" fill="#000000"></path>
                <path d="M8.36632079,21.4088614 C8.12665743,21.4088614 7.88925149,21.3016337 7.73160792,21.0969604 C7.46222178,20.7466832 7.52731089,20.2444059 7.87758812,19.9742673 L10.1590931,18.2179901 C10.5086178,17.9482277 11.0112713,18.0133168 11.2814099,18.3635941 C11.550796,18.7138713 11.4857069,19.2161485 11.1354297,19.4859109 L8.85392475,21.2429406 C8.70869703,21.3546832 8.53675644,21.4088614 8.36632079,21.4088614" id="Fill-6" fill="#000000"></path>
                <g id="Group-10" transform="translate(3.762376, 25.635477)">
                    <mask id="mask-4" fill="white">
                        <use xlink:href="#path-3"></use>
                    </mask>
                    <g id="Clip-9"></g>
                    <path d="M0.919487129,3.76252673 C0.679447525,3.76252673 0.442417822,3.65492277 0.284774257,3.4502495 C0.0153881188,3.09997228 0.0808534653,2.59731881 0.430754455,2.32793267 L2.93273465,0.401972277 C3.28263564,0.132962376 3.78528911,0.197675248 4.05467525,0.547952475 C4.32443762,0.898229703 4.25897228,1.40088317 3.90907129,1.66989307 L1.40709109,3.5962297 C1.26186337,3.70797228 1.08992277,3.76252673 0.919487129,3.76252673" id="Fill-8" fill="#000000" mask="url(#mask-4)"></path>
                </g>
                <path d="M9.49559802,25.6507149 C9.25593465,25.6507149 9.01852871,25.5434871 8.86088515,25.3388139 C8.59149901,24.9885366 8.65658812,24.4862594 9.00686535,24.216497 L9.9553604,23.4862198 C10.3045089,23.2160812 10.8075386,23.2811703 11.0776772,23.6322 C11.3470634,23.982101 11.2823505,24.4843782 10.931697,24.7541406 L9.98320198,25.4847941 C9.83797426,25.5965366 9.6664099,25.6507149 9.49559802,25.6507149" id="Fill-11" fill="#000000"></path>
                <path d="M5.4583802,23.6600416 C5.21834059,23.6600416 4.98131089,23.5528139 4.82366733,23.3481406 C4.55428119,22.9978634 4.61974653,22.4952099 4.96964752,22.2258238 L5.91851881,21.4955465 C6.2684198,21.2257842 6.77107327,21.2912495 7.04083564,21.6415267 C7.31022178,21.9910515 7.24513267,22.4940812 6.89485545,22.7634673 L5.94598416,23.4941208 C5.80075644,23.6058634 5.62881584,23.6600416 5.4583802,23.6600416" id="Fill-13" fill="#000000"></path>
                <path d="M11.7603604,29.346196 C11.520697,29.346196 11.2832911,29.2389683 11.1256475,29.034295 C10.8562614,28.6840178 10.9217267,28.1817406 11.2716277,27.9119782 L14.2687366,25.6045129 C14.6182614,25.3347505 15.1212911,25.3998396 15.3906772,25.7501168 C15.6600634,26.1003941 15.5949743,26.6026713 15.244697,26.8728099 L12.2479644,29.1802752 C12.1027366,29.2920178 11.930796,29.346196 11.7603604,29.346196" id="Fill-15" fill="#000000"></path>
            </g>
        </g>
    </g>
</svg>