<?xml version="1.0" encoding="UTF-8"?>
<svg width="10px" height="8px" viewBox="0 0 10 8" version="1.1" xmlns="http://www.w3.org/2000/svg" xmlns:xlink="http://www.w3.org/1999/xlink">
    <!-- Generator: Sketch 58 (84663) - https://sketch.com -->
    <title>ica-bullet</title>
    <desc>Created with Sketch.</desc>
    <defs>
        <polygon id="path-1" points="0 -8.18181818e-05 9.57272727 -8.18181818e-05 9.57272727 7.16773636 0 7.16773636"></polygon>
    </defs>
    <g id="Welcome" stroke="none" stroke-width="1" fill="none" fill-rule="evenodd">
        <g id="Desktop-HD" transform="translate(-715.000000, -466.000000)">
            <g id="ica-bullet" transform="translate(715.000000, 466.000000)">
                <mask id="mask-2" fill="white">
                    <use xlink:href="#path-1"></use>
                </mask>
                <g id="Clip-2"></g>
                <path d="M9.18818182,0.4181 C8.93545455,0.137190909 8.62090909,-8.18181818e-05 8.25181818,-8.18181818e-05 L3.48363636,-8.18181818e-05 L2.50363636,-8.18181818e-05 C2.13181818,-8.18181818e-05 1.80909091,0.137190909 1.52818182,0.4181 L0.418181818,1.53264545 C0.137272727,1.80900909 0,2.11264545 0,2.43537273 L0,4.80082727 C0,5.17446364 0.137272727,5.49628182 0.418181818,5.77719091 L1.38909091,6.75264545 C1.67,7.02900909 1.99272727,7.1681 2.36545455,7.1681 L3.48363636,7.1681 L4.00636364,7.1681 C4.37545455,7.1681 4.70181818,7.02900909 4.97909091,6.75264545 L9.15454545,2.71446364 C9.43454545,2.43537273 9.57272727,2.11264545 9.57272727,1.73991818 L9.57272727,1.39446364 C9.57272727,1.02173636 9.44636364,0.694463636 9.18818182,0.4181" id="Fill-1" fill="#00FF7D" mask="url(#mask-2)"></path>
            </g>
        </g>
    </g>
</svg>