<?xml version="1.0" encoding="UTF-8"?>
<svg width="55px" height="39px" viewBox="0 0 55 39" version="1.1" xmlns="http://www.w3.org/2000/svg" xmlns:xlink="http://www.w3.org/1999/xlink">
    <title>ica-mail</title>
    <defs>
        <polygon id="path-1" points="0 0.00467692308 48.4468333 0.00467692308 48.4468333 31.4915744 0 31.4915744"></polygon>
        <polygon id="path-3" points="0.120723077 0.244125641 22.7745692 0.244125641 22.7745692 22.8974359 0.120723077 22.8974359"></polygon>
    </defs>
    <g id="Welcome" stroke="none" stroke-width="1" fill="none" fill-rule="evenodd">
        <g id="Desktop-HD" transform="translate(-1095.000000, -267.000000)">
            <g id="ica-mail" transform="translate(1095.000000, 267.000000)">
                <g id="Group-3" transform="translate(0.000000, 0.482600)">
                    <mask id="mask-2" fill="white">
                        <use xlink:href="#path-1"></use>
                    </mask>
                    <g id="Clip-2"></g>
                    <path d="M24.2203718,18.7576769 L3.80121795,3.93962564 C4.91296154,2.79329231 6.46657692,2.07713846 8.18583333,2.07713846 L40.2612436,2.07713846 C41.9805,2.07713846 43.533141,2.79280513 44.6448846,3.93913846 L24.2203718,18.7576769 Z M47.0111154,3.56936923 C47.0013718,3.55377949 46.9945513,3.53721538 46.9843205,3.5226 C46.9692179,3.50262564 46.9511923,3.4870359 46.9356026,3.4680359 C45.4511667,1.37657436 43.0157564,0.00467692308 40.2612436,0.00467692308 L8.18583333,0.00467692308 C5.43375641,0.00467692308 3.00029487,1.37365128 1.51585897,3.46218974 C1.49783333,3.48265128 1.47785897,3.50018974 1.46178205,3.5226 C1.45008974,3.53867692 1.44278205,3.55670256 1.4320641,3.57375385 C0.530294872,4.88913846 -0.000243589744,6.47831795 -0.000243589744,8.19026667 L-0.000243589744,23.3059846 C-0.000243589744,27.8197026 3.67162821,31.4915744 8.18583333,31.4915744 L30.6915769,31.4915744 C31.2640128,31.4915744 31.7278077,31.0277795 31.7278077,30.4553436 C31.7278077,29.8829077 31.2640128,29.4191128 30.6915769,29.4191128 L8.18583333,29.4191128 C4.81455128,29.4191128 2.07221795,26.6767795 2.07221795,23.3059846 L2.07221795,8.19026667 C2.07221795,7.28362564 2.27585897,6.42570256 2.63198718,5.65157436 L23.6118846,20.8769077 C23.7931154,21.0084462 24.0065,21.0742154 24.2203718,21.0742154 C24.4332692,21.0742154 24.647141,21.0084462 24.828859,20.8769077 L45.8146026,5.65108718 C46.1707308,6.42570256 46.3743718,7.28362564 46.3743718,8.19026667 L46.3743718,13.5453436 C46.3743718,14.1177795 46.8381667,14.5815744 47.4106026,14.5815744 C47.9820641,14.5815744 48.4468333,14.1177795 48.4468333,13.5453436 L48.4468333,8.19026667 C48.4468333,6.47636923 47.9153205,4.88572821 47.0111154,3.56936923 L47.0111154,3.56936923 Z" id="Fill-1" fill="#00FF7D" mask="url(#mask-2)"></path>
                </g>
                <g id="Group-6" transform="translate(31.666667, 15.097985)">
                    <mask id="mask-4" fill="white">
                        <use xlink:href="#path-3"></use>
                    </mask>
                    <g id="Clip-5"></g>
                    <path d="M11.4476462,2.31658718 C6.34444103,2.31658718 2.19318462,6.46784359 2.19318462,11.5710487 C2.19318462,16.6737667 6.34444103,20.8250231 11.4476462,20.8250231 C16.5508513,20.8250231 20.7021077,16.6737667 20.7021077,11.5710487 C20.7021077,6.46784359 16.5508513,2.31658718 11.4476462,2.31658718 M11.4476462,22.8974846 C5.20200513,22.8974846 0.120723077,17.8166897 0.120723077,11.5710487 C0.120723077,5.32540769 5.20200513,0.244125641 11.4476462,0.244125641 C17.6932872,0.244125641 22.7745692,5.32540769 22.7745692,11.5710487 C22.7745692,17.8166897 17.6932872,22.8974846 11.4476462,22.8974846" id="Fill-4" fill="#00FF7D" mask="url(#mask-4)"></path>
                </g>
                <path d="M43.1143128,25.1837205 C42.2953641,25.1837205 41.6293897,25.8496949 41.6293897,26.6686436 C41.6293897,27.4875923 42.2953641,28.1535667 43.1143128,28.1535667 C43.9337487,28.1535667 44.5997231,27.4875923 44.5997231,26.6686436 C44.5997231,25.8496949 43.9337487,25.1837205 43.1143128,25.1837205 M43.1143128,30.2260282 C41.1529282,30.2260282 39.5569282,28.6305154 39.5569282,26.6686436 C39.5569282,24.7067718 41.1529282,23.111259 43.1143128,23.111259 C45.0761846,23.111259 46.6721846,24.7067718 46.6721846,26.6686436 C46.6721846,28.6305154 45.0761846,30.2260282 43.1143128,30.2260282" id="Fill-7" fill="#00FF7D"></path>
                <path d="M43.1266385,33.8421179 C42.7661256,33.8421179 42.4022026,33.8153231 42.0363308,33.7622205 C39.0016897,33.3179128 36.5370487,30.8976051 36.0411,27.8756308 C35.6576897,25.5391179 36.388459,23.2493744 38.0458436,21.5939385 C39.7037154,19.9380154 41.9939462,19.2126051 44.3314333,19.5969897 C47.2691256,20.0827077 49.6733564,22.4703744 50.1775872,25.4027077 C50.3242282,26.2547846 50.3232538,27.1102718 50.1736897,27.9438359 C49.9549462,29.1612974 48.8860744,30.0328615 47.5146641,30.1122718 C46.1788179,30.1848615 45.0685359,29.4701692 44.7226385,28.3238359 C44.6412795,28.0563744 44.5993821,27.7723487 44.5993821,27.4819897 L44.5993821,24.1984 C44.5993821,23.6254769 45.0641513,23.1616821 45.6356128,23.1616821 C46.2080487,23.1616821 46.6718436,23.6254769 46.6718436,24.1984 L46.6718436,27.4819897 C46.6718436,27.5677333 46.6840231,27.6490923 46.7069205,27.7231436 C46.8102026,28.0675795 47.3319718,28.0456564 47.3957923,28.0432205 C47.7139205,28.0247077 48.0807667,27.8717333 48.1333821,27.5774769 C48.2405615,26.9816564 48.2415359,26.3692718 48.1348436,25.7549385 C47.7782282,23.6771179 46.0745615,21.9861179 43.9923564,21.6416821 C42.3252282,21.3669128 40.6897667,21.8823487 39.5103051,23.0603487 C38.3313308,24.2378615 37.8124846,25.8708872 38.0862795,27.5404513 C38.4370487,29.6811179 40.1850487,31.3964769 42.3364333,31.7111949 C43.5519462,31.8909641 44.7343308,31.6537077 45.7593564,31.0306051 C46.2479974,30.7329385 46.8862026,30.8883487 47.1828949,31.3765026 C47.4805615,31.8656308 47.3251513,32.5033487 46.8360231,32.8005282 C45.7047923,33.4894 44.4391,33.8421179 43.1266385,33.8421179" id="Fill-9" fill="#00FF7D"></path>
            </g>
        </g>
    </g>
</svg>