<?xml version="1.0" encoding="UTF-8"?>
<svg width="48px" height="36px" viewBox="0 0 48 36" version="1.1" xmlns="http://www.w3.org/2000/svg" xmlns:xlink="http://www.w3.org/1999/xlink">
    <title>invalidez</title>
    <g id="Welcome" stroke="none" stroke-width="1" fill="none" fill-rule="evenodd">
        <g id="Desktop-HD" transform="translate(-627.000000, -377.000000)">
            <g id="invalidez" transform="translate(628.000000, 378.000000)">
                <path d="M43.4110576,1.97527119 C42.2150576,0.649847458 40.7298034,0.000389830508 38.9857017,0.000389830508 L16.4581763,0.000389830508 L11.8316678,0.000389830508 C10.0727525,0.000389830508 8.54617627,0.649847458 7.22075254,1.97527119 L1.97519322,7.24110169 C0.649769492,8.54625424 -0.00046779661,9.98005085 -0.00046779661,11.5066271 L-0.00046779661,22.6830678 C-0.00046779661,24.446661 0.649769492,25.9677797 1.97519322,27.2939831 L6.56505763,31.9048983 C7.89048136,33.2100508 9.41705763,33.8641864 11.1759729,33.8641864 L16.4581763,33.8641864 L18.9281424,33.8641864 C20.6714644,33.8641864 22.2136339,33.2100508 23.5234644,31.9048983 L43.2512271,12.8265932 C44.5766508,11.5066271 45.2268881,9.98005085 45.2268881,8.22113559 L45.2268881,6.58618644 C45.2268881,4.82727119 44.6288881,3.28042373 43.4110576,1.97527119 Z" id="Stroke-1" stroke="#262626" stroke-width="2"></path>
                <path d="M19.4029559,17.5228034 L19.0856339,17.1883288 C18.9803797,17.1064644 18.8743458,17.0651424 18.7690915,17.0651424 L18.5928881,17.0651424 C18.4634644,17.0651424 18.3574305,17.1064644 18.2755661,17.1883288 C18.1937017,17.2717525 18.1523797,17.3770068 18.1523797,17.5056508 L18.1523797,19.8477525 C18.1523797,19.9771763 18.1937017,20.0855492 18.2755661,20.1736508 C18.3574305,20.2617525 18.4634644,20.3061932 18.5928881,20.3061932 L18.7511593,20.3061932 C18.8681085,20.3061932 18.9741424,20.2594136 19.0684814,20.1650746 L19.4029559,19.8306 C19.4848203,19.7479559 19.5261424,19.6427017 19.5261424,19.5140576 L19.5261424,17.8229729 C19.5261424,17.6943288 19.4848203,17.5937525 19.4029559,17.5228034 M16.1439729,14.5639898 L16.1439729,12.468261 C16.1439729,12.3396169 16.1010915,12.2343627 16.0122102,12.150939 C15.9241085,12.0698542 15.8211932,12.0285322 15.7042441,12.0285322 L15.4921763,12.0285322 C15.3877017,12.0285322 15.2816678,12.0698542 15.1756339,12.150939 L14.8590915,12.4854136 C14.7647525,12.5563627 14.7179729,12.656939 14.7179729,12.7855831 L14.7179729,14.2474475 C14.7179729,14.3651763 14.7647525,14.4704305 14.8590915,14.5639898 L15.1756339,14.8805322 C15.258278,14.9631763 15.3635322,15.005278 15.4921763,15.005278 L15.7042441,15.005278 C15.8211932,15.005278 15.9241085,14.9631763 16.0122102,14.8805322 C16.1010915,14.7994475 16.1439729,14.6934136 16.1439729,14.5639898 M21.9041085,17.1002271 L21.9041085,20.2180915 C21.9041085,20.3233458 21.8627864,20.4293797 21.780922,20.5346339 L20.0898373,22.2257186 C19.9838034,22.3075831 19.8785492,22.3489051 19.7732949,22.3489051 L18.5928881,22.3489051 C18.4634644,22.3489051 18.3574305,22.3902271 18.2755661,22.4720915 C18.1937017,22.5547356 18.1523797,22.6599898 18.1523797,22.7886339 L18.1523797,23.8458542 C18.1523797,23.9744983 18.1118373,24.0805322 18.0291932,24.1631763 C17.9465492,24.2450407 17.8412949,24.2863627 17.7126508,24.2863627 L16.585261,24.2863627 C16.4558373,24.2863627 16.3498034,24.2450407 16.267939,24.1631763 C16.1860746,24.0805322 16.1439729,23.9744983 16.1439729,23.8458542 L16.1439729,22.7886339 C16.1439729,22.6599898 16.1010915,22.5547356 16.0122102,22.4720915 C15.9241085,22.3902271 15.8211932,22.3489051 15.7042441,22.3489051 L14.4185831,22.3489051 C14.3133288,22.3489051 14.2072949,22.3075831 14.101261,22.2257186 L12.4460407,20.5697186 C12.3641763,20.4644644 12.3228542,20.3592102 12.3228542,20.2531763 L12.3228542,19.1086339 C12.3228542,18.9916847 12.3641763,18.8879898 12.4460407,18.7998881 C12.5286847,18.7117864 12.6331593,18.6681254 12.7625831,18.6681254 L14.2423797,18.6681254 C14.3718034,18.6681254 14.4778373,18.7117864 14.558922,18.7998881 C14.6415661,18.8879898 14.6821085,18.9916847 14.6821085,19.1086339 L14.6821085,19.5312102 C14.6821085,19.648939 14.7296678,19.7534136 14.8240068,19.8477525 L15.1405492,20.1650746 C15.2341085,20.2594136 15.3401424,20.3061932 15.4570915,20.3061932 L15.7042441,20.3061932 C15.8211932,20.3061932 15.9241085,20.2617525 16.0122102,20.1736508 C16.1010915,20.0855492 16.1439729,19.9771763 16.1439729,19.8477525 L16.1439729,17.5056508 C16.1439729,17.3770068 16.1010915,17.2717525 16.0122102,17.1883288 C15.9241085,17.1064644 15.8211932,17.0651424 15.7042441,17.0651424 L14.4536678,17.0651424 C14.3484136,17.0651424 14.2423797,17.0238203 14.1363458,16.9419559 L12.4811254,15.2859559 C12.399261,15.1807017 12.357939,15.0746678 12.357939,14.9694136 L12.357939,12.0628373 C12.357939,11.9568034 12.399261,11.8523288 12.4811254,11.7462949 L14.1363458,10.1082271 C14.2306847,10.0146678 14.3367186,9.96788814 14.4536678,9.96788814 L15.7042441,9.96788814 C15.8211932,9.96788814 15.9241085,9.9265661 16.0122102,9.84392203 C16.1010915,9.76205763 16.1439729,9.65602373 16.1439729,9.52737966 L16.1439729,8.47015932 C16.1439729,8.34151525 16.1860746,8.23548136 16.267939,8.15283729 C16.3498034,8.07175254 16.4558373,8.02965085 16.585261,8.02965085 L17.7126508,8.02965085 C17.8412949,8.02965085 17.9465492,8.07175254 18.0291932,8.15283729 C18.1118373,8.23548136 18.1523797,8.34151525 18.1523797,8.47015932 L18.1523797,9.52737966 C18.1523797,9.65602373 18.1937017,9.76205763 18.2755661,9.84392203 C18.3574305,9.9265661 18.4634644,9.96788814 18.5928881,9.96788814 L19.667261,9.96788814 C19.7842102,9.96788814 19.8902441,10.0146678 19.9838034,10.1082271 L21.6398034,11.7462949 C21.7216678,11.8523288 21.7629898,11.9568034 21.7629898,12.0628373 L21.7629898,13.2260915 C21.7629898,13.3547356 21.7216678,13.4599898 21.6398034,13.5434136 C21.557939,13.6244983 21.4519051,13.6658203 21.3224814,13.6658203 L19.8434644,13.6658203 C19.713261,13.6658203 19.6056678,13.6244983 19.5167864,13.5434136 C19.4294644,13.4599898 19.3858034,13.3547356 19.3858034,13.2260915 L19.3858034,12.7855831 C19.3858034,12.656939 19.3444814,12.5563627 19.2618373,12.4854136 L18.9452949,12.150939 C18.839261,12.0698542 18.7340068,12.0285322 18.6279729,12.0285322 L18.5928881,12.0285322 C18.4634644,12.0285322 18.3574305,12.0698542 18.2755661,12.150939 C18.1937017,12.2343627 18.1523797,12.3396169 18.1523797,12.468261 L18.1523797,14.5639898 C18.1523797,14.6934136 18.1937017,14.7994475 18.2755661,14.8805322 C18.3574305,14.9631763 18.4634644,15.005278 18.5928881,15.005278 L19.8083797,15.005278 C19.9253288,15.005278 20.0313627,15.051278 20.124922,15.1456169 L21.780922,16.8008373 C21.8627864,16.8834814 21.9041085,16.983278 21.9041085,17.1002271" id="Fill-3" fill="#262626"></path>
            </g>
        </g>
    </g>
</svg>