<?xml version="1.0" encoding="UTF-8"?>
<svg width="20px" height="21px" viewBox="0 0 20 21" version="1.1" xmlns="http://www.w3.org/2000/svg" xmlns:xlink="http://www.w3.org/1999/xlink">
    <title>item-3</title>
    <defs>
        <polygon id="path-1" points="6.89011138e-14 0.463514536 5.99727334 0.463514536 5.99727334 6.46048731 6.89011138e-14 6.46048731"></polygon>
    </defs>
    <g id="Welcome" stroke="none" stroke-width="1" fill="none" fill-rule="evenodd">
        <g id="Desktop-HD" transform="translate(-1064.000000, -104.000000)">
            <g id="item-3" transform="translate(1064.000501, 104.000000)">
                <polygon id="Fill-1" fill="#262626" points="6.66448485 2.25987879 13.3226667 2.26836364 13.3214545 2.93381818 6.66387879 2.92593939"></polygon>
                <g id="Group-17" transform="translate(0.000000, 0.576727)">
                    <path d="M13.1414545,13.0101212 C12.865697,13.0095152 12.6420606,12.7852727 12.6426654,12.5101212 C12.6432727,12.2349697 12.8675152,12.0113333 13.1426654,12.0119382 L15.306303,12.0137576 C15.5820606,12.0143636 15.805697,12.2392121 15.805697,12.5143636 C15.8050909,12.7895152 15.5802424,13.0131515 15.3050909,13.0131515 L13.1414545,13.0101212 Z M15.8032727,14.1792121 C15.8026667,14.4543636 15.5784242,14.678 15.3032727,14.6773952 L14.8038788,14.6767879 L13.1390303,14.6743636 C12.8638788,14.6743636 12.6402424,14.4501212 12.6402424,14.1749697 C12.6408485,13.8992121 12.8650909,13.6755758 13.1408485,13.6761806 L15.3044848,13.6792121 C15.5796364,13.6792121 15.8032727,13.9034545 15.8032727,14.1792121 L15.8032727,14.1792121 Z M14.8014545,16.3410315 L13.8026667,16.3398182 L12.6378182,16.3386061 C12.3620606,16.338 12.1384242,16.1137576 12.1390291,15.8386061 C12.1396364,15.5634545 12.3638788,15.3398182 12.6390291,15.3398182 L13.1384242,15.3404242 L14.8026667,15.3428485 C15.0784242,15.3434545 15.3020606,15.567697 15.3014558,15.8428485 C15.3008485,16.118 15.0766061,16.3416364 14.8014545,16.3410315 L14.8014545,16.3410315 Z M13.8008485,18.0046667 L13.6341818,18.0040606 L11.9693333,18.0022424 L11.6372121,18.0016364 C11.3614545,18.0010303 11.1378182,17.7767879 11.1378182,17.5016364 C11.1384242,17.2264848 11.3626667,17.0028485 11.6384242,17.0028485 L12.6366061,17.0046667 L13.8020606,17.0058788 C14.0772121,17.0064848 14.3014545,17.2307273 14.3008497,17.5058788 C14.3002424,17.7810303 14.076,18.0046667 13.8008485,18.0046667 L13.8008485,18.0046667 Z M16.471152,12.5155758 C16.4717576,11.8725455 15.9499394,11.3495152 15.3075152,11.348303 L14.6414545,11.347697 L14.6475152,6.68648485 L13.9820606,6.68587879 L13.9753939,11.3464848 L13.1432727,11.3458788 C12.5008485,11.3446667 11.9778182,11.8664848 11.9772121,12.5095152 C11.9766061,12.8355758 12.1117576,13.1301212 12.3281212,13.3422424 C12.1111515,13.5531515 11.9753939,13.847697 11.9747879,14.1737576 C11.9741818,14.398 12.0408485,14.6064848 12.1511515,14.7846667 C11.7523636,14.9689091 11.4741818,15.3707273 11.4735758,15.8373939 C11.4729697,16.0167879 11.5166061,16.1846667 11.5893333,16.3367879 L8.97539394,16.3337576 C8.97721212,15.3161818 8.46812121,14.4143636 7.69115152,13.8719394 C8.44387879,13.5858788 8.98024242,12.858 8.98145455,12.0058788 C8.98145455,11.8222424 8.8329697,11.6731515 8.64872727,11.6725455 L5.98569697,11.6689091 L5.98993939,8.34042424 L5.32448485,8.33921212 L5.31963636,11.668303 C4.76933333,11.667697 4.32084848,12.1149697 4.31963636,12.6658788 L4.31054545,19.9901212 L4.976,19.9907273 L4.98569697,12.6670909 C4.98569697,12.4834545 5.13539394,12.3337576 5.3190303,12.3343636 L8.2729697,12.338 C8.12448485,12.9113333 7.60145455,13.3355758 6.98206061,13.3349697 L5.98327273,13.3337576 C5.79963636,13.3331515 5.65054545,13.4822424 5.65054545,13.6658788 C5.64993939,13.8501212 5.79842424,13.9992121 5.98266667,13.9998182 C7.26751515,14.0016364 8.31175758,15.047697 8.30993939,16.3325455 L8.30933333,16.6658788 C8.30933333,16.8495152 8.45781818,16.9986061 8.64206061,16.9992121 L10.5899394,17.0016364 C10.5166061,17.1537576 10.4723636,17.3210303 10.4723636,17.5010303 C10.4717576,18.1434545 10.9935758,18.6664848 11.636,18.667697 L11.6341818,19.9992121 L12.3002424,19.9998182 L12.3014545,18.668303 L13.6335758,18.6701212 L13.7996364,18.6707273 C14.4420606,18.6713333 14.965697,18.1489091 14.966303,17.5064848 C14.9669091,17.3252727 14.9220606,17.1555758 14.8475152,17.0022424 C15.4681212,16.978 15.9669091,16.4695152 15.9675152,15.8434545 C15.9675152,15.6192121 15.9008485,15.4113333 15.7911515,15.2331515 C16.1893333,15.047697 16.4681212,14.6470909 16.4687273,14.1798182 C16.4693333,13.8537576 16.3341818,13.5586061 16.1178182,13.3470909 C16.3347879,13.1355758 16.4705455,12.8416364 16.471152,12.5155758 L16.471152,12.5155758 Z" id="Fill-2" fill="#262626"></path>
                    <path d="M3.96593939,4.50812121 C3.90412121,4.57054545 3.86957576,4.65418182 3.8689697,4.74206061 C3.8689697,5.07236364 3.60412121,5.34084848 3.27927273,5.34024345 L2.43260606,5.33963636 C2.48533333,5.21842424 2.46290909,5.07236364 2.36412121,4.97236364 C2.20957576,4.81478788 2.09806061,4.61660606 2.04230303,4.40266667 C2.35987879,4.53721212 2.70109091,4.60751515 3.05018182,4.60751515 C3.23381818,4.60812121 3.38351515,4.4590303 3.38351515,4.27539394 L3.38412121,3.92569697 C3.38412121,3.78872727 3.49381818,3.67660606 3.62715152,3.67660606 C3.76169697,3.67660606 3.87078788,3.78872727 3.87018182,3.92630303 C3.87018182,4.03054545 3.91866667,4.12872727 4.00169697,4.19236364 L4.15987879,4.31236364 L3.96593939,4.50812121 Z M4.51927273,3.74872727 C4.43684848,3.32933333 4.0689697,3.01115152 3.62836364,3.01054477 C3.13139394,3.00993939 2.72533333,3.41357576 2.71806061,3.9129697 C2.452,3.86569697 2.19806061,3.76327273 1.97078788,3.60993939 L1.8550303,3.53175758 C1.75321212,3.46206061 1.62109091,3.45478788 1.51260606,3.5129697 C1.40351515,3.57054545 1.33563636,3.68387879 1.33563636,3.80690909 L1.3350303,4.07963636 C1.33442424,4.48084848 1.4550303,4.86387879 1.67866667,5.18509091 L1.42957576,5.43660606 C1.3350303,5.53175758 1.30715152,5.67539394 1.35866667,5.7990303 C1.41018182,5.92327273 1.53078788,6.00448485 1.66533333,6.00448485 L3.27866667,6.00630527 C3.92169697,6.00751515 4.45442424,5.51721212 4.52654545,4.88812121 L4.90048485,4.51115152 C4.96775758,4.44387879 5.00230303,4.34933333 4.99563636,4.25357576 C4.9889697,4.15842424 4.94169697,4.06993939 4.86533333,4.01236364 L4.51927273,3.74872727 Z" id="Fill-4" fill="#FFFFFF"></path>
                    <path d="M9.65606061,5.34854545 L9.65484848,6.34733333 L8.98878788,6.34612121 L8.98757576,7.01218182 L9.65363636,7.01339394 L9.65181818,8.34490909 L10.3178788,8.34551515 L10.319697,7.014 L10.9851515,7.01521212 L10.9863636,6.34915152 L10.320303,6.34793939 L10.3215152,5.68248485 L10.9869697,5.68369697 L10.9881818,5.01763636 L9.98939394,5.0164224 C9.80515152,5.01581818 9.65606061,5.16490909 9.65606061,5.34854545" id="Fill-6" fill="#FFFFFF"></path>
                    <path d="M7.65406061,8.67533333 L7.65951515,4.68018182 C7.65951515,4.49654545 7.80921212,4.34745455 7.99284848,4.34745455 L11.9873939,4.35290909 C12.1710303,4.35351515 12.3201212,4.50260606 12.3201212,4.68624242 L12.3146667,8.68139394 C12.3146667,8.86442424 12.1649697,9.01412121 11.9813333,9.01412121 L7.98678788,9.00866667 C7.80315152,9.00866667 7.65406061,8.8589697 7.65406061,8.67533333 M12.9807273,8.68260606 L12.9855764,4.68745455 C12.9861818,4.13654545 12.5395152,3.68806061 11.9886061,3.68745455 L7.99345455,3.68199938 C7.44254545,3.68139394 6.99406061,4.12866667 6.99345455,4.67957576 L6.98799939,8.67412121 C6.98739394,9.2250303 7.43527273,9.67351515 7.98557576,9.67412121 L11.9807273,9.67957637 C12.5310303,9.68018182 12.9801212,9.23290909 12.9807273,8.68260606" id="Fill-8" fill="#FFFFFF"></path>
                    <g id="Group-12" transform="translate(0.000000, 1.212121)">
                        <mask id="mask-2" fill="white">
                            <use xlink:href="#path-1"></use>
                        </mask>
                        <g id="Clip-11"></g>
                        <path d="M0.665757576,5.45684848 L0.671212121,1.46169697 C0.671212121,1.27806061 0.820909091,1.1289697 1.00454545,1.1289697 L4.99909091,1.13442424 C5.18272727,1.13442424 5.33181818,1.28412121 5.33181818,1.46775758 L5.32636364,5.46290909 C5.32636364,5.64593939 5.17666667,5.79563636 4.9930303,5.79563636 L0.998484848,5.79018182 C0.814848485,5.78957576 0.665757576,5.64048485 0.665757576,5.45684848 M5.99242424,5.46351454 L5.99727334,1.4689697 C5.99787879,0.918060606 5.55060606,0.469575758 4.99969636,0.468969697 L1.00515152,0.463514536 C0.454242424,0.462909091 0.00575757576,0.910181818 0.00515151515,1.46048485 L-0.00030364466,5.45563636 C-0.000909090909,6.00654545 0.446969697,6.45442424 0.997272727,6.45563636 L4.99242424,6.46048731 C5.54272727,6.46169697 5.99181818,6.01442424 5.99242424,5.46351454" id="Fill-10" fill="#FFFFFF" mask="url(#mask-2)"></path>
                    </g>
                    <path d="M18.9771515,5.3609697 L14.9826061,5.35551515 C14.7983636,5.35551515 14.6492727,5.20581818 14.6498769,5.02218182 L14.652303,3.35793939 L15.351697,3.35854545 C15.5050303,4.11793939 16.1765455,4.69187879 16.9807879,4.69248485 C17.7844242,4.69309091 18.4577576,4.12157576 18.6129091,3.36278788 L19.3129091,3.364 L19.3104848,5.02824242 C19.3104848,5.21187879 19.1607879,5.3609697 18.9771515,5.3609697 M17.9813946,3.02884848 C17.9807879,3.58036364 17.532303,4.02763636 16.9813939,4.02703092 C16.4304848,4.02581818 15.9832121,3.57793939 15.9844218,3.02642424 C15.9850303,2.47612121 16.4335152,2.02884848 16.9838182,2.02945393 C17.5347273,2.03006061 17.982,2.47854545 17.9813946,3.02884848 M14.9880606,0.69551331 L18.9832121,0.700363636 C19.1668485,0.700969697 19.3159394,0.850666667 19.3159394,1.03369697 L19.3135152,2.69793939 L18.6141212,2.69672727 C18.4601818,1.93854545 17.7886667,1.36460606 16.9850303,1.36339394 C16.1813939,1.36218182 15.5080606,1.93490909 15.352303,2.69309091 L14.6529091,2.69248485 L14.6553333,1.02763636 C14.6553333,0.844 14.8050303,0.694909091 14.9880606,0.69551331 M18.9844242,0.0343030303 L14.9892727,0.0294520876 C14.4383636,0.0282424242 13.9898788,0.475515152 13.9892727,1.0270303 L13.9838176,5.02157576 C13.9832121,5.57248485 14.4310909,6.0209697 14.9813939,6.02157576 L18.9765455,6.02703092 C19.5268485,6.02763636 19.9753333,5.57975758 19.9759394,5.02945209 L19.9813946,1.03430303 C19.982,0.484 19.5347273,0.0355151515 18.9844242,0.0343030303" id="Fill-13" fill="#FFFFFF"></path>
                    <polygon id="Fill-15" fill="#262626" points="9.64509091 13.6712121 10.3111515 13.6724242 10.3099394 14.3384848 9.64448485 14.3372727"></polygon>
                </g>
            </g>
        </g>
    </g>
</svg>