<?xml version="1.0" encoding="UTF-8"?>
<svg width="20px" height="22px" viewBox="0 0 20 22" version="1.1" xmlns="http://www.w3.org/2000/svg" xmlns:xlink="http://www.w3.org/1999/xlink">
    <title>item-2</title>
    <defs>
        <polygon id="path-1" points="0 0.0196 19.3366667 0.0196 19.3366667 20.6666667 0 20.6666667"></polygon>
    </defs>
    <g id="Welcome" stroke="none" stroke-width="1" fill="none" fill-rule="evenodd">
        <g id="Desktop-HD" transform="translate(-1010.000000, -146.000000)">
            <g id="item-2" transform="translate(1010.000000, 146.000000)">
                <g id="Group-3" transform="translate(0.000000, 0.647133)">
                    <mask id="mask-2" fill="white">
                        <use xlink:href="#path-1"></use>
                    </mask>
                    <g id="Clip-2"></g>
                    <path d="M18.3534667,9.6876 C18.3534667,10.1402667 17.9868,10.5069333 17.5341333,10.5069333 C17.0814667,10.5069333 16.7148,10.1402667 16.7148,9.6876 L16.7148,3.62426667 L18.3534667,3.62426667 L18.3534667,9.6876 Z M14.0928,10.5069333 L14.0928,1.8216 C14.0928,1.36893333 14.4594667,1.00293333 14.9121333,1.00293333 C15.3648,1.00293333 15.7314667,1.36893333 15.7314667,1.8216 L15.7314667,9.6876 C15.7308,9.97293333 15.7988,10.2536 15.9288,10.5069333 L14.0928,10.5069333 Z M13.1094667,18.9882667 L12.6381333,18.5162667 C12.4461333,18.3242667 12.1348,18.3242667 11.9428,18.5162667 L10.9168,19.5422667 L9.28546667,18.4549333 C9.12013333,18.3449333 8.90546667,18.3449333 8.74013333,18.4549333 L7.0468,19.5842667 L5.3528,18.4549333 C5.18746667,18.3449333 4.9728,18.3449333 4.80746667,18.4549333 L3.17613333,19.5422667 L2.15013333,18.5162667 C1.95813333,18.3242667 1.64746667,18.3242667 1.45546667,18.5162667 L0.983466667,18.9882667 L0.983466667,1.8216 C0.984133333,1.3696 1.3508,1.0036 1.8028,1.00293333 L13.3068,1.00293333 C13.1768,1.25626667 13.1094667,1.53693333 13.1094667,1.8216 L13.1094667,18.9882667 Z M18.8448,2.6416 L16.7148,2.6416 L16.7148,1.8216 C16.7134667,0.826933333 15.9074667,0.0202666667 14.9121333,0.0196 L1.8028,0.0196 C0.807466667,0.0202666667 0.00146666667,0.826933333 0.000133333333,1.8216 L0.000133333333,20.1749333 C-0.0138666667,20.5996 0.549466667,20.8336 0.839466667,20.5229333 L1.8028,19.5596 L2.76613333,20.5229333 C2.93213333,20.6882667 3.19146667,20.7142667 3.38613333,20.5842667 L5.08013333,19.4549333 L6.77413333,20.5842667 C6.9388,20.6942667 7.15413333,20.6942667 7.31946667,20.5842667 L9.0128,19.4549333 L10.7068,20.5842667 C10.9014667,20.7142667 11.1614667,20.6882667 11.3268,20.5229333 L12.2901333,19.5596 L13.2534667,20.5229333 C13.5454667,20.8336 14.1061333,20.5996 14.0928,20.1749333 L14.0928,11.4902667 L17.5341333,11.4902667 C18.5294667,11.4889333 19.3354667,10.6829333 19.3368,9.6876 L19.3368,3.13293333 C19.3368,2.8616 19.1168,2.6416 18.8448,2.6416 L18.8448,2.6416 Z" id="Fill-1" fill="#262626" mask="url(#mask-2)"></path>
                </g>
                <path d="M6.3912,4.9272 L8.02986667,4.9272 C8.3012,4.9272 8.5212,5.1472 8.5212,5.41853333 C8.5212,5.69053333 8.7412,5.91053333 9.0132,5.91053333 C9.28453333,5.91053333 9.50453333,5.69053333 9.50453333,5.41853333 C9.5032,4.60453333 8.84386667,3.94453333 8.02986667,3.94386667 L7.53786667,3.94386667 L7.53786667,3.12453333 C7.53786667,2.8532 7.31786667,2.6332 7.04653333,2.6332 C6.7752,2.6332 6.5552,2.8532 6.5552,3.12453333 L6.5552,3.94386667 L6.3912,3.94386667 C5.3952,3.94386667 4.58853333,4.75053333 4.58853333,5.74653333 C4.58853333,6.74253333 5.3952,7.5492 6.3912,7.5492 L7.70186667,7.5492 C8.15453333,7.5492 8.5212,7.91586667 8.5212,8.36853333 C8.5212,8.8212 8.15453333,9.18786667 7.70186667,9.18786667 L6.0632,9.18786667 C5.79186667,9.18786667 5.57186667,8.96786667 5.57186667,8.69586667 C5.57186667,8.42453333 5.3512,8.20453333 5.07986667,8.20453333 C4.80853333,8.20453333 4.58853333,8.42453333 4.58853333,8.69586667 C4.5892,9.51053333 5.2492,10.1698667 6.0632,10.1705333 L6.5552,10.1705333 L6.5552,10.9905333 C6.5552,11.2618667 6.7752,11.4818667 7.04653333,11.4818667 C7.31786667,11.4818667 7.53786667,11.2618667 7.53786667,10.9905333 L7.53786667,10.1705333 L7.70186667,10.1705333 C8.6972,10.1705333 9.50453333,9.36386667 9.50453333,8.36853333 C9.50453333,7.37253333 8.6972,6.56586667 7.70186667,6.56586667 L6.3912,6.56586667 C5.93853333,6.56586667 5.57186667,6.1992 5.57186667,5.74653333 C5.57186667,5.29386667 5.93853333,4.9272 6.3912,4.9272" id="Fill-4" fill="#FFFFFF"></path>
                <path d="M2.45826667,13.1205333 C2.18693333,13.1205333 1.96693333,13.3405333 1.96693333,13.6118667 L1.96693333,16.2338667 C1.96693333,16.5052 2.18693333,16.7252 2.45826667,16.7252 C2.7296,16.7252 2.9496,16.5052 2.9496,16.2338667 L2.9496,13.6118667 C2.9496,13.3405333 2.7296,13.1205333 2.45826667,13.1205333" id="Fill-6" fill="#FFFFFF"></path>
                <path d="M3.76913333,13.1205333 C3.4978,13.1205333 3.2778,13.3405333 3.2778,13.6118667 L3.2778,16.2338667 C3.2778,16.5052 3.4978,16.7252 3.76913333,16.7252 C4.04046667,16.7252 4.26046667,16.5052 4.26046667,16.2338667 L4.26046667,13.6118667 C4.26046667,13.3405333 4.04046667,13.1205333 3.76913333,13.1205333" id="Fill-8" fill="#FFFFFF"></path>
                <path d="M5.7356,13.1205333 C5.46426667,13.1205333 5.24426667,13.3405333 5.24426667,13.6118667 L5.24426667,16.2338667 C5.24426667,16.5052 5.46426667,16.7252 5.7356,16.7252 C6.00693333,16.7252 6.22693333,16.5052 6.22693333,16.2338667 L6.22693333,13.6118667 C6.22693333,13.3405333 6.00693333,13.1205333 5.7356,13.1205333" id="Fill-10" fill="#FFFFFF"></path>
                <path d="M7.04646667,13.1205333 C6.77513333,13.1205333 6.55513333,13.3405333 6.55513333,13.6118667 L6.55513333,16.2338667 C6.55513333,16.5052 6.77513333,16.7252 7.04646667,16.7252 C7.3178,16.7252 7.5378,16.5052 7.5378,16.2338667 L7.5378,13.6118667 C7.5378,13.3405333 7.3178,13.1205333 7.04646667,13.1205333" id="Fill-12" fill="#FFFFFF"></path>
                <path d="M8.35733333,13.1205333 C8.086,13.1205333 7.866,13.3405333 7.866,13.6118667 L7.866,16.2338667 C7.866,16.5052 8.086,16.7252 8.35733333,16.7252 C8.62866667,16.7252 8.84933333,16.5052 8.84933333,16.2338667 L8.84933333,13.6118667 C8.84933333,13.3405333 8.62866667,13.1205333 8.35733333,13.1205333" id="Fill-14" fill="#FFFFFF"></path>
                <path d="M10.3238,13.1205333 C10.0524667,13.1205333 9.83246667,13.3405333 9.83246667,13.6118667 L9.83246667,16.2338667 C9.83246667,16.5052 10.0524667,16.7252 10.3238,16.7252 C10.5951333,16.7252 10.8151333,16.5052 10.8151333,16.2338667 L10.8151333,13.6118667 C10.8151333,13.3405333 10.5951333,13.1205333 10.3238,13.1205333" id="Fill-16" fill="#FFFFFF"></path>
                <path d="M11.6346667,13.1205333 C11.3633333,13.1205333 11.1433333,13.3405333 11.1433333,13.6118667 L11.1433333,16.2338667 C11.1433333,16.5052 11.3633333,16.7252 11.6346667,16.7252 C11.906,16.7252 12.126,16.5052 12.126,16.2338667 L12.126,13.6118667 C12.126,13.3405333 11.906,13.1205333 11.6346667,13.1205333" id="Fill-18" fill="#FFFFFF"></path>
            </g>
        </g>
    </g>
</svg>