<?xml version="1.0" encoding="UTF-8"?>
<svg width="20px" height="24px" viewBox="0 0 20 24" version="1.1" xmlns="http://www.w3.org/2000/svg" xmlns:xlink="http://www.w3.org/1999/xlink">
    <title>item-1</title>
    <defs>
        <polygon id="path-1" points="0 23.9999333 20 23.9999333 20 -6.66666667e-05 0 -6.66666667e-05"></polygon>
    </defs>
    <g id="Welcome" stroke="none" stroke-width="1" fill="none" fill-rule="evenodd">
        <g id="Desktop-HD" transform="translate(-1010.000000, -104.000000)">
            <g id="item-1" transform="translate(1010.000000, 104.000000)">
                <path d="M16,16.5 L16,19.5 C16,19.23 15.78,19 15.5,19 L15,19 L15,16.5 C15,16.23 15.22,16 15.5,16 C15.78,16 16,16.23 16,16.5" id="Fill-1" fill="#262626"></path>
                <path d="M15.5,19 C15.78,19 16,19.23 16,19.5 C16,19.78 15.78,20 15.5,20 L15,20 L15,19 L15.5,19 Z" id="Fill-3" fill="#262626"></path>
                <mask id="mask-2" fill="white">
                    <use xlink:href="#path-1"></use>
                </mask>
                <g id="Clip-6"></g>
                <polygon id="Fill-5" fill="#262626" mask="url(#mask-2)" points="1 19.9999333 15 19.9999333 15 18.9999333 1 18.9999333"></polygon>
                <path d="M19.5,8 L11.71,8 L12.85,6.86 C13.05,6.65933333 13.05,6.34933333 12.85,6.15 C12.66,5.96 12.34,5.96 12.15,6.15 L10.15,8.15 C9.95,8.34933333 9.95,8.65933333 10.15,8.86 L12.15,10.86 C12.24,10.95 12.37,11 12.5,11 C12.63,11 12.76,10.95 12.85,10.86 C13.05,10.6593333 13.05,10.34 12.85,10.15 L11.71,9 L19.5,9 C19.78,9 20,8.78 20,8.5 C20,8.23 19.78,8 19.5,8" id="Fill-7" fill="#FFFFFF" mask="url(#mask-2)"></path>
                <path d="M1,19 L1,20 L0.5,20 C0.22,20 0,19.78 0,19.5 C0,19.23 0.22,19 0.5,19 L1,19 Z" id="Fill-8" fill="#262626" mask="url(#mask-2)"></path>
                <path d="M13.5,1 L2.5,1 C1.67,1 1,1.68 1,2.5 L1,19 L0.5,19 C0.22,19 0,19.23 0,19.5 L0,2.5 C0,1.12933333 1.12,-4.73695157e-15 2.5,-4.73695157e-15 L13.5,-4.73695157e-15 C14.88,-4.73695157e-15 16,1.12933333 16,2.5 L16,5.5 C16,5.78 15.78,6 15.5,6 C15.22,6 15,5.78 15,5.5 L15,2.5 C15,1.68 14.33,1 13.5,1" id="Fill-9" fill="#262626" mask="url(#mask-2)"></path>
                <path d="M19.8499333,13.1497333 L17.8499333,11.1497333 C17.6599333,10.9604 17.3399333,10.9604 17.1499333,11.1497333 C16.9499333,11.3497333 16.9499333,11.6597333 17.1499333,11.8597333 L18.2899333,12.9997333 L10.4999333,12.9997333 C10.2199333,12.9997333 9.99993333,13.2297333 9.99993333,13.4997333 C9.99993333,13.7797333 10.2199333,13.9997333 10.4999333,13.9997333 L18.2899333,13.9997333 L17.1499333,15.1497333 C16.9999333,15.3004 16.9599333,15.5097333 17.0399333,15.6897333 C17.0599333,15.7497333 17.0999333,15.8097333 17.1499333,15.8597333 C17.2399333,15.9497333 17.3699333,15.9997333 17.4999333,15.9997333 C17.6299333,15.9997333 17.7599333,15.9497333 17.8499333,15.8597333 L19.8499333,13.8597333 C20.0499333,13.6597333 20.0499333,13.3497333 19.8499333,13.1497333" id="Fill-10" fill="#FFFFFF" mask="url(#mask-2)"></path>
                <path d="M13.5,24 L2.5,24 C1.12,24 0,22.8793333 0,21.5 L0,19.5 C0,19.78 0.22,20 0.5,20 L1,20 L1,21.5 C1,22.3293333 1.67,23 2.5,23 L13.5,23 C14.33,23 15,22.3293333 15,21.5 L15,20 L15.5,20 C15.78,20 16,19.78 16,19.5 L16,21.5 C16,22.8793333 14.88,24 13.5,24" id="Fill-11" fill="#262626" mask="url(#mask-2)"></path>
            </g>
        </g>
    </g>
</svg>