<?xml version="1.0" encoding="UTF-8"?>
<svg width="20px" height="21px" viewBox="0 0 20 21" version="1.1" xmlns="http://www.w3.org/2000/svg" xmlns:xlink="http://www.w3.org/1999/xlink">
    <title>item-4</title>
    <defs>
        <polygon id="path-1" points="0 0.158071429 6.66664286 0.158071429 6.66664286 12.1426777 0 12.1426777"></polygon>
    </defs>
    <g id="Welcome" stroke="none" stroke-width="1" fill="none" fill-rule="evenodd">
        <g id="Desktop-HD" transform="translate(-1064.000000, -154.000000)">
            <g id="item-4" transform="translate(1064.000000, 154.000000)">
                <g id="Group-3" transform="translate(0.000000, 7.998357)">
                    <mask id="mask-2" fill="white">
                        <use xlink:href="#path-1"></use>
                    </mask>
                    <g id="Clip-2"></g>
                    <path d="M2.8645,12.1423571 C1.96592857,12.1323571 1.24378571,11.8680714 0.736642857,11.3502143 C-1.07907143,9.49307143 0.545214286,4.89092857 4.68592857,0.158071429 L5.19307143,0.601642857 C1.41807143,4.91664286 -0.2905,9.3345 1.21878571,10.8787857 C2.09021429,11.7702143 3.97378571,11.6445 6.38521429,10.5345 L6.66664286,11.1466429 C5.20021429,11.8216429 3.91164286,12.1545 2.8645,12.1423571" id="Fill-1" fill="#FFFFFF" mask="url(#mask-2)"></path>
                </g>
                <path d="M9.91871429,19.8847143 C6.61157143,19.8475714 3.43942857,18.1561429 1.608,15.2604286 L2.17728571,14.9004286 C4.393,18.4032857 8.71085714,20.0154286 12.6801429,18.8225714 C15.0522857,18.1097143 17.0037143,16.5154286 18.1758571,14.334 C19.3487143,12.154 19.6015714,9.64685714 18.8894286,7.27614286 C18.1765714,4.90471429 16.583,2.95328571 14.4015714,1.77971429 C12.2215714,0.607571429 9.71442857,0.354 7.343,1.06685714 C2.44728571,2.539 -0.337714286,7.719 1.13371429,12.6132857 L0.488714286,12.8075714 C-1.08985714,7.55685714 1.898,2.00042857 7.14871429,0.421857143 C12.4008571,-1.156 17.9551429,1.83114286 19.5337143,7.08185714 C20.2987143,9.62542857 20.0272857,12.314 18.7694286,14.654 C17.5108571,16.9925714 15.418,18.7025714 12.8744286,19.4668571 C11.898,19.7611429 10.9015714,19.8961429 9.91871429,19.8847143" id="Fill-4" fill="#262626"></path>
                <path d="M7.05671429,5.67785714 L4.04028571,4.29642857 C3.93957143,4.25 3.86814286,4.15714286 3.84885714,4.04785714 C3.82957143,3.93857143 3.866,3.82642857 3.94528571,3.74928571 L4.62671429,3.08285714 C4.71528571,2.99642857 4.84457143,2.96571429 4.96242857,3.00285714 L8.31885714,4.05142857 L8.11814286,4.69428571 L4.95385714,3.705 L4.76671429,3.88785714 L7.33742857,5.06571429 L7.05671429,5.67785714 Z" id="Fill-6" fill="#FFFFFF"></path>
                <path d="M4.69414286,6.62371429 L5.99985714,7.42728571 C6.047,7.45585714 6.08557143,7.49657143 6.11342857,7.54371429 L6.88771429,8.86728571 L7.12342857,8.63585714 L6.84628571,7.47085714 C6.81914286,7.35442857 6.85414286,7.23371429 6.93985714,7.15014286 L10.0055714,4.18371429 C10.2998571,3.88228571 10.4941429,3.498 10.5648571,3.083 C10.1412857,3.15157143 9.74914286,3.34728571 9.43557143,3.65442857 L6.41057143,6.61157143 C6.32557143,6.69442857 6.20414286,6.72657143 6.08985714,6.69657143 L4.93057143,6.393 L4.69414286,6.62371429 Z M6.81057143,9.74658259 C6.797,9.74658259 6.78342857,9.74585714 6.76985714,9.74371429 C6.667,9.73014286 6.57628571,9.66942857 6.52414286,9.58014286 L5.57485714,7.95657143 L3.97342857,6.97085714 C3.88557143,6.91728571 3.827,6.82442857 3.81557143,6.72228571 C3.80342857,6.61871429 3.84057143,6.51657143 3.91485714,6.44371429 L4.59628571,5.77728571 C4.68128571,5.69514286 4.80271429,5.663 4.917,5.693 L6.07628571,5.99657143 L8.96485714,3.173 C9.49485714,2.65442857 10.1955714,2.37442857 10.9362857,2.383 L10.937,2.383 C11.1227143,2.38442857 11.272,2.53728571 11.2698799,2.723 C11.262,3.47085714 10.982,4.14871429 10.4812857,4.66157143 L7.547,7.50157143 L7.82342857,8.66585714 C7.85128571,8.78157143 7.81628571,8.90157143 7.73128571,8.98514286 L7.05057143,9.65085714 C6.98557143,9.71371429 6.89914286,9.74728571 6.81057143,9.74658259 L6.81057143,9.74658259 Z" id="Fill-8" fill="#FFFFFF"></path>
                <path d="M9.465,9.77665625 C9.44,9.77665625 9.41571429,9.77307143 9.39142857,9.76735714 C9.28642857,9.74307143 9.19928571,9.6695 9.15785714,9.5695 L7.885,6.52307143 L8.50714286,6.26378571 L9.6,8.88164286 L9.80714286,8.70307143 L8.89357143,5.48664286 L9.54142857,5.30235714 L10.5135714,8.72592857 C10.5492857,8.85235714 10.5092857,8.98807143 10.41,9.07378571 L9.68857143,9.69521429 C9.62642857,9.7495 9.54642857,9.77735714 9.465,9.77665625" id="Fill-10" fill="#FFFFFF"></path>
                <path d="M13.4748571,16.2226429 L14.6827143,16.2362143 L15.8455714,15.0997857 L15.8591429,13.8912143 C15.8598571,13.8255 15.8805714,13.7605 15.9177143,13.7055 L16.9334286,12.2197857 L16.2148571,12.2112143 C16.0877143,12.2097857 15.972,12.1362143 15.9155714,12.0212143 L15.0191429,10.1762143 L12.1955714,10.1440714 L12.1727143,12.1655 L13.1834286,12.1769286 C13.3698571,12.1790714 13.5184286,12.3312143 13.5162857,12.5176429 L13.4748571,16.2226429 Z M14.8141429,16.9112572 L13.1305714,16.8919286 C12.9441429,16.8905 12.7955714,16.7383571 12.7977143,16.5519286 L12.8391429,12.8462143 L11.8291429,12.8355 C11.6427143,12.8333571 11.4941429,12.6812143 11.4955612,12.4940714 L11.5262857,9.79978571 C11.5284286,9.61407143 11.6805714,9.46478571 11.867,9.46690579 L15.2348571,9.5055 C15.3627143,9.50692857 15.4784286,9.57978571 15.5348571,9.69478571 L16.4312857,11.5397857 L17.5705714,11.5526429 C17.6948571,11.5540714 17.8084286,11.6240714 17.8655714,11.7340714 C17.9234286,11.8440714 17.9148571,11.9769286 17.8448571,12.0790714 L16.532,14.0012143 L16.5184286,15.2462143 C16.517,15.3355 16.4805714,15.4205 16.417,15.4833571 L15.0541429,16.8147857 C14.9898571,16.8783571 14.9034286,16.9126429 14.8141429,16.9112572 L14.8141429,16.9112572 Z" id="Fill-12" fill="#262626"></path>
                <path d="M19.277,9.55064286 L17.9298571,9.53564286 C17.8091429,9.53421429 17.6984286,9.4685 17.6398571,9.36207143 L16.4141429,7.15992857 L14.7684286,7.14207143 L14.1855714,7.99564286 C14.1212857,8.0885 14.0155714,8.1435 13.9034286,8.14207143 L12.5555714,8.12778571 C12.3698571,8.12492857 12.2205714,7.97278571 12.2226915,7.78635714 L12.2498571,5.4285 C12.252,5.2435 12.4034286,5.09421429 12.5898571,5.09635714 L14.4712857,5.11707143 L15.7348571,3.88207143 C15.7984286,3.82064286 15.8841429,3.78564286 15.9734286,3.78702934 L17.6577143,3.80564286 L17.6505714,4.47921429 L16.1055714,4.46207143 L14.8427143,5.69635714 C14.7784286,5.7585 14.6934286,5.7935 14.6034286,5.79207143 L12.9191429,5.7735 L12.9005714,7.45707143 L13.7305714,7.46707143 L14.3141429,6.61278571 C14.3777143,6.51992857 14.4834286,6.46492857 14.5955714,6.46635714 L16.617,6.48921429 C16.737,6.49064286 16.8484286,6.55635714 16.9077143,6.66207143 L18.1327143,8.86421429 L19.2848571,8.87778571 L19.277,9.55064286 Z" id="Fill-14" fill="#262626"></path>
                <path d="M5.42164286,13.4366429 L6.76878571,13.4516429 C6.9545,13.4537857 7.10378571,13.6059286 7.10164286,13.7923571 L7.06735714,16.8237857 L7.74664286,16.3259286 L7.75664286,15.4837857 C7.75807143,15.3816429 7.80521429,15.2859286 7.88592857,15.2223571 L9.45735714,13.9937857 L9.47092857,12.8087857 L7.78735714,12.7895 C7.69807143,12.7887857 7.61235714,12.7523571 7.5495,12.6880714 L6.64807143,11.7659286 L5.44021429,11.7523571 L5.42164286,13.4366429 Z M6.7195,17.8302316 C6.66807143,17.8295 6.61592857,17.8173571 6.56878571,17.7937857 C6.45592857,17.7352143 6.38521429,17.6180714 6.38664286,17.4902143 L6.4245,14.1216429 L5.07735714,14.1059286 C4.89092857,14.1045 4.74164286,13.9523571 4.74376293,13.7659286 L4.77092857,11.4080714 C4.77307143,11.2216429 4.92521429,11.0723571 5.11092857,11.0744772 L6.79521429,11.0945 C6.8845,11.0952143 6.97021429,11.1309286 7.03235714,11.1952143 L7.93378571,12.1173571 L9.81521429,12.1387857 C10.0016429,12.1409286 10.1509286,12.2930714 10.1488085,12.4795 L10.1295,14.1637857 C10.1280714,14.2659286 10.0809286,14.3623571 10.0002143,14.4252143 L8.42807143,15.6537857 L8.41878571,16.5023571 C8.41735714,16.6073571 8.36664286,16.7073571 8.28092857,16.7702143 L6.92235714,17.7659286 C6.86235714,17.8095 6.79092857,17.8309286 6.7195,17.8302316 L6.7195,17.8302316 Z" id="Fill-16" fill="#262626"></path>
                <path d="M1.75471429,10.0263799 L0.407571429,10.0113571 L0.415428571,9.33707143 L1.42542857,9.34921429 L1.43685714,8.3385 C1.43757143,8.24921429 1.474,8.16421429 1.53828571,8.10135714 L2.37185714,7.28635714 L1.60971429,5.98207143 L1.46328571,5.98064286 L1.47114286,5.30707143 L1.80828571,5.31064286 C1.92614286,5.31207143 2.03542857,5.37492857 2.09471429,5.47778571 L3.08614286,7.17278571 C3.164,7.30635714 3.14114286,7.47564286 3.03114286,7.58421429 L2.109,8.48564286 L2.09542857,9.6935 C2.09328571,9.87921429 1.94042857,10.0285 1.75471429,10.0263799" id="Fill-18" fill="#262626"></path>
                <path d="M8.49121429,2.37221429 C8.43978571,2.37221429 8.38764286,2.36007143 8.3405,2.3365 L6.31907143,1.3265 L6.6205,0.723642857 L8.46692857,1.6465 L9.31478571,1.0815 C9.34692857,1.06078571 9.38264286,1.04507143 9.41978571,1.03507143 L10.5126429,0.762214286 L10.5126429,0.3515 L11.1862143,0.3515 L11.1862143,1.02435714 C11.1862143,1.17935714 11.0805,1.31435714 10.9312143,1.3515 L9.63978571,1.67364286 L8.67764286,2.31578571 C8.62121429,2.35364286 8.55621429,2.37221429 8.49121429,2.37221429" id="Fill-20" fill="#262626"></path>
            </g>
        </g>
    </g>
</svg>