<?xml version="1.0" encoding="UTF-8"?>
<svg width="24px" height="24px" viewBox="0 0 24 24" version="1.1" xmlns="http://www.w3.org/2000/svg" xmlns:xlink="http://www.w3.org/1999/xlink">
    <!-- Generator: Sketch 58 (84663) - https://sketch.com -->
    <title>login-lock</title>
    <desc>Created with Sketch.</desc>
    <g id="Welcome" stroke="none" stroke-width="1" fill="none" fill-rule="evenodd">
        <g id="Desktop-HD" transform="translate(-337.000000, -48.000000)" fill="#9B9B9B" fill-rule="nonzero">
            <g id="login-lock" transform="translate(337.000000, 48.000000)">
                <path d="M14.512,15.48 L8.712,15.48 C7.91098727,15.48 7.26040117,14.8330006 7.256,14.032 L7.256,10.16 C7.26040117,9.35899936 7.91098727,8.71198791 8.712,8.712 L14.512,8.712 C14.9022858,8.70341483 15.2796715,8.85191627 15.5594468,9.1241707 C15.8392221,9.39642513 15.9979495,9.76962521 16,10.16 L16,14.032 C15.9955988,14.8330006 15.3450127,15.48 14.544,15.48 L14.512,15.48 Z M8.712,9.68 C8.58331567,9.67785496 8.45916047,9.7274777 8.36740529,9.81772871 C8.2756501,9.90797971 8.224,10.0312978 8.224,10.16 L8.224,14.032 C8.224,14.1607022 8.2756501,14.2840203 8.36740529,14.3742713 C8.45916047,14.4645223 8.58331567,14.514145 8.712,14.512 L14.512,14.512 C14.6406843,14.514145 14.7648395,14.4645223 14.8565947,14.3742713 C14.9483499,14.2840203 15,14.1607022 15,14.032 L15,10.16 C15,10.0312978 14.9483499,9.90797971 14.8565947,9.81772871 C14.7648395,9.7274777 14.6406843,9.67785496 14.512,9.68 L8.712,9.68 Z" id="Shape"></path>
                <path d="M0.744,14.5120122 C0.517703095,14.5136027 0.32102655,14.3569282 0.272,14.136 C0.0868188803,13.3061998 -0.00442155251,12.4582005 -0.000153296296,11.608 C0.00881330993,5.20073277 5.20073277,0.00881330993 11.608,-7.04232674e-05 C15.2155087,-0.0126145785 18.6194254,1.67008751 20.8,4.544 C20.9057506,4.68690624 20.9272287,4.87537433 20.8563435,5.03841017 C20.7854584,5.20144601 20.6329793,5.31428057 20.4563435,5.33441017 C20.2797078,5.35453977 20.1057506,5.27890624 20,5.136 C17.2147489,1.562286 12.4718578,0.144442113 8.18220202,1.6031775 C3.89254628,3.06191289 0.997237431,7.07719428 0.968,11.608 C0.963988211,12.388157 1.04717106,13.1663191 1.216,13.928 C1.24451212,14.0532553 1.22162799,14.1847126 1.15246681,14.2929649 C1.08330563,14.4012172 0.973639192,14.4772303 0.848,14.504 L0.744,14.5120122 Z" id="Path"></path>
                <path d="M11.608,23.2 C7.99907133,23.2233418 4.58895141,21.5493907 2.4,18.68 C2.29424938,18.5370938 2.27277135,18.3486257 2.34365647,18.1855898 C2.41454159,18.022554 2.56702073,17.9097194 2.74365648,17.8895898 C2.92029222,17.8694602 3.09424939,17.9450938 3.2,18.088 C5.97549298,21.703614 10.745682,23.1497274 15.0616371,21.6839314 C19.3775921,20.2181353 22.2804761,16.1660726 22.28,11.608 C22.2827792,10.832752 22.1968878,10.0597294 22.024,9.304 C21.9839862,9.1367997 22.0362123,8.96095317 22.1610051,8.84270009 C22.285798,8.72444702 22.4641986,8.68175286 22.6290052,8.73070009 C22.7938117,8.77964732 22.9199863,8.9127997 22.96,9.08 C23.1392807,9.91027407 23.2198391,10.7588222 23.2,11.608 C23.1824197,18.0027887 18.0027887,23.1824197 11.608,23.2 L11.608,23.2 Z" id="Path"></path>
                <path d="M2.464,23.2 C2.19890332,23.2 1.984,22.9850967 1.984,22.72 L1.936,17.88 C1.95065337,17.7746546 1.99825794,17.6766452 2.072,17.6 C2.15403302,17.4992786 2.27128387,17.4335037 2.4,17.416 L7.256,17.416 C7.44377371,17.3918091 7.62859444,17.478409 7.73017123,17.6381786 C7.83174803,17.7979482 7.83174803,18.0020518 7.73017123,18.1618214 C7.62859444,18.321591 7.44377371,18.4081909 7.256,18.384 L2.904,18.384 L2.952,22.736 C2.9520358,23.0024214 2.73838562,23.2196324 2.472,23.224 L2.464,23.2 Z" id="Path"></path>
                <path d="M20.8,5.808 L16,5.808 C15.8122263,5.83219093 15.6274056,5.74559095 15.5258288,5.58582136 C15.424252,5.42605177 15.424252,5.22194823 15.5258288,5.06217864 C15.6274056,4.90240905 15.8122263,4.81580907 16,4.84 L20.32,4.84 L20.32,0.48 C20.351357,0.236602443 20.5585909,0.0543538291 20.804,0.0543538291 C21.0494091,0.0543538291 21.256643,0.236602443 21.288,0.48 L21.288,5.32 C21.290145,5.44868433 21.2405223,5.57283953 21.1502713,5.66459471 C21.0600203,5.7563499 20.9367022,5.80801788 20.808,5.808 L20.8,5.808 Z" id="Path"></path>
                <path d="M14.032,9.192 L13.064,9.192 L13.064,7.256 C13.0075344,6.49580849 12.3742857,5.90785175 11.612,5.90785175 C10.8497143,5.90785175 10.2164656,6.49580849 10.16,7.256 L10.16,9.192 L9.192,9.192 L9.192,7.256 C9.192,5.9305166 10.2665166,4.856 11.592,4.856 C12.9174834,4.856 13.992,5.9305166 13.992,7.256 L14.032,9.192 Z" id="Path"></path>
            </g>
        </g>
    </g>
</svg>