<?xml version="1.0" encoding="UTF-8"?>
<svg width="48px" height="36px" viewBox="0 0 48 36" version="1.1" xmlns="http://www.w3.org/2000/svg" xmlns:xlink="http://www.w3.org/1999/xlink">
    <title>medicamento</title>
    <g id="Welcome" stroke="none" stroke-width="1" fill="none" fill-rule="evenodd">
        <g id="Desktop-HD" transform="translate(-492.000000, -232.000000)" stroke="#262626" stroke-width="2">
            <g id="medicamento" transform="translate(493.000000, 233.000000)">
                <path d="M43.4107458,1.97527119 C42.2147458,0.649847458 40.7294915,0.000389830508 38.9853898,0.000389830508 L16.4578644,0.000389830508 L11.8313559,0.000389830508 C10.0724407,0.000389830508 8.54586441,0.649847458 7.22044068,1.97527119 L1.97488136,7.24110169 C0.649457627,8.54625424 0,9.98005085 0,11.5066271 L0,22.6830678 C0,24.446661 0.649457627,25.9677797 1.97488136,27.2939831 L6.56552542,31.9048983 C7.89094915,33.2100508 9.41752542,33.8641864 11.1764407,33.8641864 L16.4578644,33.8641864 L18.9286102,33.8641864 C20.6711525,33.8641864 22.2141017,33.2100508 23.5231525,31.9048983 L43.2509153,12.8265932 C44.576339,11.5066271 45.2265763,9.98005085 45.2265763,8.22113559 L45.2265763,6.58618644 C45.2265763,4.82727119 44.6285763,3.28042373 43.4107458,1.97527119 Z" id="Stroke-1"></path>
                <path d="M22.8411051,12.5067763 L21.2443593,12.5067763 L21.2443593,10.9100305 C21.2443593,9.75535254 20.2986305,8.80962373 19.1431729,8.80962373 L15.9496814,8.80962373 C14.7942237,8.80962373 13.8484949,9.75535254 13.8484949,10.9100305 L13.8484949,12.5067763 L12.2517492,12.5067763 C11.0970712,12.5067763 10.1513424,13.4525051 10.1513424,14.6079627 L10.1513424,17.8014542 C10.1513424,18.9569119 11.0970712,19.901861 12.2517492,19.901861 L13.8484949,19.901861 L13.8484949,21.4993864 C13.8484949,22.6548441 14.7942237,23.6005729 15.9496814,23.6005729 L19.1431729,23.6005729 C20.2986305,23.6005729 21.2443593,22.6548441 21.2443593,21.4993864 L21.2443593,19.901861 L22.8411051,19.901861 C23.9957831,19.901861 24.9415119,18.9569119 24.9415119,17.8014542 L24.9415119,14.6079627 C24.9415119,13.4525051 23.9957831,12.5067763 22.8411051,12.5067763 Z" id="Stroke-3"></path>
            </g>
        </g>
    </g>
</svg>