<?xml version="1.0" encoding="UTF-8"?>
<svg width="20px" height="20px" viewBox="0 0 20 20" version="1.1" xmlns="http://www.w3.org/2000/svg" xmlns:xlink="http://www.w3.org/1999/xlink">
    <!-- Generator: Sketch 58 (84663) - https://sketch.com -->
    <title>phone-support</title>
    <desc>Created with Sketch.</desc>
    <g id="Welcome" stroke="none" stroke-width="1" fill="none" fill-rule="evenodd">
        <g id="Desktop-HD" transform="translate(-421.000000, -49.000000)" fill="#19D866" fill-rule="nonzero">
            <g id="phone-support" transform="translate(421.000000, 49.000000)">
                <path d="M15.2083333,19.208334 C15.7177379,19.2085794 16.2249294,19.1413275 16.7166667,19.0083333 C17.2842973,18.84847 17.7680654,18.4751921 18.0666667,17.9666667 L19.05,16.3416667 C19.3563973,15.8228208 19.2068175,15.1551839 18.7083333,14.8166667 L14.8166667,12.225 C14.3241692,11.9264682 13.6860874,12.0447642 13.3333333,12.5 L12.1666667,13.925 C12.0195618,14.1172403 11.7544166,14.1738046 11.5416667,14.0583333 L11.3333333,13.9416667 C10.0596909,13.2478871 8.91060937,12.3466467 7.93333333,11.275 C6.86455854,10.2982434 5.96365353,9.15240481 5.26666667,7.88333333 L5.15,7.66666667 C5.03452871,7.45391669 5.09109302,7.1887715 5.28333333,7.04166667 L6.73333333,5.90833333 C7.1991569,5.54516649 7.30795468,4.88512663 6.98333333,4.39166667 L4.39166667,0.5 C4.05314939,0.00151585843 3.38551258,-0.148063974 2.86666667,0.158333333 L1.24166667,1.14166667 C0.731441384,1.44223726 0.357945348,1.92927609 0.2,2.5 C-0.391666667,4.625 0.05,8.33333333 5.475,13.7333333 C9.79166667,18.05 13,19.208334 15.2083333,19.208334 Z M0.833333333,2.66666667 C0.94209755,2.25004255 1.20788348,1.8916795 1.575,1.66666667 L3.24166667,0.691666667 C3.4543391,0.582781317 3.71450396,0.64254892 3.85833333,0.833333333 L5.26666667,2.975 L6.45,4.75 C6.59108656,4.96411925 6.54392541,5.25071395 6.34166667,5.40833333 L4.88333333,6.54166667 C4.4398876,6.87836031 4.31506288,7.49178465 4.59166667,7.975 L4.70833333,8.19166667 C5.43358103,9.51804667 6.37737774,10.7125834 7.5,11.725 C8.51375518,12.8416752 9.70821414,13.7797762 11.0333333,14.5 L11.25,14.6166667 C11.7332153,14.8932705 12.3466397,14.7684457 12.6833333,14.325 L13.8166667,12.8666667 C13.9742861,12.6644079 14.2608808,12.6172468 14.475,12.7583333 L18.3333333,15.35 C18.5510739,15.4980594 18.6166737,15.7896141 18.4833333,16.0166667 L17.5083333,17.6833333 C17.288871,18.0501916 16.9368333,18.3186949 16.525,18.4333333 C14.5583333,18.975 11.1166667,18.5333333 5.90833333,13.325 C0.7,8.11666667 0.275,4.63333333 0.833333333,2.66666667 Z" id="Shape"></path>
                <path d="M10.8833333,3.2 C13.88678,3.20458893 16.3204111,5.63822 16.325,8.64166667 C16.3044717,8.76862998 16.3607452,8.89575608 16.4685332,8.96591903 C16.5763212,9.03608199 16.7153455,9.03608199 16.8231335,8.96591903 C16.9309215,8.89575608 16.987195,8.76862998 16.9666667,8.64166667 C16.9620763,5.28383766 14.2411623,2.56292367 10.8833333,2.55833333 C10.7071034,2.56285353 10.5666666,2.70704543 10.5666666,2.88333333 C10.5666666,2.96731856 10.6000297,3.04786396 10.6594162,3.10725048 C10.7188027,3.166637 10.7993481,3.2 10.8833333,3.2 L10.8833333,3.2 Z" id="Path"></path>
                <path d="M10.8833333,5.125 C12.8249972,5.12955783 14.3991799,6.70001902 14.4083333,8.64166667 C14.4060847,8.72708628 14.4384523,8.80978926 14.4980843,8.87099052 C14.5577163,8.93219177 14.6395508,8.96666669 14.725,8.96666669 C14.9044925,8.96666669 15.05,8.82115921 15.05,8.64166667 C15.05,6.34048021 13.1845198,4.475 10.8833333,4.475 C10.7259089,4.50045348 10.6102079,4.63636443 10.6102079,4.79583333 C10.6102079,4.95530224 10.7259089,5.09121318 10.8833333,5.11666667 L10.8833333,5.125 Z" id="Path"></path>
                <path d="M10.8833333,7.04166667 C11.3105601,7.03721615 11.7218211,7.20382031 12.0254937,7.50436225 C12.3291663,7.80490419 12.5000232,8.21441675 12.5,8.64166667 C12.4794717,8.76862998 12.5357452,8.89575608 12.6435332,8.96591903 C12.7513212,9.03608199 12.8903455,9.03608199 12.9981335,8.96591903 C13.1059215,8.89575608 13.162195,8.76862998 13.1416667,8.64166667 C13.1370968,7.40552621 12.1361405,6.40456988 10.9,6.4 C10.72377,6.40452019 10.5832754,6.5487121 10.583333,6.725 C10.5830997,6.89358292 10.7149839,7.03279404 10.8833333,7.04166667 L10.8833333,7.04166667 Z" id="Path"></path>
            </g>
        </g>
    </g>
</svg>