<svg xmlns="http://www.w3.org/2000/svg" viewBox="0 0 83.58 99.92"><defs><style>.cls-1{fill:#262626;}</style></defs><g id="Layer_2" data-name="Layer 2"><g id="Camada_1" data-name="Camada 1"><path class="cls-1" d="M64.25,65.35a3,3,0,0,0-3,3V77.6H6V11.16A5.18,5.18,0,0,1,11.16,6H56.08a5.18,5.18,0,0,1,5.18,5.18V23.41a3,3,0,1,0,6,0V11.16A11.17,11.17,0,0,0,56.08,0H11.16A11.18,11.18,0,0,0,0,11.16v77.6A11.18,11.18,0,0,0,11.16,99.92H56.08A11.17,11.17,0,0,0,67.24,88.76V68.34A3,3,0,0,0,64.25,65.35ZM56.08,93.94H11.16A5.19,5.19,0,0,1,6,88.76V83.58H61.26v5.18A5.19,5.19,0,0,1,56.08,93.94Z"/><path class="cls-1" d="M54.1,29.64a3,3,0,0,0-4.2-4.24l-8.17,8.16a3,3,0,0,0,0,4.24L49.9,46A3,3,0,0,0,55,43.79a2.87,2.87,0,0,0-.89-2.06l-3.05-3.08H80.59a3,3,0,0,0,3-3,3,3,0,0,0-3-3H51.06Z"/><path class="cls-1" d="M82.69,54l-8.17-8.16a3,3,0,1,0-4.2,4.24l3,3H43.83a3,3,0,0,0-3,3,3,3,0,0,0,3,3H73.37l-3.05,3.08a2.9,2.9,0,0,0-.68,3.18,2.71,2.71,0,0,0,.68,1.06,3,3,0,0,0,4.2,0l8.17-8.17A3,3,0,0,0,82.69,54Z"/></g></g></svg>