<svg xmlns="http://www.w3.org/2000/svg" viewBox="0 0 42.99 43"><defs><style>.cls-1{fill:#1b2e3b;}</style></defs><g id="Layer_2" data-name="Layer 2"><g id="Camada_1" data-name="Camada 1"><g id="_8T0dnU" data-name="8T0dnU"><path class="cls-1" d="M6.13,18.41V15.34c-.65,0-1.25,0-1.85,0A4.53,4.53,0,0,1,0,10.94Q0,7.64,0,4.35A4.52,4.52,0,0,1,4.33,0c2.27,0,4.54,0,6.81,0a4.44,4.44,0,0,1,4.15,4q.15,3.66,0,7.32a4.45,4.45,0,0,1-4,4c-.67.06-1.36,0-2.12,0v3.09H6.13ZM7.71,3.09h-3A1.45,1.45,0,0,0,3.09,4.69c0,2,0,4,0,6A1.51,1.51,0,0,0,4.71,12.3h5.91a1.53,1.53,0,0,0,1.67-1.67c0-2,0-3.91,0-5.86a1.52,1.52,0,0,0-1.67-1.67Z"/><path class="cls-1" d="M36.91,18.37H33.78v-3c-.48,0-.92,0-1.35,0a4.61,4.61,0,0,1-4.7-3.74,4.83,4.83,0,0,1-.09-1c0-2,0-3.94,0-5.91A4.55,4.55,0,0,1,32.22,0c2.13,0,4.27,0,6.41,0A4.51,4.51,0,0,1,43,4.36c0,2.26,0,4.52,0,6.77a4.54,4.54,0,0,1-4,4.19c-.66,0-1.33,0-2,0v3.06ZM35.32,3.1h-3A1.53,1.53,0,0,0,30.7,4.76c0,2,0,3.91,0,5.86a1.53,1.53,0,0,0,1.67,1.67h5.86a1.52,1.52,0,0,0,1.68-1.61c0-2,0-4,0-6A1.45,1.45,0,0,0,38.32,3.1C37.32,3.09,36.32,3.1,35.32,3.1Z"/><path class="cls-1" d="M0,35.33c0-1,0-2.09,0-3.13a4.57,4.57,0,0,1,4.59-4.55q3,0,6.09,0a4.54,4.54,0,0,1,4.64,4.59c.08,2.16.05,4.33,0,6.5A4.47,4.47,0,0,1,11,43Q7.64,43,4.32,43A4.55,4.55,0,0,1,0,38.7c0-1.12,0-2.25,0-3.37Zm3.06,0h0c0,1,0,1.94,0,2.91a1.49,1.49,0,0,0,1.65,1.67c2,0,3.91,0,5.86,0a1.54,1.54,0,0,0,1.69-1.7q0-2.91,0-5.82a1.55,1.55,0,0,0-1.69-1.7H4.78a1.53,1.53,0,0,0-1.7,1.68C3.07,33.37,3.08,34.36,3.08,35.34Z"/><path class="cls-1" d="M15.39,27.61v-3h3v-3h3.09v3H27.6v3Z"/><path class="cls-1" d="M27.62,21.49h-3v-3h-9.2v-3H27.62Z"/><path class="cls-1" d="M21.5,9.23H18.45V6.16h3v-3h3.07v9.14H21.5Z"/><path class="cls-1" d="M21.47,39.91h-3V30.74h3Z"/><path class="cls-1" d="M36.87,24.6h3.05c0,1,0,1.91,0,2.86,0,.06-.21.18-.32.19-.73,0-1.46,0-2.18,0h-.53v3h-3.1v-3h3.1V24.59Z"/><path class="cls-1" d="M9.21,18.41h3.06V21.5h-3V18.4Z"/><path class="cls-1" d="M9.21,21.5v3.05H6.13V21.5H9.21Z"/><path class="cls-1" d="M33.78,24.61V21.53h3.11l0,3.08h-3.1Z"/><path class="cls-1" d="M33.82,36.92v-3.1h3v3.07h0l-3.07,0Z"/><path class="cls-1" d="M36.9,18.38h3v3.14h-3c0-1.05,0-2.1,0-3.16Z"/><path class="cls-1" d="M33.78,27.69l-2.53,0h-.52v-3h3.05V27.7Z"/><path class="cls-1" d="M33.8,36.91v3H30.64v-3h0c.5,0,1-.05,1.52-.05s1.1,0,1.65.05Z"/><path class="cls-1" d="M36.86,36.89h3v3h-3v-3Z"/><path class="cls-1" d="M6.13,21.5h-3V18.41h3v3.11Z"/><path class="cls-1" d="M30.64,36.92l-2.26-.06h-.71v-3h3v3.1Z"/><path class="cls-1" d="M9.19,6.18v3h-3v-3Z"/><path class="cls-1" d="M36.82,9.21h-3v-3h3Z"/><path class="cls-1" d="M9.18,36.84h-3v-3h3Z"/></g></g></g></svg>