<?xml version="1.0" encoding="UTF-8"?>
<svg width="16px" height="16px" viewBox="0 0 16 16" version="1.1" xmlns="http://www.w3.org/2000/svg" xmlns:xlink="http://www.w3.org/1999/xlink">
    <!-- Generator: Sketch 58 (84663) - https://sketch.com -->
    <title>search</title>
    <desc>Created with Sketch.</desc>
    <defs>
        <polygon id="path-1" points="0 0 16 0 16 15.9996235 0 15.9996235"></polygon>
    </defs>
    <g id="Welcome" stroke="none" stroke-width="1" fill="none" fill-rule="evenodd">
        <g id="Desktop-HD" transform="translate(-712.000000, -504.000000)">
            <g id="search" transform="translate(712.000000, 504.000000)">
                <mask id="mask-2" fill="white">
                    <use xlink:href="#path-1"></use>
                </mask>
                <g id="Clip-2"></g>
                <path d="M6,11.0000941 C3.24329412,11.0000941 1.00047059,8.75727059 1.00047059,6.00056471 C1.00047059,3.24291765 3.24329412,1.00009412 6,1.00009412 C8.75670588,1.00009412 10.9995294,3.24291765 10.9995294,6.00056471 C10.9995294,8.75727059 8.75670588,11.0000941 6,11.0000941 L6,11.0000941 Z M16,15.2928 L10.5769412,9.87068235 C11.4635294,8.82409412 12,7.47444706 12,6.00056471 C12,2.69138824 9.30917647,-0.000376470588 6,-0.000376470588 C2.69082353,-0.000376470588 0,2.69138824 0,6.00056471 C0,9.3088 2.69082353,11.9996235 6,11.9996235 C7.47388235,11.9996235 8.82447059,11.4631529 9.87011765,10.5775059 L15.2931765,15.9996235 L16,15.2928 Z" id="Fill-1" fill="#9B9B9B" mask="url(#mask-2)"></path>
            </g>
        </g>
    </g>
</svg>