<svg xmlns="http://www.w3.org/2000/svg" width="58" height="40" stroke="#000" fill="none" stroke-width="2" xmlns:v="https://vecta.io/nano"><path d="M35.47 16.65l-1.124-1.086c-.282-.305-.68-.476-1.093-.473h-2.63c-.387.01-.752.182-1.008.473l-.256.248-.256-.248a1.38 1.38 0 0 0-1.008-.473h-2.652c-.415-.003-.812.17-1.093.473l-1.093 1.086a1.55 1.55 0 0 0-.465 1.093v1.87c-.002.413.166.81.465 1.093l4.52 4.653a1.55 1.55 0 0 0 1.093.465h.977a1.55 1.55 0 0 0 1.093-.465l4.53-4.653a1.55 1.55 0 0 0 .465-1.093v-1.87a1.55 1.55 0 0 0-.465-1.093z"/><path d="M54.5 3.505c-.97-1.125-2.392-1.758-3.878-1.73H26.887c-1.528-.01-2.992.617-4.04 1.73l-4.59 4.607a5.18 5.18 0 0 0-1.745 3.746v9.77a5.5 5.5 0 0 0 1.73 4.04l4.033 4.025a5.56 5.56 0 0 0 4.04 1.722h6.786a5.52 5.52 0 0 0 4.017-1.722l17.27-16.69c1.113-1.045 1.74-2.506 1.73-4.033V7.538a5.71 5.71 0 0 0-1.606-4.033z"/><path d="M3.365 10.492a5.01 5.01 0 0 1 3.839-1.737h23.808a5.49 5.49 0 0 1 4.033 1.73l4.59 4.607c1.07.955 1.697 2.31 1.73 3.746v9.78a5.5 5.5 0 0 1-1.73 4.04l-4.017 4.017c-1.05 1.104-2.51 1.726-4.033 1.722H24.8a5.53 5.53 0 0 1-4.025-1.722l-17.27-16.68a5.49 5.49 0 0 1-1.729-4.033v-1.435a5.74 5.74 0 0 1 1.59-4.033z"/></svg>