<svg xmlns="http://www.w3.org/2000/svg" xmlns:xlink="http://www.w3.org/1999/xlink" width="30" height="30" xmlns:v="https://vecta.io/nano"><defs><path id="A" d="M.473.356h29.2v29.21H.473z"/></defs><g fill-rule="evenodd"><mask id="B" fill="#fff"><use xlink:href="#A"/></mask><path d="M8.958 2.638a6.21 6.21 0 0 0-6.203 6.203v12.24c0 3.42 2.782 6.204 6.203 6.204h12.24c3.42 0 6.203-2.784 6.203-6.204V8.84a6.21 6.21 0 0 0-6.203-6.203H8.958zm12.24 26.928H8.958c-4.68 0-8.485-3.806-8.485-8.485V8.84A8.5 8.5 0 0 1 8.958.356h12.24a8.5 8.5 0 0 1 8.485 8.485v12.24c0 4.68-3.807 8.485-8.485 8.485h0zM15.078 9.37a5.6 5.6 0 0 0-5.591 5.591 5.6 5.6 0 0 0 5.591 5.591 5.6 5.6 0 0 0 5.591-5.591 5.6 5.6 0 0 0-5.591-5.591m0 13.464c-4.34 0-7.873-3.532-7.873-7.873s3.532-7.873 7.873-7.873 7.873 3.532 7.873 7.873-3.532 7.873-7.873 7.873m7.987-17a1.141 1.141 0 1 1 0 2.282 1.141 1.141 0 1 1 0-2.282" mask="url(#B)" fill="#00FF7D"/></g></svg>