<?xml version="1.0" encoding="UTF-8"?>
<svg width="16px" height="30px" viewBox="0 0 16 30" version="1.1" xmlns="http://www.w3.org/2000/svg" xmlns:xlink="http://www.w3.org/1999/xlink">
    <!-- Generator: Sketch 58 (84663) - https://sketch.com -->
    <title>social-facebook</title>
    <desc>Created with Sketch.</desc>
    <defs>
        <polygon id="path-1" points="7.69230769e-05 0.694 15.8439231 0.694 15.8439231 30 7.69230769e-05 30"></polygon>
    </defs>
    <g id="Welcome" stroke="none" stroke-width="1" fill="none" fill-rule="evenodd">
        <g id="Desktop-HD" transform="translate(-226.000000, -39.000000)">
            <g id="social-facebook" transform="translate(226.000000, 39.000000)">
                <mask id="mask-2" fill="white">
                    <use xlink:href="#path-1"></use>
                </mask>
                <g id="Clip-2"></g>
                <path d="M15.2485385,0.699384615 L11.4477692,0.694 C7.17853846,0.694 4.41853846,3.52553846 4.41853846,7.90630769 L4.41853846,11.2316923 L0.597,11.2316923 C0.267769231,11.2316923 7.69230769e-05,11.4986154 7.69230769e-05,11.8293846 L7.69230769e-05,16.6478462 C7.69230769e-05,16.9770769 0.267769231,17.2447692 0.597,17.2447692 L4.41853846,17.2447692 L4.41853846,29.4024615 C4.41853846,29.7316923 4.68623077,30.0001538 5.017,30.0001538 L10.0008462,30.0001538 C10.3308462,30.0001538 10.5993077,29.7316923 10.5993077,29.4024615 L10.5993077,17.2447692 L15.067,17.2447692 C15.397,17.2447692 15.6639231,16.9770769 15.6639231,16.6478462 L15.667,11.8293846 C15.667,11.6716923 15.6023846,11.5193846 15.4908462,11.4063077 C15.3793077,11.294 15.2277692,11.2316923 15.0685385,11.2316923 L10.5993077,11.2316923 L10.5993077,8.41246154 C10.5993077,7.05784615 10.9223846,6.37015385 12.6862308,6.37015385 L15.247,6.36861538 C15.5777692,6.36861538 15.8439231,6.10015385 15.8439231,5.77169231 L15.8439231,1.29784615 C15.8439231,0.967846154 15.5777692,0.700923077 15.2485385,0.699384615" id="Fill-1" fill="#00FF7D" mask="url(#mask-2)"></path>
            </g>
        </g>
    </g>
</svg>