<?xml version="1.0" encoding="UTF-8"?>
<svg width="51px" height="40px" viewBox="0 0 51 40" version="1.1" xmlns="http://www.w3.org/2000/svg" xmlns:xlink="http://www.w3.org/1999/xlink">
    <!-- Generator: Sketch 58 (84663) - https://sketch.com -->
    <title>wing</title>
    <desc>Created with Sketch.</desc>
    <g id="Welcome" stroke="none" stroke-width="1" fill="none" fill-rule="evenodd">
        <g id="Desktop-HD" transform="translate(-497.000000, -384.000000)" stroke="#000000" stroke-width="2">
            <g id="wing" transform="translate(498.000000, 385.000000)">
                <path d="M46.55,3.0685 C45.360584,1.69097483 43.6196225,0.91450601 41.8,0.95 L12.692,0.95 C10.8196356,0.938570779 9.02677278,1.70595736 7.7425,3.0685 L2.1185,8.7115 C0.807476616,9.88170204 0.0403901164,11.5431495 -0.00015224689,13.3 L-0.00015224689,25.27 C-0.0125804514,27.1425966 0.75499466,28.9358999 2.1185,30.2195 L7.0395,35.15 C8.3300408,36.5023853 10.119667,37.2649515 11.989,37.2590351 L20.3015,37.2590351 C22.1625428,37.2649955 23.9433637,36.5017865 25.2225,35.15 L46.379,14.706 C47.742005,13.4260031 48.5097413,11.6357659 48.4975,9.766 L48.4975,8.0085 C48.5231921,6.16980647 47.8235117,4.39500743 46.55,3.0685 Z" id="Path"></path>
            </g>
        </g>
    </g>
</svg>