<svg version="1" xmlns="http://www.w3.org/2000/svg" width="1408" height="1408" viewBox="0 0 1056.000000 1056.000000"><path d="M258.6 133.8c-.4.4-2.1.8-3.7.8-1.6.1-3 .2-3.1.4-.2.1-1.4.3-2.8.5-5.1.7-12.6 2.6-16.2 4-2.1.8-3.8 1.2-3.8.9 0-.4-.6-.2-1.2.3-.7.5-3.5 1.8-6.3 2.7-10.5 3.8-29.3 14.6-38.5 22.1-2.8 2.3-147.6 147.4-150.9 151.2-4.3 4.9-11.9 16.3-15.8 23.4-2.9 5.3-10.1 22.6-10.8 25.9-.2.8-1 4.4-1.9 8-.8 3.6-1.9 8.8-2.3 11.5-1 6.5-1 293.6 0 299.5.5 2.5 1.3 6.3 1.9 8.5.5 2.2 1.1 4.9 1.3 6 .3 2.9 6.5 20.8 7.6 22 .5.5.9 1.7.9 2.7 0 1 .5 1.8 1 1.8.6 0 1 .7 1 1.5 0 .9 1.7 4.4 3.8 7.8 2.1 3.5 4.1 7.1 4.5 8 .3.9 1.1 1.7 1.7 1.7.6 0 .8.4.5 1-.3.5-.2 1 .2 1 .5 0 1.6 1.2 2.5 2.8.9 1.5 3.1 4.5 5 6.7 4.2 5.1 113.4 115.1 130.8 131.7 1.6 1.6 3.3 2.8 3.9 2.8.6 0 1.1.4 1.1.8 0 1.2 17.4 12.5 25.7 16.6 12 6 28.9 11.7 39 13.1 2.1.3 5.6.9 7.8 1.3 4.6.8 211.4 1 219 .2 2.8-.3 5.5-.8 6-1.1.6-.3 2.6-.6 4.5-.8 1.9-.2 4.3-.7 5.3-1.3 1-.5 2.1-.7 2.4-.4.3.3 1.4.1 2.5-.5s2.9-1.3 4.1-1.5c3.1-.7 3.9-1 7-2.2 1.6-.7 3-1.2 3.2-1.2.3 0 2.8-1.1 5.7-2.4 2.9-1.2 6-2.6 6.8-2.9 2.8-1 19-11.2 23.6-14.7 4.3-3.3 16.7-14.9 38.5-36 5.4-5.2 18.8-18.3 29.9-29 11.1-10.7 24.6-23.8 30-29 8.8-8.5 17.9-17.3 66.2-64 7.1-6.9 17.4-16.8 22.8-22 11.5-11.1 52.1-50.4 62.5-60.5 4-3.9 16.6-16 28-27 11.4-11 25.1-24.3 30.5-29.5 5.3-5.2 19.1-18.6 30.6-29.7 11.5-11.1 25-24.1 30-29 5-4.8 18.7-18 30.4-29.3s25.9-25 31.5-30.5c5.7-5.5 19-18.3 29.5-28.5 10.6-10.2 19.7-19 20.4-19.6 2.8-2.7 12.7-14.2 15-17.4 3.4-4.8 12.7-20.2 12.9-21.5.1-.5.6-1.3 1-1.6.5-.3 1-1.2 1.1-2 .2-.8 1.2-3.4 2.3-5.9 2.2-5.1 5.1-13.5 5.8-17 .2-1.3.9-3.7 1.5-5.4 3.1-9.5 3.9-22.4 3.5-57.1-.2-30.1-.7-42-1.5-42-.1 0-.4-1.8-.6-4-.3-2.2-1.2-5.9-1.9-8.3-.8-2.3-1.5-4.9-1.5-5.7 0-.7-.5-2.6-1.2-4.2-.6-1.5-1.2-3.5-1.4-4.3-.2-.9-1.1-3.4-2-5.5-1-2.2-1.8-4.2-1.9-4.5-1.2-4-13.1-24.7-16.5-28.7-.8-1-2.6-3.4-4-5.3s-3.2-4.2-4-5.1c-10.8-11.5-17.6-18.2-21.1-21-2.4-1.9-4.6-3.7-4.9-4-3.2-3.7-31.4-18.9-35.1-18.9-.8 0-1.9-.4-2.5-.9-.5-.5-2.2-1.2-3.9-1.5-1.6-.2-4.6-1-6.5-1.6-1.9-.6-4.8-1.3-6.5-1.5-1.6-.3-4.6-.9-6.5-1.2-4.7-1-672.5-1.5-673.4-.5z"/></svg>